<?xml version="1.0" encoding="utf-8"?>
<!-- Generator: Adobe Illustrator 27.5.0, SVG Export Plug-In . SVG Version: 6.00 Build 0)  -->
<svg version="1.1" xmlns="http://www.w3.org/2000/svg" xmlns:xlink="http://www.w3.org/1999/xlink" x="0px" y="0px"
	 viewBox="0 0 750 500" style="enable-background:new 0 0 750 500;" xml:space="preserve">
<g id="BACKGROUND">
	<rect x="0.61" y="0.702" style="fill:#E8F2FC;" width="750" height="500"/>
</g>
<g id="OBJECTS">
	<g>
		<path style="fill:#6BD0E8;" d="M611.865,258.866c-21.635-8.092-41.024-13.674-58.548-29.906
			c-31.984-29.624-34.567-72.089-54.478-108.39c-18.61-33.928-49.964-56.686-88.666-63.824
			c-63.188-11.655-118.153,18.795-150.734,70.53c-12.667,20.114-26.836,40.604-52.078,47.334
			c-40.748,10.865-83.057,18.78-113.1,49.488c-35.382,36.165-44.697,91.82-26.05,137.558c10.496,25.746,38.403,56.191,68.17,70.234
			h480.562C694.295,398.373,689.707,287.98,611.865,258.866z"/>
		<path style="fill:#005272;" d="M544.582,200.449c-0.751-3.308-3.975-5.594-7.298-6.279c-3.323-0.685-6.76-0.085-10.099,0.516
			c-11.493,2.067-43.166,23.715-34.479,6.202c6.654-12.233,13.309-24.466,19.963-36.699c2.118-3.894,4.297-8.029,4.148-12.459
			c-0.148-4.43-3.601-9.074-8.026-8.818c-5.215,0.302-7.748,6.382-9.09,11.431c-2.13,8.01-13.482,30.06-20.176,40.674
			c-3.186,5.051-8.783-6.85-10.506-13.025c-1.724-6.175-1.194-12.838-3.169-18.937c-1.101-3.399-3.123-6.691-6.293-8.338
			c-3.17-1.648-7.602-1.136-9.647,1.794c-3.037,4.351,0.526,10.095,3.632,14.397c7.96,11.023,13.594,23.719,16.426,37.017
			c1.728,8.114,1.155,18.742-6.512,21.91c-7.16,2.958-15.129-3.499-17.707-10.805c-2.578-7.306-1.797-15.342-3.209-22.96
			c-0.672-3.628-1.934-7.307-4.568-9.889c-2.635-2.583-6.915-3.752-10.133-1.947c-5.629,3.158-4.117,11.548-1.838,17.587
			c7.529,19.954,14.748,40.059,22.597,59.89c1.082,2.733,2.889,4.645,3.09,7.682c0.552,8.363-0.406,16.994-2.271,25.144
			c2.019,0.768,4.038,1.536,6.057,2.304l1.227,2.108c0.494-9.331,1.199-19.271,6.796-26.753c2.492-3.331,5.874-5.99,9.699-7.624
			c5.918-2.529,12.57-2.556,19.002-2.355c6.432,0.201,13.005,0.575,19.178-1.246c6.173-1.82,10.517-6.91,12.066-13.156
			c0.967-3.901-3.192-7.502-7.206-7.684c-4.015-0.181-7.737,1.878-11.354,3.629c-3.617,1.751-7.767,3.268-11.574,1.98
			c-4.644-1.571-7.109-7.081-6.432-11.936c0.677-4.855,3.835-9.033,7.485-12.306c7.574-6.794,17.758-10.601,27.932-10.44
			c4.809,0.076,9.718,0.99,14.365-0.247C541.306,209.571,545.646,205.139,544.582,200.449z"/>
		<path style="fill:#005272;" d="M214.063,367.123c0.538-22.755,13.15-38.98,25.292-52.267c2.288-2.503,4.721-5.129,5.449-8.412
			c0.728-3.283-1.063-7.345-4.436-7.786c-3.03-0.396-5.65,2.172-7.143,4.815c-2.397,4.244-3.285,9.114-4.621,13.782
			c-1.336,4.669-3.32,9.442-7.206,12.436c-3.886,2.993-10.13,3.453-13.376-0.155c-2.528-2.81-2.515-7.17-1.069-10.67
			c1.445-3.501,4.072-6.38,6.501-9.311c12.313-14.863,20.567-32.945,23.659-51.833c0.483-2.951,0.827-6.065-0.263-8.842
			c-1.09-2.777-4.063-5.046-7.024-4.383c-3.759,0.841-5.113,5.347-5.769,9.086c-1.435,8.172-2.869,16.344-4.304,24.516
			c-0.857,4.881-1.776,9.92-4.552,14.065c-1.945,2.902-5.68,5.755-9.338,6.185c-3.407,0.399-5.803-1.355-7.13-4.416
			c-4.348-10.024-4.523-22.689-4.722-33.438c-0.223-12.021,0.535-24.03,0.868-36.042c0.093-3.338,0.161-6.806-1.219-9.844
			c-1.38-3.038-4.661-5.503-7.99-4.851c-2.9,0.568-4.958,3.321-5.587,6.167s-0.119,5.793,0.393,8.652
			c1.556,8.701,3.113,17.401,4.669,26.102c1.021,5.709,1.234,13.109-4.071,15.68c-3.681,1.784-8.158-0.002-11.23-2.637
			c-3.071-2.635-5.38-6.083-8.647-8.48c-3.266-2.397-8.148-3.48-11.333-0.93c-3.954,3.165-2.531,9.8,1.25,13.106
			c3.781,3.306,8.984,4.398,13.729,6.136c10.432,3.82,19.398,11.337,24.886,20.864c1.864,3.236,3.367,6.846,3.157,10.575
			c-0.209,3.729-2.518,7.557-6.162,8.613c-5.133,1.488-9.93-2.694-13.79-6.297c-3.86-3.603-9.542-7.135-14.133-4.415
			c-5.283,3.13-3.264,11.732,1.796,15.124c5.06,3.391,11.586,3.582,17.498,5.181c9.538,2.58,17.838,9.221,22.346,17.88
			c4.508,8.659,5.158,19.208,1.75,28.402c0.228-0.987,6.541,2.515,6.768,1.528L214.063,367.123z"/>
		<g>
			<path style="fill:#0089CA;" d="M590.574,400.262c-1.389-1.186-2.76-2.503-3.417-4.207c-0.657-1.704-0.401-3.888,1.05-4.998
				c1.121-0.858,2.698-0.898,4.049-0.486c1.351,0.412,2.542,1.214,3.751,1.944c7.004,4.235,15.291,6.285,23.462,5.9
				c2.3-7.007,2.76-14.655,1.904-21.959c-10.179,1.011-20.649-0.961-29.732-5.673c-1.862-0.966-3.734-2.106-4.863-3.874
				c-1.128-1.768-1.283-4.319,0.172-5.83c1.114-1.158,2.894-1.446,4.479-1.181c1.585,0.265,3.044,1.001,4.518,1.641
				c7.36,3.198,15.681,4.101,23.571,2.664c-0.604-3.751-1.172-7.491-1.542-11.213c-4.498-0.134-8.974-1.034-13.161-2.683
				c-1.171-0.462-2.356-1.005-3.202-1.938c-0.846-0.932-1.276-2.347-0.733-3.484c0.787-1.649,2.995-1.886,4.822-1.896
				c3.964-0.022,7.928-0.043,11.892-0.065c0.245-6.796,1.69-13.503,5.406-20.068c-10.285-0.989-20.642-1.975-30.953-1.857
				c-0.28,0.841-0.488,1.71-0.638,2.58c-0.377,2.179-0.448,4.4-0.745,6.591c-0.142,1.047-0.414,2.209-1.309,2.77
				c-1.043,0.654-2.51,0.123-3.245-0.864c-0.735-0.987-0.898-2.282-0.921-3.513c-0.046-2.515,0.405-5.036,1.299-7.387
				c-2.758,0.148-5.511,0.389-8.258,0.745c-2.797,0.363-5.593,0.858-8.359,1.493c-0.248,4.257,0.394,8.566,1.917,12.55
				c0.674,1.763,1.524,3.504,1.677,5.385c0.152,1.881-0.603,4-2.324,4.774c-1.702,0.764-3.785-0.063-5.012-1.468
				c-1.227-1.405-1.783-3.26-2.254-5.065c-1.174-4.499-2.029-9.08-2.564-13.699c-5.475,1.929-10.686,4.499-15.39,7.785
				c1.626,8.03,5.345,15.637,10.738,21.808c1.351,1.546,2.819,3.027,3.781,4.841c0.962,1.813,1.351,4.075,0.432,5.911
				c-1.591,3.18-6.361,3.454-9.3,1.453c-2.939-2.001-4.482-5.446-5.882-8.714c-2.62-6.113-5.239-12.226-7.859-18.339
				c-8.444,9.022-13.252,22.874-12.152,35.441c5.108,2.809,12.102,2.562,17.005,6.058c1.045,0.745,1.993,1.678,2.53,2.844
				c0.536,1.166,0.61,2.591-0.023,3.708c-1.098,1.937-3.724,2.272-5.949,2.177c-3.288-0.141-6.555-0.737-9.684-1.756
				c5.803,9.696,17.637,14.607,28.953,11.205c0.472-0.142,0.934-0.299,1.391-0.466c0.788,10.604,8.358,19.882,19.212,22.4
				c-2.172-2.589-4.165-5.328-5.902-8.227c-0.855-1.426-1.671-2.935-1.858-4.588c-0.187-1.652,0.39-3.492,1.802-4.371
				c1.864-1.161,4.426-0.214,5.892,1.42c1.466,1.635,2.171,3.79,3.106,5.777c2.021,4.294,5.316,7.953,9.31,10.512
				c7.924-1.136,15.192-5.11,20.631-11.313C604.202,409.404,596.778,405.558,590.574,400.262z M579.765,389.056
				c-1.441,0.878-3.329,0.023-4.586-1.104c-1.241-1.113-2.382-2.7-2.228-4.453c0.279-3.184,3.366-1.995,5.164-0.885
				c1.24,0.766,2.406,1.704,2.742,3.192C581.123,386.979,580.86,388.389,579.765,389.056z"/>
			<path style="fill:#005272;" d="M557.87,419.987c-0.681-18.215,3.616-36.305,12.429-52.313
				c8.102-14.718,22.051-28.465,39.276-38.71l0.535,0.9c-17.068,10.15-30.881,23.757-38.896,38.313
				c-8.72,15.843-12.973,33.744-12.298,51.77L557.87,419.987z"/>
			<path style="fill:#005272;" d="M610.031,358.982c-9.099,0-18.108-3.259-25.077-9.142l0.676-0.801
				c7.459,6.299,17.331,9.505,27.061,8.799l0.076,1.045C611.854,358.948,610.942,358.982,610.031,358.982z"/>
			<path style="fill:#005272;" d="M583.316,350.511c-3.887-7.018-6.191-14.962-6.666-22.973l1.045-0.063
				c0.465,7.857,2.726,15.646,6.537,22.527L583.316,350.511z"/>
			<path style="fill:#005272;" d="M571.919,365.486c-7.584-7.493-13.546-16.741-17.241-26.743l0.982-0.363
				c3.643,9.859,9.52,18.976,16.995,26.362L571.919,365.486z"/>
			<path style="fill:#005272;" d="M609.083,387.487c-14.599-2.352-28.334-9.469-38.678-20.039l0.748-0.732
				c10.188,10.412,23.717,17.422,38.096,19.738L609.083,387.487z"/>
			<path style="fill:#005272;" d="M591.826,410.18c-1.136-0.908-2.298-1.828-3.477-2.761c-8.58-6.785-18.305-14.477-24.931-23.589
				l0.846-0.615c6.542,8.996,16.207,16.64,24.734,23.383c1.181,0.935,2.345,1.854,3.482,2.764L591.826,410.18z"/>
			<path style="fill:#005272;" d="M563.714,384.03c-9.514-2.387-18.049-8.728-25.368-18.849l0.848-0.613
				c7.172,9.915,15.507,16.122,24.774,18.446L563.714,384.03z"/>
		</g>
		<g>
			<g>
				<path style="fill:#0089CA;" d="M203.664,379.723c-4.751,1.159-9.702,1.11-14.592,1.054c-2.753-0.031-5.632-0.094-8.051-1.408
					c-2.419-1.315-4.165-4.312-3.128-6.863c0.867-2.135,3.342-3.215,5.645-3.282c2.303-0.068,4.546,0.648,6.812,1.066
					c6.616,1.218,13.643-0.297,19.293-3.925c0.379-4.662-0.315-9.48-2.25-14.091c-2.167-5.165-5.045-9.794-8.459-13.95
					c-3.292,9.394-10.612,17.38-19.826,21.205c-2.493,1.035-5.236,1.789-7.876,1.229c-2.64-0.56-5.081-2.777-5.115-5.475
					c-0.031-2.4,1.785-4.478,3.875-5.659c2.089-1.181,4.478-1.701,6.714-2.571c7.158-2.785,12.486-9.555,13.956-17.052
					c-8.037-6.698-17.784-11.637-28.249-15.039c4.022,8.331,4.044,18.589-0.256,26.813c-0.729,1.393-1.594,2.758-2.833,3.726
					c-1.239,0.969-2.914,1.49-4.419,1.034c-2.422-0.733-3.527-3.684-3.216-6.195c0.31-2.511,1.635-4.762,2.585-7.107
					c2.696-6.658,2.208-14.481-1.102-20.837c-3.406-0.798-6.851-1.453-10.312-1.963c0.715,1.951,1.309,3.947,1.756,5.976
					c0.412,1.871,0.709,3.808,0.395,5.697c-0.314,1.89-1.324,3.744-2.998,4.677c-1.673,0.933-4.034,0.698-5.217-0.808
					c-1.525-1.94-0.603-4.725-0.041-7.128c0.703-3.007,0.664-6.163-0.013-9.174c-10.031-1.006-20.008-0.875-29.175,0.24
					c2.997,3.344,4.384,9.132,4.915,15.395c1.184-0.294,2.38-0.539,3.587-0.721c1.735-0.262,3.565-0.4,5.194,0.253
					c1.629,0.652,2.976,2.309,2.732,4.047c-0.212,1.511-1.546,2.66-2.986,3.163c-1.44,0.503-2.999,0.497-4.522,0.585
					c-1.256,0.072-2.498,0.246-3.732,0.463c-0.039,5.071-0.435,9.924-0.808,13.564c3.609-2.111,7.435-3.849,11.412-5.141
					c2.521-0.819,6.021-1.064,7.092,1.36c0.717,1.623-0.266,3.579-1.717,4.6c-1.451,1.02-3.257,1.355-4.979,1.779
					c-4.534,1.116-8.825,3.077-12.695,5.676c-0.632,6.606-1.11,13.401-0.726,19.996c6.599-3.473,13.738-5.92,21.091-7.165
					c2.884-0.488,6.668-0.302,7.672,2.445c0.668,1.828-0.438,3.923-2.049,5.015c-1.61,1.093-3.604,1.418-5.528,1.713
					c-6.938,1.062-14.026,2.119-20.418,4.917c1.566,9.21,5.443,17.709,13.776,24.315c1.687,1.337,3.511,2.44,5.424,3.312
					c1.158-0.919,2.238-1.979,3.198-3.119c3.723-4.416,6.348-9.966,10.061-14.394c1.568-1.87,3.834-3.634,5.898-2.62
					c1.853,0.911,2.515,3.771,1.946,6.027c-0.569,2.256-2.035,4.027-3.479,5.664c-3.274,3.713-6.701,7.241-10.257,10.58
					c6.526,0.939,13.359-0.464,18.992-4.297c5.68-3.866,9.404-9.527,10.94-15.708c7.273,3.148,15.766,3.45,23.651,0.142
					c6.275-2.633,11.19-7.141,14.373-12.599C204.975,379.37,204.322,379.562,203.664,379.723z M149.345,371.77
					c-2.667,0.729-5.582-0.55-5.839-2.81c-0.237-2.089,1.672-4.289,4.463-4.461c2.616-0.161,4.078,1.417,4.292,3.164
					C152.466,369.333,151.483,371.185,149.345,371.77z M170.059,380.529c-1.634-0.651-2.625-2.602-2.188-4.306
					c0.546-2.123,3.158-3.214,5.108-2.26c1.574,0.77,2.096,2.175,1.909,3.511C174.593,379.58,172.535,381.516,170.059,380.529z"/>
				<path style="fill:#005272;" d="M173.202,421.652c-4.352-40.417-25.447-81.96-53.742-105.835l0.675-0.801
					c28.49,24.04,49.729,65.853,54.108,106.524L173.202,421.652z"/>
				<path style="fill:#005272;" d="M145.014,343.445l-0.912-0.514c0.055-0.098,5.505-9.951,4.824-21.36l1.045-0.063
					C150.671,333.233,145.071,343.344,145.014,343.445z"/>
				<path style="fill:#005272;" d="M120.043,338.503l-0.49-0.926c0.435-0.229,10.725-5.615,17.856-4.625l-0.144,1.037
					C130.466,333.033,120.146,338.447,120.043,338.503z"/>
				<path style="fill:#005272;" d="M121.15,360.941l-0.332-0.992c0.821-0.275,20.251-6.701,31.556-4.831l-0.171,1.033
					C141.152,354.316,121.349,360.876,121.15,360.941z"/>
				<path style="fill:#005272;" d="M154.364,359.203l-0.678-0.799c0.162-0.138,16.272-13.952,20.735-29.333l1.005,0.291
					C170.875,345.049,154.529,359.063,154.364,359.203z"/>
				<path style="fill:#005272;" d="M128.976,391.448l-0.819-0.652c0.107-0.135,11.007-13.54,33.47-16.249l0.125,1.039
					C139.738,378.241,129.082,391.316,128.976,391.448z"/>
				<path style="fill:#005272;" d="M160.076,371.595l-0.164-1.033c0.279-0.045,28.027-4.532,38.273-13.089l0.671,0.803
					C188.387,367.018,161.227,371.412,160.076,371.595z"/>
				<path style="fill:#005272;" d="M154.362,401.566l-0.673-0.801c0.107-0.091,10.714-9.104,10.575-17.617l1.047-0.018
					C165.458,392.143,154.815,401.186,154.362,401.566z"/>
				<path style="fill:#005272;" d="M180.447,386.743c-3.929,0-11.186-0.411-15.922-3.151l0.524-0.906
					c6.343,3.671,17.951,2.947,18.068,2.939l0.069,1.045C183.048,386.678,182.011,386.743,180.447,386.743z"/>
			</g>
		</g>
		<g>
			<path style="fill:#0089CA;" d="M353.954,201.204c-2.098-0.548-4.441-1.685-4.805-3.823c-0.35-2.056,1.453-3.956,3.443-4.579
				c1.991-0.624,4.132-0.342,6.218-0.285c5.399,0.148,10.811-1.332,15.435-4.117c0.115-0.682,0.218-1.369,0.275-2.071
				c0.64-7.808-0.664-15.089-3.56-21.858c-4.166,7.159-9.932,13.388-16.795,18.028c-1.627,1.1-3.364,2.133-5.299,2.468
				c-1.935,0.335-4.119-0.155-5.365-1.673c-1.782-2.172-0.988-5.578,0.849-7.702c1.838-2.124,4.456-3.372,6.805-4.913
				c6.337-4.156,10.905-10.865,12.623-18.234c-0.36-0.463-0.719-0.927-1.095-1.384c-4.026-4.894-8.73-8.912-13.89-12.199
				c-0.838,6.862-2.828,13.583-5.904,19.774c-1.059,2.131-2.318,4.282-4.318,5.571c-2,1.288-4.929,1.424-6.576-0.292
				c-1.545-1.609-1.457-4.245-0.538-6.278c0.919-2.033,2.503-3.675,3.801-5.49c3.79-5.299,4.998-12.307,3.404-18.607
				c-4.114-1.754-8.406-3.152-12.792-4.253c0.343,3.498-0.068,7.072-1.252,10.382c-0.361,1.008-0.806,2.017-1.555,2.782
				c-0.749,0.766-1.859,1.252-2.903,1.012c-1.382-0.317-2.228-1.795-2.344-3.208c-0.116-1.413,0.32-2.804,0.628-4.188
				c0.603-2.716,0.703-5.538,0.327-8.295c-9.664-1.712-19.579-2.134-28.939-1.741c2.245,3.686,0.733,15.847-1.081,26.196
				c4.21-1.815,8.751-2.864,13.332-3.038c1.545-0.059,3.147-0.009,4.549,0.645c1.401,0.654,2.557,2.049,2.496,3.594
				c-0.074,1.863-1.857,3.269-3.678,3.669c-1.821,0.4-3.71,0.066-5.571-0.036c-4.409-0.243-8.847,0.935-12.642,3.186
				c-0.818,4.074-1.487,7.088-1.626,7.901c-0.391,2.28-0.711,4.575-0.962,6.877c4.748-2.247,9.859-3.729,15.081-4.307
				c2.753-0.305,6.133-0.042,7.415,2.413c1.35,2.585-0.818,5.825-3.525,6.907c-2.707,1.082-5.738,0.749-8.651,0.89
				c-3.796,0.184-7.519,1.272-10.869,3.063c-0.056,5.949,0.554,11.863,2.08,17.598c9.681-5.596,20.406-9.382,31.464-11.044
				c2.089-0.314,4.518-0.448,6.002,1.057c1.96,1.987,0.783,5.596-1.506,7.193c-2.289,1.598-5.22,1.833-7.967,2.325
				c-8.778,1.572-16.904,6.417-22.566,13.295c4.135,6.09,10.466,10.077,17.388,11.401c1.447-4.808,4.107-9.255,7.748-12.715
				c0.92-0.874,1.924-1.704,3.117-2.139c1.192-0.435,2.611-0.418,3.646,0.317c1.847,1.311,1.685,4.089,1.062,6.266
				c-0.729,2.548-1.808,4.988-2.49,7.548c1.25-0.387,2.489-0.865,3.705-1.445c7.409-3.535,12.475-9.991,14.495-17.329
				c2.505,1.157,5.252,1.901,8.162,2.14c7.413,0.608,14.312-2.201,19.166-7.102C363.124,202.381,358.402,202.365,353.954,201.204z
				 M320.98,176.548c-0.583,1.635-2.423,2.443-4.023,2.66c-1.212,0.165-2.531,0.049-3.512-0.683
				c-1.347-1.004-1.574-2.964-0.945-4.437c1.17-2.737,5.695-3.563,7.78-1.403C321.248,173.687,321.439,175.26,320.98,176.548z"/>
			<path style="fill:#005272;" d="M341.26,236.572l-1.094-0.155c4.915-34.6-8.423-71.445-36.595-101.087l0.801-0.761
				C332.777,164.457,346.223,201.635,341.26,236.572z"/>
			<path style="fill:#005272;" d="M295.723,165.948l-0.4-1.029c9.873-3.843,20.883-4.232,31.004-1.091l-0.328,1.055
				C316.119,161.816,305.365,162.195,295.723,165.948z"/>
			<path style="fill:#005272;" d="M323.186,159.318l-0.885-0.662c4.638-6.196,7.81-13.499,9.172-21.117l1.088,0.194
				C331.168,145.521,327.926,152.984,323.186,159.318z"/>
			<path style="fill:#005272;" d="M294.07,190.048l-0.342-1.05c10.935-3.561,24.282-5.773,40.805-6.763l0.066,1.102
				C318.172,184.322,304.915,186.517,294.07,190.048z"/>
			<path style="fill:#005272;" d="M333.117,179.1l-0.609-0.921c8.994-5.96,16.045-14.804,19.854-24.9l1.033,0.39
				C349.505,163.98,342.303,173.012,333.117,179.1z"/>
			<path style="fill:#005272;" d="M338.331,193.735l-0.09-1.101c10.437-0.859,20.542-5.722,27.727-13.341l0.803,0.758
				C359.402,187.866,349.036,192.854,338.331,193.735z"/>
			<path style="fill:#005272;" d="M310.052,211.558l-0.684-0.867c8.554-6.742,18.723-11.421,29.406-13.532l0.215,1.084
				C328.475,200.32,318.47,204.924,310.052,211.558z"/>
		</g>
		<g>
			<path style="fill:#FFF8ED;" d="M411.76,86.912h144.287c4.804,0,8.699,3.895,8.699,8.699v44.466c0,4.804-3.895,8.699-8.699,8.699
				H411.76c-4.804,0-8.699-3.895-8.699-8.699V95.611C403.061,90.806,406.956,86.912,411.76,86.912z"/>
			<g>
				
					<rect x="420.555" y="125.937" transform="matrix(-1 -1.224647e-16 1.224647e-16 -1 967.8078 255.136)" style="fill:#E8D2C1;" width="126.697" height="3.262"/>
				
					<rect x="420.555" y="133.89" transform="matrix(-1 -1.224647e-16 1.224647e-16 -1 967.8078 271.0424)" style="fill:#E8D2C1;" width="126.697" height="3.262"/>
				<g>
					<path style="fill:#2D1411;" d="M428.553,99.212v18.266h-5.167v-14.274h-3.392v-3.992H428.553z"/>
					<path style="fill:#2D1411;" d="M458.22,113.382v4.097h-14.222v-3.236l6.837-6.393c1.461-1.357,1.67-2.192,1.67-2.949
						c0-1.174-0.783-1.879-2.349-1.879c-1.331,0-2.531,0.6-3.262,1.774l-3.836-2.14c1.383-2.296,3.966-3.81,7.568-3.81
						c4.201,0,7.098,2.166,7.098,5.558c0,1.774-0.496,3.392-3.105,5.793l-3.444,3.184H458.22z"/>
					<path style="fill:#2D1411;" d="M486.609,111.764c0,3.105-2.453,6.08-7.959,6.08c-2.531,0-5.219-0.626-7.098-1.8l1.879-3.888
						c1.461,0.992,3.34,1.514,5.062,1.514c1.748,0,2.897-0.679,2.897-1.905c0-1.096-0.809-1.775-2.792-1.775h-2.166v-3.262
						l3.262-3.523h-7.202v-3.992h13.204v3.236l-3.784,4.071C484.992,107.171,486.609,109.154,486.609,111.764z"/>
					<path style="fill:#FF931E;" d="M518.313,113.982h-2.714v3.497h-5.036v-3.497h-9.655v-3.366l8.194-11.403h5.349l-7.437,10.673
						h3.705v-3.105h4.88v3.105h2.714V113.982z"/>
					<path style="fill:#2D1411;" d="M546.519,111.607c0,3.262-2.453,6.237-7.959,6.237c-2.531,0-5.219-0.626-7.072-1.8l1.853-3.888
						c1.487,0.992,3.314,1.514,5.062,1.514c1.748,0,2.923-0.705,2.923-1.931c0-1.122-0.757-1.853-3.549-1.853h-4.958l0.913-10.673
						h11.638v3.992h-7.359l-0.235,2.662h1.226C544.405,105.866,546.519,108.371,546.519,111.607z"/>
				</g>
			</g>
			<polygon style="fill:#FFF8ED;" points="463.074,146.75 438.206,146.75 438.206,175.625 			"/>
		</g>
		<g>
			<path style="fill:#FC957A;" d="M394.94,184.022c-1.439,9.832-2.841,20.148-0.074,31.485l-33.707-2.971
				c-0.87-6.682,0.183-25.3-0.68-35.595L394.94,184.022z"/>
			<path style="fill:#321F6A;" d="M432.613,301.2c4.439-12.136,9.162-44.622,9.473-56.51c0.311-11.888-3.895-24.328-12.706-31.502
				c-9.97-8.117-21.572-2.984-33.966-1.228c-12.394,1.756-27.038-0.223-39.304-2.817c-7.506-1.588-18.633-4.592-26.279-4.334
				c-9.803,0.331-14.778,6.828-19.348,16.17c-4.57,9.342-5.282,20.428-3.835,30.871c1.447,10.443,4.233,24.393,13.621,46.766
				L432.613,301.2z"/>
			<path style="fill:#452A9A;" d="M395.414,211.96c-0.105-5.916-0.348-16.78-0.348-16.78c-12.403,3.362-26.568,0.05-36.854-3.996
				c-0.697,7.294-1.734,12.736-3.216,17.705c5.482,6.617,16.599,12.348,23.663,12.021
				C385.723,220.583,390.99,218.473,395.414,211.96z"/>
			<g>
				<path style="fill:#2D1411;" d="M395.638,161.187c4.882-1.832,9.653-3.263,14.535-5.095c-0.129-8.567-2.271-17.097-6.206-24.708
					c-1.261-2.439-2.839-4.911-5.317-6.092c-2.069-0.986-4.546-0.916-6.687-0.1c-2.141,0.816-3.968,2.323-5.444,4.075
					c1.326,8.753,3.863,18.191,7.001,26.468L395.638,161.187z"/>
				<g>
					<g>
						
							<ellipse transform="matrix(0.2734 -0.9619 0.9619 0.2734 128.0631 478.8564)" style="fill:#FFAF99;" cx="380.99" cy="154.662" rx="24.917" ry="23.855"/>
						<path style="fill:#FFAF99;" d="M403.796,160.565c0,0-1.038,16.619-1.128,21.589c-0.08,4.433-5.664,9.863-9.999,14.04
							c-2.749,2.648-8.763,2.471-10.697,1.377c-8.832-4.994-10.457-6.236-14.59-9.59c-0.898-0.729-2.596-2.392-2.085-7.124
							c1.001-9.267,0.959-21.096,1.638-22.966l13.747-8.601L403.796,160.565z"/>
						<path style="fill:#2D1411;" d="M389.741,178.991c-0.186-0.846,0.029-1.483,0.577-1.704c0.721-0.291,1.367-0.319,1.938-0.343
							c0.609-0.026,1.091-0.047,1.47-0.381c1.081-0.955,1.164-1.946,0.262-3.12c-2.077-2.702-3.383-5.51-3.581-7.704
							c-0.142-1.569,1.411-4.579,3.359-5.722l0.266,0.451c-1.875,1.101-3.219,3.948-3.103,5.224
							c0.189,2.097,1.456,4.806,3.474,7.431c1.076,1.399,0.965,2.688-0.33,3.831c-0.517,0.457-1.137,0.483-1.794,0.511
							c-0.553,0.023-1.126,0.048-1.764,0.306c-0.29,0.118-0.388,0.531-0.261,1.107L389.741,178.991z"/>
						<path style="fill:#2D1411;" d="M383.124,166.139c-0.906-1.779-2.857-3.018-4.852-3.082c-0.055-0.002-0.11-0.003-0.166-0.003
							c-1.941,0-3.883,1.096-4.875,2.765l-0.449-0.268c1.083-1.824,3.205-3.021,5.325-3.021c0.061,0,0.122,0.001,0.183,0.003
							c2.18,0.071,4.31,1.424,5.301,3.368L383.124,166.139z"/>
						<path style="fill:#2D1411;" d="M377.434,163.284c-0.995,0.751-1.193,2.167-0.442,3.163c0.751,0.996,2.167,1.193,3.163,0.442
							c0.995-0.751,1.193-2.167,0.442-3.163C379.845,162.73,378.429,162.533,377.434,163.284z"/>
						<path style="fill:#FFF8ED;" d="M379.695,166.257c-0.057,0.411,0.229,0.791,0.64,0.848c0.411,0.057,0.791-0.229,0.848-0.64
							s-0.229-0.791-0.64-0.848C380.132,165.559,379.753,165.846,379.695,166.257z"/>
						<g>
							<path style="fill:#F46B57;" d="M381.502,181.87c1.109,2.965,4.061,5.19,7.866,4.907c3.799-0.283,4.427-3.47,4.547-4.5
								c0.239-0.145,1.326-0.341,1.564-0.486C392.026,180.612,387,181.48,381.502,181.87z"/>
							<path style="fill:#2D1411;" d="M388.331,183.526c-2.696,0-5.392-0.606-7.793-1.819l0.236-0.467
								c4.628,2.336,10.389,2.352,15.032,0.039l0.233,0.469C393.66,182.934,390.995,183.526,388.331,183.526z"/>
						</g>
						<path style="fill:#2D1411;" d="M370.43,159.527c2.132-0.962,4.741-1.105,7.026-0.75c1.334,0.207,2.638,0.519,3.921,0.936
							c0.615,0.2,1.216,0.437,1.829,0.641c0.336,0.112,0.7,0.255,1.047,0.324c0.332,0.066,0.622-0.013,0.951,0.011
							c0.596,0.044,0.551-1.129,0.21-1.377c-0.298-0.217-0.518-0.493-0.843-0.679c-0.316-0.18-0.689-0.32-1.026-0.456
							c-0.681-0.274-1.392-0.494-2.095-0.706c-1.35-0.406-2.753-0.753-4.166-0.817c-2.625-0.12-5.046,0.514-7.043,2.249
							C370.073,159.05,370.128,159.663,370.43,159.527L370.43,159.527z"/>
						<path style="fill:#2D1411;" d="M404.541,158.216c-0.982-1.641-3.364-1.688-5.026-1.361c-1.192,0.235-2.387,0.618-3.467,1.178
							c-0.571,0.296-1.118,0.66-1.613,1.069c-0.466,0.385-1.179,0.832-1.354,1.433c-0.088,0.303-0.049,0.837,0.355,0.878
							c0.432,0.043,1.004-0.6,1.379-0.81c0.5-0.281,1.009-0.544,1.524-0.796c1.019-0.498,2.058-0.936,3.168-1.193
							c0.928-0.215,1.878-0.396,2.834-0.325c0.656,0.049,1.379,0.157,1.856,0.649C404.547,159.298,404.67,158.432,404.541,158.216
							L404.541,158.216z"/>
						<path style="fill:#2D1411;" d="M393.68,165.508l-0.482-0.203c0.751-1.78,2.55-3.084,4.476-3.246
							c1.918-0.16,3.915,0.824,4.952,2.454l-0.441,0.281c-0.936-1.471-2.727-2.359-4.468-2.214
							C395.979,162.726,394.356,163.902,393.68,165.508z"/>
						<path style="fill:#2D1411;" d="M396.561,162.744c-0.995,0.751-1.193,2.167-0.442,3.163c0.751,0.995,2.167,1.193,3.163,0.442
							c0.995-0.751,1.193-2.168,0.442-3.163C398.972,162.19,397.556,161.992,396.561,162.744z"/>
						<path style="fill:#FFF8ED;" d="M398.822,165.716c-0.057,0.411,0.229,0.791,0.64,0.848c0.411,0.057,0.791-0.229,0.848-0.64
							c0.057-0.411-0.229-0.791-0.64-0.848C399.26,165.018,398.88,165.305,398.822,165.716z"/>
					</g>
					<path style="fill:#8F352B;" d="M346.985,150.069c2.093,9.56,7.042,20.335,10.311,24.157c3.002,0.226,5.201,0.807,8.203,1.033
						c-0.695-5.67,0.601-15.305,2.4-23.855C360.346,148.693,354.538,152.779,346.985,150.069z"/>
					<g>
						<path style="fill:#FFAF99;" d="M366.223,171.297c-2.751-4.246-6.637-5.069-8.849-1.926c-1.218,1.73-1.134,4.344-0.121,6.278
							c1.032,1.969,2.786,3.117,4.563,3.896c0.616,0.27,6.085,1.766,6.083,1.753C367.899,181.298,366.262,171.358,366.223,171.297z"
							/>
						<path style="fill:#FC957A;" d="M364.799,177.111c-0.021,0.444-0.398,0.798-0.842,0.773c-2.025-0.115-4.117-1.25-5.107-3.022
							c-0.392-0.641-0.673-1.377-0.634-2.128c0.068-1.303,1.228-2.456,2.531-2.517c1.457-0.068,3.228,1.196,2.937,2.833
							c-0.157,0.887-1.019,1.679-0.122,2.502c0.072,0.066,0.217,0.135,0.384,0.198c0.532,0.201,0.884,0.709,0.857,1.277
							L364.799,177.111z"/>
					</g>
				</g>
				<path style="fill:#2D1411;" d="M391.272,128.696c6.989-0.643,12.83,9.254,12.524,11.474
					c-1.583,11.48-20.439,13.97-22.526,14.028c3.229-3.046,8.667-8.136,12.628-12.978c-12.397,1.681-23.201,8.887-31.71,19.604
					c-7.193-0.581-13.542-2.51-20.804-4.713c2.041-7.916,4.172-16.153,8.978-22.765c4.806-6.613,11.811-11.918,19.861-13.336
					C378.274,118.592,386.756,121.882,391.272,128.696z"/>
			</g>
			<path style="fill:#452A9A;" d="M360.519,291.872c-7.663-20.215-13.111-41.268-16.215-62.662
				c-0.728-5.019-1.353-10.146-3.464-14.758c-2.111-4.611-6.022-8.719-11.009-9.644c-6.565,0.001-13.275,4.051-16.973,9.475
				c-3.699,5.424-5.324,12-6.167,18.511c-3.27,25.247,4.779,51.747,21.538,70.911C340.107,302.764,349.999,297.472,360.519,291.872z
				"/>
			<g>
				<path style="fill:#FFAF99;" d="M387.76,233.73c4.915-9.481,6.613-12.54,7.798-13.949c1.063-1.264,1.168-1.273,3.354-3.053
					c4.971-4.05,11.628-7.724,16.645-11.72c1.462,0.771,1.717,3.429,0.946,4.893c-0.928,1.762-3.024,4.034-4.281,5.169
					c-2.863,2.586-5.182,4.611-8.292,7.482c-1.025,3.21-1.324,8.928-2.349,12.138L387.76,233.73z"/>
				<path style="fill:#FFAF99;" d="M387.76,233.73c1.068-2.316,3.96-1.401,6.435-2.17c3.554-1.105,6.069-2.001,14.711-2.921
					c2.5-0.266,5.437,0.859,5.177,4.541c-0.152,2.149-2.14,3.755-3.983,4.94c-1.79,1.151-4.068,1.38-5.23,2.165
					c-1.646,3.543-5.016,10.609-8.49,12.506c-3.474,1.897-9.526,2.855-15.235-2.91C381.145,249.88,385.685,238.232,387.76,233.73z"
					/>
				<path style="fill:#FFAF99;" d="M344.939,325.613c0,0-10.167-27.826-6.741-34.357c10.675-20.346,42.191-44.249,46.971-50.812
					c3.939,0.926,3.998,10.965,7.937,11.891c-3.753,20.738-14.032,45.33-29.187,62.404
					C355.788,323.9,350.335,328.948,344.939,325.613z"/>
				<path style="fill:#FFAF99;" d="M398.27,239.148c2.848,0.43,5.227,1.391,7.884,2.479c-0.893,0.22-1.799,0.446-2.597,0.896
					c-0.798,0.45-1.488,1.163-1.689,2.042c-0.201,0.879,0.225,2.089,1.07,2.443c1.721-0.654,3.682-1.616,5.388-2.306
					c0.82-0.332,1.649-0.669,2.366-1.182c0.716-0.513,1.32-1.228,1.513-2.075c0.193-0.847-0.102-2-0.84-2.479
					c1.452,0.2,2.981-0.773,3.386-2.153c0.405-1.38-0.321-2.659-1.662-3.236c1.369-0.096,2.552-1.344,2.544-2.687
					c-0.007-1.342-1.557-2.641-2.927-2.714c1.052-0.29,2.235-0.688,2.662-1.672c0.399-0.92-0.073-2.02-0.844-2.671
					c-0.771-0.651-1.678-1.173-2.697-1.225c-4.505-0.23-9.01-0.46-13.514-0.69C395.906,227.311,395.692,233.845,398.27,239.148z"/>
			</g>
			<path style="fill:#FFAF99;" d="M443.501,238.093c4.599,9.718,15.49,42.235,8.659,65.632c-0.972,3.329-3.18,6.85-7.852,7.031
				c-6.515,0.253-9.829-1.987-11.246-4.546c-9.328-16.843-7.534-52.501,3.244-68.561
				C439.393,238.066,440.413,237.676,443.501,238.093z"/>
			<g>
				<g>
					<path style="fill:#897D74;" d="M446.408,204.836c-5.261,15.853-11.09,31.549-16.344,47.404
						c-0.445,1.343-1.806,2.155-3.199,1.902l-22.319-4.055c-1.721-0.313-2.753-2.091-2.171-3.74l16.708-47.336
						c0.464-1.315,1.814-2.099,3.186-1.849l21.944,3.987C445.913,201.456,446.952,203.197,446.408,204.836z"/>
					<path style="fill:#AF9E8E;" d="M449.056,205.317c-5.261,15.853-11.09,31.549-16.344,47.404
						c-0.445,1.343-1.806,2.155-3.199,1.902l-22.319-4.055c-1.721-0.313-2.753-2.091-2.171-3.74l16.708-47.337
						c0.464-1.315,1.814-2.099,3.186-1.849l21.944,3.987C448.56,201.937,449.599,203.678,449.056,205.317z"/>
				</g>
				<path style="fill:#726963;" d="M429.891,202.796c-1.211,3.649-2.553,7.262-3.762,10.912c-0.103,0.309-0.416,0.496-0.736,0.438
					l-5.138-0.934c-0.396-0.072-0.634-0.481-0.5-0.861l3.846-10.896c0.107-0.303,0.418-0.483,0.733-0.426l5.051,0.918
					C429.777,202.018,430.016,202.419,429.891,202.796z"/>
				<path style="fill:#897D74;" d="M423.956,204.531c-0.364,1.059,0.224,2.079,1.314,2.277c1.09,0.198,2.268-0.5,2.631-1.56
					c0.364-1.059-0.225-2.079-1.314-2.277C425.497,202.773,424.319,203.471,423.956,204.531z"/>
				<path style="fill:#897D74;" d="M422.074,209.972c-0.364,1.059,0.224,2.079,1.314,2.277c1.09,0.198,2.268-0.5,2.631-1.56
					s-0.225-2.079-1.314-2.277C423.616,208.215,422.438,208.913,422.074,209.972z"/>
			</g>
			<g>
				<path style="fill:#FFAF99;" d="M447.112,227.579c1.567,0.947,3.813,0.533,4.939-0.91c1.126-1.443,1.057-3.803-0.318-5.012
					c-4.284-3.77-10.028-6.674-14.301-8.372c-2.337-0.2-3.74,3.368-2.012,5.514C436.823,221.098,442.51,224.797,447.112,227.579z"/>
				<path style="fill:#FFAF99;" d="M444.043,234.5c1.438,0.424,3.123-0.235,3.893-1.521c0.77-1.287,0.619-3.151-0.5-4.15
					c-3.508-3.132-8.765-5.97-13.472-8.218c-2.237-0.191-3.575,3.449-2.075,5.465C435.601,229.848,438.967,233.005,444.043,234.5z"
					/>
				<path style="fill:#FFAF99;" d="M439.952,240.952c1.335,0.357,2.885,0.189,3.729-0.904c0.604-0.782,0.796-1.852,0.552-2.809
					c-0.245-0.957-0.908-1.789-1.761-2.286c-3.741-2.181-7.872-3.748-11.964-5.164c-1.755-0.399-3.013,3.308-1.024,5.167
					C429.484,234.956,435.266,239.698,439.952,240.952z"/>
				<path style="fill:#FFAF99;" d="M436.536,247.627c1.451,0.452,3.176-0.29,3.847-1.654c0.67-1.364,0.204-3.183-1.039-4.056
					c-3.242-2.276-7.26-3.71-11.132-4.548c-1.252,0.183-2.301,2.299-0.968,4.204c0,0,1.761,1.484,3.658,2.876
					C432.193,245.398,435.005,247.15,436.536,247.627z"/>
			</g>
		</g>
		<g>
			<rect x="298.263" y="361.355" style="fill:#2D1411;" width="169.796" height="75.905"/>
			<rect x="291.794" y="361.355" style="fill:#351916;" width="179.093" height="19.604"/>
			<rect x="335.961" y="418.822" style="fill:#351916;" width="10.259" height="10.259"/>
			<rect x="350.849" y="418.822" style="fill:#351916;" width="10.259" height="10.259"/>
			<rect x="365.736" y="418.822" style="fill:#351916;" width="10.259" height="10.259"/>
		</g>
		<g>
			<g>
				<g>
					<polygon style="fill:#C15C34;" points="310.056,361.355 310.451,311.707 363.557,308.583 362.897,361.355 					"/>
					<path style="fill:#D6703E;" d="M362.897,361.355l0.66-52.773c26.15,0.957,52.3,1.914,78.45,2.872l-0.53,49.901H362.897z"/>
				</g>
				<g>
					<polygon style="fill:#D6703E;" points="303.903,313.919 304.327,296.618 361.499,295.53 361.342,313.919 					"/>
					<path style="fill:#E47C48;" d="M361.342,313.919l0.157-18.39c28.152,0.334,56.856,0.667,85.008,1.001l-0.57,17.389H361.342z"/>
				</g>
			</g>
			<rect x="372.097" y="349.081" style="fill:#C15C34;" width="6.47" height="6.47"/>
			<rect x="381.486" y="349.081" style="fill:#C15C34;" width="6.47" height="6.47"/>
			<rect x="390.875" y="349.081" style="fill:#C15C34;" width="6.47" height="6.47"/>
			<rect x="372.097" y="326.645" style="fill:#FFF8ED;" width="25.247" height="11.527"/>
		</g>
		<path style="fill:#FF931E;" d="M657.918,426.505c-3.337-0.352-6.508,1.854-7.997,4.812c-0.152-0.731-0.4-1.439-0.78-2.089
			c-1.299-2.218-4.096-3.571-6.565-2.857c-0.434,0.126-0.831,0.34-1.206,0.59c0.125-0.684,0.192-1.376,0.17-2.077
			c-0.083-2.637-1.766-5.425-4.37-5.846c-2.096-0.339-4.102,0.971-5.289,2.776c0.584-4.073,1.169-8.145,1.753-12.217
			c0.562-3.917,0.235-9.233-3.623-10.113c-3.33-0.76-5.988,2.713-7.476,5.788c-3.139,6.486-5.465,13.365-6.907,20.424
			c1.09-6.114,2.132-12.665-0.412-18.33c-2.543-5.665-10.234-9.402-15.192-5.663c-4.385,3.308-4.083,9.866-3.349,15.31
			c0.767,5.69,1.535,11.38,2.302,17.07c-1.208-3.758-3.327-7.373-5.654-10.265c-1.323-1.644-3.211-3.236-5.293-2.887
			c-2.586,0.433-3.746,3.513-3.917,6.13c-0.358,5.461,2.493,15.822,6.054,19.977h70.173c1.339-3.292,2.312-5.649,3.929-8.814
			C666.645,433.571,663.111,427.052,657.918,426.505z"/>
		<g>
			<path style="fill:#FF931E;" d="M171.669,423.917c-1.807-1.394-4.041-1.428-6.098-0.589c0.265-4.245,0.53-8.489,0.794-12.734
				c0.217-3.484,0.43-7.038-0.298-10.428c-0.728-3.39-2.568-6.65-5.369-7.939c-4.575-2.105-9.864,1.971-11.773,7.232
				c-1.909,5.261-1.359,11.229-0.777,16.897c-0.677-5.014-1.439-10.263-4.116-14.278c-2.677-4.015-7.93-6.209-11.555-3.364
				c-2.844,2.232-3.512,6.435-2.836,10.477c-0.998-2.685-2.21-5.232-3.934-7.344c-2.863-3.507-7.537-5.511-11.302-3.447
				c-3.937,2.159-5.499,8.013-4.707,12.979c0.593,3.719,2.199,7.056,4.031,10.223c-3.493-3.731-9.859-3.988-13.028,0.361
				c-3.265,4.481-1.795,12.011,2.229,15.234c-1.375-0.63-2.789-1.096-4.259-1.124c-2.422-0.045-5.044,1.439-5.771,4.118
				c-0.492,1.811,0.858,5.115,2.506,6.844h77.825c0,0,1.104-8.036,1.56-12.085C175.248,430.902,174.601,426.177,171.669,423.917z"/>
		</g>
		<g>
			<g>
				<path style="fill:#FFF8ED;" d="M239.94,168.93H79.119c-4.804,0-8.699,3.895-8.699,8.699v55.801c0,4.804,3.895,8.699,8.699,8.699
					H239.94c4.804,0,8.699-3.895,8.699-8.699v-55.801C248.639,172.825,244.744,168.93,239.94,168.93z"/>
				<g>
					<g>
						<polygon style="fill:#FF931E;" points="92.163,177.298 95.31,183.673 102.346,184.695 97.255,189.658 98.456,196.666 
							92.163,193.357 85.87,196.666 87.072,189.658 81.981,184.695 89.017,183.673 						"/>
						<polygon style="fill:#FF931E;" points="118.746,177.298 121.893,183.673 128.929,184.695 123.838,189.658 125.039,196.666 
							118.746,193.357 112.453,196.666 113.655,189.658 108.564,184.695 115.6,183.673 						"/>
						<polygon style="fill:#FF931E;" points="145.329,177.298 148.476,183.673 155.512,184.695 150.421,189.658 151.622,196.666 
							145.329,193.357 139.036,196.666 140.238,189.658 135.147,184.695 142.183,183.673 						"/>
						<polygon style="fill:#E8D2C1;" points="171.912,177.298 175.059,183.673 182.095,184.695 177.004,189.658 178.205,196.666 
							171.912,193.357 165.619,196.666 166.821,189.658 161.73,184.695 168.766,183.673 						"/>
						<polygon style="fill:#E8D2C1;" points="198.495,177.298 201.642,183.673 208.678,184.695 203.587,189.658 204.789,196.666 
							198.495,193.357 192.202,196.666 193.404,189.658 188.313,184.695 195.349,183.673 						"/>
					</g>
					<rect x="81.981" y="209.07" style="fill:#E8D2C1;" width="126.697" height="3.262"/>
					<rect x="81.981" y="217.023" style="fill:#E8D2C1;" width="126.697" height="3.262"/>
					<rect x="81.981" y="224.977" style="fill:#E8D2C1;" width="89.342" height="3.262"/>
				</g>
				<polygon style="fill:#FFF8ED;" points="196.209,238.93 214.178,238.93 214.178,262.168 				"/>
			</g>
			<g>
				<path style="fill:#CE2A39;" d="M313.862,395.312c-3.531-12.096-10.618-22.701-17.599-33.085l-1.121,0.288l-48.749-2.744
					c-30.701,6.617-60.118,19.245-86.132,36.973c-5.526,3.766-12.051,8.738-13.565,15.29c-1.225,5.301-0.201,18.059,22.5,34.994
					h29.66h21.336h28.901c0,0,22.704,0.176,33.118-1.088c10.414-1.264,20.894-5.801,27.229-14.411
					C316.845,421.462,317.393,407.408,313.862,395.312z"/>
				<path style="fill:#8F352B;" d="M248.617,204.168c6.996-8.361,14.003-11.336,23.727-7.181
					c9.723,4.156,19.025,18.706,30.961,55.446c11.619,3.734,20.521,12.516,25.327,24.479c4.806,11.963,2.359,27.538-7.308,35.406
					c6.661,1.241,11.949,8.257,11.693,15.516c-0.256,7.259-6.024,13.824-12.754,14.519c4.723,3.242,5.613,10.808,2.961,16.114
					c-2.651,5.306-7.94,8.553-13.336,10.182c-13.026,3.934-27.953-0.669-37.054-11.426c-6.03,0.978-13.072,0.771-19.167,0.556
					c-6.095-0.214-12.282-1.695-17.383-5.285c-9.387-6.608-13.663-20.504-9.791-31.821c-3.014,2.512-7.668,1.221-11.26-0.158
					c-3.592-1.379-6.435-4.817-7.286-8.812c-0.92-4.318,0.422-8.906,2.708-12.592c2.287-3.686,5.448-6.628,8.569-9.522
					c-3.448,0.072-6.174-5.26-5.513-8.897c0.66-3.637,3.702-6.343,6.988-7.468c3.286-1.125,6.817-0.958,10.262-0.78
					c5.062-18.701,7.606-36.814,6.15-56.227C239.171,211.622,245.442,207.962,248.617,204.168z"/>
				<path style="fill:#FC957A;" d="M211.658,350.983c4.684-18.275,8.36-37.59,10.452-55.818c-2.687-4.378-3.89-8.438-9.087-7.809
					c-8.318,16.958-17.688,28.872-23.791,46.567c-1.114,3.23-1.941,12.422,1.611,16.393
					C193.931,353.767,205.071,353.272,211.658,350.983z"/>
				<path style="fill:#FC957A;" d="M233.689,262.952c-2.863-0.145-10.845,4.085-16.768,21.731
					c-5.327,15.871-26.399,56.992-26.399,56.992s16.292,19.553,22.308,16.156c19.446-10.981,32.991-59.999,32.991-59.999
					L233.689,262.952z"/>
				<path style="fill:#CE2A39;" d="M310.59,263.463c-1.652-0.515-6.939-1.887-15.231-1.144c-6.076,0.544-26.184,6.885-50.04,2.645
					c0,0-3.552-0.778-11.63-2.011c0,0,0.248,7.052-5.677,22.755c-2.116,5.607-7.023,11.025-9.948,16.255
					c-2.572,4.598-4.169,8.281-3.32,13.48c0.849,5.199,4.188,9.934,8.801,12.478c0.795,0.438,1.612,0.805,2.445,1.117
					c0.445,10.711,5.436,30.237,7.689,42.845l59.904-0.001c0,0,12.164-38.327,17.898-54.877
					C321.749,287.368,319.665,266.289,310.59,263.463z"/>
				<path style="fill:#F2816B;" d="M262.251,274.987c7.445,0.845,14.981-1.367,21.582-4.913c4.088-2.196,7.871-4.886,11.526-7.755
					c-0.558,0.015-1.101,0.038-1.622,0.073c-6.087,0.403-12.081,1.663-18.129,2.459c-10.037,1.322-20.241,1.349-30.289,0.113
					C248.918,270.644,255.51,274.222,262.251,274.987z"/>
				<path style="fill:#F2816B;" d="M283.036,265.288c-3.191-12.989-8.894-26.364-13.228-34.739l-16.31,16.203
					c2.752,5.885,4.814,17.024,4.814,21.632L283.036,265.288z"/>
				<path style="fill:#8F352B;" d="M258.511,199.985c-1.321-3.449-4.265-5.337-7.485-5.305c-6.674,0.067-17.031,5.847-21.945,11.006
					c-4.405,4.625-10.329,11.664-9.918,18.9c0.235,4.136,2.95,7.835,6.236,10.124s7.111,3.411,10.863,4.498
					C235.501,238.988,259.416,202.348,258.511,199.985z"/>
				<g>
					<path style="fill:#FC957A;" d="M264.385,218.202c4.882,8.415,2.018,19.195-6.398,24.077
						c-8.415,4.882-19.195,2.018-24.077-6.398c-4.882-8.415-2.018-19.195,6.398-24.077
						C248.723,206.922,259.503,209.786,264.385,218.202z"/>
					<path style="fill:#FC957A;" d="M234.18,235.741c-0.005,4.038,1.353,10.027,3.915,15.965c1.529,3.545,5.448,7.326,8.186,9.425
						c2.648,2.03,6.177,0.634,7.845-0.409c8.753-5.477,14.827-13.382,14.827-16.061c0-2.775-5.552-16.06-7.096-18.324l-11.041-7.118
						L234.18,235.741z"/>
					<path style="fill:#8F352B;" d="M243.965,247.029c-0.011-0.35-0.105-0.593-0.288-0.743c-0.414-0.34-1.255-0.201-1.931-0.088
						c-0.334,0.055-0.627,0.099-0.844,0.093c-0.966-0.044-1.448-0.538-1.683-0.946c-0.428-0.744-0.381-1.804,0.122-2.768
						c0.852-1.631,1.97-4.929,1.667-6.827c-0.182-1.137-0.538-1.956-1.412-3.246l0.434-0.294c0.911,1.345,1.302,2.249,1.495,3.457
						c0.326,2.038-0.809,5.409-1.72,7.152c-0.415,0.794-0.466,1.683-0.132,2.265c0.243,0.421,0.676,0.658,1.252,0.684
						c0.163,0.008,0.443-0.038,0.735-0.087c0.78-0.128,1.75-0.29,2.348,0.2c0.302,0.248,0.463,0.628,0.479,1.131L243.965,247.029z"
						/>
					<path style="fill:#8F352B;" d="M239.583,236.487c-0.538-0.998-1.619-1.687-2.751-1.753c-1.138-0.063-2.286,0.491-2.938,1.42
						l-0.429-0.301c0.753-1.075,2.086-1.716,3.396-1.642c1.31,0.076,2.559,0.872,3.182,2.027L239.583,236.487z"/>
					<path style="fill:#8F352B;" d="M257.451,234.718c-0.759-1.493-2.394-2.532-4.068-2.587c-0.047-0.002-0.095-0.003-0.142-0.003
						c-1.627,0-3.256,0.918-4.088,2.318l-0.45-0.268c0.965-1.624,2.816-2.624,4.697-2.571c1.888,0.062,3.661,1.189,4.518,2.873
						L257.451,234.718z"/>
					<path style="fill:#8F352B;" d="M238.657,235.656c0.399,0.977-0.07,2.092-1.047,2.491c-0.977,0.399-2.092-0.07-2.491-1.047
						c-0.399-0.977,0.07-2.092,1.047-2.491C237.143,234.21,238.259,234.679,238.657,235.656z"/>
					<path style="fill:#FFF8ED;" d="M236.375,235.257c0.133,0.325-0.023,0.696-0.348,0.829c-0.325,0.133-0.696-0.023-0.829-0.348
						c-0.133-0.325,0.023-0.696,0.348-0.829C235.871,234.776,236.242,234.932,236.375,235.257z"/>
					<path style="fill:#8F352B;" d="M253.518,232.113c0.973,0.409,1.43,1.529,1.021,2.501c-0.409,0.973-1.529,1.43-2.501,1.021
						c-0.973-0.409-1.43-1.529-1.021-2.501S252.545,231.704,253.518,232.113z"/>
					<path style="fill:#FFF8ED;" d="M252.264,232.753c0.133,0.325-0.023,0.696-0.348,0.829c-0.325,0.133-0.696-0.023-0.829-0.348
						s0.023-0.696,0.348-0.829C251.76,232.271,252.131,232.428,252.264,232.753z"/>
					<g>
						<path style="fill:#F46B57;" d="M253.498,246.753c0.283,2.351-0.121,4.282-1.446,5.851c-2.154,2.551-5.824,2.828-7.16,1.059
							c-1.102-1.46-1.448-3.068-1.77-3.909c-0.232-0.071-1.19-0.003-1.423-0.075C244.358,247.947,248.78,247.601,253.498,246.753z"
							/>
						<path style="fill:#FFF8ED;" d="M243.572,249.781c0.794,0.098,1.075,0.42,1.418,1.077c0.566,1.085,1.675,1.573,2.837,1.285
							c2.257-0.559,4.02-3.174,4.281-4.52C249.54,249.129,246.521,249.881,243.572,249.781z"/>
						<path style="fill:#8F352B;" d="M244.299,250.123c-1.038,0-2.073-0.107-3.087-0.327l0.111-0.512
							c4.397,0.955,9.237-0.291,12.631-3.244l0.344,0.395C251.564,248.815,247.924,250.123,244.299,250.123z"/>
					</g>
					<path style="fill:#8F352B;" d="M258.781,226.684c-0.93-0.865-1.903-1.501-3.144-1.844c-1.082-0.298-2.324-0.352-3.431-0.163
						c-1.102,0.188-2.184,0.574-3.175,1.086c-0.523,0.27-1.036,0.573-1.493,0.945c-0.201,0.164-0.405,0.33-0.583,0.519
						c-0.124,0.132-0.228,0.268-0.292,0.439c-0.021,0.082-0.041,0.164-0.062,0.247c0.042-0.133,0.017-0.108-0.075,0.073
						c-0.211,0.335-0.13,1.476,0.5,1.218c0.156-0.055,0.181-0.069,0.076-0.042c0.121,0.046,0.24,0.043,0.358-0.009
						c0.81-0.472,1.56-1.03,2.406-1.444c0.906-0.443,1.853-0.74,2.837-0.95c1.931-0.411,4.098-0.221,5.92,0.555
						C258.94,227.451,258.931,226.823,258.781,226.684L258.781,226.684z"/>
					<path style="fill:#8F352B;" d="M232.307,233.39c0.005-0.076,0.031-0.232,0.04-0.268c0.015-0.059,0.036-0.119,0.057-0.177
						c0,0.001,0.073-0.171,0.033-0.086c0.092-0.2,0.213-0.432,0.331-0.567c0.342-0.39,0.744-0.602,1.246-0.797
						c0.547-0.213,1.129-0.277,1.725-0.25c0.694,0.032,1.365,0.07,2.026,0.301c0.113,0.039,0.27,0.017,0.353-0.079
						c0.24-0.278,0.286-0.62,0.141-0.963c-0.113-0.269-0.38-0.377-0.625-0.498c-0.411-0.203-0.826-0.39-1.277-0.48
						c-0.853-0.17-1.741-0.079-2.554,0.23c-1.513,0.574-2.472,2.17-2.08,3.769c0.038,0.155,0.144,0.358,0.335,0.317
						C232.257,233.799,232.298,233.555,232.307,233.39L232.307,233.39z"/>
				</g>
				<path style="fill:#8F352B;" d="M260.472,220.43c-0.042,3.192,1.726,11.556,3.45,16.683c2.973,2.699,5.228,13.659,18.627,26.276
					c1.881-3.92-1.913-35.944-0.288-43.471c0.635-2.943,1.098-6.013,0.491-8.982c-0.848-4.147-3.723-7.645-7.12-10.068
					s-9.297-6.082-13.379-5.693c-9.887,1.104-18.708,7.316-24.656,15.453c1.564,4.353,5.942,6.707,10.342,8.132
					C252.34,220.187,255.847,220.454,260.472,220.43z"/>
				<g>
					<path style="fill:#FC957A;" d="M264.401,234.915c0.694-4.344,3.495-6.366,6.359-4.645c1.577,0.948,2.43,3.055,2.305,4.95
						c-0.128,1.929-1.119,3.459-2.258,4.704c-0.395,0.432-4.218,3.546-4.22,3.535C266.587,243.458,264.391,234.977,264.401,234.915z
						"/>
					<path style="fill:#FC957A;" d="M267.58,239.037c0.173,0.346,0.597,0.495,0.941,0.318c1.57-0.803,2.834-2.442,2.999-4.2
						c0.086-0.648,0.051-1.332-0.245-1.915c-0.513-1.012-1.841-1.521-2.899-1.111c-1.183,0.459-2.146,2.087-1.339,3.287
						c0.437,0.65,1.401,0.977,0.978,1.947c-0.034,0.078-0.125,0.183-0.236,0.293c-0.352,0.347-0.454,0.875-0.232,1.317
						L267.58,239.037z"/>
				</g>
				<g>
					<polygon style="fill:#C15C34;" points="276.146,387.52 275.892,342.578 241.699,339.75 242.279,387.52 					"/>
					<path style="fill:#D6703E;" d="M242.279,387.52l-0.581-47.771c-23.023,0.866-46.045,1.733-69.068,2.599l0.467,45.171H242.279z"
						/>
					<polygon style="fill:#D6703E;" points="283.036,348.971 282.748,338.165 244.003,337.485 244.661,348.971 					"/>
					<path style="fill:#E47C48;" d="M244.661,348.971l-0.658-11.485c-26.087,0.208-52.175,0.417-78.262,0.625l0.529,10.86H244.661z"
						/>
					<rect x="186.972" y="362.474" style="fill:#FFF8ED;" width="36.444" height="11.514"/>
					<rect x="249.994" y="377.663" style="fill:#D6703E;" width="5.696" height="5.696"/>
					<rect x="258.26" y="377.663" style="fill:#D6703E;" width="5.696" height="5.696"/>
					<rect x="266.526" y="377.663" style="fill:#D6703E;" width="5.696" height="5.696"/>
				</g>
				<path style="fill:#FC957A;" d="M283.036,349.404c6.306-32.41,7.626-64.815,14.674-77.57c3.128-5.661,10.31-10.989,15.665-6.96
					c7.695,5.79,10.627,20.625,8.297,35.387c-9.893,62.663-21.889,74.079-21.889,74.079
					C293.418,373.784,285.844,365.259,283.036,349.404z"/>
				<g>
					<path style="fill:#FC957A;" d="M260.472,294.842c-4.703-8.008-6.318-10.587-7.412-11.756c-0.981-1.049-1.072-1.051-3.053-2.498
						c-4.502-3.289-10.452-6.174-14.992-9.415c-1.234,0.737-1.334,3.057-0.598,4.292c0.886,1.488,2.811,3.365,3.955,4.293
						c2.605,2.115,4.712,3.766,7.544,6.117c1.038,2.741,1.559,7.692,2.597,10.433L260.472,294.842z"/>
					<path style="fill:#FC957A;" d="M260.472,294.842c-1.033-1.962-3.504-1.035-5.688-1.59c-3.137-0.797-5.362-1.459-12.909-1.862
						c-2.183-0.116-4.682,0.996-4.287,4.181c0.231,1.86,2.031,3.163,3.686,4.107c1.607,0.917,3.596,1.012,4.641,1.64
						c1.592,3.001,4.842,8.983,7.947,10.471c3.104,1.488,8.404,2.043,13.097-3.226C266.958,308.564,262.481,298.656,260.472,294.842
						z"/>
					<path style="fill:#FC957A;" d="M299.783,374.34c3.887-0.376,6.302-14.646,3.027-20.16
						c-10.203-17.179-24.834-34.056-39.78-53.626c-3.378,0.985-2.969,9.706-6.347,10.69c4.956,7.696,10.392,41.458,24.336,55.59
						C288.501,374.417,296.671,374.641,299.783,374.34z"/>
					<path style="fill:#FC957A;" d="M251.593,300.029c-2.453,0.505-4.476,1.448-6.732,2.515c0.785,0.15,1.582,0.305,2.296,0.659
						c0.714,0.354,1.346,0.942,1.56,1.696c0.215,0.754-0.1,1.825-0.817,2.171c-1.524-0.489-3.272-1.235-4.785-1.756
						c-0.727-0.251-1.463-0.505-2.109-0.918c-0.646-0.413-1.203-1.006-1.409-1.733c-0.207-0.727-0.003-1.742,0.616-2.191
						c-1.252,0.24-2.624-0.535-3.039-1.714c-0.415-1.18,0.157-2.324,1.295-2.886c-1.194-0.02-2.278-1.051-2.333-2.217
						c-0.055-1.166,1.231-2.365,2.417-2.491c-0.927-0.203-1.973-0.495-2.388-1.33c-0.389-0.78-0.029-1.758,0.61-2.359
						c0.64-0.601,1.404-1.096,2.286-1.188c3.901-0.406,7.803-0.813,11.704-1.219C253.104,289.641,253.589,295.306,251.593,300.029z"
						/>
				</g>
				<g>
					<g>
						<path style="fill:#897D74;" d="M200.632,274.797c3.769,14.028,8.039,27.949,11.803,41.978c0.319,1.188,1.46,1.961,2.681,1.812
							l19.581-2.397c1.51-0.185,2.495-1.677,2.073-3.138l-12.122-41.937c-0.337-1.165-1.469-1.913-2.673-1.766l-19.252,2.357
							C201.232,271.888,200.242,273.347,200.632,274.797z"/>
						<path style="fill:#AF9E8E;" d="M198.309,275.082c3.769,14.028,8.039,27.949,11.803,41.978c0.319,1.188,1.46,1.961,2.681,1.812
							l19.581-2.397c1.51-0.185,2.495-1.677,2.073-3.138l-12.122-41.937c-0.337-1.165-1.469-1.913-2.673-1.766L200.4,271.99
							C198.91,272.172,197.92,273.632,198.309,275.082z"/>
					</g>
					<path style="fill:#726963;" d="M215.074,273.858c0.868,3.229,1.85,6.433,2.717,9.663c0.073,0.274,0.336,0.452,0.617,0.417
						l4.507-0.552c0.347-0.043,0.574-0.386,0.477-0.722l-2.79-9.654c-0.078-0.268-0.338-0.44-0.615-0.406l-4.432,0.543
						C215.212,273.188,214.985,273.525,215.074,273.858z"/>
					<path style="fill:#897D74;" d="M220.14,275.663c0.262,0.938-0.3,1.793-1.255,1.91c-0.956,0.117-1.943-0.548-2.206-1.486
						c-0.263-0.938,0.299-1.793,1.255-1.91C218.89,274.059,219.877,274.725,220.14,275.663z"/>
					<path style="fill:#897D74;" d="M221.5,280.482c0.262,0.938-0.3,1.793-1.255,1.91c-0.956,0.117-1.943-0.549-2.206-1.487
						c-0.262-0.938,0.3-1.793,1.255-1.91C220.249,278.879,221.237,279.544,221.5,280.482z"/>
				</g>
				<g>
					<path style="fill:#FFAF99;" d="M198.876,294.506c-1.408,0.743-3.337,0.271-4.242-1.039c-0.905-1.31-0.726-3.354,0.528-4.335
						c3.909-3.058,9.042-5.289,12.837-6.548c2.039-0.056,3.078,3.112,1.469,4.888C208.135,289.398,203.011,292.324,198.876,294.506z
						"/>
					<path style="fill:#FFAF99;" d="M201.192,300.67c-1.27,0.296-2.7-0.361-3.303-1.517c-0.604-1.156-0.379-2.767,0.643-3.578
						c3.204-2.542,7.91-4.742,12.11-6.456c1.952-0.054,2.93,3.174,1.526,4.849C208.755,297.056,205.674,299.628,201.192,300.67z"/>
					<path style="fill:#FFAF99;" d="M204.419,306.477c-1.177,0.243-2.514,0.019-3.192-0.973c-0.485-0.709-0.598-1.648-0.337-2.466
						c0.261-0.818,0.878-1.507,1.644-1.896c3.358-1.705,7.023-2.857,10.647-3.881c1.544-0.258,2.449,3.023,0.629,4.538
						C213.809,301.798,208.55,305.625,204.419,306.477z"/>
					<path style="fill:#FFAF99;" d="M207.048,312.444c-1.282,0.319-2.743-0.412-3.256-1.629c-0.513-1.217-0.017-2.774,1.106-3.469
						c2.929-1.813,6.49-2.855,9.893-3.388c1.078,0.222,1.882,2.112,0.629,3.699c0,0-1.604,1.2-3.321,2.313
						C210.93,310.728,208.401,312.107,207.048,312.444z"/>
				</g>
			</g>
		</g>
		<g>
			<g>
				<path style="fill:#FFF8ED;" d="M504.331,223.165h160.821c4.804,0,8.699,3.895,8.699,8.699v38.347
					c0,4.804-3.895,8.699-8.699,8.699H504.331c-4.804,0-8.699-3.895-8.699-8.699v-38.347
					C495.632,227.06,499.526,223.165,504.331,223.165z"/>
				<polygon style="fill:#FFF8ED;" points="591.526,275.509 573.556,275.509 573.556,292.168 				"/>
				<g>
					<g>
						<circle style="fill:#FF931E;" cx="645.565" cy="249.467" r="16.346"/>
						<g>
							<path style="fill:#2D1411;" d="M641.098,247.577c0,0.969-0.785,1.754-1.754,1.754c-0.969,0-1.754-0.785-1.754-1.754
								s0.785-1.754,1.754-1.754C640.313,245.823,641.098,246.609,641.098,247.577z"/>
							<path style="fill:#2D1411;" d="M653.541,247.577c0,0.969-0.785,1.754-1.754,1.754s-1.754-0.785-1.754-1.754
								s0.785-1.754,1.754-1.754S653.541,246.609,653.541,247.577z"/>
						</g>
						<path style="fill:#2D1411;" d="M636.248,252.853c0.578,4.636,4.524,8.226,9.317,8.226c4.793,0,8.739-3.59,9.317-8.226H636.248
							z"/>
					</g>
					<g>
						<circle style="fill:#FF931E;" cx="600.179" cy="249.467" r="16.346"/>
						<g>
							<path style="fill:#2D1411;" d="M595.712,247.577c0,0.969-0.785,1.754-1.754,1.754c-0.969,0-1.754-0.785-1.754-1.754
								s0.785-1.754,1.754-1.754C594.927,245.823,595.712,246.609,595.712,247.577z"/>
							<path style="fill:#2D1411;" d="M608.154,247.577c0,0.969-0.785,1.754-1.754,1.754c-0.969,0-1.754-0.785-1.754-1.754
								s0.785-1.754,1.754-1.754C607.369,245.823,608.154,246.609,608.154,247.577z"/>
						</g>
						<rect x="592.794" y="255.063" style="fill:#2D1411;" width="14.771" height="1.952"/>
					</g>
					<g>
						<g>
							<circle style="fill:#FF931E;" cx="554.793" cy="249.467" r="16.346"/>
							<g>
								<path style="fill:#2D1411;" d="M550.326,247.577c0,0.969-0.785,1.754-1.754,1.754c-0.969,0-1.754-0.785-1.754-1.754
									s0.785-1.754,1.754-1.754C549.54,245.823,550.326,246.609,550.326,247.577z"/>
								<path style="fill:#2D1411;" d="M562.768,247.577c0,0.969-0.785,1.754-1.754,1.754s-1.754-0.785-1.754-1.754
									s0.785-1.754,1.754-1.754S562.768,246.609,562.768,247.577z"/>
							</g>
						</g>
						<path style="fill:#2D1411;" d="M548.491,258.276l-1.464-1.291c1.971-2.234,4.801-3.515,7.766-3.515
							c2.965,0,5.795,1.281,7.766,3.515l-1.464,1.291c-1.6-1.814-3.897-2.855-6.302-2.855S550.091,256.462,548.491,258.276z"/>
					</g>
				</g>
			</g>
			<g>
				<path style="fill:#8F352B;" d="M524.048,356.685c-4.684-18.274-2.321-61.685-4.413-79.913c0,0,7.998,1.845,11.485,7.373
					c8.318,16.957,23.175,40.696,31.923,57.244c2.969,5.617,2.684,22.678-0.868,26.648
					C559.089,371.488,538.662,373.074,524.048,356.685z"/>
				<path style="fill:#00314C;" d="M451.124,447.036c-3.372-2.853-5.992-6.562-7.456-10.685c-2.078-5.849-1.922-11.701-0.079-17.625
					c3.97-12.759,10.08-24.878,18.011-35.724l49.434-2.7c30.701,6.422,60.118,18.676,86.132,35.881
					c5.526,3.655,12.051,8.48,13.565,14.838c1.318,5.533-0.196,11.611-3.84,16.015H451.124z"/>
				<path style="fill:#0C4469;" d="M496.087,381.118l-34.486,1.884c-7.931,10.846-14.041,22.965-18.011,35.724
					c-1.843,5.924-1.998,11.776,0.079,17.625c1.464,4.122,4.084,7.832,7.456,10.685h105.247
					C539.107,422.681,518.809,400.482,496.087,381.118z"/>
				<path style="fill:#EF8114;" d="M519.734,276.626c5.023,0.373,9.59,3.266,13.009,6.965c3.419,3.699,5.852,8.181,8.248,12.611
					c5.096,9.42,10.191,18.84,15.287,28.26c2.184,4.038,2.271,8.268,4.31,12.381c-13.121,6.324-23.208,14.605-32.225,26.044
					c-10.085-14.39-15.755-32.166-15.555-49.737C512.957,300.189,516.626,289.211,519.734,276.626z"/>
				<path style="fill:#FF931E;" d="M444.074,283.351c6.873-8.02,16.904-5.699,16.904-5.699c5.478,2.684,25.62,3.636,49.476-0.604
					l9.181-0.276c0,0,3.855,5.812,9.78,21.514c2.116,5.607,7.023,11.026,9.948,16.256c2.572,4.598,4.169,8.281,3.32,13.48
					c-0.849,5.199-4.188,9.934-8.801,12.478c-0.795,0.438-1.612,0.805-2.445,1.117c-0.445,10.711-4.758,34.285-8.555,41.47
					l-61.282-0.085c0,0-9.921-36.869-15.655-53.418C435.678,299.947,440.356,287.69,444.074,283.351z"/>
				<path style="fill:#8F352B;" d="M510.454,277.048c2.903,12.64,1.398,26.929-6.083,37.239
					c-16.833-7.741-31.766-22.822-43.815-37.327C477.314,276.275,493.696,277.734,510.454,277.048z"/>
				<path style="fill:#AD3D31;" d="M423.097,334.515c-2.431,15.956-1.365,28.79-0.413,33.789c0.953,4.999,3.515,9.281,8.01,11.665
					c7.279,3.859,16.26-5.757,20.154-13.017c3.894-7.26,4.523-15.842,3.98-24.062c-0.234-3.548-1.174-7.763-4.512-8.987
					c-2.51-0.921-5.229,0.32-7.733,1.255C437.52,337.048,428.469,335.107,423.097,334.515z"/>
				<path style="fill:#FF931E;" d="M461.805,343.204c6.303-21.425-0.042-44.932-8.703-65.517c-3.87,0.606-6.579,2.168-10.562,5.809
					c-3.983,3.641-6.908,8.296-9.328,13.12c-7.269,14.495-10.272,30.694-13.163,46.649c5.372,4.514,10.196,8.386,17.13,9.461
					c2.709,0.42,5.762,0.458,7.858-1.309C450.176,347.089,455.652,345.898,461.805,343.204z"/>
				<g>
					<path style="fill:#AD3D31;" d="M493.122,318.613c7.211-5.852,9.627-7.702,11.061-8.414c1.286-0.639,1.373-0.609,3.734-1.27
						c5.37-1.503,11.953-2.12,17.341-3.565c0.898,1.123,0.178,3.33-0.944,4.23c-1.352,1.083-3.812,2.166-5.208,2.635
						c-3.181,1.068-5.733,1.876-9.209,3.086c-1.932,2.203-4.155,6.658-6.088,8.862L493.122,318.613z"/>
					<path style="fill:#AD3D31;" d="M493.122,318.613c1.655-1.476,3.644,0.258,5.884,0.504c3.217,0.353,5.533,0.512,12.743,2.779
						c2.085,0.656,4.037,2.573,2.551,5.418c-0.868,1.661-3.01,2.251-4.891,2.555c-1.827,0.296-3.722-0.312-4.921-0.09
						c-2.542,2.253-7.683,6.717-11.112,7.023c-3.429,0.306-8.587-1.031-11.136-7.61C482.24,329.192,489.904,321.482,493.122,318.613
						z"/>
					<path style="fill:#AD3D31;" d="M427.075,377.002c0,0,0.602-13.63,5.601-17.647c15.576-12.515,35.192-23.196,56.048-36.288
						c2.819,2.106-0.62,10.131,2.199,12.237c-7.338,5.472-24.26,35.188-42.272,43.539
						C438.988,383.322,430.22,381.535,427.075,377.002z"/>
					<path style="fill:#AD3D31;" d="M499.621,326.582c2.121,1.332,3.684,2.924,5.425,4.714c-0.788-0.134-1.589-0.269-2.381-0.187
						c-0.793,0.082-1.59,0.41-2.056,1.041c-0.465,0.631-0.546,1.744,0.005,2.319c1.599,0.076,3.497-0.01,5.097,0.032
						c0.769,0.02,1.547,0.04,2.297-0.121c0.749-0.16,1.479-0.521,1.927-1.129c0.448-0.608,0.613-1.63,0.191-2.268
						c1.088,0.663,2.645,0.419,3.448-0.541c0.802-0.96,0.668-2.232-0.202-3.157c1.125,0.399,2.501-0.186,2.961-1.259
						c0.46-1.073-0.324-2.646-1.391-3.18c0.939,0.134,2.021,0.227,2.703-0.409c0.637-0.595,0.643-1.636,0.255-2.423
						c-0.388-0.787-0.931-1.518-1.725-1.914c-3.512-1.747-7.024-3.495-10.535-5.243
						C501.845,316.324,499.406,321.459,499.621,326.582z"/>
				</g>
				<path style="fill:#8F352B;" d="M555.439,320.894c6.957,15.53,12.902,26.245,8.149,43.884c-0.676,2.509-1.035,2.674-3.297,3.956
					c-1.987,1.126-4.542,0.877-6.572-0.172c-2.03-1.049-3.611-2.794-4.97-4.63c-8.946-12.086-9.236-29.89-0.687-42.26
					C550.764,321.848,552.737,320.718,555.439,320.894z"/>
				<g>
					<g>
						<path style="fill:#897D74;" d="M556.737,292.616c-3.769,14.028-8.039,27.949-11.803,41.977
							c-0.319,1.188-1.46,1.961-2.681,1.812l-19.581-2.397c-1.509-0.185-2.495-1.677-2.073-3.138l12.122-41.938
							c0.337-1.165,1.469-1.913,2.673-1.766l19.252,2.357C556.137,289.706,557.127,291.166,556.737,292.616z"/>
						<path style="fill:#AF9E8E;" d="M559.06,292.9c-3.769,14.028-8.039,27.949-11.803,41.978c-0.319,1.188-1.46,1.961-2.681,1.812
							l-19.581-2.397c-1.51-0.185-2.495-1.677-2.073-3.138l12.122-41.938c0.337-1.165,1.469-1.913,2.673-1.766l19.252,2.357
							C558.46,289.991,559.45,291.45,559.06,292.9z"/>
					</g>
					<path style="fill:#726963;" d="M542.295,291.677c-0.868,3.229-1.851,6.433-2.717,9.663c-0.073,0.274-0.336,0.452-0.617,0.417
						l-4.507-0.552c-0.347-0.043-0.574-0.386-0.477-0.722l2.79-9.654c0.078-0.268,0.338-0.44,0.615-0.407l4.432,0.542
						C542.157,291.007,542.385,291.343,542.295,291.677z"/>
					<path style="fill:#897D74;" d="M537.229,293.481c-0.263,0.938,0.3,1.793,1.255,1.91s1.943-0.548,2.206-1.487
						c0.263-0.938-0.3-1.793-1.255-1.91C538.479,291.878,537.492,292.543,537.229,293.481z"/>
					<path style="fill:#897D74;" d="M535.87,298.301c-0.262,0.938,0.3,1.793,1.255,1.91s1.943-0.548,2.206-1.486
						c0.263-0.938-0.299-1.793-1.255-1.91C537.12,296.697,536.132,297.362,535.87,298.301z"/>
				</g>
				<g>
					<path style="fill:#8F352B;" d="M558.493,312.325c1.408,0.743,3.337,0.271,4.242-1.039c0.905-1.31,0.726-3.354-0.528-4.335
						c-3.909-3.058-9.042-5.289-12.838-6.548c-2.039-0.056-3.078,3.112-1.469,4.888
						C549.234,307.217,554.358,310.142,558.493,312.325z"/>
					<path style="fill:#8F352B;" d="M556.177,318.489c1.27,0.295,2.7-0.361,3.303-1.517c0.604-1.156,0.379-2.767-0.643-3.578
						c-3.203-2.542-7.91-4.742-12.11-6.456c-1.952-0.054-2.93,3.174-1.526,4.849C548.614,314.875,551.695,317.446,556.177,318.489z"
						/>
					<path style="fill:#8F352B;" d="M552.951,324.295c1.177,0.243,2.514,0.019,3.192-0.973c0.485-0.709,0.598-1.648,0.337-2.466
						c-0.26-0.819-0.878-1.507-1.644-1.896c-3.358-1.705-7.023-2.857-10.647-3.881c-1.544-0.258-2.449,3.023-0.629,4.538
						C543.561,319.617,548.819,323.443,552.951,324.295z"/>
					<path style="fill:#8F352B;" d="M550.321,330.263c1.282,0.319,2.743-0.412,3.256-1.629c0.513-1.217,0.017-2.774-1.106-3.469
						c-2.929-1.813-6.49-2.855-9.893-3.388c-1.078,0.222-1.882,2.112-0.629,3.699c0,0,1.604,1.2,3.32,2.313
						C546.439,328.546,548.968,329.926,550.321,330.263z"/>
				</g>
				<path style="fill:#2D1411;" d="M524.453,238.611c1.076,9.068,1.017,18.269-0.174,27.322c-0.493,3.744-1.258,7.642-3.648,10.566
					c-3.439,4.206-9.571,5.381-14.896,4.301c-5.324-1.08-10.053-4.029-14.65-6.923c3.113-15.954,12.926-30.489,26.56-39.34
					L524.453,238.611z"/>
				<path style="fill:#8F352B;" d="M473.013,277.867c3.34-12.989,9.309-26.364,13.845-34.738l17.071,16.203
					c-2.88,5.886-5.039,17.024-5.039,21.632L473.013,277.867z"/>
				<path style="fill:#2D1411;" d="M500.17,212.592c0.898-4,3.016-6.56,5.375-7.062c4.89-1.04,12.592,3.567,16.295,8.401
					c3.32,4.333,7.801,11.059,7.646,19.058c-0.089,4.571-2.002,9.078-4.363,12.134s-5.139,4.924-7.865,6.741
					C517.81,251.497,499.555,215.332,500.17,212.592z"/>
				<g>
					
						<ellipse transform="matrix(0.5018 -0.865 0.865 0.5018 47.4766 555.9847)" style="fill:#AD3D31;" cx="506.388" cy="236.778" rx="21.669" ry="20.745"/>
					<path style="fill:#AD3D31;" d="M523.247,248.32c0.005,4.038-1.353,10.027-3.915,15.965c-1.529,3.545-5.448,7.326-8.186,9.425
						c-2.648,2.03-6.177,0.634-7.845-0.409c-8.753-5.477-14.827-13.382-14.827-16.061c0-2.775,5.552-16.06,7.096-18.324
						l11.042-7.117L523.247,248.32z"/>
					<path style="fill:#2D1411;" d="M513.462,259.608l-0.523-0.017c0.018-0.564,0.191-1.025,0.465-1.232
						c0.154-0.116,0.329-0.153,0.514-0.109c0.98,0.241,3.276,0.804,3.838,0.19c0.813-0.89,0.742-1.028,0.344-1.794
						c-0.114-0.221-0.25-0.481-0.391-0.808c-1.175-2.729-1.675-5.381-1.372-7.279c0.194-1.208,1.459-3.868,2.383-4.747l0.361,0.379
						c-0.784,0.747-2.033,3.243-2.227,4.451c-0.288,1.801,0.198,4.349,1.335,6.989c0.135,0.313,0.265,0.563,0.375,0.774
						c0.474,0.913,0.587,1.284-0.422,2.388c-0.712,0.779-2.617,0.391-4.35-0.034c-0.023-0.005-0.043-0.006-0.072,0.018
						C513.601,258.865,513.475,259.18,513.462,259.608z"/>
					<path style="fill:#2D1411;" d="M517.844,249.067l-0.461-0.249c0.624-1.155,1.873-1.951,3.182-2.027
						c1.326-0.074,2.645,0.568,3.397,1.642l-0.428,0.301c-0.652-0.929-1.803-1.487-2.938-1.42
						C519.463,247.38,518.383,248.068,517.844,249.067z"/>
					<path style="fill:#2D1411;" d="M499.976,247.297l-0.467-0.237c0.856-1.683,2.63-2.811,4.518-2.873
						c1.891-0.06,3.731,0.948,4.696,2.571l-0.449,0.267c-0.855-1.438-2.523-2.376-4.229-2.315
						C502.37,244.765,500.735,245.804,499.976,247.297z"/>
					<path style="fill:#2D1411;" d="M518.77,248.235c-0.399,0.977,0.07,2.092,1.047,2.491c0.977,0.399,2.092-0.07,2.491-1.047
						c0.399-0.977-0.07-2.092-1.047-2.491C520.284,246.79,519.169,247.258,518.77,248.235z"/>
					<path style="fill:#FFF8ED;" d="M521.052,247.836c-0.133,0.325,0.023,0.696,0.348,0.829c0.325,0.133,0.696-0.023,0.829-0.348
						c0.133-0.325-0.023-0.696-0.348-0.829C521.556,247.355,521.185,247.511,521.052,247.836z"/>
					<path style="fill:#2D1411;" d="M503.909,244.692c-0.973,0.409-1.43,1.529-1.021,2.501s1.529,1.43,2.501,1.021
						c0.973-0.409,1.43-1.529,1.021-2.501C506.002,244.74,504.882,244.283,503.909,244.692z"/>
					<path style="fill:#FFF8ED;" d="M505.163,245.332c-0.133,0.325,0.023,0.696,0.348,0.829s0.696-0.023,0.829-0.348
						c0.133-0.325-0.023-0.696-0.348-0.829S505.296,245.007,505.163,245.332z"/>
					<g>
						<path style="fill:#8F352B;" d="M503.929,259.332c-0.283,2.351,0.121,4.282,1.446,5.851c2.154,2.551,5.824,2.828,7.16,1.059
							c1.102-1.46,1.448-3.068,1.77-3.909c0.232-0.071,1.19-0.003,1.423-0.075C513.069,260.526,508.647,260.18,503.929,259.332z"/>
						<path style="fill:#FFF8ED;" d="M513.855,262.36c-0.794,0.098-1.075,0.42-1.418,1.077c-0.566,1.085-1.675,1.573-2.837,1.286
							c-2.257-0.559-4.02-3.174-4.281-4.52C507.887,261.708,510.907,262.46,513.855,262.36z"/>
						<path style="fill:#2D1411;" d="M513.127,262.702c-3.625,0-7.264-1.308-9.997-3.688l0.344-0.395
							c3.393,2.953,8.23,4.197,12.631,3.243l0.111,0.512C515.202,262.595,514.165,262.702,513.127,262.702z"/>
					</g>
					<path style="fill:#2D1411;" d="M499.064,239.662c1.07-0.285,2.152-0.589,3.236-0.82c0.645-0.137,1.107-0.104,1.722,0.177
						c0.437,0.2,0.849,0.471,1.283,0.693c0.524,0.268,1.06,0.512,1.576,0.796c0.581,0.32,1.132,0.682,1.677,1.06
						c0.496,0.343,1.205,1.003,1.822,0.993c0.569-0.009,0.608-0.919,0.448-1.285c-0.31-0.71-1.037-1.245-1.68-1.653
						c-0.583-0.371-1.181-0.719-1.798-1.028c-0.565-0.283-1.145-0.561-1.76-0.713c-0.228-0.056-0.471-0.13-0.705-0.151
						c-0.251-0.023-0.522,0.018-0.782,0.024c-1.833,0.042-3.516,0.719-5.102,1.602C498.888,239.418,498.907,239.704,499.064,239.662
						L499.064,239.662z"/>
					<path style="fill:#2D1411;" d="M526.264,242.625c-1.094-0.089-2.188-0.118-3.284-0.03c-0.724,0.058-1.435,0.176-2.144,0.329
						c-0.436,0.094-0.869,0.198-1.3,0.311c-0.508,0.134-1.086,0.227-1.357,0.722c-0.161,0.293-0.204,0.875,0.12,1.099
						c0.247,0.17,0.376,0.185,0.672,0.121c0.243-0.053,0.472-0.133,0.707-0.213c0.424-0.143,0.852-0.277,1.282-0.399
						c0.694-0.196,1.398-0.365,2.106-0.504c1.065-0.21,2.141-0.309,3.225-0.349C526.778,243.695,526.743,242.664,526.264,242.625
						L526.264,242.625z"/>
				</g>
				<path style="fill:#2D1411;" d="M493.505,249.693c-2.973,2.699-8.591,3.759-12.323,5.096c-1.881-3.92-4.391-14.764-6.016-22.29
					c-0.635-2.943-1.098-6.013-0.491-8.982c0.848-4.147,3.723-7.645,7.12-10.068c3.396-2.423,9.297-6.082,13.379-5.693
					c9.887,1.104,22.126,6.882,28.074,15.019c-1.76-1.475-5.012-0.72-5.012-0.72c-6.975-5.043-16.7,3.732-20.052,8.693
					c-3.132,4.635-4.753,7.877-4.139,11.269C494.53,244.703,494.208,247.054,493.505,249.693z"/>
				<path style="fill:#2D1411;" d="M508.495,207.261c0.002,0.002-6.867,5.638-8.752,10.02c-5.068,11.778-8.841,30.862-8.841,30.862
					c-1.598,8.67-3.292,17.6-8.85,24.596c-4.493,5.654-14.396,10.156-20.726,6.865c-5.448-2.832-9.457-1.679-9.457-1.679
					c4.504-7.155,9.289-15.47,11.904-23.505c2.893-8.892,4.444-18.267,7.451-27.093c2.422-7.11,6.364-14.468,12.21-19.189
					c6.042-4.88,16.031-7.401,22.873-2.785C507.108,205.895,507.846,206.535,508.495,207.261z"/>
				<g>
					<path style="fill:#AD3D31;" d="M493.026,247.494c-0.694-4.344-3.495-6.366-6.359-4.645c-1.577,0.948-2.43,3.055-2.305,4.95
						c0.128,1.929,1.119,3.459,2.258,4.704c0.395,0.432,4.218,3.545,4.22,3.535C490.84,256.037,493.036,247.556,493.026,247.494z"/>
					<path style="fill:#8F352B;" d="M489.848,251.616c-0.173,0.346-0.597,0.494-0.942,0.318c-1.57-0.803-2.834-2.442-2.998-4.2
						c-0.086-0.648-0.051-1.332,0.244-1.915c0.513-1.012,1.841-1.521,2.899-1.111c1.183,0.458,2.146,2.087,1.339,3.287
						c-0.437,0.65-1.401,0.977-0.978,1.947c0.034,0.078,0.125,0.183,0.236,0.293c0.352,0.347,0.454,0.875,0.232,1.317
						L489.848,251.616z"/>
				</g>
				<path style="fill:#2D1411;" d="M471.164,283.319c-0.845,0-1.679-0.087-2.49-0.266c-2.691-0.593-5.062-2.114-7.354-3.586
					c-2.329-1.495-4.738-3.042-7.443-3.563l0.1-0.514c2.804,0.539,5.255,2.113,7.627,3.636c2.254,1.447,4.584,2.943,7.185,3.515
					c3.938,0.869,8.479-0.522,11.85-3.627c2.858-2.632,5.004-6.506,6.203-11.201c1.081-4.233,1.338-8.673,1.586-12.967l0.523,0.03
					c-0.25,4.319-0.509,8.784-1.602,13.066c-1.226,4.795-3.423,8.757-6.356,11.457C478.188,281.883,474.595,283.319,471.164,283.319
					z"/>
			</g>
			<g>
				<g>
					<g>
						<polygon style="fill:#C15C34;" points="387.957,447.036 388.211,403.325 422.404,400.575 421.823,447.036 						"/>
						<path style="fill:#D6703E;" d="M421.823,447.036l0.581-46.461c23.023,0.843,46.045,1.685,69.068,2.528l-0.466,43.933H421.823z
							"/>
					</g>
					<g>
						<polygon style="fill:#D6703E;" points="383.995,405.273 384.268,390.041 421.079,389.082 420.454,405.273 						"/>
						<path style="fill:#E47C48;" d="M420.454,405.273l0.625-16.19c24.785,0.294,49.57,0.587,74.355,0.881l-0.502,15.31H420.454z"/>
					</g>
				</g>
				<rect x="466.779" y="430.727" style="fill:#FFF8ED;" width="18.551" height="11.527"/>
				<rect x="427.075" y="437.26" style="fill:#C15C34;" width="5.696" height="5.696"/>
				<rect x="435.341" y="437.26" style="fill:#C15C34;" width="5.696" height="5.696"/>
				<rect x="443.607" y="437.26" style="fill:#C15C34;" width="5.696" height="5.696"/>
			</g>
			<g>
				<g>
					<g>
						<polygon style="fill:#C15C34;" points="266.573,447.036 266.856,422.466 337.084,419.404 336.437,447.036 						"/>
						<path style="fill:#D6703E;" d="M336.437,447.036l0.647-27.632c25.634,0.938,9.75,1.877,35.384,2.815l-0.519,24.817H336.437z"
							/>
					</g>
					<g>
						<polygon style="fill:#D6703E;" points="259.785,424.635 260.089,411.185 335.608,410.339 334.912,424.635 						"/>
						<path style="fill:#E47C48;" d="M334.912,424.635l0.696-14.296c27.596,0.259,13.674,0.519,41.27,0.778l-0.559,13.518H334.912z"
							/>
					</g>
				</g>
				<rect x="275.21" y="430.862" style="fill:#D6703E;" width="25.45" height="8.46"/>
				<rect x="342.284" y="436.151" style="fill:#C15C34;" width="6.342" height="6.342"/>
				<rect x="351.488" y="436.151" style="fill:#C15C34;" width="6.342" height="6.342"/>
				<rect x="360.691" y="436.151" style="fill:#C15C34;" width="6.342" height="6.342"/>
			</g>
		</g>
		<polygon style="fill:#FFF8ED;" points="242.805,108.345 256.907,116.888 271.939,110.114 268.172,126.166 279.26,138.369 
			262.83,139.747 254.65,154.063 248.262,138.862 232.12,135.507 244.602,124.735 		"/>
		<polygon style="fill:#FFF8ED;" points="563.823,164.413 564.235,173.444 571.909,178.224 563.447,181.407 561.272,190.182 
			555.63,183.118 546.612,183.762 551.587,176.213 548.189,167.835 556.905,170.234 		"/>
		<polygon style="fill:#FFF8ED;" points="286.43,67.588 283.527,76.15 288.934,83.395 279.894,83.28 274.674,90.661 271.991,82.028 
			263.358,79.344 270.739,74.124 270.624,65.085 277.869,70.492 		"/>
		<polygon style="fill:#FFF8ED;" points="76.885,317.925 82.422,321.799 88.752,319.435 86.778,325.898 90.983,331.188 
			84.227,331.308 80.495,336.942 78.293,330.553 71.781,328.745 77.177,324.677 		"/>
		<polygon style="fill:#FFF8ED;" points="314.691,90.661 315.23,96.616 320.441,99.548 314.944,101.901 313.766,107.763 
			309.829,103.262 303.89,103.953 306.954,98.818 304.462,93.383 310.292,94.711 		"/>
	</g>
</g>
</svg>
