<?xml version="1.0" encoding="utf-8"?>
<!-- Generator: Adobe Illustrator 27.5.0, SVG Export Plug-In . SVG Version: 6.00 Build 0)  -->
<svg version="1.1" xmlns="http://www.w3.org/2000/svg" xmlns:xlink="http://www.w3.org/1999/xlink" x="0px" y="0px"
	 viewBox="0 0 750 500" style="enable-background:new 0 0 750 500;" xml:space="preserve">
<g id="BACKGROUND">
	<rect y="0.001" style="fill:#FFFFFF;" width="750" height="500"/>
</g>
<g id="OBJECTS">
	<g>
		<g>
			<g>
				<path style="fill:#E0C979;" d="M317.926,328.135V172.094c0-36.424,29.633-66.056,66.056-66.056h246.583
					c36.423,0,66.056,29.632,66.056,66.056v156.041c0,36.423-29.633,66.056-66.056,66.056H383.982
					C347.559,394.191,317.926,364.558,317.926,328.135z M383.982,136.526c-19.612,0-35.568,15.955-35.568,35.568v156.041
					c0,19.612,15.956,35.568,35.568,35.568h246.583c19.612,0,35.568-15.956,35.568-35.568V172.094
					c0-19.613-15.956-35.568-35.568-35.568H383.982z"/>
				<path style="fill:#E0C979;" d="M53.38,368.702V212.66c0-36.423,29.633-66.055,66.056-66.055h246.583
					c36.423,0,66.056,29.632,66.056,66.055v156.041c0,36.423-29.633,66.056-66.056,66.056H119.436
					C83.013,434.757,53.38,405.125,53.38,368.702z M119.436,177.092c-19.612,0-35.568,15.955-35.568,35.568v156.041
					c0,19.612,15.956,35.568,35.568,35.568h246.583c19.612,0,35.568-15.956,35.568-35.568V212.66
					c0-19.613-15.956-35.568-35.568-35.568H119.436z"/>
			</g>
			<g>
				<path style="fill:#B3A162;" d="M402.548,363.826h28.519c0.561,0,1.017-0.454,1.017-1.016c0-0.561-0.455-1.017-1.017-1.017
					h-28.519c-0.56,0-1.016,0.455-1.016,1.017C401.532,363.372,401.987,363.826,402.548,363.826z"/>
				<path style="fill:#B3A162;" d="M324.409,146.629h34.409c0.561,0,1.017-0.456,1.017-1.017c0-0.562-0.455-1.016-1.017-1.016
					h-34.409c-0.561,0-1.016,0.455-1.016,1.016C323.394,146.173,323.848,146.629,324.409,146.629z"/>
				<path style="fill:#B3A162;" d="M317.926,177.092c5.124,0,25.193,0,30.487,0v7.645h-30.487V177.092z"/>
				<path style="fill:#B3A162;" d="M423.166,401.765h-44.062c4.423-1.757,8.413-4.372,11.761-7.646c11.732,0,27.127,0,36.116,0
					C425.875,396.761,424.593,399.31,423.166,401.765z"/>
				<path style="fill:#B3A162;" d="M186.396,404.27c3.44,6.442,7.588,11.991,12.192,16.596c-1.867,4.065-19.821,11.602-27.266,10.67
					c-5.024-7.53-10.984-16.963-16.203-27.266H186.396z"/>
			</g>
		</g>
		<g>
			<g>
				<g>
					<path style="fill:#CC4944;" d="M202.109,207.278c14.7,3.969,34.444,0.833,61.824,57.401
						c-4.743,73.847-19.729,114.524-19.729,139.591c-41.326,0-96.881,0-107.043,0c4.064-23.713,0-84.714,0-103.684
						c-17.615-2.711-21.831-6.096-25.642-9.906c-2.491-0.518-4.644-0.935-6.269-1.711c4.778-35.807,14.346-67.806,22.087-79.287
						c3.785-5.614,15.879-8.855,35.697-10.161C170.578,197.601,185.554,202.809,202.109,207.278z"/>
					<path style="fill:#A33A36;" d="M156.426,296.196c2.925-15.138,7.646-42.386,7.646-48.168
						c2.372,13.184-0.133,52.997-0.133,64.804C152.406,317.185,148.712,309.915,156.426,296.196z"/>
					<path style="fill:#943531;" d="M229.779,244.018c0.911,5.845,1.968,11.667,2.855,17.515c0.52,3.426,1.053,6.852,1.504,10.287
						c0.284,2.161,0.487,4.329,0.889,6.474c0.669-5.605,0.4-11.171-0.349-16.751C233.887,255.645,232.452,249.371,229.779,244.018z"
						/>
					<path style="fill:#943531;" d="M146.648,208.111c4.578,2.653,8.651,6.368,11.724,10.66c1.603,2.36,2.836,4.799,3.814,7.479
						c0.95,2.313,1.22,4.846,1.753,7.268c0.263-2.496,0.427-5.233-0.291-7.673c-0.832-3.015-1.879-5.617-3.614-8.241
						C156.717,213.182,152.134,209.416,146.648,208.111z"/>
				</g>
				<path style="fill:#D6794D;" d="M363.952,323.804c3.648-3.648,3.133-10.684,0-10.684c-3.133,0-15.556,9.197-25.413,19.055
					c-3.941,3.941-33.698-8.215-53.345-21.426c-3.726,19.309-2.372,23.713-4.065,31.165c11.179,7.452,59.665,22.276,64.485,19.14
					C354.214,347.672,359.972,336.011,363.952,323.804z"/>
				<g>
					<path style="fill:#2E2222;" d="M172.033,178.482c-4.702-11.796-11.599-20.648-17.148-30.218
						c-5.554-9.573-8.457-34.777,14.595-47.106c19.07-10.198,38.456-16.744,56.264-12.332c17.113,4.241,33.811,16.266,34.985,25.845
						c1.575,12.844-14.432,15.989-24.818,10.48C216.336,144.811,195.381,179.961,172.033,178.482z"/>
					<path style="fill:#E6885D;" d="M240.572,146.596c-0.089-2.231-0.798-23.569-3.006-29.78
						c-6.758,1.531-28.087,1.322-29.131,8.664c-1.044,7.344-9.522,5.798-11.64,14.493c-2.117,8.694-3.425,11.115-7.481,13.883
						c-0.707-15.07-12.007-16.403-17.087-11.189c-6.842,7.019,0.365,18.794,4.906,21.658c-9.157,19.332-3.75,27.102-14.098,35.197
						c8.182,15.929,28.955,39.144,39.779,28.321c3.04-10.896,0-19.485,3.04-29.329c10.239,0.387,21.794,3.19,27.407-4.526
						c4.057-5.583,6.114-13.752,7.007-23.884c3.878,0.392,8.393,0.588,8.402-2.787C248.69,162.333,240.662,148.828,240.572,146.596z
						"/>
					<g>
						<path style="fill:#2E2222;" d="M234.914,149.081c0.121,1.79-0.744,3.306-1.934,3.385c-1.187,0.08-2.249-1.305-2.369-3.096
							c-0.12-1.789,0.746-3.306,1.934-3.386C233.732,145.906,234.795,147.291,234.914,149.081z"/>
						<path style="fill:#BD653C;" d="M236.344,143.917c-1.222-0.043-2.456-0.126-3.676-0.015c-1.246,0.14-2.315,0.48-3.488,0.877
							C230.697,142.574,234.282,142.299,236.344,143.917z"/>
						<path style="fill:#2E2222;" d="M237.723,138.746c1.814-1.275,0.363-5.496-5.624-5.41c-4.388,0.065-9.402,3.314-8.938,5.367
							c0.465,2.052,4.846-0.281,8.649-0.098C234.12,138.718,236.483,139.619,237.723,138.746z"/>
						<path style="fill:#BD653C;" d="M177.134,164.325c1.059,0.233,2.102,0.309,3.18,0.263c1.092-0.043,2.117-0.398,3.196-0.505
							C181.969,165.7,178.662,166.381,177.134,164.325z"/>
						<path style="fill:#BD653C;" d="M184.29,154.826c-1.021-4.508-3.247-10.602-6.87-7.92c-3.624,2.681-0.784,9.992,3.996,12.462
							C180.722,156.311,181.048,154.713,184.29,154.826z"/>
						<path style="fill:#BD653C;" d="M186.671,178.032c-0.605,7.971,7.722,19.307,18.03,25.947c0.358-2.359,0.807-4.246,1.154-5.465
							C200.905,197.677,190.025,192.84,186.671,178.032z"/>
						<path style="fill:#BD653C;" d="M237.099,179.701c-4.059,1.867-8.827-1.45-8.668-5.781c0.982,1.426,1.804,2.921,3.329,3.861
							c0.864,0.533,1.796,1.002,2.78,1.27C234.795,179.124,237.065,179.546,237.099,179.701z"/>
					</g>
				</g>
				<g>
					<path style="fill:#3B5175;" d="M164.148,304.778c-5.561,0-24.36-0.295-22.074,27.651c2.286,27.946,8.807,34.577,31.334,29.103
						C176.626,338.526,173.266,317.523,164.148,304.778z"/>
					<path style="fill:#4D6A99;" d="M260.165,240.076c-19.773,19.773-67.337,50.263-96.017,64.702
						c-2.936,14.102-3.628,43.866,9.26,56.754c20.324,1.723,80.771,2.935,114.863,9.624
						C285.441,356.166,260.165,257.472,260.165,240.076z"/>
					<path style="fill:#3B5175;" d="M180.487,371.156c2.744,19.707,10.881,35.121,21.379,45.621
						c-1.866,4.064-19.82,11.603-27.266,10.67c-10.169-15.243-24.18-38.277-28.1-60.55
						C160.875,370.03,176.218,371.156,180.487,371.156z"/>
					<path style="fill:#4D6A99;" d="M256.177,309.166c7.619,36.646,23.242,64.39,34.897,61.966
						c11.655-2.423,14.926-34.094,7.307-70.74c-7.618-36.646-23.242-64.387-34.896-61.963
						C251.829,240.851,248.558,272.52,256.177,309.166z"/>
					<path style="fill:#3B5175;" d="M252.256,265.411c1.527-5.416,3.931-8.858,7.13-9.523c9.263-1.925,21.681,20.126,27.736,49.252
						c6.056,29.128,3.456,54.302-5.808,56.227c-2.017,0.42-4.183-0.3-6.401-1.978c-7.371-11.151-14.37-29.218-18.736-50.224
						C252.793,292.887,251.562,277.598,252.256,265.411z"/>
					<g>
						<path style="fill:#C7B67F;" d="M252.519,283.655c5.608,1.341,13.774,1.483,20.677,1.483c0,6.569,5.309,26.458,8.328,40.055
							c-8.717,2.721-12.724,6.094-16.879,13.366c-3.309-8.679-6.234-18.648-8.468-29.394
							C254.323,300.249,253.119,291.632,252.519,283.655z"/>
						<path style="fill:#F0E2B4;" d="M270.989,306.49c2.301,11.06,7.016,19.434,10.534,18.703c3.517-0.731,4.504-10.29,2.205-21.352
							c-2.3-11.061-7.016-19.434-10.533-18.703C269.678,285.871,268.69,295.429,270.989,306.49z"/>
						<path style="fill:#FFFFFF;" d="M273.195,285.138c-1.448,0.421-2.43,2.02-3.023,3.295c-0.811,1.747-1.183,3.727-1.323,5.638
							c-0.313,4.272,0.393,8.368,1.133,12.556c0.977,3.916,1.895,8.024,3.852,11.596c0.858,1.747,1.946,3.468,3.399,4.781
							c0.652,0.587,1.393,1.103,2.211,1.432c0.112,0.046,2.106,0.716,2.079,0.758c0.079-0.136-1.534-0.961-1.644-1.025
							c-0.71-0.39-1.333-0.972-1.862-1.577c-1.261-1.444-2.092-3.232-2.803-4.996c-1.596-3.591-2.352-7.6-3.25-11.404
							c-0.736-3.821-1.733-7.789-1.627-11.71c-0.039-1.909,0.059-3.879,0.59-5.725C271.295,287.479,271.954,285.814,273.195,285.138
							z"/>
					</g>
					<path style="fill:#7C9FD6;" d="M267.662,368.039c-4.397-0.521-8.957-0.992-13.6-1.422
						c-25.251-46.853-25.854-83.206-23.264-102.712c4.753-3.397,9.28-6.768,13.449-10.039
						C241.595,262.882,231.888,306.294,267.662,368.039z"/>
					<path style="opacity:0.2;fill:#FFFFFF;" d="M163.941,319.631c0.535,0,1.075-0.14,1.566-0.436l70.987-42.655
						c1.443-0.867,1.91-2.739,1.043-4.183c-0.866-1.444-2.742-1.91-4.184-1.043l-70.986,42.655c-1.444,0.867-1.91,2.74-1.043,4.183
						C161.896,319.105,162.906,319.631,163.941,319.631z"/>
					<path style="fill:#7C9FD6;" d="M255.182,309.372c-7.852-37.764-4.296-69.363,8.096-71.939c0.538-0.112,1.093-0.169,1.65-0.169
						c12.18,0,26.99,27.049,34.448,62.921c3.704,17.824,4.979,35.054,3.589,48.516c-1.429,13.837-5.579,22.158-11.686,23.427
						c-0.538,0.111-1.094,0.169-1.65,0.169C277.449,372.295,262.64,345.244,255.182,309.372z M263.69,239.422
						c-10.898,2.267-13.884,34.11-6.519,69.538c7.027,33.803,21.588,61.304,32.457,61.304c0.419,0,0.835-0.043,1.237-0.127
						c5.093-1.059,8.766-8.948,10.077-21.645c1.37-13.26,0.107-30.27-3.559-47.895c-7.027-33.802-21.588-61.301-32.457-61.301
						C264.509,239.296,264.093,239.338,263.69,239.422z"/>
				</g>
				<g>
					<path style="fill:#E6885D;" d="M111.521,290.68c-1.332,36.348-3.818,62.145,4.565,70.529
						c8.384,8.384,102.588,29.66,111.352,33.718c6.886,3.188,14.451,3.102,23.119,2.965c5.165-0.083,14.408-1.44,18.208-5.675
						c5.779-1.08,10.247-3.556,10.247-5.928c2.116-0.424,9.045-3.929,9.045-7.316c5.081-2.371,7.192-6,5.434-7.758
						c-0.688-0.688-39.802,6.605-44.078,3.007c3.726-6.436,13.772-13.032,8.639-15.625c-4.023-2.032-11.946,7.563-14.735,7.971
						c-10.036,1.471-10.889,6.254-16.133,5.494c-21.034-3.045-61.294-33.931-76.206-38.026c2.614-18.375,3.753-25.407,5.447-37.84
						C140.525,294.875,121.908,292.086,111.521,290.68z"/>
					<g>
						<path style="fill:#B56139;" d="M261.314,381.683c9.313,0,26.374-2.352,26.545-2.375c0.167-0.023,0.284-0.177,0.26-0.344
							c-0.022-0.168-0.178-0.284-0.343-0.26c-0.171,0.023-17.19,2.369-26.462,2.369c-0.169,0-0.305,0.136-0.305,0.305
							C261.009,381.546,261.145,381.683,261.314,381.683z"/>
						<path style="fill:#B56139;" d="M260.128,387.928c3.026,0,17.895-1.25,18.526-1.304c0.167-0.014,0.291-0.161,0.277-0.329
							c-0.014-0.167-0.152-0.293-0.329-0.277c-0.154,0.013-15.474,1.301-18.475,1.301c-0.169,0-0.305,0.136-0.305,0.305
							C259.823,387.793,259.959,387.928,260.128,387.928z"/>
						<path style="fill:#B56139;" d="M259.365,393.116c4.373,0,9.125-0.59,9.173-0.596c0.168-0.02,0.286-0.174,0.266-0.341
							c-0.023-0.166-0.161-0.279-0.341-0.265c-0.048,0.006-4.764,0.592-9.098,0.592c-0.169,0-0.305,0.136-0.305,0.305
							C259.061,392.979,259.196,393.116,259.365,393.116z"/>
						<path style="fill:#B56139;" d="M135.469,336.495c0.13,0,0.26-0.05,0.359-0.148c3.829-3.829,14.945-1.831,15.058-1.81
							c0.282,0.044,0.541-0.133,0.592-0.407c0.052-0.276-0.131-0.541-0.407-0.592c-0.479-0.091-11.756-2.114-15.961,2.091
							c-0.198,0.198-0.198,0.521,0,0.719C135.209,336.445,135.339,336.495,135.469,336.495z"/>
					</g>
				</g>
			</g>
			<g>
				<g>
					<path style="fill:#A33A36;" d="M536.887,191.356c-31.036,1.694-80.524,24.461-98.907,37.545
						c13.003,30.068,43.055,95.46,55.378,121.316c14.253-4.441,48.911-26.593,64.846-35.63
						C550.364,289.635,549.278,210.027,536.887,191.356z"/>
					<path style="fill:#E0D5AA;" d="M536.887,191.356c-33.522,4.426-75.251,24.461-93.635,37.545
						c13.004,30.069,43.055,95.46,55.379,121.316c14.253-4.44,48.911-26.593,64.845-35.63
						C555.638,289.636,549.278,210.027,536.887,191.356z"/>
					<path style="fill:#EBE4CA;" d="M536.887,191.356c-29.534,5.768-70.535,24.461-88.918,37.545
						c13.003,30.069,43.055,95.46,55.378,121.316c14.253-4.44,48.911-26.593,64.846-35.63
						C560.354,289.636,549.278,210.027,536.887,191.356z"/>
					<path style="fill:#CC4944;" d="M536.887,191.356c-25.444,5.414-63.177,24.462-81.56,37.546
						c13.003,30.068,43.054,95.459,55.378,121.316c14.253-4.441,48.911-26.593,64.846-35.63
						C567.712,289.636,549.278,210.027,536.887,191.356z"/>
					<g>
						<path style="fill:#EBE4CA;" d="M484.716,243.001c0.169,0,0.339-0.041,0.496-0.13c13.687-7.677,40.709-19.483,40.979-19.601
							c0.515-0.225,0.75-0.824,0.525-1.338c-0.225-0.514-0.822-0.749-1.338-0.525c-0.271,0.118-27.388,11.964-41.161,19.691
							c-0.489,0.275-0.664,0.894-0.389,1.383C484.015,242.815,484.36,243.001,484.716,243.001z"/>
						<path style="fill:#EBE4CA;" d="M489.149,251.13c0.168,0,0.339-0.042,0.496-0.13c13.685-7.677,40.708-19.482,40.979-19.601
							c0.515-0.225,0.749-0.823,0.525-1.338c-0.225-0.514-0.821-0.749-1.338-0.525c-0.272,0.119-27.388,11.965-41.161,19.692
							c-0.49,0.275-0.664,0.894-0.39,1.383C488.448,250.944,488.794,251.13,489.149,251.13z"/>
						<path style="fill:#EBE4CA;" d="M492.985,259.972c0.168,0,0.339-0.041,0.496-0.13c13.686-7.677,40.708-19.481,40.98-19.6
							c0.515-0.224,0.749-0.824,0.524-1.338c-0.224-0.514-0.821-0.749-1.338-0.525c-0.271,0.118-27.388,11.963-41.16,19.69
							c-0.49,0.275-0.664,0.895-0.39,1.384C492.284,259.786,492.629,259.972,492.985,259.972z"/>
					</g>
				</g>
				<g>
					<path style="fill:#2E2222;" d="M580.793,149.292c4.662-12.827,11.778-22.562,17.427-33.027
						c5.649-10.467,7.938-37.64-17.233-50.124c-20.821-10.327-53.903-3.412-69.922-6.527c-16.017-3.115-19.064,13.793-1.327,26.639
						C531.414,106.73,555.761,151.651,580.793,149.292z"/>
					<path style="fill:#E6885D;" d="M506.112,117.298c0.021-2.401,0.081-25.347,2.248-32.091c7.31,1.423,30.217,0.494,31.58,8.347
						c1.363,7.855,10.42,5.916,12.98,15.187c2.563,9.27,4.045,11.827,8.496,14.667c0.262-16.212,12.357-18.017,17.986-12.584
						c7.58,7.316,0.226,20.203-4.557,23.429c10.473,20.465,17.396,34.309,28.777,42.665c-14.46,14.896-39.74,18.342-51.596,26.333
						c2.234-11.492,3.368-21.027-3.644-31.425c-10.988,0.753-26.574,4.246-32.858-3.859c-4.542-5.864-7.022-14.572-8.314-25.427
						c-4.155,0.549-8.997,0.908-9.119-2.717C497.909,134.471,506.09,119.697,506.112,117.298z"/>
					<g>
						<path style="fill:#2E2222;" d="M511.614,121.172c-0.069,1.911,0.902,3.497,2.172,3.543c1.267,0.046,2.354-1.464,2.423-3.376
							c0.07-1.91-0.902-3.498-2.171-3.545C512.771,117.751,511.685,119.261,511.614,121.172z"/>
						<path style="fill:#BD653C;" d="M510.566,116.189c1.31-0.086,2.634-0.216,3.948-0.137c1.344,0.108,2.503,0.439,3.776,0.828
							C516.589,114.56,512.729,114.383,510.566,116.189z"/>
						<path style="fill:#2E2222;" d="M508.915,110.929c-1.99-1.31-0.571-5.892,5.864-5.996c4.716-0.074,10.209,3.252,9.778,5.471
							c-0.433,2.219-5.215-0.142-9.297,0.179C512.784,110.781,510.276,111.827,508.915,110.929z"/>
						<path style="fill:#BD653C;" d="M574.847,134.253c-1.129,0.285-2.247,0.4-3.407,0.387c-1.173-0.012-2.287-0.358-3.45-0.438
							C569.698,135.89,573.271,136.512,574.847,134.253z"/>
						<path style="fill:#BD653C;" d="M566.847,124.283c0.948-4.875,3.139-11.495,7.119-8.734c3.98,2.762,1.171,10.708-3.882,13.52
							C570.728,125.761,570.325,124.056,566.847,124.283z"/>
						<path style="fill:#BD653C;" d="M565.054,149.292c0.912,8.543-2.995,20.153-13.851,27.626
							c-0.745-1.682-1.662-3.376-2.818-5.092C553.675,170.764,561.938,165.31,565.054,149.292z"/>
						<path style="fill:#BD653C;" d="M510.934,152.747c4.422,1.872,9.436-1.849,9.123-6.497c-1.009,1.565-1.843,3.198-3.449,4.259
							c-0.91,0.6-1.896,1.136-2.946,1.455C513.391,152.051,510.965,152.578,510.934,152.747z"/>
					</g>
				</g>
				<g>
					<path style="fill:#325288;" d="M598.864,171.998c-16.11-9.677-43.266,0.952-63.591,31.253
						c-20.324,30.301-46.699,73.031-58.894,85.227c12.425,12.424,18.308,26.287,18.308,35.095
						c14.141-9.223,19.922-14.989,31.101-22.95c0,27.1,0.4,39.856-3.864,62.892c23.513,0,82.521,0,99.458,0
						c0-22.62,1.288-50.64,6.708-84.543C633.51,245.07,623.838,186.999,598.864,171.998z"/>
					<path style="fill:#28426E;" d="M574.918,184.096c8.364,2.641,15.818,8.193,20.336,15.713
						c4.302,7.159,4.309,15.821,3.703,23.865c2.138-8.187,2.495-17.235-1.914-24.806c-2.413-4.144-5.691-7.615-9.761-10.175
						C583.622,186.388,579.26,184.541,574.918,184.096z"/>
					<path style="fill:#28426E;" d="M581.343,249.134c-16.948,23.786-38.771,51.224-55.558,69.26c0-3.464,0.003-7.933,0.003-17.772
						C541.37,289.105,563.559,266.918,581.343,249.134z"/>
				</g>
				<g>
					<path style="fill:#E6885D;" d="M476.38,288.478c-13.429,3.556-54.841,38.87-79.23,41.41
						c-24.39,2.541-25.405-9.654-34.552-5.589c-9.146,4.065-30.028,20.122-24.059,28.887c-0.46,5.844,1.638,6.363,3.479,6.936
						c0.191,3.154,3.711,3.393,6.015,3.393c-0.54,3.72,5.927,8.104,6.688,3.213c4.954-4.954,20.833-10.416,34.298-11.687
						c13.465-1.271,90.147-21.292,105.668-31.468C501.971,309.515,484.51,291.527,476.38,288.478z"/>
					<g>
						<path style="fill:#B56139;" d="M338.539,353.491c0.133,0,0.254-0.086,0.293-0.218c0.032-0.109,3.322-10.922,13.998-16.509
							c0.15-0.078,0.208-0.263,0.129-0.411c-0.079-0.148-0.264-0.206-0.41-0.129c-10.914,5.71-14.27,16.766-14.302,16.876
							c-0.048,0.162,0.045,0.331,0.206,0.379C338.482,353.487,338.511,353.491,338.539,353.491z"/>
						<path style="fill:#B56139;" d="M342.019,360.426c0.137,0,0.261-0.092,0.296-0.228c0.029-0.113,3.013-11.289,13.175-16.154
							c0.151-0.072,0.215-0.255,0.143-0.407c-0.073-0.151-0.257-0.215-0.407-0.143c-10.423,4.991-13.472,16.438-13.501,16.553
							c-0.042,0.162,0.056,0.328,0.219,0.37C341.969,360.423,341.994,360.426,342.019,360.426z"/>
						<path style="fill:#B56139;" d="M348.033,363.819c0.004,0,0.009,0,0.013-0.001c0.168-0.007,0.299-0.148,0.292-0.316
							c-0.003-0.063-0.119-6.245,10.974-12.209c0.149-0.08,0.205-0.265,0.125-0.412c-0.08-0.15-0.267-0.202-0.412-0.125
							c-11.471,6.167-11.308,12.506-11.296,12.773C347.736,363.692,347.871,363.819,348.033,363.819z"/>
					</g>
				</g>
			</g>
			<g>
				<path style="fill:#D6794D;" d="M354.722,366.727c1.778-4.446,6.437-14.735,11.009-11.687c1.144-2.668,5.378-8.639,7.029-1.778
					c1.525-3.558,6.225-3.811,6.225,0.508c1.651-1.651,5.208-0.647,4.192,3.995c-1.017,4.643-3.558,7.438-6.86,7.438
					c-2.329,2.758-5.462,2.582-6.747,1.693c-2.357,1.326-5.701,1.314-7.396,0.172C358.621,368.71,356.373,368.378,354.722,366.727z"
					/>
				<path style="fill:#D6794D;" d="M363.952,313.121c5.759,0,9.013,7.821,11.01,16.43c1.524,6.566-8.385,2.143-11.01-5.746
					C363.952,318.456,361.581,315.493,363.952,313.121z"/>
				<g>
					<path style="fill:#945436;" d="M362.174,367.374c0.114,0,0.225-0.064,0.276-0.174c1.902-4.049,3.512-11.772,3.579-12.098
						c0.034-0.165-0.072-0.326-0.237-0.36c-0.168-0.033-0.326,0.072-0.36,0.237c-0.016,0.079-1.662,7.978-3.533,11.96
						c-0.072,0.153-0.006,0.335,0.146,0.406C362.087,367.365,362.13,367.374,362.174,367.374z"/>
					<path style="fill:#945436;" d="M369.569,367.202c0.122,0,0.236-0.072,0.284-0.193c1.629-4.133,3.143-13.309,3.207-13.697
						c0.027-0.166-0.085-0.323-0.251-0.35c-0.167-0.028-0.323,0.085-0.351,0.251c-0.016,0.095-1.567,9.5-3.173,13.572
						c-0.063,0.156,0.015,0.334,0.171,0.396C369.495,367.195,369.533,367.202,369.569,367.202z"/>
					<path style="fill:#945436;" d="M376.317,365.508c0.123,0,0.238-0.074,0.285-0.195c1.519-3.965,2.673-11.422,2.684-11.496
						c0.026-0.167-0.088-0.323-0.255-0.349c-0.164-0.02-0.322,0.089-0.347,0.255c-0.012,0.074-1.156,7.468-2.651,11.371
						c-0.06,0.158,0.018,0.334,0.176,0.395C376.244,365.503,376.281,365.508,376.317,365.508z"/>
					<path style="fill:#B56139;" d="M373.629,333.11c0.239,0,0.457-0.029,0.652-0.083c0.384-0.109,0.677-0.356,0.871-0.738
						c0.857-1.684-0.605-5.684-0.668-5.853c-0.058-0.159-0.234-0.239-0.392-0.18c-0.158,0.059-0.239,0.233-0.18,0.392
						c0.401,1.085,1.308,4.163,0.696,5.365c-0.115,0.226-0.276,0.365-0.493,0.426c-1.719,0.49-6.838-1.826-11.665-12.081
						c-0.072-0.151-0.257-0.216-0.406-0.146c-0.151,0.071-0.218,0.253-0.146,0.405C366.294,329.953,371.123,333.11,373.629,333.11z"
						/>
				</g>
			</g>
		</g>
		<g>
			<g>
				<g>
					<path style="fill:#24A19C;" d="M464.493,116.749h-40.368c-7.928,0-14.354,6.427-14.354,14.354v14.046
						c0,7.14,5.22,13.042,12.043,14.151c3.697,3.857,8.7,8.896,10.303,9.638c1.795,0.829,1.881-5.006,1.699-9.434h30.678
						c7.928,0,14.354-6.428,14.354-14.354v-14.046C478.848,123.176,472.421,116.749,464.493,116.749z"/>
					<g>
						<path style="fill:#FFFFFF;" d="M433.884,131.196h-15.43c-0.66,0-1.195-0.536-1.195-1.197c0-0.661,0.535-1.196,1.195-1.196
							h15.43c0.659,0,1.195,0.535,1.195,1.196C435.079,130.66,434.543,131.196,433.884,131.196z"/>
						<path style="fill:#FFFFFF;" d="M470.087,131.196h-27.821c-0.66,0-1.196-0.536-1.196-1.197c0-0.661,0.536-1.196,1.196-1.196
							h27.821c0.66,0,1.196,0.535,1.196,1.196C471.283,130.66,470.747,131.196,470.087,131.196z"/>
						<path style="fill:#FFFFFF;" d="M449.442,139.322h-30.988c-0.66,0-1.195-0.536-1.195-1.196c0-0.66,0.535-1.196,1.195-1.196
							h30.988c0.66,0,1.196,0.536,1.196,1.196C450.639,138.786,450.103,139.322,449.442,139.322z"/>
						<path style="fill:#FFFFFF;" d="M470.087,139.322h-13.865c-0.66,0-1.195-0.536-1.195-1.196c0-0.66,0.535-1.196,1.195-1.196
							h13.865c0.66,0,1.196,0.536,1.196,1.196C471.283,138.786,470.747,139.322,470.087,139.322z"/>
						<path style="fill:#FFFFFF;" d="M459.312,147.447h-40.857c-0.66,0-1.195-0.535-1.195-1.196c0-0.66,0.535-1.196,1.195-1.196
							h40.857c0.66,0,1.195,0.536,1.195,1.196C460.507,146.913,459.972,147.447,459.312,147.447z"/>
					</g>
				</g>
				<g>
					<path style="fill:#24A19C;" d="M315.389,166.811h-40.368c-7.928,0-14.355,6.426-14.355,14.355v14.046
						c0,7.928,6.428,14.354,14.355,14.354h30.678c-0.182,4.43-0.093,10.265,1.699,9.434c1.603-0.74,6.605-5.779,10.301-9.636
						c6.826-1.108,12.044-7.014,12.044-14.151v-14.046C329.742,173.237,323.314,166.811,315.389,166.811z"/>
					<g>
						<path style="fill:#FFFFFF;" d="M321.058,181.257h-28.906c-0.659,0-1.195-0.534-1.195-1.196c0-0.659,0.536-1.195,1.195-1.195
							h28.906c0.663,0,1.199,0.536,1.199,1.195C322.257,180.723,321.721,181.257,321.058,181.257z"/>
						<path style="fill:#FFFFFF;" d="M285.972,181.257h-16.545c-0.663,0-1.196-0.534-1.196-1.196c0-0.659,0.533-1.195,1.196-1.195
							h16.545c0.663,0,1.199,0.536,1.199,1.195C287.171,180.723,286.635,181.257,285.972,181.257z"/>
						<path style="fill:#FFFFFF;" d="M321.058,189.385h-20.73c-0.663,0-1.195-0.535-1.195-1.196c0-0.661,0.532-1.196,1.195-1.196
							h20.73c0.663,0,1.199,0.535,1.199,1.196C322.257,188.85,321.721,189.385,321.058,189.385z"/>
						<path style="fill:#FFFFFF;" d="M294.145,189.385h-24.718c-0.663,0-1.196-0.535-1.196-1.196c0-0.661,0.533-1.196,1.196-1.196
							h24.718c0.663,0,1.196,0.535,1.196,1.196C295.341,188.85,294.808,189.385,294.145,189.385z"/>
						<path style="fill:#FFFFFF;" d="M305.633,197.512h-36.206c-0.663,0-1.196-0.536-1.196-1.196c0-0.661,0.533-1.196,1.196-1.196
							h36.206c0.659,0,1.195,0.535,1.195,1.196C306.828,196.976,306.292,197.512,305.633,197.512z"/>
					</g>
				</g>
			</g>
			<g>
				<g>
					<path style="fill:#CC4944;" d="M73.237,373.169c0,8.138,6.597,14.733,14.735,14.733c8.14,0,14.736-6.596,14.736-14.733
						c0-8.136-6.597-14.732-14.736-14.732C79.834,358.438,73.237,365.034,73.237,373.169z"/>
					<path style="fill:#FFFFFF;" d="M79.919,370.713c0.519-3.582,5.498-4.855,8.054-1.116c2.557-3.738,7.536-2.466,8.054,1.116
						c0.694,4.778-3.989,8.791-8.054,11.246C83.915,379.504,79.226,375.492,79.919,370.713z"/>
				</g>
				<g>
					<path style="fill:#325288;" d="M102.709,404.272c0,11.767,9.538,21.308,21.31,21.308c11.77,0,21.309-9.541,21.309-21.308
						c0-11.768-9.538-21.311-21.309-21.311C112.247,382.961,102.709,392.504,102.709,404.272z"/>
					<g>
						<path style="fill:#FFFFFF;" d="M121.481,396.869L121.481,396.869c1.206-1.611,3.312-4.418,5.424-7.208
							c2.082-2.746,5.777-1.272,4.49,2.146c-0.38,1.02-1.307,3.236-2.072,5.084l4.438,0.014c2.75,0,4.158,1.449,4.158,3.02
							c0,0.719-0.263,1.372-0.673,1.893c0.41,0.521,0.673,1.173,0.673,1.894c0,0.719-0.263,1.371-0.673,1.895
							c0.41,0.517,0.673,1.17,0.673,1.889c0,0.725-0.263,1.373-0.673,1.897c0.41,0.521,0.673,1.171,0.673,1.892
							c0,1.568-1.189,2.844-2.71,3.018v0.069c0,0-12.558,0-14.074,0c-1.521,0-6.178-2.23-6.178-2.23v-12.153L121.481,396.869z"/>
						<path style="fill:#6580AD;" d="M110.115,411.381c0,1.65,1.341,2.988,2.994,2.988l0,0c1.653,0,2.999-1.338,2.999-2.988v-11.156
							c0-1.651-1.346-2.99-2.999-2.99l0,0c-1.653,0-2.994,1.339-2.994,2.99V411.381z"/>
					</g>
				</g>
				<g>
					<path style="fill:#325288;" d="M63.695,322.305c0,9.568,7.757,17.327,17.328,17.327c9.572,0,17.328-7.759,17.328-17.327
						c0-9.568-7.756-17.329-17.328-17.329C71.452,304.976,63.695,312.737,63.695,322.305z"/>
					<g>
						<path style="fill:#FFFFFF;" d="M78.96,316.286L78.96,316.286c0.98-1.312,2.693-3.593,4.411-5.861
							c1.692-2.233,4.697-1.034,3.651,1.744c-0.31,0.829-1.063,2.632-1.685,4.135l3.608,0.01c2.236,0,3.381,1.18,3.381,2.456
							c0,0.585-0.213,1.117-0.547,1.539c0.334,0.424,0.547,0.955,0.547,1.541c0,0.584-0.213,1.115-0.547,1.54
							c0.334,0.421,0.547,0.951,0.547,1.536c0,0.589-0.213,1.116-0.547,1.543c0.334,0.424,0.547,0.952,0.547,1.537
							c0,1.275-0.967,2.314-2.203,2.455v0.056c0,0-10.211,0-11.444,0c-1.236,0-5.023-1.813-5.023-1.813v-9.883L78.96,316.286z"/>
						<path style="fill:#6580AD;" d="M69.718,328.087c0,1.341,1.09,2.429,2.435,2.429l0,0c1.345,0,2.439-1.088,2.439-2.429v-9.073
							c0-1.343-1.095-2.432-2.439-2.432l0,0c-1.345,0-2.435,1.089-2.435,2.432V328.087z"/>
					</g>
				</g>
			</g>
			<g>
				<g>
					<path style="fill:#BD732D;" d="M574.839,363.513c0,7.001-5.675,12.676-12.675,12.676s-12.675-5.675-12.675-12.676
						c0-6.999,5.675-12.674,12.675-12.674S574.839,356.514,574.839,363.513z"/>
					<path style="fill:#F5B43B;" d="M576.837,363.513c0,7.001-5.674,12.676-12.674,12.676c-7.001,0-12.676-5.675-12.676-12.676
						c0-6.999,5.675-12.674,12.676-12.674C571.163,350.839,576.837,356.514,576.837,363.513z"/>
					<path style="fill:#BD732D;" d="M564.163,374.196c-5.891,0-10.683-4.791-10.683-10.683c0-5.89,4.792-10.68,10.683-10.68
						c5.89,0,10.681,4.79,10.681,10.68C574.844,369.405,570.053,374.196,564.163,374.196z M564.163,353.447
						c-5.552,0-10.068,4.515-10.068,10.066c0,5.552,4.517,10.069,10.068,10.069c5.551,0,10.067-4.517,10.067-10.069
						C574.23,357.961,569.714,353.447,564.163,353.447z"/>
					<g>
						<path style="fill:#BD732D;" d="M564.107,369.954c-0.576,0.012-1.107-0.031-1.592-0.13c-0.484-0.098-0.898-0.219-1.242-0.365
							c-0.357-0.136-0.635-0.29-0.837-0.461c-0.202-0.173-0.303-0.325-0.303-0.46c0-0.123,0.048-0.277,0.146-0.46
							c0.099-0.184,0.209-0.351,0.331-0.497c0.123-0.146,0.227-0.221,0.313-0.221c0.036,0,0.088,0.018,0.156,0.054
							c0.066,0.038,0.156,0.086,0.267,0.147c0.294,0.159,0.678,0.323,1.149,0.488c0.472,0.164,1.027,0.23,1.666,0.193
							c0.625-0.037,1.137-0.182,1.536-0.432c0.397-0.252,0.597-0.709,0.597-1.371c0-0.467-0.119-0.844-0.358-1.132
							c-0.238-0.288-0.555-0.528-0.947-0.719c-0.393-0.188-0.815-0.369-1.27-0.542c-0.699-0.295-1.297-0.619-1.794-0.975
							c-0.496-0.356-0.88-0.757-1.149-1.205c-0.271-0.447-0.405-0.959-0.405-1.536c0-0.675,0.159-1.273,0.479-1.794
							c0.319-0.522,0.785-0.926,1.398-1.215c0.613-0.288,1.355-0.433,2.227-0.433c0.44,0,0.911,0.052,1.407,0.157
							c0.497,0.104,0.91,0.242,1.241,0.413c0.147,0.087,0.265,0.175,0.35,0.268c0.086,0.092,0.129,0.187,0.129,0.284
							c0,0.111-0.04,0.26-0.119,0.442c-0.08,0.185-0.178,0.35-0.294,0.498c-0.117,0.146-0.219,0.219-0.304,0.219
							c-0.049,0-0.127-0.026-0.231-0.082c-0.104-0.056-0.229-0.107-0.377-0.157c-0.209-0.085-0.476-0.171-0.8-0.257
							c-0.325-0.086-0.722-0.128-1.188-0.128c-0.613,0-1.104,0.147-1.472,0.44c-0.368,0.296-0.552,0.705-0.552,1.232
							c0,0.368,0.109,0.675,0.331,0.919c0.221,0.246,0.515,0.458,0.883,0.638c0.368,0.177,0.761,0.357,1.178,0.542
							c0.735,0.306,1.367,0.648,1.895,1.03c0.528,0.379,0.933,0.806,1.214,1.278c0.283,0.472,0.423,1.01,0.423,1.609
							c0,1.153-0.339,2.059-1.021,2.715C566.49,369.607,565.468,369.942,564.107,369.954z M564.291,371.205
							c-0.32,0-0.479-0.123-0.479-0.367v-14.646c0-0.246,0.158-0.369,0.479-0.369h0.092c0.318,0,0.479,0.123,0.479,0.369v14.646
							c0,0.244-0.16,0.367-0.479,0.367H564.291z"/>
					</g>
				</g>
				<g>
					<path style="fill:#BD732D;" d="M671.024,308.628c0,11.521-9.339,20.859-20.858,20.859c-11.521,0-20.858-9.339-20.858-20.859
						c0-11.52,9.338-20.858,20.858-20.858C661.686,287.769,671.024,297.108,671.024,308.628z"/>
					<path style="fill:#F5B43B;" d="M674.313,308.628c0,11.521-9.338,20.859-20.856,20.859c-11.522,0-20.86-9.339-20.86-20.859
						c0-11.52,9.339-20.858,20.86-20.858C664.975,287.769,674.313,297.108,674.313,308.628z"/>
					<path style="fill:#BD732D;" d="M653.456,326.207c-9.693,0-17.58-7.886-17.58-17.579c0-9.693,7.887-17.576,17.58-17.576
						c9.691,0,17.577,7.883,17.577,17.576C671.033,318.321,663.147,326.207,653.456,326.207z M653.456,292.058
						c-9.138,0-16.57,7.433-16.57,16.569c0,9.137,7.433,16.569,16.57,16.569c9.135,0,16.566-7.433,16.566-16.569
						C670.022,299.491,662.591,292.058,653.456,292.058z"/>
					<g>
						<path style="fill:#BD732D;" d="M653.364,319.224c-0.949,0.021-1.823-0.049-2.62-0.213c-0.798-0.159-1.479-0.361-2.044-0.604
							c-0.586-0.222-1.044-0.474-1.378-0.755c-0.333-0.285-0.498-0.538-0.498-0.759c0-0.202,0.08-0.456,0.243-0.756
							c0.16-0.304,0.342-0.577,0.544-0.819c0.202-0.241,0.374-0.361,0.515-0.361c0.06,0,0.145,0.028,0.257,0.088
							c0.109,0.062,0.258,0.142,0.439,0.242c0.484,0.263,1.114,0.532,1.892,0.804c0.776,0.271,1.691,0.378,2.742,0.318
							c1.027-0.061,1.87-0.299,2.527-0.712c0.654-0.413,0.983-1.165,0.983-2.255c0-0.769-0.197-1.388-0.592-1.861
							c-0.392-0.474-0.912-0.87-1.559-1.185c-0.646-0.311-1.342-0.608-2.09-0.892c-1.149-0.484-2.134-1.02-2.952-1.604
							c-0.815-0.586-1.448-1.246-1.892-1.982c-0.443-0.736-0.666-1.579-0.666-2.529c0-1.108,0.263-2.095,0.788-2.952
							c0.524-0.859,1.291-1.524,2.302-1.998c1.008-0.475,2.229-0.712,3.662-0.712c0.727,0,1.5,0.085,2.317,0.256
							c0.817,0.174,1.498,0.401,2.043,0.681c0.242,0.143,0.435,0.289,0.575,0.442c0.141,0.151,0.212,0.307,0.212,0.467
							c0,0.184-0.066,0.426-0.196,0.728c-0.133,0.304-0.293,0.576-0.483,0.82c-0.193,0.239-0.36,0.359-0.501,0.359
							c-0.08,0-0.207-0.044-0.379-0.135c-0.171-0.092-0.378-0.177-0.62-0.259c-0.344-0.142-0.783-0.281-1.316-0.423
							c-0.535-0.141-1.187-0.21-1.954-0.21c-1.009,0-1.816,0.242-2.422,0.724c-0.606,0.487-0.908,1.161-0.908,2.031
							c0,0.605,0.181,1.11,0.545,1.511c0.363,0.405,0.847,0.754,1.454,1.048c0.605,0.291,1.25,0.589,1.938,0.892
							c1.21,0.505,2.249,1.069,3.117,1.696c0.869,0.623,1.535,1.325,1.999,2.103c0.464,0.777,0.695,1.663,0.695,2.65
							c0,1.898-0.559,3.388-1.681,4.468C657.285,318.656,655.604,319.206,653.364,319.224z M653.666,321.285
							c-0.525,0-0.787-0.203-0.787-0.607v-24.102c0-0.401,0.262-0.607,0.787-0.607h0.151c0.524,0,0.788,0.206,0.788,0.607v24.102
							c0,0.403-0.264,0.607-0.788,0.607H653.666z"/>
					</g>
				</g>
				<g>
					<path style="fill:#BD732D;" d="M635.688,349.336c0,14.23-11.536,25.766-25.766,25.766c-14.229,0-25.765-11.535-25.765-25.766
						c0-14.227,11.535-25.763,25.765-25.763C624.151,323.573,635.688,335.109,635.688,349.336z"/>
					<path style="fill:#F5B43B;" d="M639.748,349.336c0,14.23-11.534,25.766-25.762,25.766c-14.232,0-25.767-11.535-25.767-25.766
						c0-14.227,11.534-25.763,25.767-25.763C628.214,323.573,639.748,335.109,639.748,349.336z"/>
					<path style="fill:#BD732D;" d="M613.986,371.051c-11.974,0-21.715-9.742-21.715-21.716c0-11.973,9.741-21.71,21.715-21.71
						c11.971,0,21.711,9.737,21.711,21.71C635.697,361.309,625.957,371.051,613.986,371.051z M613.986,328.872
						c-11.286,0-20.468,9.179-20.468,20.464c0,11.285,9.182,20.468,20.468,20.468c11.282,0,20.463-9.183,20.463-20.468
						C634.449,338.05,625.269,328.872,613.986,328.872z"/>
					<g>
						<path style="fill:#BD732D;" d="M613.872,362.426c-1.172,0.024-2.251-0.063-3.236-0.264c-0.984-0.199-1.826-0.445-2.523-0.744
							c-0.725-0.274-1.29-0.587-1.703-0.936c-0.41-0.352-0.614-0.661-0.614-0.937c0-0.25,0.098-0.563,0.3-0.934
							c0.198-0.372,0.422-0.712,0.672-1.01c0.249-0.299,0.463-0.449,0.636-0.449c0.074,0,0.179,0.035,0.317,0.109
							c0.135,0.076,0.318,0.176,0.543,0.301c0.598,0.323,1.377,0.656,2.337,0.991c0.958,0.336,2.088,0.467,3.387,0.394
							c1.269-0.076,2.31-0.368,3.121-0.879c0.809-0.51,1.215-1.44,1.215-2.786c0-0.949-0.243-1.714-0.73-2.299
							c-0.484-0.586-1.127-1.074-1.925-1.462c-0.798-0.383-1.658-0.751-2.582-1.103c-1.419-0.6-2.636-1.257-3.645-1.98
							c-1.008-0.722-1.789-1.538-2.337-2.449c-0.549-0.908-0.822-1.95-0.822-3.122c0-1.372,0.323-2.59,0.973-3.648
							c0.647-1.06,1.595-1.882,2.843-2.47c1.245-0.584,2.754-0.878,4.524-0.878c0.896,0,1.852,0.105,2.862,0.317
							c1.01,0.214,1.85,0.494,2.522,0.842c0.3,0.176,0.537,0.356,0.711,0.545c0.174,0.186,0.263,0.378,0.263,0.575
							c0,0.228-0.083,0.528-0.243,0.899c-0.164,0.377-0.362,0.714-0.598,1.014c-0.238,0.297-0.444,0.444-0.619,0.444
							c-0.098,0-0.255-0.055-0.467-0.167c-0.212-0.113-0.467-0.217-0.767-0.319c-0.424-0.174-0.967-0.349-1.627-0.522
							c-0.66-0.175-1.465-0.262-2.412-0.262c-1.247,0-2.244,0.301-2.992,0.896c-0.748,0.6-1.121,1.435-1.121,2.506
							c0,0.748,0.223,1.372,0.673,1.869c0.448,0.501,1.046,0.93,1.796,1.294c0.746,0.357,1.544,0.727,2.393,1.102
							c1.495,0.622,2.779,1.318,3.852,2.093c1.073,0.772,1.895,1.639,2.468,2.6c0.574,0.959,0.859,2.054,0.859,3.272
							c0,2.344-0.69,4.187-2.076,5.52C618.716,361.724,616.639,362.402,613.872,362.426z M614.246,364.97
							c-0.65,0-0.974-0.25-0.974-0.747v-29.771c0-0.499,0.323-0.75,0.974-0.75h0.187c0.648,0,0.973,0.251,0.973,0.75v29.771
							c0,0.497-0.324,0.747-0.973,0.747H614.246z"/>
					</g>
				</g>
			</g>
		</g>
	</g>
</g>
</svg>
