<?xml version="1.0" encoding="utf-8"?>
<!-- Generator: Adobe Illustrator 27.5.0, SVG Export Plug-In . SVG Version: 6.00 Build 0)  -->
<svg version="1.1" id="Layer_1" xmlns="http://www.w3.org/2000/svg" xmlns:xlink="http://www.w3.org/1999/xlink" x="0px" y="0px"
	 viewBox="0 0 2328.644 2000" style="enable-background:new 0 0 2328.644 2000;" xml:space="preserve">
<rect x="0" y="0" style="fill:#FFFFFF;" width="2328.644" height="2000"/>
<g>
	<g>
		<g>
			<path style="fill:#DEEBE9;" d="M2061.661,461.515v1072.992c0,73.053-17.996,135.975-47.858,185.965
				c-55.959,93.883-130.572,122.151-223.022,133.706c-124.391,16.304-275.328,3.339-455.38-13.598
				c-85.297-8.091-101.379-10.233-158.5-11.73c-42.388-0.874-106.44-1.007-205.961,2.4c-167.115,6.468-219.517,9.847-299.411,12.53
				c-4.039,0.167-8.09,0.365-12.151,0.577c-75.823,3.948-241.937,17.337-320.175-85.795c-40.671-53.611-72.22-112.065-72.22-224.055
				V461.515c0-298.027,291.634-309.76,413.077-299.628c49.912,4.083,69.703,7.413,123.862,12.83
				c79.852,8.265,149.822,10.852,240.07-1.012c104.253-13.774,223.101-22.72,327.671-28.528h1.333
				c171.033-9.198,351.531-10.531,468.442,4.799c108.165,14.109,183.767,107.88,209.826,218.358
				C2058.062,397.394,2061.661,428.588,2061.661,461.515z"/>
		</g>
		<g>
			<g style="opacity:0.6;">
				<path style="fill:#B2C9C6;" d="M1400,1161.519c0,0,77.864-599.037,239.618-571.803
					c161.754,27.235-141.116,389.848-158.258,564.95L1400,1161.519z"/>
			</g>
			<g>
				<g>
					<path style="fill:#CFD3A3;" d="M1402.251,1303.826c0,0,266.099-671.348,479.33-595.177
						c213.232,76.17-296.466,411.929-366.59,609.719L1402.251,1303.826z"/>
				</g>
				<g>
					<g>
						<path style="fill:#C4C695;" d="M1465.247,1312.515c45.942-137.477,142.741-269.89,215.852-356.76
							c79.265-94.179,148.498-156.567,149.188-157.186l-3.868-4.31c-0.693,0.622-70.229,63.281-149.752,157.767
							c-73.436,87.258-170.681,220.311-216.914,358.654L1465.247,1312.515z"/>
					</g>
				</g>
			</g>
			<g>
				<g>
					<g>
						<path style="fill:#B2C9C6;" d="M1956.325,1262.464c-62.3,37.838-15.896,135.898-99.161,143.501
							c-70.435,6.393-77.965,2.295-93.97,28.752c-5.487,9.069-9.509,18.934-12.246,29.175
							c-3.279,12.273-11.188,31.417-29.702,41.685c-113.112,62.731-339.269-58.456-247.553-199.989
							c6.622-10.22,18.884-17.51,32.712-24.852c75.025-39.771,112.31-11.907,142.49-126.942
							c30.192-115.066,161.284-10.347,212.834-33.436c51.551-23.089,92.906-55.231,153.814-13.195
							C2076.47,1149.241,2018.647,1224.671,1956.325,1262.464z"/>
					</g>
				</g>
				<g style="opacity:0.5;">
					<g>
						<g>
							<path style="fill:#74A1BD;" d="M1556.815,1421.886l-3.827-2.885c1.27-1.688,131.244-170.353,477.629-299.134l1.671,4.494
								C1687.204,1252.661,1558.082,1420.208,1556.815,1421.886z"/>
						</g>
					</g>
					<g>
						<g>
							<path style="fill:#74A1BD;" d="M1727.505,1211.988c-60.378-25.545-79.852-55.653-80.65-56.92l4.054-2.559
								c0.188,0.299,19.629,30.172,78.466,55.063L1727.505,1211.988z"/>
						</g>
					</g>
					<g>
						<g>
							<path style="fill:#74A1BD;" d="M1752.367,1258.119c-20.816-18.338-30.943-51.627-29.286-96.268
								c1.241-33.431,8.69-61.885,8.765-62.167l4.634,1.227c-0.295,1.11-28.806,111.446,19.061,153.614L1752.367,1258.119z"/>
						</g>
					</g>
					<g>
						<g>
							<path style="fill:#74A1BD;" d="M1841.551,1218.494c-7.066-2.694-11.058-4.651-11.24-4.742l2.146-4.286
								c0.837,0.421,84.969,41.57,176.203,6.949l1.699,4.48C1936.843,1248.794,1867.877,1228.534,1841.551,1218.494z"/>
						</g>
					</g>
					<g>
						<g>
							<path style="fill:#74A1BD;" d="M1923.028,1307.639c-29.146-16.208-43.251-37.59-49.952-52.673
								c-7.292-16.418-7.641-28.888-7.654-29.412l4.795-0.107c0.011,0.48,1.776,48.329,55.143,78.002L1923.028,1307.639z"/>
						</g>
					</g>
				</g>
			</g>
			<g>
				<path style="fill:#B2C9C6;" d="M1742.511,608.936c7.133-20.978,15.92-24.952,24.142-22.156
					c8.222,2.795,12.766,11.302,5.634,32.281c-12.995,38.214-34.163,51.622-34.163,51.622S1729.329,647.707,1742.511,608.936z"/>
			</g>
			<g>
				<path style="fill:#B2C9C6;" d="M1888.08,1035.918c21.343-9.969,30.86-6.152,34.766,2.214
					c3.907,8.366,0.726,18.112-20.617,28.081c-38.882,18.158-64.748,11.788-64.748,11.788S1848.633,1054.341,1888.08,1035.918z"/>
			</g>
			<g>
				<path style="fill:#B2C9C6;" d="M1811.531,1019.194c7.241-20.941,16.048-24.87,24.256-22.031
					c8.208,2.838,12.707,11.367,5.467,32.308c-13.191,38.148-34.427,51.446-34.427,51.446S1798.146,1057.897,1811.531,1019.194z"/>
			</g>
		</g>
		<g>
			<path style="fill:#B2C9C6;" d="M1154.719,1582.606c0,0-309.691-628.493-477.075-538.052
				c-167.384,90.441,300.835,375.165,385.191,560.98L1154.719,1582.606z"/>
		</g>
		<g>
			<g>
				<path style="fill:#9BBCB6;" d="M1101.303,1606.114c0,0-433.527-549.021-610.225-419.072
					c-176.698,129.951,389.602,299.853,509.649,463.902L1101.303,1606.114z"/>
			</g>
			<g>
				<g>
					<path style="fill:#74A1BD;" d="M1045.261,1631.687c-80.845-114.803-207.473-210.773-299.462-271.063
						c-99.731-65.364-181.318-104.014-182.131-104.397l2.391-5.074c0.816,0.384,82.76,39.203,182.814,104.778
						c92.398,60.56,219.619,156.999,300.973,272.526L1045.261,1631.687z"/>
				</g>
			</g>
		</g>
		<g>
			<g>
				<g>
					<path style="fill:#CFD3A3;" d="M1279.012,1835.249c-6.398-0.666-12.796-1.199-19.195-1.865
						c-24.397-2.267-52.39-3.733-82.917-4.534c-25.863-0.533-53.457-0.666-82.253-0.399c-3.333,0-6.799,0-10.13,0.132
						c-21.864,0.267-44.259,0.668-67.055,1.334c-15.331,0.399-30.926,0.799-46.524,1.333c-17.197,0.666-34.26,1.332-51.59,1.866
						c-0.534,0.134-1.202,0.134-1.733,0.134c-6.932,0.266-13.864,0.665-20.795,0.932c-4.8,0.134-9.733,0.401-14.664,0.534
						c-32.127,1.466-63.855,2.933-94.649,4.265c-41.058,1.867-80.251,3.599-115.979,4.799c-6.93-19.062-12.396-40.125-21.193-59.187
						v-0.134c-0.535-0.933-0.935-1.732-1.469-2.799v-0.134c-9.731-20.13-23.596-37.992-47.058-48.924
						c-24.927-11.598-49.857-27.195-71.052-45.191c-1.733-1.466-3.467-2.933-5.199-4.534
						c-41.591-37.192-66.386-83.317-42.924-123.441c0.533-0.934,1.199-1.868,1.733-2.8c4.264-6.665,9.864-13.064,16.93-19.196
						c73.852-63.988,132.773-27.862,203.826-5.2c25.064,8.132,60.923-6.265,99.182-21.596c21.731-8.798,44.125-17.995,65.856-23.595
						c0.931-0.134,1.73-0.4,2.531-0.534c8.797-2.265,17.466-3.732,25.995-4.4c2.665-0.266,5.199-0.399,7.733-0.399h1.999
						c33.327,0,62.522,15.464,80.919,63.322c0.533,1.333,1.065,2.667,1.6,3.865c2.133,5.467,4.264,10.798,6.399,15.731
						c2.266,5.066,4.398,9.864,6.53,14.397c0,0,0,0.134,0.134,0.266c18.264,38.393,35.861,58.655,55.457,70.653
						c34.392,21.063,74.918,16.93,135.439,40.793c19.332,7.598,36.393,15.463,46.658,27.86
						C1273.415,1757.532,1283.811,1797.523,1279.012,1835.249z"/>
				</g>
			</g>
			<g>
				<g>
					<g>
						<path style="fill:#C4C695;" d="M1094.648,1828.451c-3.333,0-6.799,0-10.13,0.132
							c-61.055-45.723-167.168-113.577-326.206-177.299c-2.398-1.064-4.797-1.999-7.197-2.931
							c-77.186-30.662-166.635-60.256-269.283-85.852l0.801-3.065l0.799-3.067c0.267,0.133,0.667,0.133,0.934,0.267
							c156.369,39.192,282.478,87.449,381.125,134.64c1.867,0.933,3.867,1.866,5.733,2.8h0.133
							C975.871,1744.599,1049.056,1793.657,1094.648,1828.451z"/>
					</g>
				</g>
				<g>
					<g>
						<path style="fill:#C4C695;" d="M894.713,1632.913c75.504-42.357,96.655-84.721,97.518-86.502l-5.696-2.764
							c-0.204,0.42-21.346,42.47-94.924,83.747L894.713,1632.913z"/>
					</g>
				</g>
				<g>
					<g>
						<path style="fill:#C4C695;" d="M868.832,1697.095c24.637-27.111,33.058-72.284,24.352-130.627
							c-6.518-43.694-20.458-79.945-20.598-80.305l-5.901,2.286c0.548,1.413,54.11,142.05-2.541,204.391L868.832,1697.095z"/>
					</g>
				</g>
				<g>
					<g>
						<path style="fill:#C4C695;" d="M745.991,1658.14c8.879-4.57,13.833-7.723,14.058-7.87l-3.443-5.309
							c-1.037,0.673-105.432,66.987-230.232,34.898l-1.574,6.128C625.362,1711.844,712.91,1675.166,745.991,1658.14z"/>
					</g>
				</g>
				<g>
					<g>
						<path style="fill:#C4C695;" d="M652.102,1787.051c35.881-25.533,51.263-55.66,57.85-76.435
							c7.169-22.615,5.802-39.032,5.744-39.721l-6.308,0.563c0.055,0.631,4.739,63.688-60.959,110.438L652.102,1787.051z"/>
					</g>
				</g>
			</g>
		</g>
		<g>
			<path style="fill:#B2C9C6;" d="M452.415,1416.377c-30.55-8.537-36.925-20.783-33.579-32.756
				c3.346-11.972,15.146-19.141,45.694-10.605c55.649,15.55,76.488,44.746,76.488,44.746S508.874,1432.153,452.415,1416.377z"/>
		</g>
		<g>
			<g>
				<g>
					<path style="fill:#F7B686;" d="M965.151,989.907c0,0-29.75,177.705,33.033,281.443c32.942,54.432,48.872,43.082,62.946,64.612
						c34.605,52.932,20.406,154.039,39.702,198.125c26.256,59.983,62.921,53.955,62.921,53.955l478.595-125.654
						c0,0-20.938-46.813-48.015-165.397c-9.897-43.346-31.241-94.071-6.404-160.522c34.636-92.662-0.131-211.588-21.809-323.542
						c-10.166-52.499-35.807-150.135-50.276-184.658c-15.247-36.376-21.441-178.275-74.509-175.64
						c-93.77,4.656-45.792,130.135-52.02,196.278C1383.09,715.05,965.151,989.907,965.151,989.907z"/>
				</g>
				<g>
					<g>
						<path style="fill:#EA9F75;" d="M1294.996,1316.258c-1.437,0.169-2.93-0.336-3.976-1.489
							c-0.916-1.011-22.55-25.224-33.312-66.024c-6.318-23.954-7.529-48.655-3.596-73.416c4.896-30.83,17.817-61.797,38.407-92.041
							c1.441-2.115,4.323-2.66,6.437-1.223c2.114,1.441,2.66,4.321,1.222,6.437c-19.816,29.106-32.237,58.807-36.916,88.28
							c-3.729,23.482-2.582,46.898,3.405,69.599c10.192,38.641,31.01,61.936,31.22,62.167c1.717,1.897,1.573,4.825-0.323,6.542
							C1296.82,1315.762,1295.92,1316.149,1294.996,1316.258z"/>
					</g>
				</g>
				<g>
					<g>
						<path style="fill:#6F4975;" d="M1487.302,1140.286l-60.921-661.704c-0.979-8.563-3.549-15.78-7.218-21.775
							c-13.946-22.754-43.672-28.626-65.08-26.18l-247.971,29.116l-4.406,0.612l-84.654,9.909l-23.977,2.814
							c-27.158,3.181-46.61,27.77-43.429,54.928l3.059,33.274l1.712,17.862l1.468,16.025l2.813,30.461l8.931,95.909l2.936,30.951
							v0.123l2.203,23.489l1.345,14.19v1.346l3.059,32.296l5.505,59.332l2.813,30.094v0.122l0.367,3.549v0.734l5.017,53.95
							l0.122,0.978l2.448,25.813l2.446,26.547l0.367,3.67v0.121l16.758,180.932c3.181,27.035,29.729,42.817,56.888,39.636
							l183.011-26.546h0.123l9.052-1.346l181.788-26.302C1471.033,1192.034,1490.483,1167.444,1487.302,1140.286z"/>
					</g>
					<g>
						<path style="fill:#96B4E0;" d="M1355.735,443.132l-361.386,42.416c-20.187,2.369-34.685,20.201-32.382,39.828l65.792,651.036
							c4.861,44.515,28.578,40.003,48.766,37.634l362.995-52.796c20.192-2.37,34.333-27.521,32.029-47.153l-59.847-637.261
							C1409.399,457.207,1375.928,440.762,1355.735,443.132L1355.735,443.132z"/>
					</g>
					<g>
						<path style="fill:#FFFFFF;" d="M1368.489,958.42l-277.576,32.579c-15.506,1.82-26.641,15.516-24.872,30.591l7.732,60.558
							c3.734,34.191,21.951,30.725,37.457,28.906l278.813-40.552c15.509-1.82,26.371-21.139,24.601-36.218l-3.166-49.978
							C1410.534,958.245,1383.999,956.599,1368.489,958.42L1368.489,958.42z"/>
					</g>
					<g>
						<path style="fill:#E28569;" d="M1359.847,969.383l-257.146,30.182c-14.365,1.686-24.808,13.288-23.327,25.913l6.531,50.711
							c3.102,28.638,19.992,25.543,34.357,23.858l258.372-36.881c14.368-1.686,24.616-18.001,23.134-30.629l-2.415-41.884
							C1398.749,968.804,1374.216,967.697,1359.847,969.383L1359.847,969.383z"/>
					</g>
					<g>
						<path style="fill:#FFFFFF;" d="M1159.614,1045.336c-0.228-1.92-1.969-3.292-3.888-3.062l-13.695,1.628l9.691-10.751
							c1.294-1.436,1.179-3.649-0.256-4.943c-1.434-1.294-3.649-1.179-4.943,0.256l-10.747,11.922l-1.056-16.452
							c-0.124-1.929-1.784-3.392-3.717-3.269c-1.929,0.124-3.392,1.788-3.269,3.717l1.081,16.85l-14.731-12.241
							c-1.486-1.234-3.693-1.032-4.929,0.455c-1.235,1.487-1.031,3.693,0.455,4.929l14.088,11.707l-16.316,1.94
							c-1.92,0.228-3.291,1.969-3.062,3.888c0.211,1.779,1.723,3.087,3.471,3.087c0.138,0,0.277-0.008,0.418-0.025l16.149-1.92
							l-9.86,10.937c-1.294,1.436-1.179,3.649,0.256,4.943c0.669,0.603,1.507,0.9,2.342,0.9c0.957,0,1.91-0.39,2.601-1.156
							l10.156-11.266l0.901,14.047c0.119,1.853,1.658,3.276,3.489,3.276c0.075,0,0.151-0.002,0.228-0.007
							c1.929-0.124,3.393-1.788,3.269-3.717l-0.899-14.005l11.528,9.579c0.654,0.543,1.446,0.808,2.235,0.808
							c1.004,0,2.002-0.43,2.694-1.263c1.235-1.487,1.031-3.693-0.455-4.929l-12.141-10.09l15.85-1.884
							C1158.471,1048.996,1159.842,1047.255,1159.614,1045.336z"/>
						<path style="fill:#FFFFFF;" d="M1232.203,1035.262c-0.228-1.92-1.969-3.292-3.889-3.062l-13.695,1.628l9.692-10.751
							c1.294-1.436,1.179-3.649-0.256-4.943c-1.434-1.294-3.649-1.179-4.943,0.256l-10.747,11.922l-1.056-16.452
							c-0.124-1.929-1.784-3.392-3.717-3.269c-1.929,0.124-3.393,1.788-3.269,3.717l1.081,16.85l-14.731-12.241
							c-1.486-1.234-3.693-1.032-4.929,0.455c-1.235,1.487-1.031,3.693,0.455,4.929l14.088,11.707l-16.316,1.94
							c-1.92,0.228-3.291,1.969-3.062,3.889c0.211,1.779,1.722,3.087,3.471,3.087c0.138,0,0.277-0.008,0.417-0.025l16.148-1.92
							l-9.859,10.937c-1.294,1.436-1.179,3.649,0.256,4.943c0.669,0.603,1.507,0.9,2.342,0.9c0.957,0,1.91-0.39,2.601-1.157
							l10.156-11.266l0.901,14.047c0.119,1.853,1.658,3.276,3.489,3.276c0.075,0,0.151-0.002,0.228-0.007
							c1.929-0.124,3.393-1.788,3.269-3.717l-0.899-14.005l11.528,9.579c0.654,0.543,1.446,0.808,2.235,0.808
							c1.004,0,2.002-0.43,2.694-1.263c1.235-1.487,1.032-3.693-0.455-4.929l-12.141-10.09l15.85-1.884
							C1231.06,1038.923,1232.431,1037.182,1232.203,1035.262z"/>
						<path style="fill:#FFFFFF;" d="M1308.676,1024.862c-0.228-1.92-1.969-3.292-3.889-3.062l-13.695,1.628l9.692-10.751
							c1.294-1.436,1.179-3.649-0.256-4.943c-1.434-1.294-3.649-1.179-4.943,0.256l-10.747,11.922l-1.056-16.452
							c-0.124-1.929-1.784-3.392-3.717-3.269c-1.929,0.124-3.393,1.788-3.269,3.717l1.081,16.85l-14.731-12.241
							c-1.486-1.234-3.693-1.032-4.929,0.455c-1.235,1.487-1.031,3.693,0.455,4.929l14.088,11.707l-16.316,1.94
							c-1.92,0.228-3.291,1.969-3.062,3.888c0.211,1.779,1.722,3.087,3.471,3.087c0.138,0,0.277-0.008,0.418-0.025l16.148-1.92
							l-9.86,10.937c-1.294,1.436-1.179,3.649,0.256,4.943c0.669,0.603,1.507,0.9,2.342,0.9c0.957,0,1.91-0.39,2.601-1.156
							l10.156-11.266l0.901,14.047c0.119,1.853,1.658,3.276,3.489,3.276c0.075,0,0.151-0.002,0.228-0.007
							c1.929-0.124,3.392-1.788,3.269-3.717l-0.899-14.005l11.528,9.579c0.654,0.543,1.446,0.808,2.235,0.808
							c1.004,0,2.002-0.43,2.694-1.263c1.235-1.487,1.031-3.693-0.455-4.929l-12.142-10.09l15.85-1.884
							C1307.533,1028.522,1308.905,1026.782,1308.676,1024.862z"/>
						<path style="fill:#FFFFFF;" d="M1385.302,1013.744c-0.228-1.92-1.969-3.293-3.889-3.062l-13.695,1.628l9.692-10.751
							c1.294-1.436,1.179-3.649-0.256-4.943c-1.434-1.294-3.649-1.179-4.943,0.256l-10.747,11.922l-1.056-16.452
							c-0.124-1.929-1.784-3.392-3.717-3.269c-1.929,0.124-3.392,1.788-3.269,3.717l1.081,16.85l-14.731-12.241
							c-1.486-1.234-3.693-1.032-4.929,0.455c-1.235,1.487-1.031,3.693,0.455,4.929l14.088,11.707l-16.316,1.94
							c-1.92,0.228-3.291,1.969-3.062,3.888c0.212,1.779,1.723,3.087,3.471,3.087c0.138,0,0.277-0.008,0.418-0.025l16.149-1.92
							l-9.86,10.937c-1.294,1.436-1.179,3.649,0.256,4.943c0.669,0.603,1.507,0.9,2.342,0.9c0.957,0,1.91-0.39,2.601-1.156
							l10.156-11.266l0.901,14.047c0.119,1.853,1.658,3.276,3.489,3.276c0.075,0,0.151-0.002,0.228-0.007
							c1.929-0.124,3.392-1.788,3.269-3.717l-0.899-14.005l11.528,9.579c0.654,0.543,1.446,0.808,2.235,0.808
							c1.004,0,2.002-0.43,2.694-1.263c1.235-1.487,1.031-3.693-0.455-4.929l-12.141-10.089l15.85-1.884
							C1384.16,1017.404,1385.531,1015.664,1385.302,1013.744z"/>
					</g>
					<g>
						<g>
							<path style="fill:#FFFFFF;" d="M1355.594,772.373c-3.352,15.964-9.582,30.615-18.021,43.715
								c-10.432,16.209-24.258,30.04-40.219,41.05c-3.265,2.248-6.618,4.379-10.048,6.385
								c-34.452,20.196-76.843,28.087-116.333,19.796c-9.354-1.964-18.156-4.874-26.38-8.628
								c-10.364-4.722-19.8-10.764-28.263-17.889c-4.786-4.037-9.266-8.422-13.41-13.107l0.001-0.007
								c-31.381-35.451-44.117-88.342-33.249-140.11c16.86-80.303,78.299-138.756,172.133-115.669
								C1319.407,607.002,1372.453,692.069,1355.594,772.373z"/>
						</g>
					</g>
					<g>
						<g>
							<g>
								<path style="fill:#E28569;" d="M1115.84,829.517c-10.442-9.7-18.556-21.015-24.475-33.329
									c-7.328-15.228-11.286-31.992-12.128-49.128c-0.169-3.504-0.209-7.022-0.119-10.545
									c0.866-35.396,14.683-71.369,39.318-97.891c5.835-6.282,12.125-11.719,18.779-16.336c8.38-5.823,17.32-10.346,26.62-13.64
									c5.266-1.859,10.65-3.329,16.104-4.407l0.005,0.004c41.278-8.178,86.985,5.708,120.848,37.16
									c52.528,48.789,67.855,121.938,6.775,183.444C1257.052,875.716,1168.369,878.306,1115.84,829.517z"/>
							</g>
						</g>
					</g>
					<g>
						<g>
							<path style="fill:#FFFFFF;" d="M1265.34,736.301l-108.122,11.779l-5.152-47.294c-1.514-13.896,2.474-27.549,11.229-38.445
								c8.755-10.896,21.23-17.731,35.125-19.245l4.078-0.444c13.896-1.514,27.549,2.474,38.445,11.229
								c10.896,8.755,17.731,21.23,19.245,35.125L1265.34,736.301z M1171.116,730.784l76.927-8.381l-3.453-31.697
								c-2.188-20.085-20.309-34.644-40.393-32.456l-4.078,0.444c-13.454,2.35-24.304,10.377-29.45,21.425
								c-2.633,5.652-3.747,12.171-3.006,18.968L1171.116,730.784z"/>
						</g>
						<path style="fill:#FFFFFF;" d="M1256.272,813.407l-73.595,8.018c-13.706,1.493-26.027-8.407-27.52-22.113l-9.061-83.165
							c-0.471-4.321,2.651-8.206,6.972-8.677l107.58-11.72c4.321-0.471,8.206,2.651,8.677,6.972l9.06,83.165
							C1279.879,799.593,1269.978,811.914,1256.272,813.407z"/>
						<path style="fill:#E28569;" d="M1218.12,744.936c-0.389-3.57-3.599-6.149-7.169-5.76c-3.57,0.389-6.149,3.599-5.76,7.169
							c0.193,1.775,1.084,3.304,2.369,4.346l2.731,25.069c0.276,2.536,2.556,4.367,5.092,4.091c2.536-0.276,4.367-2.556,4.091-5.091
							l-2.731-25.069C1217.773,748.395,1218.313,746.71,1218.12,744.936z"/>
					</g>
				</g>
				<g>
					<path style="fill:#F7B686;" d="M858.768,863.548l104.413,44.371c26.01,17.803,61.537,11.156,79.349-14.852l0,0
						c17.811-26.01,11.167-61.53-14.845-79.348l-67.418-46.167c-46.29-30.739-87.529-44.413-116.178-2.514
						C803.639,824.193,833.617,846.321,858.768,863.548z"/>
				</g>
				<path style="fill:#68A1BF;" d="M1790.781,1854.178c9.036-1.13,17.9-2.422,26.595-3.916
					c-64.828-181.823-175.837-493.892-177.889-499.684c-4.282-11.745-17.249-18.717-37.311-20.797h-0.122
					c-43.063-4.404-119.032,13.946-212.741,56.885c-116.218,53.339-233.779,34.744-304.488,31.93h-0.123
					c-13.091-0.612-24.589-0.489-34.132,0.611c-21.935,2.548-38.152,109.233-48.559,224.386c-0.65,7.19-2.561,106.044-4.195,186.796
					c84.378-2.514,140.641-2.331,179.084-1.539c57.121,1.498,73.203,3.64,158.5,11.73
					C1515.453,1857.518,1666.39,1870.483,1790.781,1854.178z"/>
				<g>
					<path style="fill:#EA9F75;" d="M1005.64,892.282c-0.583,0-1.16-0.058-1.73-0.174c-1.944-0.351-33.114-6.09-47.582-16.422
						c-5.964-4.259-6.536-13.188-1.611-25.144c3.602-8.742,9.846-18.408,16.702-25.855c5.627-6.111,13.875-13.143,21.217-11.951
						c16.696,2.72,41.643,17.895,41.2,34.57c-0.341,12.773-10.816,34.249-20.377,41.782
						C1010.761,891.213,1008.138,892.282,1005.64,892.282z M990.877,819.801c-6.766,0-22.373,16.193-29.498,33.485
						c-3.368,8.176-3.7,14.511-0.864,16.535c13.298,9.496,44.401,15.146,44.715,15.202l0.115,0.023
						c0.783,0.167,2.153-0.437,3.653-1.618c7.955-6.266,17.348-25.611,17.633-36.315c0.31-11.631-21.373-25.021-35.155-27.266
						C991.286,819.818,991.086,819.801,990.877,819.801z"/>
				</g>
				<g>
					<path style="fill:#F7B686;" d="M865.055,722.965l96.977,58.877c23.19,21.347,59.302,19.861,80.659-3.328l0,0
						c21.356-23.188,19.87-59.294-3.321-80.657l-60.105-55.352c-41.408-37.056-80.259-56.499-114.619-19.137
						C816.136,676.116,842.633,702.312,865.055,722.965z"/>
				</g>
				<g>
					<path style="fill:#EA9F75;" d="M1007.594,772.544c-1.04,0-2.037-0.171-2.988-0.513c-1.881-0.627-31.9-10.776-44.737-23.072
						c-5.292-5.07-4.579-13.989,2.009-25.114c4.818-8.137,12.383-16.808,20.235-23.194c6.445-5.242,15.618-11.023,22.71-8.788
						c7.954,2.508,17.296,8.354,24.384,15.258c8.678,8.456,12.74,17.283,11.436,24.86c-2.167,12.591-15.611,32.345-26.155,38.43
						C1012.026,771.832,1009.719,772.544,1007.594,772.544z M1001.367,698.555c-7.166,0-24.077,13.404-33.287,28.961
						c-4.504,7.607-5.74,13.829-3.225,16.239c11.799,11.303,41.772,21.353,42.074,21.454l0.111,0.039
						c0.754,0.279,2.194-0.124,3.848-1.078c8.77-5.061,20.838-22.86,22.655-33.412c1.974-11.467-17.566-27.826-30.885-32.022
						C1002.273,698.614,1001.841,698.555,1001.367,698.555z"/>
				</g>
				<g>
					<path style="fill:#F7B686;" d="M907.501,1003.801l92.756,22.34c24.042,11.162,52.589,0.728,63.761-23.314l0,0
						c11.172-24.043,0.738-52.585-23.307-63.762l-62.317-28.954c-42.655-19.084-78.756-24.713-96.717,14.011
						C856.321,978.795,884.252,992.997,907.501,1003.801z"/>
				</g>
				<g>
					<path style="fill:#EA9F75;" d="M1032.118,1007.961c-0.093,0-0.187-0.002-0.281-0.006c-1.744-0.022-28.456-0.477-41.98-7.088
						c-3.361-1.642-8.493-6.591-5.128-21.276c3.457-15.079,15.603-37.012,26.77-37.057c0.045,0,0.09,0,0.135,0
						c14.433,0,37.422,9.313,39.398,23.461c1.506,10.771-4.28,30.275-11.257,37.945
						C1037.348,1006.609,1034.774,1007.961,1032.118,1007.961z M1011.63,949.74c-0.034,0-0.066,0-0.1,0
						c-5.196,0.021-16.301,16.296-19.777,31.461c-1.573,6.868-1.076,12.047,1.267,13.192c12.23,5.977,38.687,6.355,38.952,6.357
						l0.119,0.004c0.27,0.004,1.136-0.32,2.355-1.662c5.533-6.082,10.657-23.483,9.452-32.099
						C1042.584,957.599,1023.192,949.74,1011.63,949.74z"/>
				</g>
				<g>
					<path style="fill:#EA9F75;" d="M999.481,800.942c-39.695,0-109.359-57.874-112.489-60.492
						c-1.526-1.277-1.728-3.549-0.452-5.075c1.276-1.526,3.55-1.728,5.075-0.452c0.2,0.168,20.197,16.837,44.329,32.292
						c31.329,20.063,55.253,29.039,69.191,25.954c1.94-0.429,3.866,0.796,4.296,2.739c0.43,1.943-0.797,3.866-2.739,4.297
						C1004.428,800.706,1002.015,800.942,999.481,800.942z"/>
				</g>
				<g>
					<path style="fill:#EA9F75;" d="M993.554,922.09c-24.142,0-62.8-23.73-64.606-24.847c-1.692-1.047-2.215-3.268-1.168-4.96
						c1.045-1.692,3.266-2.215,4.959-1.168c12.895,7.976,49.919,27.674,66.159,23.138c1.92-0.538,3.904,0.583,4.44,2.5
						c0.536,1.916-0.582,3.903-2.5,4.44C998.626,921.809,996.174,922.09,993.554,922.09z"/>
				</g>
				<g>
					<path style="fill:#EA9F75;" d="M1473.617,564.126c-4.816,0.001-10.805-1.055-17.179-4.681
						c-4.386-2.495-10.324-9.724-11.249-43.566c-0.488-17.834,0.709-34.947,0.722-35.118c0.142-1.985,1.864-3.48,3.85-3.337
						c1.984,0.14,3.479,1.864,3.338,3.848c-0.012,0.169-1.187,16.975-0.705,34.46c0.858,31.224,6.039,36.559,7.607,37.45
						c11.651,6.626,21.4,2.498,21.811,2.318c1.814-0.794,3.94,0.023,4.745,1.834c0.805,1.81,0.007,3.926-1.798,4.742
						C1484.449,562.217,1480.094,564.126,1473.617,564.126z"/>
				</g>
				<g>
					<g>
						<path style="fill:#EA9F75;" d="M1106.929,1344.075c-0.272,0.032-0.549,0.041-0.831,0.022
							c-40.994-2.523-65.853-17.211-79.488-29.09c-15.024-13.087-20.146-25.66-20.357-26.189c-0.948-2.377,0.212-5.07,2.589-6.017
							c2.369-0.947,5.06,0.206,6.011,2.573l0,0c0.045,0.113,4.728,11.376,18.271,23.02c12.532,10.776,35.463,24.111,73.542,26.457
							c2.554,0.157,4.496,2.354,4.34,4.908C1110.866,1342.032,1109.112,1343.819,1106.929,1344.075z"/>
					</g>
				</g>
				<g>
					<path style="fill:#EA9F75;" d="M1015.385,1035.181c-0.113,0-0.223,0-0.337-0.001c-24.322-0.106-112.625-30.369-116.372-31.656
						c-1.882-0.647-2.882-2.696-2.237-4.578c0.647-1.882,2.696-2.883,4.579-2.237c0.906,0.313,90.917,31.163,114.06,31.266
						c0.102,0,0.204,0.001,0.306,0.001c22.026,0,32.589-10.449,32.694-10.555c1.397-1.417,3.679-1.433,5.094-0.034
						c1.417,1.397,1.433,3.677,0.035,5.095C1052.695,1023.001,1040.389,1035.181,1015.385,1035.181z"/>
				</g>
				<g>
					<path style="fill:#41718C;" d="M1100.277,1549.068c-1.322-11.253,7.704-24.47,18.718-27.128
						c14.374-3.468,26.593,5.059,27.915,16.313c1.546,13.174-8.584,27.006-22.198,28.604
						C1113.459,1568.178,1101.598,1560.322,1100.277,1549.068z"/>
				</g>
			</g>
		</g>
	</g>
	<g>
		<path style="fill:#F7B686;" d="M1123.428,1022.622c-20.956-9.131-43.733,7.366-54.685,27.746
			c-43.407,80.805-132.415,273.078-157.987,269.353c-16.702-2.434-8.667-26.167-46.018-32.382
			c-30.189-5.025-38.754,21.783-54.87,21.448c-23.223-0.483-19.591-8.685-40.008-18.206c-30.904-14.417-48.619,27.049-72.083,14.89
			c-23.455-12.15-40.611-47.309-81.279-22.842c-26.864,16.154-44.857,55.483-91.97,213.61
			c-24.963,83.778-47.562,267.665-55.43,339.466c70.539,16.498,145.885,10.962,190.279,8.651c4.062-0.212,8.112-0.41,12.151-0.577
			c79.044-2.654,131.197-5.991,294.139-12.325c48.231-71.174,60.725-143.698,80.633-204.203
			c11.453-34.769,22.498-77.591-29.01-143.301C1045.028,1369.864,1205.069,1058.218,1123.428,1022.622z"/>
		<g>
			<path style="fill:#EA9F75;" d="M1004.316,1581.468l-6.518-0.26c1.387-34.818,15.687-95.465,16.295-98.03l6.347,1.506
				C1020.293,1485.304,1005.678,1547.282,1004.316,1581.468z"/>
		</g>
		<g>
			<path style="fill:#F59A6D;" d="M1113.52,1097.542c-5.849,0-13.352-1.525-21.363-5.07c-10.112-4.476-15.738-10.334-15.435-16.074
				c0.726-13.742,19.694-34.737,20.725-35.869c1.279-1.494,3.552-2.032,6.952-1.645c10.017,1.139,30.477,11.288,32.553,15.324
				c2.433,4.732-4.673,32.115-12.82,40.34C1122.255,1096.444,1118.484,1097.542,1113.52,1097.542z M1102.454,1041.563
				c-1.43,0-2.451,0.273-2.891,0.792l-0.036,0.041c-0.193,0.211-19.337,21.32-20.015,34.149c-0.235,4.451,4.914,9.449,13.774,13.37
				c11.667,5.163,25.151,6.409,28.857,2.667c7.924-8.001,13.81-34.199,12.32-37.095c-1.179-2.292-19.8-12.621-30.382-13.824
				C1103.496,1041.596,1102.95,1041.563,1102.454,1041.563z"/>
		</g>
	</g>
	<g>
		<path style="fill:#EA9F75;" d="M933.347,1303.708c-0.688,0-1.383-0.203-1.991-0.625c-1.588-1.101-1.983-3.282-0.882-4.87
			c0.359-0.518,36.357-52.733,77.742-137.3c0.849-1.736,2.947-2.456,4.682-1.605c1.736,0.85,2.455,2.946,1.605,4.682
			c-41.636,85.083-77.915,137.69-78.276,138.212C935.547,1303.183,934.456,1303.708,933.347,1303.708z"/>
	</g>
	<g>
		<path style="fill:#EA9F75;" d="M1017.293,1487.452c-0.31,0-0.625-0.042-0.939-0.128c-1.863-0.518-2.953-2.447-2.436-4.309
			c13-46.805,107.963-303.236,108.921-305.82c0.671-1.813,2.683-2.739,4.498-2.066c1.813,0.671,2.738,2.685,2.066,4.497
			c-0.956,2.582-95.817,258.737-108.739,305.262C1020.233,1486.437,1018.826,1487.452,1017.293,1487.452z"/>
	</g>
</g>
</svg>
