<?xml version="1.0" encoding="utf-8"?>
<!-- Generator: Adobe Illustrator 27.5.0, SVG Export Plug-In . SVG Version: 6.00 Build 0)  -->
<svg version="1.1" id="Layer_1" xmlns="http://www.w3.org/2000/svg" xmlns:xlink="http://www.w3.org/1999/xlink" x="0px" y="0px"
	 viewBox="0 0 2760 2000" style="enable-background:new 0 0 2760 2000;" xml:space="preserve">
<rect style="fill:#FFFFFF;" width="2760" height="2000"/>
<g>
	<path style="fill:#FADFE2;" d="M894.769,395.843c-338.988,251.093-229.01,626.24-229.01,626.24s-380.442,64.58-441.396,399.606
		c-60.953,335.026,62.262,448.171,62.262,448.171l2123.508,4.268c0,0,330.797-923.323-15.847-1358.342
		C2047.64,80.766,1233.757,144.75,894.769,395.843z"/>
	<path style="fill:#7A7A7A;" d="M1610.437,1304.233c14.985-4.527,32.806-7.166,51.767-7.312
		c17.585-19.124,58.584-31.888,105.179-31.888c27.963,0,54.477,4.74,74.923,12.865c22.754-23.763,75.013-40.369,134.225-40.369
		c38.896,0,75.789,7.017,103.133,19.438c3.914-0.283,7.869-0.427,11.83-0.427c42.371,0,76.839,15.752,76.839,35.114
		c0,4.349-1.763,8.601-5.116,12.577H1610.437z"/>
	<path style="fill:#7A7A7A;" d="M856.541,1430.469c-20.377-6.154-44.609-9.744-70.394-9.941
		c-23.912-26.004-79.663-43.36-143.023-43.36c-38.024,0-74.079,6.444-101.881,17.493c-30.94-32.313-102.002-54.894-182.519-54.894
		c-42.895,0-83.996,6.278-117.834,17.661c-6.82,20.232-12.409,41.625-16.528,64.263c-0.536,2.945-1.054,5.868-1.561,8.779H856.541z"
		/>
	<path style="fill:#7A7A7A;" d="M2551.619,1025.204c-10.034-2.199-21.265-3.434-33.116-3.434c-3.96,0-7.915,0.144-11.83,0.427
		c-27.345-12.422-64.236-19.439-103.133-19.439c-59.212,0-111.471,16.607-134.224,40.369c-20.445-8.125-46.96-12.864-74.923-12.864
		c-46.597,0-87.595,12.764-105.181,31.887c-18.959,0.146-36.78,2.785-51.765,7.312h515.081
		C2552.433,1054.695,2552.133,1039.936,2551.619,1025.204z"/>
	<path style="fill:#7A7A7A;" d="M1047.693,688.506c6.108,0,6.399-6.597,0.302-6.846c-2.235-0.091-4.49-0.146-6.763-0.164
		c-16.857-18.332-56.16-30.567-100.828-30.567c-26.805,0-52.224,4.543-71.823,12.332c-21.812-22.779-71.909-38.699-128.671-38.699
		c-12.813,0-25.387,0.813-37.452,2.34c-9.566,20.692-17.551,41.292-24.188,61.604H1047.693z"/>
	<path style="fill:#5C8097;" d="M2532.78,1874.128H169.802c-12.664,0-22.93-10.267-22.93-22.93l0,0
		c0-12.664,10.266-22.93,22.93-22.93H2532.78c12.663,0,22.93,10.266,22.93,22.93l0,0
		C2555.71,1863.861,2545.443,1874.128,2532.78,1874.128z"/>
	<g>
		<g>
			<path style="fill:#FF7446;" d="M2026.568,1739.659c0,0,0.202,1.85,0.202,4.937c0.002,9.263-1.803,29.67-16.278,44.729
				c-19.302,20.081-19.416,45.061,0.976,49.328c20.393,4.267,69.02-1.364,69.02-1.364s10.994-19.104,3.486-70.132
				c-7.509-51.026-11.864-106.989-11.864-106.989l-55.407-8.651L2026.568,1739.659z"/>
			<path style="fill:#001653;" d="M2015.711,1761.354c0,0-20.554,27.892-25.365,39.53c-4.809,11.638-3.775,40.58,0,43.562
				c33.237,26.239,96.252,2.623,96.252,2.623s4.332-19.241,6.52-42.857c2.187-23.615,0.954-45.621-6.52-45.621
				c-7.476,0-8.787,12.385-25.843,8.887C2043.699,1763.978,2033.204,1757.855,2015.711,1761.354z"/>
			<path style="fill:#7B5119;" d="M2091.825,1815.973c-12.812,5.005-30.203,10.856-46.377,13.165
				c-17.264,2.467-40.506-5.219-58.045-12.94c-0.908,12.371,0.392,26.233,2.942,28.248c33.237,26.239,96.252,2.623,96.252,2.623
				S2089.563,1833.896,2091.825,1815.973z"/>
			<path style="fill:#957447;" d="M2091.825,1815.973c-47.681,14.324-56.453,16.862-104.422,0.225
				c7.986,4.291,16.379,7.852,25.078,10.603c18.434,5.712,29.318,5.214,40.815,2.634
				C2067.018,1826.384,2079.933,1821.721,2091.825,1815.973z"/>
			<path style="fill:#F25C12;" d="M1472.233,871.646c13.641,5.13,31.725,12.743,31.725,12.743c2.338-5.628-42.686-15.252-49-28.958
				c-3.381-7.338,51.666,19.671,55.489,16.452c1.586-1.335-62.267-22.122-59.32-27.138c2.477-4.216,67.135,18.573,67.491,15.419
				c0.496-4.383-55.981-15.711-50.926-22.021c2.59-3.233,71.137,15.309,78.535,16.389c9.051,0-23.697-22.244-12.543-25.218
				c15.149-4.04,53.192,39.571,56.162,40.188c8.612,1.786,81.934,10.762,117.833-12.717c28.996-18.964,57.13-48.129,64.018-73.241
				c6.752-24.621,16.108-59.787,8.11-86.914c32.66-4.971,64.344-6.112,97.489-2.151c2.015,40.738-46.76,202.159-67.154,215.441
				c-44.867,29.221-124.913,22.074-181.348,17.426c-45.483-3.745-90.026-12.705-130.991-33.494
				c-9.157-4.647-21.423-9.852-28.51-17.938C1467.461,873.822,1469.631,870.667,1472.233,871.646z"/>
			<path style="fill:#FA8E00;" d="M1800.2,559.891c-24.305,25.106-48.85,175.526-39.816,211.377
				c15.598,29.121,86.229,34.147,109.068,47.96c52.693-21.665,16.596-118.825,16.596-118.825l19.209-189.249
				C1905.257,511.154,1846.496,512.072,1800.2,559.891z"/>
			<path style="fill:#FF7446;" d="M1866.65,1706.021c7.191,22.613,0.081,47.509-18.354,62.447
				c-6.363,5.156-13.755,9.989-22.115,13.645c-32.275,14.109-74.082,10.937-79.909,39.92c-5.827,28.981,204.665-8.135,204.665-8.135
				s-14.604-70.491-15.549-82.299c-0.945-11.806,1.287-55.167,1.287-55.167l-81.291-5.836L1866.65,1706.021z"/>
			<path style="fill:#001653;" d="M1942.388,1764.014c0,0,2.574,11.193,8.469,30.172c5.896,18.979,2.219,36.852,2.219,36.852
				s-197.158,9.34-205.139,3.095c-7.981-6.244-3.882-28.976-1.864-30.988s27.039-8.771,39.871-16.688
				c12.831-7.918,56.656-37.872,71.463-36.662c14.807,1.21,21.643,12.147,49.761,13.397
				C1935.284,1764.441,1935.405,1758.55,1942.388,1764.014z"/>
			<path style="fill:#7B5119;" d="M1747.937,1834.132c7.98,6.245,205.139-3.095,205.139-3.095s2.412-11.729,0.195-26.273
				c-102.917,19.066-207.198-1.621-207.198-1.621C1744.056,1805.156,1739.956,1827.888,1747.937,1834.132z"/>
			<path style="fill:#957447;" d="M1953.271,1804.765c-70.285,14.037-148.2,11.066-207.198-1.621
				c107.315,16.205,193.849,3.648,187.86,4.255C1934.194,1807.362,1954.566,1804.59,1953.271,1804.765z"/>
			<path style="fill:#021F6E;" d="M2105.536,1022.869c33.831,123.692-8.169,678.543-8.169,678.543l-101.274-6.93
				c0,0-23.037-551.97-39.747-568.678c-4.891-4.892-10.146-3.341-14.179-0.566c-4.07,2.801-6.932,7.032-8.379,11.758
				c-10.421,34.058-69.989,232.312-57.98,275.726c13.148,47.537,71.825,302.198,71.825,302.198l-84.974,3.394
				c0,0-116.506-194.551-116.506-330.369c0-135.82,18.95-315.86,74.004-389.115c25.057-33.341,148.432-59.136,148.432-59.136
				S2094.97,984.231,2105.536,1022.869z"/>
			<g>
				<path style="fill:#021753;" d="M1922.511,1714.695c0,0-58.676-271.535-71.824-322.222
					c-9.55-36.809,26.158-178.004,46.428-252.564c6.085-22.387,32.973-31.396,51.334-17.216l0,0c0,0-85.789,242.49-72.641,290.027
					c13.148,47.537,71.825,302.198,71.825,302.198l-84.974,3.394c0,0-0.213-0.353-0.619-1.043L1922.511,1714.695z"/>
				<path style="fill:#021753;" d="M2084.516,997.197c10.858,8.488,18.71,17.221,21.021,25.672
					c33.831,123.692-8.169,678.543-8.169,678.543l-25.081-1.717C2073.696,1679.628,2110.062,1157.373,2084.516,997.197z"/>
			</g>
			<path style="fill:#021753;" d="M1800.706,1032c5.912-12.604,12.385-23.767,19.451-33.169c2.91-3.873,7.147-7.643,12.362-11.283
				c14.077,7.192,33.544,15.035,60.462,23.313c81.186,24.965,168.715,11.655,205.086-1.007c3.696,4.366,6.297,8.728,7.469,13.016
				c2.936,10.728,5.299,24.702,7.168,41.274c-18.155,13.506-123.696,46.133-219.723,15.571
				C1832.039,1060.319,1809.324,1048.57,1800.706,1032z"/>
			<path style="fill:#5D70A2;" d="M2097.326,1743.425c-25.948,8.423-88.403,6.333-103.317,0c-13.754-5.842-14.683-56.996,0-59.771
				c20.627-3.896,79.102-3.465,103.317,0C2112.118,1685.771,2111.538,1738.812,2097.326,1743.425z"/>
			<path style="fill:#5D70A2;" d="M1943.33,1720.571c-25.949,8.423-88.405,6.335-103.317,0c-13.754-5.842-14.682-56.995,0-59.77
				c20.628-3.898,79.102-3.466,103.317,0C1958.122,1662.918,1957.542,1715.959,1943.33,1720.571z"/>
			<g>
				<path style="fill:#8F4800;" d="M1809.001,956.173c3.433,10.779,18.937,29.252,88.822,50.919
					c90.991,28.207,190.611,3.935,203.947-8.055c5.42-4.872,6.617,50.878,0,56.833c-26.35,23.704-73.038,27.98-106.861,28.987
					c-35.091,1.046-70.246-4.601-103.765-14.821c-28.512-8.693-71.159-19.598-84.637-49.18
					C1804.745,1016.987,1804.275,987.327,1809.001,956.173z"/>
			</g>
			<path style="fill:#FCB500;" d="M1982.019,506.914c0,0,84.451-4.342,118.967,36.559c34.518,40.902,28.763,443.575,14.793,455.564
				c-13.971,11.989-118.342,43.538-213.672,15.331c-95.331-28.209-101.4-66.934-101.4-66.934s12.644-257.277,12.644-336.261
				C1813.35,532.19,1890.464,485.664,1982.019,506.914z"/>
			<path style="fill:#FA8E00;" d="M2056.509,942.172c7.463-20.75-0.524-86.745-9.02-134.489c-6.648,1.272-13.042,2.783-19.082,4.526
				c-10.203-31.581-19.191-113.543-19.492-165.071c-0.566-96.657,48.368-124.768,48.368-124.768
				c9.695-2.214,25.209,6.913,49.474,32.171c28.027,76.625,22.155,433.225,9.021,444.496c-5.6,4.805-25.721,12.751-53.961,18.734
				C2054.479,988.95,2049.608,961.352,2056.509,942.172z"/>
			<path style="fill:#FCDB86;" d="M1989.301,507.802c18.315,16.833,19.733,17.155,0.708,39.24
				c-19.026,22.084-82.023,47.196-91.008,42.954c-22.297-10.527-1.547-45.671,13.296-70.948
				C1916.932,511.154,1970.987,490.969,1989.301,507.802z"/>
			<path style="fill:#F25C12;" d="M1907.448,444.163c0,0-4.932,116.294,0,121.388c4.931,5.093,75.607-19.524,81.771-33.954
				c6.162-14.431-25.755-224.668-25.755-224.668L1907.448,444.163z"/>
			<path style="opacity:0.6;fill:#B5450E;" d="M1905.314,520.848c12.495-2.251,23.251-5.428,26.409-8.996
				c28.83-32.568,7.226-85.414,9.491-99.157c4.509-27.349,13.697-49.945,9.09-73.529l-42.857,104.997
				C1907.447,444.163,1905.664,486.212,1905.314,520.848z"/>
			<g>
				<path style="fill:#00424C;" d="M1527.386,690.208c-1.316,8.038,5.531,14.887,13.569,13.571c4.867-0.797,8.794-4.721,9.595-9.587
					c1.324-8.043-5.531-14.9-13.576-13.577C1532.106,681.415,1528.183,685.341,1527.386,690.208z"/>
				<path style="fill:#00424C;" d="M1534.949,691.761l3.575,4.337l2.168-5.191c2.824-6.767,26.835-66.533,0.324-80.131
					c-7.822-4.031-15.208-2.727-20.24,3.527C1509.188,628.702,1512.79,664.886,1534.949,691.761z M1526.058,618.552
					c2.443-3.035,5.473-3.98,9.201-2.846c0.852,0.259,1.74,0.625,2.667,1.1c16.105,8.265,5.944,46.361-1.328,65.976
					C1518.89,657.943,1518.165,628.36,1526.058,618.552z"/>
				<g>
					<path style="fill:#00424C;" d="M1538.298,688.44l5.527,1.035c5.034,0.939,10.051,1.378,14.943,1.378
						c24.604,0,46.091-10.992,51.288-23.682c2.761-6.745,0.556-13.159-6.05-17.604c-22.069-14.826-58.171,29.371-62.211,34.469
						L1538.298,688.44z M1550.933,683.665c10.313-11.855,29.441-30.345,42.816-30.345c2.366,0,4.549,0.575,6.476,1.875
						c3.907,2.631,5.072,5.707,3.558,9.407C1599.666,674.656,1577.118,686.386,1550.933,683.665z"/>
				</g>
				<path style="fill:#0087FC;" d="M1355.325,884.056h345.992c14.388,0,26.051-11.663,26.051-26.05V722.147
					c0-14.386-11.663-26.049-26.049-26.049h-345.993c-14.387,0-26.05,11.663-26.05,26.049v135.859
					C1329.276,872.393,1340.938,884.056,1355.325,884.056z"/>
				<path style="fill:#0062B8;" d="M1355.326,696.098h124.422v187.958h-124.422c-14.387,0-26.05-11.664-26.05-26.049v-135.86
					C1329.276,707.76,1340.938,696.098,1355.326,696.098z"/>
				<path style="fill:#00424C;" d="M1591.65,696.098h9.819c53.1,59.982,20.568,165.05,12.562,187.958h-7.662
					c5.492-15.434,43.43-129.711-14.265-187.404C1591.931,696.478,1591.779,696.293,1591.65,696.098z"/>
				<path style="fill:#00424C;" d="M1408.043,883.345c0.049,0.239,0.071,0.476,0.071,0.71h-7.277
					c-21.428-107.085,2.216-163.733,18.182-187.958h8.998C1413.497,716.346,1385.633,772.155,1408.043,883.345z"/>
			</g>
			<g>
				<path style="fill:#0087FC;" d="M1998.865,1208.823h247.999c4.695,0,8.5-3.806,8.5-8.501v-161c0-4.694-3.805-8.5-8.5-8.5
					h-247.999c-4.694,0-8.501,3.806-8.501,8.5v161C1990.364,1205.018,1994.171,1208.823,1998.865,1208.823z"/>
				
					<rect x="2000.478" y="1051.322" transform="matrix(-1 -1.224647e-16 1.224647e-16 -1 4225.4102 2239.6445)" style="fill:#FFE6A6;" width="224.455" height="137"/>
				<path style="fill:#557A80;" d="M1989.493,1158.989h14.077c2.647,0,4.794-2.146,4.794-4.794v-68.745
					c0-2.647-2.146-4.794-4.794-4.794h-14.077c-2.648,0-4.795,2.147-4.795,4.794v68.745
					C1984.698,1156.843,1986.845,1158.989,1989.493,1158.989z"/>
			</g>
			<path style="fill:#F25C12;" d="M2076.874,942.171c-16.705,50.837,42.121,160.798,18.229,195.988
				c-23.893,35.19-11.872,72.142,17.084,90.46c28.956,18.319,64.942-7.354,62.043-21.301c-2.902-13.946-10.714-51.494-14.283-68.658
				c-3.572-17.165,63.773-154.681,16.367-238.077c-28.13-49.485,13.463-134.657-8.506-189.689
				c-19.666,36.65-112.756,13.749-107.418,53.966C2068.885,799.213,2086.262,913.598,2076.874,942.171z"/>
			<path style="fill:#FF7446;" d="M1861.016,290.517c0,0-12.327,42.443-12.327,77.247c0,34.804,0.821,95.073,25.476,95.073
				s59.993-6.791,68.211-56.025c8.219-49.235,0-103.562-24.654-116.295S1861.016,290.517,1861.016,290.517z"/>
			<path style="fill:#100062;" d="M1868.562,324.785c7.154-2.952,14.551,3.435,13.182,11.266c-2.192,12.55-1.651,26.3,10.088,29.167
				c22.601,5.518,33.286,0,36.982,3.82c3.699,3.82-10.682,24.193,0,28.013c10.685,3.82,16.438-32.681,25.888-32.681
				c9.451,0,11.506,52.63,0,64.514c-11.505,11.885,1.644,28.013,16.847,28.013c15.204,0-1.921,19.099,18.557,25.466
				c20.479,6.366,36.916,6.366,43.49-19.524c6.574-25.89,0-40.321,0-40.321s20.932-24.476,15.615-48.668
				c-2.957-13.448-16.565-37.637-16.565-37.637s-10.556-28.717-13.431-45.27c-2.877-16.553-43.629-33.106-71.534-36.077
				c-27.906-2.971-13.935-19.949-37.357-19.949c-23.422,0-26.64,30.932-26.64,30.932s-33.443-19.994-34.996-19.047
				c-19.464,11.857-3.288,32.681-3.288,32.681s-16.024,1.698-19.312,22.495c-3.287,20.797,10.271,33.53,31.639,26.739
				C1861.774,327.43,1865.378,326.099,1868.562,324.785z"/>
			<path style="fill:#0C004A;" d="M1845.417,249.144c4.121,0.59,9.55,1.895,16.05,3.834c10.007,5.569,22.218,12.869,22.218,12.869
				s43.656,12.218,68.674,24.142c32.063,15.28,60.159,30.609,79.022,42.689c0.785,2.222,1.266,3.534,1.266,3.534
				s5.005,8.895,9.604,18.895c-19.862-4.339-58.644-19.295-101.904-39.913C1891.495,291.911,1842.664,251.48,1845.417,249.144z"/>
			<path style="fill:#FFFFFF;" d="M1939.867,361.51c0,0-9.987,6.204-25.595,17.27c-32.569,23.092-51.345-2.634-65.83-1.967
				c-12.474,15.506-7.514,76.673,12.775,89.006c12.751,7.75,44.555,0.084,62.5-17.25c17.946-17.333,17.946-37.944,17.946-37.944
				C1909.577,430.065,1908.927,398.479,1939.867,361.51z"/>
			<path style="fill:#FF7446;" d="M1939.867,361.51c0,0,11.3-20.806,21.361-9.196c10.061,11.611,4.778,60.702-10.681,60.702
				C1935.089,413.016,1934.388,374.667,1939.867,361.51z"/>
			<path style="fill:#FCC332;" d="M2054.688,523.276c0,0-28.723,21.86-28.205,118.517c0.276,51.528,15.401,138.836,24.722,170.417
				c38.684-12.226,93.236-13.018,132.739,0c5.324-42.17-5.43-132.161-12.133-161.234
				C2155.321,579.478,2095.73,506.918,2054.688,523.276z"/>
			<path style="fill:#FCB500;" d="M1874.525,254.672c20.952-43.962,73.911-62.457,118.286-41.308
				c44.377,21.149,63.365,73.933,42.412,117.896c-0.807,1.693-1.676,3.334-2.577,4.951l-160.344-76.42
				C1872.991,258.074,1873.718,256.365,1874.525,254.672z"/>
			<path style="fill:#FCC332;" d="M1907.854,274.73c0.689-1.717,1.416-3.426,2.223-5.119c17.502-36.722,57.335-55.673,95.844-48.595
				c-4.08-2.867-8.454-5.434-13.107-7.652c-44.377-21.149-97.336-2.655-118.288,41.308c-0.808,1.693-1.534,3.402-2.223,5.119
				l160.344,76.42C2032.941,335.684,1907.854,274.73,1907.854,274.73z"/>
			<path style="fill:#FC9700;" d="M1800.706,227.841c1.706-3.581,85.191,30.471,138.565,55.909
				c53.374,25.439,95.26,48.963,93.553,52.544c-1.706,3.581-90.235-17.209-143.611-42.647
				C1835.84,268.21,1798.998,231.422,1800.706,227.841z"/>
		</g>
		<g>
			<path style="fill:#FFA283;" d="M458.973,1716.146c-16.267,18.584-14.021,57.455-17.395,59.817
				c-7.078,4.959-21.134-31.071-21.134-31.071l19.707-69.752c0,0,39.846-38.661,85.381-86.659
				c13.691,12.785,26.34,26.548,37.336,41.631C518.09,1663.024,478.669,1693.646,458.973,1716.146z"/>
			<path style="fill:#09434C;" d="M440.151,1675.141c0,0-2.463-5.997-15.138-0.977c-12.674,5.018-46.329,59.402-46.329,59.402
				l8.335,8.989c0,0,26.954-38.316,28.938-36.309c1.981,2.01-21.83,44.681-18.32,50.913c3.508,6.233,33.227,40.585,43.208,40.65
				c9.979,0.064,2.43-28.171,2.43-28.171s-18.164-14.075-18.135-18.289C425.167,1747.138,440.151,1675.141,440.151,1675.141z"/>
			<path style="fill:#FFA283;" d="M666.757,1782.326c2.135,24.604,31.725,49.91,31.093,53.979c-1.326,8.539-37.049-6.28-37.049-6.28
				l-36.658-62.529c0,0-0.283-55.517-3.362-121.609c18.708-1.018,37.394-0.608,55.89,1.909
				C669.39,1702.89,664.17,1752.534,666.757,1782.326z"/>
			<path style="fill:#09434C;" d="M624.143,1767.496c0,0-6.03-2.377-11.189,10.242c-5.16,12.618,10.752,74.562,10.752,74.562
				l12.257,0.215c0,0-8.966-45.982-6.143-46.021c2.823-0.039,17.104,46.693,24.03,48.481c6.926,1.786,52.287,4.145,59.247-3.009
				c6.96-7.153-18.633-21.267-18.633-21.267s-22.733,3.351-25.753,0.411C665.69,1828.174,624.143,1767.496,624.143,1767.496z"/>
			<path style="fill:#0001AB;" d="M668.977,1002.674l77.597-39.435l-2.533,32.992c0,0,71.39,320.644,54.217,369.044
				c-40.167,113.204-273.023,303.956-273.023,303.956l-45.792-41.977c0,0,179.359-246.78,179.359-293.845
				c0-47.067-58.514-314.199-58.514-314.199L668.977,1002.674z"/>
			<path style="opacity:0.51;fill:#531C2E;" d="M658.8,1333.41c0-47.067-58.514-314.199-58.514-314.199l68.69-16.537l77.597-39.435
				l-2.533,32.992c0,0,10.727,48.178,22.863,110.001c-40.219,26.783-42.495,234.225-65.904,397.623l-70.942-103.41
				C647.271,1370.114,658.8,1345.342,658.8,1333.41z"/>
			<path style="fill:#0001E4;" d="M746.573,963.239c0,0-4.333,54.177-4.333,61.811c0,7.631-68.175,606.02-46.55,702.696h-81.412
				c0,0-89.044-548.258-89.044-638.574c0-90.316,43.25-150.102,43.25-150.102L746.573,963.239z"/>
			<path style="fill:#F7604B;" d="M568.484,939.071l178.089,24.169c0,0-4.333,54.177-4.333,61.81c0,0.837-0.817,8.751-2.244,22.31
				c-34.413-12.37-76.937-28.58-101.548-41.379c-45.561-23.693-58.64-49.047-80.247-49.815
				C564.138,945.082,568.484,939.071,568.484,939.071z"/>
			<path style="fill:#FFA283;" d="M650.124,507.067c0,0-18,64.745-10.412,103.947c8.628,44.577,16.989,84.825,16.989,84.825
				L548.246,594.088L579,465.509L650.124,507.067z"/>
			<path style="opacity:0.68;fill:#FF4900;" d="M641.406,548.436c-11.068-6.449-23.012-14.603-35.77-24.689
				c-15.027-11.879-23.061-29.438-25.155-48.141l3.261-7.326l66.382,38.788C650.124,507.067,645.031,525.387,641.406,548.436z"/>
			<path style="fill:#ACF0FD;" d="M541.771,575.262c0,0,87.137,1.908,150.103,64.875c62.968,62.967,62.331,58.515,62.331,82.684
				c0,24.169,7.632,125.934,7.632,185.72c0,59.788,7.535,92.919,0,94.133c-54.815,8.824-144.378-64.875-199.076-55.97
				c0,0-48.975-75.688-40.706-104.945c8.268-29.258-5.09-48.974-10.813-101.765C505.518,687.204,492.161,575.262,541.771,575.262z"
				/>
			<path style="fill:#69BFDB;" d="M562.953,729.983c-30.563-42.137-54.471-113.305-6.214-124.809c0,0,30.668,88.324,78.157,125.557
				c26.277,20.602,79.183,39.021,121.998,50.75c1.625,29.758,3.548,65.353,4.441,96.379
				C711.644,854.047,589.565,766.67,562.953,729.983z"/>
			<path style="fill:#CCF7FF;" d="M556.739,605.174c0,0,47.929-12.54,94.674,21.565c46.744,34.106,128.229,123.567,135.711,125.072
				c20.335,4.091,78.806,2.243,78.806,2.243s16.562,10.228,18.875,67.424c1.24,30.667-83.769,43.231-111.746,41.072
				c-27.977-2.158-182.239-101.748-212.045-140.702C531.211,682.896,508.482,616.679,556.739,605.174z"/>
			<path style="fill:#69BFDB;" d="M858.872,754.232c-1.726,0.037-3.711,0.074-5.911,0.108c-6.351,36.488,1.374,75.091,6.076,93.485
				c5.89-2.499,11.111-5.324,15.292-8.482c3.361-18.552,0.14-43.434,0.14-43.434L858.872,754.232z"/>
			<path style="fill:#FFA283;" d="M672.653,361.459c0,0,29.22,15.614,37.581,41.193c8.361,25.578,3.27,141.533-18.519,148.654
				c-21.789,7.122-60.464-8.548-107.425-62.402C537.328,435.05,597.234,323.197,672.653,361.459z"/>
			<path style="fill:#0B0080;" d="M703.443,373.088c0,0-24.236,7.151-29.995,52.477c-5.76,45.326-44.709,56.717-63.049,75.566
				c-18.34,18.85-24.614,59.75-79.725,43.617c-55.11-16.133-43.681-69.771-32.541-107.823
				c11.14-38.053,57.812-88.968,97.778-105.288C639.599,313.797,732.201,328.419,703.443,373.088z"/>
			<path style="fill:#080060;" d="M573.255,343.983c-29.806,22.964-57.063,57.576-65.2,85.373
				c-11.14,38.052-22.528,91.702,33.14,107.998c18.697,5.474,31.815,4.493,41.693,0.064c-10.677,9.719-25.862,15.044-52.213,7.33
				c-55.11-16.133-43.681-69.771-32.541-107.824C507.208,405.929,539.857,366.4,573.255,343.983z"/>
			<path style="fill:#0B0080;" d="M526.907,401.898c0,0-7.591,33.404-29.905,38.975c-22.313,5.571-33.47,2.316-36.107-10.57
				c-2.639-12.887-29.33-9.304-18.095-33.083c11.236-23.778,14.918-41.22,35.67-41.555c20.757-0.335,26.9,7.874,45.927,13.445
				C543.422,374.679,526.907,401.898,526.907,401.898z"/>
			<path style="fill:#FFA283;" d="M862.151,764.272c0,0,160.628-33.621,186.64-36.127c26.012-2.506,118.552,3.774,116.667,9.546
				c-1.884,5.771-62.119,11.132-62.643,12.735c-0.523,1.602,6.802,13.398,2.247,18.653c-4.554,5.254-7.899,7.888-10.045,14.461
				c-2.146,6.573-8.592,7.84-13.271,10.215c-4.679,2.376-21.137,5.033-29.955,2.154c-8.817-2.88-13.862-15.753-27.725-15.134
				c-13.862,0.618-151.154,45.263-151.154,45.263L862.151,764.272z"/>
			<path style="fill:#ACF0FD;" d="M926.304,827.585c0,0-49.673,28.961-57.582,26.378c-7.908-2.582-21.269-105.825-11.214-112.714
				c10.056-6.888,49.052-2.433,51.355,2.103C911.167,747.89,935.755,822.226,926.304,827.585z"/>
		</g>
	</g>
</g>
</svg>
