<?xml version="1.0" encoding="utf-8"?>
<!-- Generator: Adobe Illustrator 27.5.0, SVG Export Plug-In . SVG Version: 6.00 Build 0)  -->
<svg version="1.1" id="Слой_1" xmlns="http://www.w3.org/2000/svg" xmlns:xlink="http://www.w3.org/1999/xlink" x="0px" y="0px"
	 viewBox="0 0 2000 2000.001" style="enable-background:new 0 0 2000 2000.001;" xml:space="preserve">
<rect style="fill:#F7F7F7;" width="2000" height="2000.001"/>
<g>
	<g>
		<g>
			<linearGradient id="SVGID_1_" gradientUnits="userSpaceOnUse" x1="1334.3746" y1="1237.4663" x2="1671.3662" y2="1237.4663">
				<stop  offset="0" style="stop-color:#3076A1"/>
				<stop  offset="1" style="stop-color:#639C38"/>
			</linearGradient>
			<path style="fill:url(#SVGID_1_);" d="M1338.855,1498.813c-17.789-81.324,20.66-101.617,57.844-121.24
				c30.387-16.037,59.091-31.184,57.561-79.113c-2.027-63.535,41.253-86.649,79.438-107.043
				c28.409-15.172,55.241-29.504,59.245-58.413c9.631-69.563,73.791-156.02,74.439-156.885l3.984,2.979
				c-0.64,0.855-64.039,86.304-73.494,154.589c-4.351,31.421-32.271,46.332-61.83,62.119
				c-38.71,20.673-78.739,42.052-76.809,102.496c1.629,51.035-29.809,67.627-60.212,83.673
				c-37.174,19.618-72.285,38.148-55.305,115.774L1338.855,1498.813z"/>
		</g>
		<g>
			
				<linearGradient id="SVGID_00000084509723037344295790000017652004262180617095_" gradientUnits="userSpaceOnUse" x1="1305.0977" y1="1188.3389" x2="1745.0935" y2="1188.3389">
				<stop  offset="0" style="stop-color:#3076A1"/>
				<stop  offset="1" style="stop-color:#639C38"/>
			</linearGradient>
			<path style="fill:url(#SVGID_00000084509723037344295790000017652004262180617095_);" d="M1358.391,1478.087
				c-0.853,0-1.706-0.031-2.568-0.095c-16.082-1.193-31.846-13.41-49.61-38.447l-1.114-1.569l1.242-1.477
				c0.29-0.342,28.766-35.045,18.31-100.195c-2.441-15.211-5.701-26.838-8.321-36.182c-3.822-13.633-6.348-22.639-2.117-29.829
				c5.368-9.123,19.881-13.904,60.766-23.641c43.541-10.368,58.096-59.421,70.939-102.7c12.095-40.759,23.552-79.205,57.426-78.013
				c31.132,1.187,78.408-47.591,120.117-90.589c38.704-39.899,75.232-77.491,98.588-76.749c5.611,0.202,10.344,2.553,14.066,6.986
				c20.821,24.798,1.397,62.415-17.387,98.793c-16.026,31.036-31.164,60.352-21.421,79.685
				c12.243,24.295,13.957,46.275,4.955,63.565c-10.653,20.46-35.484,33.651-73.806,39.205c-35.043,5.078-38.83,43.297-42.841,83.761
				c-4.68,47.214-9.984,100.729-68.782,105.815c-43.666,3.778-73.1,34.433-99.068,61.478
				C1397.114,1459.396,1379.166,1478.087,1358.391,1478.087z M1311.348,1438.171c16.182,22.414,30.861,33.822,44.842,34.859
				c19.544,1.45,37.358-17.104,57.985-38.586c26.576-27.679,56.698-59.05,102.229-62.988c54.683-4.731,59.551-53.85,64.259-101.351
				c4.209-42.456,8.184-82.556,47.078-88.194c36.648-5.311,60.235-17.617,70.107-36.578c8.231-15.811,6.508-36.223-4.985-59.027
				c-10.886-21.601,4.817-52.011,21.442-84.207c18.038-34.931,36.688-71.052,17.998-93.311c-2.818-3.357-6.232-5.062-10.435-5.214
				c-21.111-0.703-56.927,36.158-94.838,75.242c-43.94,45.297-89.36,92.115-122.599,92.12c-0.428,0-0.848-0.009-1.271-0.023
				c-30.039-1.118-40.442,33.913-52.475,74.456c-13.226,44.572-28.217,95.09-74.556,106.124
				c-36.974,8.806-53.152,13.714-57.63,21.323c-3.156,5.365-0.982,13.119,2.619,25.964c2.654,9.466,5.957,21.245,8.442,36.734
				C1339.279,1396.062,1316.974,1430.601,1311.348,1438.171z"/>
		</g>
		<g>
			
				<linearGradient id="SVGID_00000056428443818240749550000017207534189674905744_" gradientUnits="userSpaceOnUse" x1="1204.0114" y1="1121.7717" x2="1487.8176" y2="1121.7717">
				<stop  offset="0" style="stop-color:#3076A1"/>
				<stop  offset="1" style="stop-color:#639C38"/>
			</linearGradient>
			<path style="fill:url(#SVGID_00000056428443818240749550000017207534189674905744_);" d="M1360.205,1461.049
				c-0.582,0-1.162-0.027-1.746-0.081c-26.373-2.4-46.656-60.18-66.271-116.059c-9.305-26.504-18.093-51.541-26.65-67.611
				c-6.638-12.463-15.073-25.461-23.233-38.032c-21.728-33.478-44.195-68.097-36.885-98.473
				c3.846-15.979,15.315-29.278,35.065-40.659c43.224-24.91,36.574-38.978,22.006-69.799c-10.692-22.622-25.336-53.602-25.9-102.35
				c-0.242-20.951-0.729-39.067-1.157-55.051c-1.379-51.376-2.07-77.162,8.9-86.494c4.542-3.864,10.898-4.855,19.996-3.126
				c15.559,2.959,22.287,15.521,29.41,28.82c9.087,16.968,19.387,36.198,50.474,42.705c29.17,6.106,57.23,14.427,64.973,33.81
				c5.447,13.632,0.292,31.557-15.756,54.802c-3.894,5.638-5.229,10.431-4.083,14.653c2.54,9.362,17.077,16.145,33.909,23.998
				c23.951,11.174,53.761,25.083,62.2,53.883c6.803,23.212-1.069,52.164-24.066,88.513
				c-54.403,85.988-52.216,144.303-50.288,195.753c1.431,38.126,2.781,74.137-20.209,114.369
				C1380.748,1452.378,1370.689,1461.048,1360.205,1461.049z M1256.541,787.469c-3.885,0-6.809,0.911-8.983,2.762
				c-9.157,7.788-8.444,34.351-7.15,82.571c0.43,16.002,0.916,34.137,1.159,55.126c0.552,47.661,14.927,78.073,25.424,100.28
				c14.453,30.58,23.178,49.037-24.021,76.235c-18.503,10.663-29.204,22.934-32.712,37.513
				c-6.811,28.299,15.065,62.005,36.222,94.602c8.216,12.659,16.711,25.748,23.449,38.401c8.737,16.405,17.586,41.614,26.954,68.303
				c18.203,51.86,38.838,110.641,62.027,112.752c8.852,0.793,18.157-7.224,27.665-23.862
				c22.284-38.998,21.021-72.696,19.558-111.715c-1.957-52.172-4.174-111.306,51.055-198.599
				c22.188-35.069,29.873-62.694,23.496-84.454c-7.808-26.64-35.286-39.462-59.531-50.772
				c-17.954-8.378-33.461-15.612-36.605-27.203c-1.553-5.725,0.014-11.868,4.789-18.785c15.03-21.767,20.012-38.163,15.231-50.128
				c-6.892-17.25-34.892-25.242-61.371-30.784c-33.36-6.982-44.718-28.188-53.843-45.227c-6.83-12.753-12.729-23.768-25.952-26.281
				C1260.836,787.714,1258.559,787.469,1256.541,787.469z"/>
		</g>
		<g>
			
				<linearGradient id="SVGID_00000046332091817445596110000005051097326108538035_" gradientUnits="userSpaceOnUse" x1="1282.8961" y1="1183.144" x2="1368.9451" y2="1183.144">
				<stop  offset="0" style="stop-color:#3076A1"/>
				<stop  offset="1" style="stop-color:#639C38"/>
			</linearGradient>
			<path style="fill:url(#SVGID_00000046332091817445596110000005051097326108538035_);" d="M1360.725,1491.886l-4.744-1.502
				c26.592-84.042-21.504-272.593-35.84-318.485c-7.049-22.567-0.534-56.535,5.766-89.385c8.137-42.426,16.55-86.296-4.904-102.744
				c-40.288-30.888-38.165-102.341-38.056-105.367l4.972,0.18c-0.025,0.716-2.128,71.923,36.111,101.239
				c23.892,18.316,15.185,63.721,6.764,107.63c-6.184,32.246-12.579,65.59-5.902,86.963
				C1342.618,1227.167,1387.254,1408.042,1360.725,1491.886z"/>
		</g>
		
			<linearGradient id="SVGID_00000017518275371725218220000017705537654883895176_" gradientUnits="userSpaceOnUse" x1="1088.1407" y1="1200.1952" x2="1365.9376" y2="1200.1952">
			<stop  offset="0" style="stop-color:#3076A1"/>
			<stop  offset="1" style="stop-color:#639C38"/>
		</linearGradient>
		<path style="fill:url(#SVGID_00000017518275371725218220000017705537654883895176_);" d="M1159.615,946.01
			c-11.069-28.099-54.3-23.839-50.327,15.892c3.974,39.732,31.786,82.112-10.595,149.656s54.3,80.788,88.734,123.169
			c34.434,42.38,46.353,100.653,75.49,137.736s49.002,125.817,72.842,92.707c23.838-33.109,1.401-76.165,4.05-135.763
			c2.649-59.598,55.696-97.33,2.646-135.737s-106.397-50.182-88.883-136.807C1261.3,1018.648,1194.05,1033.42,1159.615,946.01z"/>
		<g>
			<path style="fill:#FFFFFF;" d="M1374.361,1472.838c-0.291-1.758-29.746-176.339-95.688-224.178
				c-67.247-48.787-79.459-93.859-102.946-200.135l4.859-1.073c23.197,104.963,35.233,149.461,101.01,197.18
				c67.594,49.039,96.479,220.138,97.674,227.396L1374.361,1472.838z"/>
		</g>
		
			<linearGradient id="SVGID_00000131359570030189934150000018242333264831321761_" gradientUnits="userSpaceOnUse" x1="1274.1456" y1="1829.6086" x2="1507.8694" y2="920.6848">
			<stop  offset="0" style="stop-color:#3076A1"/>
			<stop  offset="1" style="stop-color:#639C38"/>
		</linearGradient>
		<path style="fill:url(#SVGID_00000131359570030189934150000018242333264831321761_);" d="M1314.861,1466.583
			c0,0,19.596-48.453-16.064-117.332c-35.659-68.879-64.524-58.282,21.437-111.266c85.96-52.983,0.537-219.882,73.715-241.075
			c73.176-21.193,136.757-291.325,192.389-256.929c55.633,34.398-18.544,166.857,21.194,206.594
			c39.737,39.738,45.036,90.307-37.089,131.252c-82.124,40.945,58.282,197.247-52.983,244.932
			C1406.194,1370.444,1438.111,1557.422,1314.861,1466.583z"/>
		<g>
			<path style="fill:#FFFFFF;" d="M1348.851,1517.976c-0.125-0.617-12.089-62.66,25.714-142.83
				c38.51-81.666,56.941-170.949,49.305-238.83c-4.135-36.758,19.414-51.136,42.188-65.04c22.422-13.69,45.607-27.846,44.33-64.063
				c-1.155-32.721,12.692-109.421,13.282-112.67l4.896,0.889c-0.144,0.791-14.342,79.422-13.206,111.605
				c1.381,39.124-23.066,54.051-46.708,68.486c-22.432,13.695-43.617,26.63-39.837,60.236
				c7.735,68.76-10.862,159.043-49.747,241.508c-37.055,78.582-25.461,139.119-25.34,139.722L1348.851,1517.976z"/>
		</g>
		<path style="fill:#FFFFFF;" d="M1438.76,1175.624c24.986-23.208,58.034-26.558,51.148,7.869
			c-6.885,34.428-30.492,44.264-18.689,65.903c11.805,21.64,31.477,43.279-1.967,69.837c-33.443,26.559-52.132,29.51-61.968,79.674
			c-9.837,50.165-7.87,84.424-51.149,86.56s-26.558-60.985-12.787-89.51c0,0,20.656-32.552,6.886-75.293
			c-13.771-42.742-40.329-65.826,15.737-80.351C1422.038,1225.789,1421.915,1191.271,1438.76,1175.624z"/>
		<g>
			
				<linearGradient id="SVGID_00000069396910700047283140000017948878883480619676_" gradientUnits="userSpaceOnUse" x1="1359.1018" y1="1358.4443" x2="1461.7998" y2="1358.4443">
				<stop  offset="0" style="stop-color:#3076A1"/>
				<stop  offset="1" style="stop-color:#639C38"/>
			</linearGradient>
			<path style="fill:url(#SVGID_00000069396910700047283140000017948878883480619676_);" d="M1359.264,1517.539
				c-0.141-6.142-3.113-150.646,23.914-174.969c27.604-24.846,32.908-68.746,33.613-92.702
				c0.918-31.217,41.247-49.745,42.963-50.519l2.046,4.536c-0.392,0.177-39.21,18.029-40.036,46.128
				c-0.889,30.234-7.727,71.477-35.258,96.254c-25.347,22.813-22.302,169.676-22.268,171.157L1359.264,1517.539z"/>
		</g>
		
			<linearGradient id="SVGID_00000020378599972532654850000005536102271662128526_" gradientUnits="userSpaceOnUse" x1="1270.917" y1="1543.605" x2="1460.7773" y2="1543.605">
			<stop  offset="0" style="stop-color:#BAD0DE"/>
			<stop  offset="1" style="stop-color:#F5F2FF"/>
		</linearGradient>
		<polygon style="fill:url(#SVGID_00000020378599972532654850000005536102271662128526_);" points="1460.777,1458.558 
			1415.943,1628.652 1315.751,1628.652 1270.917,1458.558 		"/>
		<defs>
			<filter id="Adobe_OpacityMaskFilter" filterUnits="userSpaceOnUse" x="1270.917" y="1458.558" width="189.86" height="170.095">
				<feFlood  style="flood-color:white;flood-opacity:1" result="back"/>
				<feBlend  in="SourceGraphic" in2="back" mode="normal"/>
			</filter>
		</defs>
		
			<mask maskUnits="userSpaceOnUse" x="1270.917" y="1458.558" width="189.86" height="170.095" id="SVGID_00000027576417889263517630000017422891244122176954_">
			<g style="filter:url(#Adobe_OpacityMaskFilter);">
				<defs>
					
						<filter id="Adobe_OpacityMaskFilter_00000123404800364890639980000008326749320662238609_" filterUnits="userSpaceOnUse" x="1270.917" y="1458.558" width="189.86" height="170.095">
						<feFlood  style="flood-color:white;flood-opacity:1" result="back"/>
						<feBlend  in="SourceGraphic" in2="back" mode="normal"/>
					</filter>
				</defs>
				
					<mask maskUnits="userSpaceOnUse" x="1270.917" y="1458.558" width="189.86" height="170.095" id="SVGID_00000027576417889263517630000017422891244122176954_">
					<g style="filter:url(#Adobe_OpacityMaskFilter_00000123404800364890639980000008326749320662238609_);">
					</g>
				</mask>
				
					<linearGradient id="SVGID_00000174588177369290388070000014241199217297358219_" gradientUnits="userSpaceOnUse" x1="1270.917" y1="1543.605" x2="1460.7773" y2="1543.605">
					<stop  offset="0" style="stop-color:#FFFFFF"/>
					<stop  offset="0.9948" style="stop-color:#000000"/>
				</linearGradient>
				
					<path style="mask:url(#SVGID_00000027576417889263517630000017422891244122176954_);fill:url(#SVGID_00000174588177369290388070000014241199217297358219_);" d="
					M1460.777,1458.558c0,0-98.701,18.533-98.701,170.095h-46.325l-44.834-170.095H1460.777z"/>
			</g>
		</mask>
		
			<linearGradient id="SVGID_00000100351622405858649330000018131292209976619443_" gradientUnits="userSpaceOnUse" x1="1270.917" y1="1543.605" x2="1460.7773" y2="1543.605">
			<stop  offset="0" style="stop-color:#9FA0AD"/>
			<stop  offset="0.9948" style="stop-color:#55B5FF"/>
		</linearGradient>
		<path style="fill:url(#SVGID_00000100351622405858649330000018131292209976619443_);" d="M1460.777,1458.558
			c0,0-98.701,18.533-98.701,170.095h-46.325l-44.834-170.095H1460.777z"/>
	</g>
	<g>
		<rect x="1217.825" y="747.109" style="fill:#706865;" width="19.392" height="881.543"/>
		<rect x="768.68" y="747.109" style="fill:#706865;" width="19.393" height="881.543"/>
	</g>
	<path style="fill:#BDAFAA;" d="M1263.81,1483.155H742.087c-32.149,0-58.211-26.063-58.211-58.212V437.042
		c0-32.149,26.062-58.212,58.211-58.212h521.723c32.149,0,58.212,26.063,58.212,58.212v987.901
		C1322.021,1457.093,1295.959,1483.155,1263.81,1483.155z"/>
	<path style="fill:#FFFFFF;" d="M1246.994,1440.006H758.902c-31.765,0-57.516-25.751-57.516-57.517v-928.36
		c0-31.766,25.751-57.517,57.516-57.517h488.092c31.766,0,57.517,25.751,57.517,57.517v928.36
		C1304.511,1414.255,1278.76,1440.006,1246.994,1440.006z"/>
	<rect x="907.868" y="370.457" style="fill:#706865;" width="190.16" height="42.941"/>
	<path style="fill:#73B6F0;" d="M767.361,729.998h57.747c10.501,0,19.014-8.513,19.014-19.014v-57.747
		c0-10.502-8.513-19.015-19.014-19.015h-57.747c-10.502,0-19.014,8.513-19.014,19.015v57.747
		C748.348,721.485,756.859,729.998,767.361,729.998z"/>
	<g>
		<path style="opacity:0.72;fill:#D9D9D9;" d="M1201.459,537.118H889.836c-5.461,0-9.889-4.428-9.889-9.889v-9.968
			c0-5.461,4.428-9.889,9.889-9.889h311.623c5.461,0,9.889,4.428,9.889,9.889v9.968
			C1211.348,532.69,1206.92,537.118,1201.459,537.118z"/>
		<path style="opacity:0.72;fill:#D9D9D9;" d="M1247.661,585.209H889.836c-5.461,0-9.889-4.428-9.889-9.889v-9.968
			c0-5.462,4.428-9.889,9.889-9.889h357.825c5.462,0,9.889,4.427,9.889,9.889v9.968
			C1257.55,580.781,1253.123,585.209,1247.661,585.209z"/>
	</g>
	<path style="fill:#EB4646;" d="M767.361,594.179h57.747c10.501,0,19.014-8.513,19.014-19.014v-57.748
		c0-10.501-8.513-19.014-19.014-19.014h-57.747c-10.502,0-19.014,8.513-19.014,19.014v57.748
		C748.348,585.666,756.859,594.179,767.361,594.179z"/>
	<g>
		<path style="opacity:0.72;fill:#D9D9D9;" d="M1120.46,672.938H888.521c-4.734,0-8.573-3.838-8.573-8.573v-12.599
			c0-4.734,3.839-8.573,8.573-8.573h231.939c4.735,0,8.573,3.839,8.573,8.573v12.599
			C1129.033,669.1,1125.195,672.938,1120.46,672.938z"/>
		<path style="opacity:0.72;fill:#D9D9D9;" d="M1177.413,721.028H888.854c-4.919,0-8.907-3.988-8.907-8.907V700.19
			c0-4.919,3.988-8.907,8.907-8.907h288.559c4.92,0,8.907,3.988,8.907,8.907v11.931
			C1186.32,717.04,1182.333,721.028,1177.413,721.028z"/>
	</g>
	<g>
		<path style="opacity:0.72;fill:#D9D9D9;" d="M1231.013,808.758H890.273c-5.703,0-10.326-4.624-10.326-10.327v-9.092
			c0-5.703,4.623-10.326,10.326-10.326h340.739c5.704,0,10.327,4.623,10.327,10.326v9.092
			C1241.34,804.134,1236.717,808.758,1231.013,808.758z"/>
		<path style="opacity:0.72;fill:#D9D9D9;" d="M1202.084,856.849H889.211c-5.116,0-9.264-4.148-9.264-9.265v-11.217
			c0-5.116,4.147-9.264,9.264-9.264h312.873c5.115,0,9.264,4.147,9.264,9.264v11.217
			C1211.348,852.7,1207.199,856.849,1202.084,856.849z"/>
	</g>
	<path style="fill:#73B6F0;" d="M767.361,865.818h57.747c10.501,0,19.014-8.513,19.014-19.015v-57.747
		c0-10.501-8.513-19.014-19.014-19.014h-57.747c-10.502,0-19.014,8.513-19.014,19.014v57.747
		C748.348,857.306,756.859,865.818,767.361,865.818z"/>
	<path style="fill:#73B6F0;" d="M767.361,1144.345h57.747c10.501,0,19.014-8.513,19.014-19.014v-57.748
		c0-10.501-8.513-19.014-19.014-19.014h-57.747c-10.502,0-19.014,8.513-19.014,19.014v57.748
		C748.348,1135.832,756.859,1144.345,767.361,1144.345z"/>
	<g>
		<path style="opacity:0.72;fill:#D9D9D9;" d="M1201.459,951.464H889.836c-5.461,0-9.889-4.427-9.889-9.889v-9.967
			c0-5.462,4.428-9.889,9.889-9.889h311.623c5.461,0,9.889,4.427,9.889,9.889v9.967
			C1211.348,947.037,1206.92,951.464,1201.459,951.464z"/>
		<path style="opacity:0.72;fill:#D9D9D9;" d="M1247.661,999.555H889.836c-5.461,0-9.889-4.427-9.889-9.889v-9.968
			c0-5.461,4.428-9.889,9.889-9.889h357.825c5.462,0,9.889,4.428,9.889,9.889v9.968
			C1257.55,995.128,1253.123,999.555,1247.661,999.555z"/>
	</g>
	<path style="fill:#73B6F0;" d="M767.361,1008.524h57.747c10.501,0,19.014-8.513,19.014-19.014v-57.748
		c0-10.501-8.513-19.014-19.014-19.014h-57.747c-10.502,0-19.014,8.513-19.014,19.014v57.748
		C748.348,1000.012,756.859,1008.524,767.361,1008.524z"/>
	<g>
		<path style="opacity:0.72;fill:#D9D9D9;" d="M1120.46,1087.284H888.521c-4.734,0-8.573-3.839-8.573-8.573v-12.599
			c0-4.734,3.839-8.573,8.573-8.573h231.939c4.735,0,8.573,3.839,8.573,8.573v12.599
			C1129.033,1083.445,1125.195,1087.284,1120.46,1087.284z"/>
		<path style="opacity:0.72;fill:#D9D9D9;" d="M1177.413,1135.374H888.854c-4.919,0-8.907-3.987-8.907-8.906v-11.931
			c0-4.92,3.988-8.907,8.907-8.907h288.559c4.92,0,8.907,3.987,8.907,8.907v11.931
			C1186.32,1131.387,1182.333,1135.374,1177.413,1135.374z"/>
	</g>
	<g>
		<path style="opacity:0.72;fill:#D9D9D9;" d="M1231.013,1223.104H890.273c-5.703,0-10.326-4.623-10.326-10.326v-9.092
			c0-5.703,4.623-10.327,10.326-10.327h340.739c5.704,0,10.327,4.624,10.327,10.327v9.092
			C1241.34,1218.48,1236.717,1223.104,1231.013,1223.104z"/>
		<path style="opacity:0.72;fill:#D9D9D9;" d="M1202.084,1271.194H889.211c-5.116,0-9.264-4.147-9.264-9.264v-11.217
			c0-5.117,4.147-9.265,9.264-9.265h312.873c5.115,0,9.264,4.147,9.264,9.265v11.217
			C1211.348,1267.047,1207.199,1271.194,1202.084,1271.194z"/>
	</g>
	<path style="fill:#73B6F0;" d="M767.361,1280.164h57.747c10.501,0,19.014-8.513,19.014-19.014v-57.747
		c0-10.502-8.513-19.015-19.014-19.015h-57.747c-10.502,0-19.014,8.513-19.014,19.015v57.747
		C748.348,1271.651,756.859,1280.164,767.361,1280.164z"/>
	<g>
		<polygon style="fill:#BDAFAA;" points="1367.617,537.119 1361.562,537.119 1361.562,332.85 1259.939,332.85 1259.939,326.795 
			1367.617,326.795 		"/>
	</g>
	<path style="fill:#EEA886;" d="M799.062,965.309c0,0,7.845,17.893,15.357,15.65c7.514-2.243,18.668-1.585,22.166-1.199
		c4.679,0.515,19.905-3.058,19.009,2.634c-0.896,5.69-24.861,7.033-29.875,8.274c-5.014,1.241,13.005,13.98,14.261,18.88
		c1.256,4.898-23.896,33.285-35.137,23.124c-11.241-10.162-15.89-28.441-18.255-29.837c-2.366-1.395-12.685-15.957-12.685-15.957
		L799.062,965.309z"/>
	<path style="fill:#EEA886;" d="M837.97,1006.556c0,0,32.147,33.396,32.258,37.428c0.11,4.031-1.967,5.677-5.114,2.681
		c-3.146-2.996-32.078-31.362-32.078-31.362s30.804,45.964,31.65,49.213c0.496,1.903-3.338,5.311-5.186,3.863
		c-1.848-1.447-35.185-45.209-35.185-45.209s28.679,42.969,28.529,45.927c-0.131,2.589-4.429,4.907-6.791,1.871
		s-31.408-41.371-31.408-41.371s18.756,32.624,17.09,35.124c-1.019,1.529-4.196,4.615-8.754-3.96
		c-4.558-8.576-17.583-27.625-17.583-27.625L837.97,1006.556z"/>
	<polygon style="fill:#FFC655;" points="254.906,413.398 415.284,413.398 415.284,529.642 415.284,554.126 390.8,529.642 
		254.906,529.642 	"/>
	<g>
		<path style="fill:#C4C6D1;" d="M396.06,1598.291c0,0-12.323,8.796-19.151,14.958c-6.828,6.161-16.117,12.865-21.806,28.588
			c-5.757,15.914,3.314,27.346,18.723,28.289c15.407,0.941,39.022-10.692,41.323-24.8c2.278-13.967,20.377-12.322,22.736-22.261
			c2.36-9.938-0.794-22.166-0.794-22.166L396.06,1598.291z"/>
	</g>
	<g>
		<path style="fill:#EEA886;" d="M398.111,1586.739l-2.052,11.552c0,0,6.346,11.744,41.031,2.608l-1.788-11.384L398.111,1586.739z"
			/>
	</g>
	<path style="fill:#C4C6D1;" d="M437.091,1600.899c0,0-7.813,1.026-13.378,1.9c-5.565,0.875-16.588-6.235-27.653-4.509l3.404,14.05
		C399.464,1612.341,436.316,1605.438,437.091,1600.899z"/>
	<g>
		<path style="fill:#C4C6D1;" d="M617.407,1598.291c0,0,12.323,8.796,19.151,14.958c6.828,6.161,16.117,12.865,21.806,28.588
			c5.757,15.914-3.315,27.346-18.723,28.289c-15.407,0.941-39.022-10.692-41.323-24.8c-2.278-13.967-20.377-12.322-22.737-22.261
			c-2.359-9.938,0.795-22.166,0.795-22.166L617.407,1598.291z"/>
	</g>
	<g>
		<path style="fill:#EEA886;" d="M615.354,1586.739l2.053,11.552c0,0-6.346,11.744-41.031,2.608l1.788-11.384L615.354,1586.739z"/>
	</g>
	<g>
		<path style="fill:#292C47;" d="M630.143,1317.45c0,25.389-10.049,266.85-10.049,266.85c-2.539,8.463-36.926,8.023-45.389,3.792
			c-8.463-4.231-6.983-241.761-8.546-267.358c-1.563-25.604-22.138-213.941-29.557-213.095
			c-7.419,0.846-49.372,178.262-55.296,197.727c-5.925,19.465-40.072,282.586-40.072,282.586c-28.94,10.068-47.704,0-47.704,0
			s11.064-265.255,11.074-296.752c0.004-11.686,3.452-20.533,6.763-82.682c2.523-47.369,15.706-144.444,24.53-211.233
			c0.316-2.376,0.615-4.66,0.908-6.844c1.727-12.999,3.024-22.551,3.646-27.133c0.271-1.981,0.417-3.035,0.417-3.035
			c2.375-1.095,4.863-2.104,7.453-3.035c61.982-22.27,181.53,1.303,181.53,1.303s0.068,0.587,0.203,1.693
			c0.158,1.342,0.406,3.447,0.729,6.172c0.688,5.891,1.715,14.658,2.894,24.836c0.006,0.073,0.018,0.146,0.022,0.221
			c0.034,0.304,0.074,0.62,0.107,0.931c4.17,36.222,6.236,56.119,9.513,94.773C644.038,1095.642,630.143,1292.062,630.143,1317.45z"
			/>
	</g>
	<g>
		<path style="fill:#D44040;" d="M574.104,617.206c0,0,101.51,21.551,109.973,49.761c8.463,28.21,24.892,94.464,47.751,166.521
			c13.675,43.106,83.155,141.289,83.155,141.289s-39.756,29.303-39.756,25.353c0-3.949-93.622-128.881-94.751-144.114
			c-1.128-15.233-29.499-93.135-29.499-93.135s-13.44,149.773-13.44,172.905c0,23.133,1.527,69.976,1.527,69.976
			s-37.613,14.41-110.653,10.602c0,0-116.248-3.994-96.407-39.425c15.003-26.791,5.808-207.026,3.551-208.155
			c-2.257-1.128-42.783,49.632-38.833,59.403c3.949,9.771,108.83,44.822,108.83,44.822s3.067,11.295-13.228,36.886
			c0,0-156.66-45.778-157.225-55.37c-0.564-9.591,65.161-195.861,86.625-205.611c30.903-14.038,111.712-36.109,111.712-36.109
			L574.104,617.206z"/>
	</g>
	<path style="fill:#C4C6D1;" d="M576.376,1600.899c0,0,7.813,1.026,13.378,1.9c5.565,0.875,16.587-6.235,27.653-4.509l-3.404,14.05
		C614.003,1612.341,577.15,1605.438,576.376,1600.899z"/>
	<path style="fill:#EEA886;" d="M572.454,581.902c0,0-4.183,22.921,3.012,38.577c0,0,7.323,36.484-30.027,38.12
		c-37.35,1.636-38.208-31.83-38.208-31.83s8.936-11.997,2.972-44.642C504.237,549.481,572.454,581.902,572.454,581.902z"/>
	<g>
		<path style="fill:#EEA886;" d="M549.749,449.337c0,0,47.792,7.71,40.516,84.285c-7.277,76.576-49.459,70.299-52.278,70.222
			c-2.819-0.077-42.345,1.396-45.426-92.098C492.561,511.746,491.215,442.611,549.749,449.337z"/>
	</g>
	<g>
		<path style="fill:#EEA886;" d="M591.004,511.992c0,0,5.232-5.725,7.152,0.071c1.92,5.795-6.818,30.756-7.463,32.852
			c0,0-0.956,2.248-2.212,1.011C587.226,544.688,591.004,511.992,591.004,511.992z"/>
	</g>
	<g>
		<path style="fill:#EEA886;" d="M493.721,511.024c0,0-5.125-5.828-7.153-0.071c-2.028,5.757,6.427,32.015,6.842,32.993
			c0,0,0.913,2.267,2.192,1.054C496.881,543.788,493.721,511.024,493.721,511.024z"/>
	</g>
	<g>
		<path style="fill:#434343;" d="M590.981,523.737l-6.842,9.367c0,0,0.193-20.536-0.904-23.756
			c-1.098-3.221,1.297-14.435,0.379-16.754c-0.918-2.319-32.688,6.313-84.793,1.005c0,0,5.795,18.501,2.398,19.815
			c-3.397,1.315-1.732,24.051-1.732,24.051l-5.626-6.5c0,0-6.352-38.842-5.734-45.326c0.822-8.629-2.105-48.93,71.213-42.013
			c8.393,0.792,16.453,3.87,23.157,9.102c7.533,5.881,15.279,15.059,14.571,27.665C596.132,497.058,590.981,523.737,590.981,523.737
			z"/>
	</g>
	<path style="fill:#A77860;" d="M516.213,593.698c0,0,19.718,23.022,51.019,0c0,0-8.774,17.464-27.177,17.873
		C521.652,611.981,516.213,593.698,516.213,593.698z"/>
	
		<rect x="390.669" y="723.801" transform="matrix(0.9603 0.2788 -0.2788 0.9603 252.6171 -97.0653)" style="fill:#6E6760;" width="153.78" height="231.577"/>
	<path style="fill:#C98462;" d="M533.062,871.422c0,0,9.64-0.267,12.593-0.692c2.952-0.427,1.002,5.851-2.425,7.035
		C539.803,878.95,533.062,871.422,533.062,871.422z"/>
	<path style="fill:#EEA886;" d="M538.695,917.464c0,0-4.209,1.021-6.267,0.57c0,0-3.683-1.107-6.347-1.737
		c-0.847-0.196-1.589-0.35-2.078-0.397c-2.045-0.204-6.594-0.041-11.367-1.91c-4.769-1.864-20.949-10.161-20.949-10.161
		l4.627-15.044l3.486-11.918c0,0,27.348-7.276,31.993-6.052c0.454,0.122,0.897,0.259,1.303,0.42
		c3.833,1.419,6.089,4.085,8.016,5.058c0.705,0.362,7.476,4.431,7.829,6.765c0.494,3.238-0.479,5.685-2.146,7.187
		c0,0,0.688,6.385-1.68,10.002c0,0,0.823,5.869-3.402,9.53C541.714,909.775,541.882,915.823,538.695,917.464z"/>
	<path style="fill:#D44040;" d="M505.551,873.009c0,0,1.374,19.204-13.228,36.886c0,0-115.042-35.896-128.743-41.285
		c-13.703-5.388,49.788-174.102,49.788-174.102l46.713,15.902l-25.096,47.459c0,0-12.424,26.586-38.265,70.317
		C396.721,828.187,412.622,843.29,505.551,873.009z"/>
	<path style="fill:#807066;" d="M481.698,830.671c0,12.625-8.678,22.859-19.381,22.859c-10.704,0-19.382-10.234-19.382-22.859
		s8.678-22.859,19.382-22.859C473.021,807.812,481.698,818.046,481.698,830.671z"/>
	<path style="fill:#D44040;" d="M586.553,643.819l-10.618-33.452c0,0-17.082,7.946-66.593,2.437l-11.245,32.01
		C498.097,644.813,540.586,681.836,586.553,643.819z"/>
</g>
</svg>
