<?xml version="1.0" encoding="utf-8"?>
<!-- Generator: Adobe Illustrator 27.5.0, SVG Export Plug-In . SVG Version: 6.00 Build 0)  -->
<svg version="1.1" id="_x3C_Layer_x3E_" xmlns="http://www.w3.org/2000/svg" xmlns:xlink="http://www.w3.org/1999/xlink" x="0px"
	 y="0px" viewBox="0 0 2760 1840" style="enable-background:new 0 0 2760 1840;" xml:space="preserve">
<rect style="fill:#FFFFFF;" width="2760" height="1840"/>
<g>
	<path style="opacity:0.2;fill:#ABC7F2;" d="M248.466,1630.746h2212.503c0,0,358.293-1088.727-362.571-924.372
		c-529.433,120.709-673.836-630.44-1218.246-470.426C441.599,364.849,941.391,948.446,428.42,948.446
		C41.218,948.446,108.541,1567.99,248.466,1630.746z"/>
	<g>
		<g>
			<path style="fill:#FFCFA2;" d="M2147.468,788.896h-308.68c-25.222,0-48.56,7.146-67.341,19.151
				c-18.781-12.005-42.119-19.151-67.34-19.151h-308.68c-28.582,0-54.742,9.178-74.592,24.206
				c-19.851-15.028-46.011-24.206-74.592-24.206h-308.68c-61.635,0-112.063,42.63-112.063,94.734v473.551
				c0,52.104,1434.03,10.516,1434.03-41.587V883.63C2259.531,831.526,2209.102,788.896,2147.468,788.896z"/>
			<path style="fill:#ABC7F2;" d="M2182.125,1475.973H902.907c-5.761,0-10.475-4.714-10.475-10.474v-140.278
				c0-5.761,4.714-10.474,10.475-10.474h1279.218c5.761,0,10.475,4.714,10.475,10.474v140.278
				C2192.599,1471.26,2187.885,1475.973,2182.125,1475.973z"/>
			<path style="fill:#FFB684;" d="M874.82,1475.973l-38.532,130.946c-3.502,11.901,5.42,23.827,17.826,23.827l0,0
				c6.808,0,13.07-3.723,16.323-9.703l78.907-145.07H874.82z"/>
			<path style="fill:#FFB684;" d="M2210.212,1475.973l38.532,130.946c3.502,11.901-5.42,23.827-17.826,23.827h0
				c-6.807,0-13.07-3.723-16.323-9.703l-78.907-145.07H2210.212z"/>
			<g>
				<path style="fill:#FFE5CE;" d="M2209.162,1478.247H871.729c-38.235,0-71.032-27.265-78.018-64.854l-70.392-378.75
					c-8.008-43.089,20.43-84.511,63.519-92.519c43.08-8.01,84.51,20.43,92.519,63.518l41.782,224.813l1240.182,3.836l40.435-201.06
					c8.64-42.966,50.471-70.795,93.443-62.151c42.966,8.64,70.792,50.477,62.151,93.443l-70.391,350.015
					C2279.507,1451.591,2246.957,1478.247,2209.162,1478.247z"/>
			</g>
		</g>
		<g>
			<path style="fill:#FFB684;" d="M2148.891,1362.703H920.618c-10.273,0-18.631-8.358-18.631-18.631v-97.056
				c0-10.273,8.358-18.63,18.631-18.63h1228.273c10.274,0,18.631,8.357,18.631,18.63v97.056
				C2167.522,1354.345,2159.165,1362.703,2148.891,1362.703z M920.618,1232.525c-7.99,0-14.49,6.5-14.49,14.49v97.056
				c0,7.99,6.5,14.491,14.49,14.491h1228.273c7.99,0,14.491-6.501,14.491-14.491v-97.056c0-7.99-6.501-14.49-14.491-14.49H920.618z"
				/>
		</g>
		<g>
			<g>
				<path style="fill:#FFB684;" d="M934.712,1274.125c3.559,20.279,13.045,38.861,27.282,53.722
					c1.883,1.965,4.864-1.022,2.984-2.984c-13.776-14.38-22.756-32.255-26.197-51.86
					C938.313,1270.333,934.245,1271.464,934.712,1274.125L934.712,1274.125z"/>
			</g>
		</g>
		<g>
			<g>
				<path style="fill:#FFB684;" d="M950.204,1255.982c4.037,10.539,8.074,21.078,12.111,31.616c0.962,2.511,5.044,1.421,4.07-1.122
					c-4.037-10.539-8.074-21.078-12.111-31.616C953.312,1252.349,949.23,1253.439,950.204,1255.982L950.204,1255.982z"/>
			</g>
		</g>
		<g>
			<g>
				<path style="fill:#FFB684;" d="M1212.204,1255.615c-18.051,9.783-32.331,25.187-40.641,43.969
					c-1.089,2.461,2.546,4.612,3.644,2.13c8.047-18.185,21.637-32.976,39.127-42.455
					C1216.723,1257.965,1214.594,1254.319,1212.204,1255.615L1212.204,1255.615z"/>
			</g>
		</g>
		<g>
			<g>
				<path style="fill:#FFB684;" d="M1210.221,1259.834c-6.963,11.412-11.106,23.922-12.471,37.215c-0.277,2.699,3.945,2.68,4.221,0
					c1.287-12.535,5.335-24.333,11.895-35.084C1215.284,1259.639,1211.635,1257.516,1210.221,1259.834L1210.221,1259.834z"/>
			</g>
		</g>
		<g>
			<g>
				<path style="fill:#FFB684;" d="M1737.556,1269.226c11.574,13.774,20.493,29.402,26.484,46.366
					c0.898,2.544,4.978,1.448,4.07-1.122c-6.244-17.68-15.508-33.873-27.57-48.228
					C1738.79,1264.16,1735.818,1267.159,1737.556,1269.226L1737.556,1269.226z"/>
			</g>
		</g>
		<g>
			<g>
				<path style="fill:#FFB684;" d="M1739.591,1269.691c21.608,7.037,41.245,18.651,57.83,34.186
					c1.981,1.856,4.972-1.123,2.984-2.984c-17.116-16.033-37.394-28.01-59.692-35.272
					C1738.124,1264.778,1737.015,1268.852,1739.591,1269.691L1739.591,1269.691z"/>
			</g>
		</g>
		<g>
			<g>
				<path style="fill:#FFB684;" d="M2043.056,1259.241c19.957,11.174,35.588,28.742,44.169,49.969c1.005,2.486,5.089,1.4,4.07-1.122
					c-9.003-22.271-25.129-40.745-46.109-52.492C2042.813,1254.269,2040.683,1257.913,2043.056,1259.241L2043.056,1259.241z"/>
			</g>
		</g>
		<g>
			<g>
				<path style="fill:#FFB684;" d="M2077.676,1267.598c15.256,9.042,27.084,22.682,33.716,39.15c1.002,2.488,5.086,1.401,4.07-1.122
					c-7.056-17.522-19.39-32.033-35.655-41.673C2077.464,1262.566,2075.339,1266.213,2077.676,1267.598L2077.676,1267.598z"/>
			</g>
		</g>
		<g>
			<g>
				<path style="fill:#FFB684;" d="M2207.57,1226.24c2.639-43.135,10.334-85.871,23.079-127.172
					c5.865-19.009,11.93-39.073,23.239-55.658c10.808-15.853,29.849-29.118,49.93-24.914c17.405,3.644,30.458,25.139,19.786,41.193
					c-1.508,2.268,2.146,4.384,3.644,2.13c8.744-13.155,3.448-30.898-8.121-40.552c-14.04-11.716-34.513-8.721-49.077,0.355
					c-17.856,11.128-27.446,30.82-34.547,49.885c-8.656,23.238-15.471,47.225-20.722,71.453
					c-5.943,27.421-9.718,55.277-11.431,83.28C2203.183,1228.953,2207.405,1228.943,2207.57,1226.24L2207.57,1226.24z"/>
			</g>
		</g>
		<g>
			<g>
				<path style="fill:#FFB684;" d="M789.994,986.049c32.065,1.97,41.028,43.019,48.355,67.743
					c8.803,29.704,15.521,59.988,20.242,90.605c0.413,2.676,4.48,1.539,4.07-1.122c-5.264-34.137-13.022-67.858-23.357-100.82
					c-7.754-24.729-18.289-58.72-49.31-60.626C787.281,981.661,787.291,985.883,789.994,986.049L789.994,986.049z"/>
			</g>
		</g>
	</g>
	<g>
		
			<ellipse transform="matrix(0.7071 -0.7071 0.7071 0.7071 -37.8254 791.8997)" style="opacity:0.2;fill:#ABC7F2;" cx="936.995" cy="441.609" rx="105.228" ry="105.228"/>
		<g>
			<path style="fill:#BED4F5;" d="M935.12,458.44c-0.203,0-0.406-0.048-0.592-0.145c-0.422-0.221-0.688-0.658-0.688-1.135v-74.314
				c0-0.707,0.573-1.28,1.28-1.28c0.707,0,1.28,0.573,1.28,1.28v71.861l51.299-35.754c0.582-0.405,1.38-0.263,1.782,0.318
				c0.404,0.58,0.262,1.378-0.319,1.781l-53.311,37.157C935.634,458.363,935.377,458.44,935.12,458.44z"/>
		</g>
		<g>
			<g>
				<path style="fill:#BED4F5;" d="M933.958,355.375c0-1.677,1.359-3.036,3.036-3.036s3.036,1.359,3.036,3.036
					c0,1.677-1.359,3.036-3.036,3.036S933.958,357.052,933.958,355.375z"/>
				<path style="fill:#BED4F5;" d="M933.958,527.843c0-1.677,1.359-3.036,3.036-3.036s3.036,1.359,3.036,3.036
					c0,1.677-1.359,3.036-3.036,3.036S933.958,529.52,933.958,527.843z"/>
			</g>
			<g>
				<path style="fill:#BED4F5;" d="M1023.229,438.573c1.677,0,3.036,1.359,3.036,3.036c0,1.677-1.359,3.036-3.036,3.036
					c-1.677,0-3.036-1.359-3.036-3.036C1020.192,439.932,1021.552,438.573,1023.229,438.573z"/>
				<path style="fill:#BED4F5;" d="M850.761,438.573c1.677,0,3.036,1.359,3.036,3.036c0,1.677-1.359,3.036-3.036,3.036
					s-3.036-1.359-3.036-3.036C847.725,439.932,849.084,438.573,850.761,438.573z"/>
			</g>
			<g>
				<path style="fill:#BED4F5;" d="M979.534,516.682c0.775,1.487,0.197,3.321-1.29,4.096c-1.487,0.775-3.321,0.197-4.096-1.29
					c-0.775-1.487-0.197-3.321,1.29-4.096C976.926,514.617,978.759,515.195,979.534,516.682z"/>
				<path style="fill:#BED4F5;" d="M899.841,363.731c0.775,1.487,0.197,3.321-1.29,4.096c-1.487,0.775-3.321,0.197-4.096-1.29
					c-0.775-1.487-0.198-3.321,1.29-4.096C897.232,361.666,899.066,362.243,899.841,363.731z"/>
			</g>
			<g>
				<path style="fill:#BED4F5;" d="M979.534,516.682c0.775,1.487,0.197,3.321-1.29,4.096c-1.487,0.775-3.321,0.197-4.096-1.29
					c-0.775-1.487-0.197-3.321,1.29-4.096C976.926,514.617,978.759,515.195,979.534,516.682z"/>
				<path style="fill:#BED4F5;" d="M899.841,363.731c0.775,1.487,0.197,3.321-1.29,4.096c-1.487,0.775-3.321,0.197-4.096-1.29
					c-0.775-1.487-0.198-3.321,1.29-4.096C897.232,361.666,899.066,362.243,899.841,363.731z"/>
			</g>
			<g>
				<path style="fill:#BED4F5;" d="M1012.626,483.147c1.441,0.859,1.912,2.722,1.054,4.163c-0.858,1.44-2.722,1.912-4.163,1.054
					c-1.441-0.858-1.912-2.722-1.054-4.163C1009.322,482.76,1011.186,482.288,1012.626,483.147z"/>
				<path style="fill:#BED4F5;" d="M864.472,394.855c1.44,0.859,1.912,2.722,1.054,4.163c-0.858,1.44-2.722,1.912-4.163,1.054
					c-1.44-0.859-1.912-2.722-1.054-4.163C861.168,394.468,863.032,393.996,864.472,394.855z"/>
			</g>
			<g>
				<path style="fill:#BED4F5;" d="M861.363,483.147c-1.44,0.859-1.912,2.722-1.054,4.163c0.858,1.44,2.722,1.912,4.163,1.054
					c1.44-0.858,1.912-2.722,1.054-4.163C864.668,482.76,862.804,482.288,861.363,483.147z"/>
				<path style="fill:#BED4F5;" d="M1009.518,394.855c-1.441,0.859-1.912,2.722-1.054,4.163c0.859,1.44,2.722,1.912,4.163,1.054
					c1.441-0.859,1.912-2.722,1.054-4.163C1012.822,394.468,1010.958,393.996,1009.518,394.855z"/>
			</g>
			<g>
				<path style="fill:#BED4F5;" d="M894.455,516.682c-0.775,1.487-0.198,3.321,1.29,4.096c1.487,0.775,3.321,0.197,4.096-1.29
					c0.775-1.487,0.197-3.321-1.29-4.096S895.23,515.195,894.455,516.682z"/>
				<path style="fill:#BED4F5;" d="M974.149,363.731c-0.775,1.487-0.197,3.321,1.29,4.096c1.487,0.775,3.321,0.197,4.096-1.29
					c0.775-1.487,0.197-3.321-1.29-4.096C976.757,361.666,974.924,362.243,974.149,363.731z"/>
			</g>
		</g>
	</g>
	<path style="fill:#FFFFFF;" d="M2112.61,1231.228h-538.484c-20.891,0-37.826-16.936-37.826-37.826V425.129
		c0-20.891,16.935-37.826,37.826-37.826h538.483c20.891,0,37.826,16.935,37.826,37.826v768.273
		C2150.437,1214.293,2133.501,1231.228,2112.61,1231.228z"/>
	<g>
		<path style="fill:#51497A;" d="M2114.089,1242.624h-544.533c-25.904,0-46.978-21.068-46.978-46.965V421.334
			c0-25.91,21.074-46.978,46.978-46.978h544.533c25.904,0,46.978,21.068,46.978,46.978v774.324
			C2161.067,1221.556,2139.993,1242.624,2114.089,1242.624z M1569.556,398.694c-12.481,0-22.628,10.16-22.628,22.64v774.324
			c0,12.468,10.147,22.628,22.628,22.628h544.533c12.475,0,22.628-10.159,22.628-22.628V421.334c0-12.481-10.153-22.64-22.628-22.64
			H1569.556z"/>
	</g>
	<path style="fill:#DDEEFF;" d="M1815.023,666.22h-208.637c-8.168,0-14.79-6.622-14.79-14.79V442.792
		c0-8.168,6.622-14.79,14.79-14.79h208.637c8.168,0,14.79,6.622,14.79,14.79V651.43
		C1829.813,659.598,1823.191,666.22,1815.023,666.22z"/>
	<path style="fill:#C1DFFF;" d="M2086.534,666.22h-208.638c-8.168,0-14.79-6.622-14.79-14.79V442.792
		c0-8.168,6.622-14.79,14.79-14.79h208.637c8.168,0,14.79,6.622,14.79,14.79V651.43
		C2101.324,659.598,2094.703,666.22,2086.534,666.22z"/>
	<path style="fill:#C1DFFF;" d="M1813.863,930.233h-208.638c-8.168,0-14.79-6.622-14.79-14.79V706.805
		c0-8.168,6.622-14.79,14.79-14.79h208.638c8.168,0,14.79,6.622,14.79,14.79v208.637
		C1828.653,923.611,1822.032,930.233,1813.863,930.233z"/>
	<path style="fill:#DDEEFF;" d="M2086.534,929.267h-208.638c-8.168,0-14.79-6.622-14.79-14.79V705.839
		c0-8.168,6.622-14.79,14.79-14.79h208.637c8.168,0,14.79,6.622,14.79,14.79v208.637
		C2101.324,922.645,2094.703,929.267,2086.534,929.267z"/>
	<path style="fill:#DDEEFF;" d="M1815.022,1186.664h-208.637c-8.168,0-14.79-6.622-14.79-14.79V963.236
		c0-8.168,6.622-14.79,14.79-14.79h208.637c8.168,0,14.79,6.622,14.79,14.79v208.637
		C1829.813,1180.042,1823.191,1186.664,1815.022,1186.664z"/>
	<path style="fill:#C1DFFF;" d="M2086.534,1186.664h-208.637c-8.168,0-14.79-6.622-14.79-14.79V963.236
		c0-8.168,6.622-14.79,14.79-14.79h208.637c8.168,0,14.79,6.622,14.79,14.79v208.637
		C2101.324,1180.042,2094.703,1186.664,2086.534,1186.664z"/>
	<g>
		<path style="fill:#2D2B4E;" d="M1244.832,565.808c0,0,93.225,78.811,73.459,152.046
			c-16.914,62.668-199.071,166.688-199.071,166.688s-46.077-33.929-103.801-11.081c-16.02,6.341-29.927,6.793-41.659,4.132
			c-21.135-52.581-5.45-99.791-5.45-99.791c-18.549,29.107-15.196,70.539-11.576,93.259c-19.325-10.718-29.249-28.288-29.249-28.288
			c-16.206-58.204,16.949-181.34,127.527-211.328c110.583-29.979,98.606-108.175,98.606-108.175L1244.832,565.808z"/>
		<g>
			<path style="fill:#2D2B4E;" d="M927.877,827.973c-13.941-53.541,0.681-111.14,39.204-150.991
				c18.682-19.326,42.06-33.814,67.86-41.441c15.209-4.496,30.916-7.107,45.859-12.526c13.307-4.827,26.176-11.328,37.662-19.632
				c19.986-14.449,36.732-35.327,38.558-60.718c0.061-0.847-1.255-0.865-1.315-0.024c-1.905,26.49-20.426,48.029-41.714,62.254
				c-13.198,8.819-27.863,15.489-43.071,19.979c-14.882,4.394-30.274,6.94-44.909,12.19c-46.999,16.861-84.546,57.13-98.427,105.044
				c-8.119,28.027-8.328,57.974-0.984,86.181C926.813,829.108,928.09,828.792,927.877,827.973L927.877,827.973z"/>
		</g>
		<g>
			<path style="fill:#454370;" d="M1159.169,557.702c8.867,24.542-13.311,48.892-29.38,64.621
				c-19.256,18.848-41.64,34.03-62.683,50.74c-38.338,30.443-71.226,70.21-77.679,120.338c-3.491,27.117,1.247,55.163,15.22,78.809
				c0.43,0.728,1.579,0.087,1.147-0.643c-27.214-46.054-17.342-103.081,11.749-145.637c14.873-21.756,34.26-39.311,54.929-55.423
				c21.161-16.496,43.442-31.857,62.18-51.203c15.088-15.578,34.209-38.623,25.793-61.917
				C1160.161,556.597,1158.882,556.906,1159.169,557.702L1159.169,557.702z"/>
		</g>
		<g>
			<path style="fill:#454370;" d="M1159.126,560.095c22.808,21.206,0.376,53.224-14.828,71.155
				c-16.785,19.796-36.713,36.547-55.703,54.133c-31.118,28.817-63.156,64.563-65.643,109.158
				c-1.467,26.313,8.972,52.239,27.657,70.692c0.601,0.594,1.539-0.328,0.935-0.925c-18.842-18.609-29.101-44.807-27.178-71.307
				c1.635-22.539,11.459-43.543,24.289-61.837c28.921-41.241,73.438-67.929,103.766-107.944
				c13.286-17.53,27.585-45.503,7.639-64.049C1159.443,558.596,1158.503,559.516,1159.126,560.095L1159.126,560.095z"/>
		</g>
		<g>
			<path style="fill:#2D2B4E;" d="M1041.023,614.65c46.321,11.281,90.948-15.64,113.203-55.663c0.411-0.738-0.721-1.408-1.134-0.666
				c-21.959,39.49-65.956,66.206-111.713,55.063C1040.557,613.184,1040.198,614.449,1041.023,614.65L1041.023,614.65z"/>
		</g>
		<path style="fill:#8D3A5D;" d="M1149.639,1230.755l-168.741-0.058c-8.986-0.003-14.819-9.521-10.689-17.501
			c5.361-10.358,15.97-21.37,36.805-20.807c38.926,1.052,53.655-34.718,73.643-35.77c19.989-1.052,35.77,19.989,44.186,19.989
			c8.416,0,59.967-4.374,59.967-4.374L1149.639,1230.755z"/>
		<path style="fill:#8D3A5D;" d="M1364.685,1481.365c0,0-75.681,72.898-39.357,129.038c5.418,8.374,20.851,20.74-9.835,20.064
			c-18.39-0.405-45.819,3.203-56.478-7.348c-7.406-7.33-10.069-22.79-5.287-43.402c9.767-42.104-16.834-61.084-0.605-76.258
			c16.229-15.174,37.501-7.46,60.022-46.979c4.625-8.117,36.226-88.608,36.226-88.608L1364.685,1481.365z"/>
		<path style="fill:#EEA490;" d="M1412.036,823.817c0,0,8.073-28.229,22.211-36.994c14.138-8.764,28.084-22.89,35.684-18.207
			s20.497,36.222,17.273,49.963c-3.224,13.742-24.143,34.93-39.203,35.263C1434.388,854.142,1412.036,823.817,1412.036,823.817z"/>
		<path style="fill:#FA9F89;" d="M1282.493,956.837c1.117,0.547,2.37,0.758,3.606,0.617c11.698-1.333,51.203,2.03,100.578-57.674
			c42.966-51.953,78.357-74.339,78.357-74.339l-28.599-50.15c0,0,8.571,26.023-87.426,76.022
			c-36.529,19.026-47.73,22.97-47.73,22.97S1200.959,916.957,1282.493,956.837z"/>
		<path style="fill:#75ACF2;" d="M1382.197,838.732c-1.979,5.331-5.213,35.274,5.833,49.951c5.249,6.96-2.618,16.722-14.619,31.213
			c-0.966,1.164-1.99,2.339-3.073,3.492c-1.793,1.944-3.736,3.864-5.843,5.75c-0.175,0.151-0.349,0.314-0.524,0.477
			c-11.081,9.858-26.421,19.007-46.138,25.071c-5.412,1.676-11.151,3.096-17.226,4.248c-13.28,2.514-23.057-0.104-30.204-5.924
			c-29.028-23.663-14.479-100.238-14.479-100.238l16.004-117.278l3.748-27.469l5.11-37.42c0,0,22.557,13.025,33.463,40.714
			c10.894,27.69,15.201,88.296,27.131,108.176c11.93,19.88,7.589,19.822,13.245,16.318c5.657-3.503,14.817-1.362,23.546-5.587
			C1386.889,825.99,1384.175,833.389,1382.197,838.732z"/>
		<path style="opacity:0.5;fill:#4B83DB;" d="M1373.876,919.907l-3.538,3.48l-5.843,5.75c-0.175,0.151-0.349,0.314-0.524,0.477
			c-11.081,9.858-26.421,19.007-46.138,25.071c-5.412,1.676-11.151,3.096-17.226,4.248c-13.28,2.514-23.057-0.104-30.204-5.924
			c0.826-29.32,4.481-166.512,1.525-217.515c-1.024-17.703-0.186-28.795,3.748-27.469c0.105,0.023,0.221,0.081,0.326,0.128
			c17.517,8.45,54.565,90.123,57.44,106.744c2.863,16.621-15.957,32.986,7.042,29.68c15.655-2.246-23.011,23.535-18.192,28.109
			c20.951,19.891-7.007,32.439,4.714,33.486c16.563,1.466,22.918-17.343,25.106-8.124c6.448,27.166,16.714,21.696,21.3,21.847
			C1373.713,919.907,1373.876,919.907,1373.876,919.907z"/>
		<path style="fill:#FF4F67;" d="M1101.729,979.974c-0.042-70.031,97.921-52.297,153.127-9.207
			c73.003,56.983,295.134,98.219,328.584,186.571c22.541,59.537-27.316,82.477-122.068,63.478
			c-77.359-15.512-158.457-47.859-303.531-66.397c-86.78-11.089-100.236-56.487-57.493-156.58L1101.729,979.974z"/>
		<path style="fill:#E7254F;" d="M1505.565,1212.935c-178.407,69.965-414.222,16.637-414.222,16.637s-15.346-41.377,7.561-75.07
			c0,0,12.007,21.949,72.843,3.802c87.32-26.046,168.264-22.897,195.448-11.602
			C1389.283,1155.882,1548.525,1196.088,1505.565,1212.935z"/>
		<path style="fill:#FF4F67;" d="M1090.142,993.363c10.035-69.309,70.22-43.267,132.908-12.047
			c56.897,28.336,292.599,111.072,347.066,230.298c40.661,89.003-113.254,43.472-142.345,38.966
			c-77.969-12.078-124.91-73.028-271.099-77.398C1015.252,1168.953,1036.823,1061.641,1090.142,993.363L1090.142,993.363z"/>
		<path style="fill:#FF4F67;" d="M1571.432,1253.514c-111.349,178.207-217.191,273.074-217.191,273.074s-68.51-7.559-72.213-48.133
			c0,0,45.368-67.342,69.469-134.685c32.427-90.605,54.524-90.362,30.007-106.311
			C1361.455,1224.416,1595.884,1214.38,1571.432,1253.514z"/>
		<path style="fill:#FABBA5;" d="M1141.21,909.451c-8.255-95.201-52.341-217.774-29.2-230.115
			c23.141-12.342,35.876-12.846,56.156-23.069c25.052-12.629,26.472-16.019,71.446,0.332c44.937,16.338,39.255,17.081,39.255,17.081
			s39.706,98.6,43.559,123.147c5.93,37.776-14.024,48.749-14.024,48.749s-25.297,65.784-28.497,94.49
			c-0.933,8.368-22.41,17.432-22.41,17.432l-150.855,11.486C1106.641,968.982,1143.467,935.479,1141.21,909.451z"/>
		<path style="fill:#75ACF2;" d="M1107.274,805.834c0,0,26.307,87.691,29.488,101.514c0.358,1.546,0.138,3.324-0.524,5.302
			c-5.224,15.698-61.451,64.853-54.895,78.978c9.904,21.339,57.763,17.294,76.248,16.295
			c32.645-1.764,115.375,12.954,132.262-15.745c1.512-2.569-4.277-11.107-4.288-11.128c-0.158-0.4-1.716-4.376-2.981-10.909
			c-2.181-11.288-3.481-30.214,4.792-51.563v-0.021c13.109-33.88,20.788-71.788,21.019-72.956c0.011-0.021,0.011-0.032,0.011-0.032
			s0.01,0,0.042-0.021c0.547-0.221,6.827-2.916,12.38-9.483c7.541-8.903,13.743-24.927,2.457-51.562
			c-12.023-28.36-23.444-90.222-42.499-113.898c-3.436-4.27-41.484-14.384-41.484-14.384s41.917,100.718,30.391,116.744
			c-11.347,15.784-60.317-32.55-87.935-71.836c-3.357-4.776-26.877-32.625-34.358-36.69c-0.373-0.203-20.681,6.012-43.579,16.838
			C1093.93,685.957,1077.842,708.928,1107.274,805.834z"/>
		<path style="fill:#FABBA5;" d="M1157.181,663.488c0,0,24.455,29.765,64.989,21.517c0,0-0.042-20.036,3.6-39.004
			c1.488-7.74,4.866-29.861,8.019-37.659c-0.609-1.065-1.349-2.142-2.174-3.222c0,0,0,0-0.016-0.012
			c-13.157-17.214-50.656-35.846-51.023-36.027c0.128,0.326,4.235,10.546,3.451,25.629c-0.156,3.108-0.528,6.429-1.179,9.916
			c-0.698,3.778-1.745,7.744-3.218,11.837C1170.083,642.953,1157.181,663.488,1157.181,663.488z"/>
		<path style="fill:#E58F78;" d="M1182.847,604.625c10.18,21.944,42.381,41.06,42.922,41.376c1.488-7.74,4.866-29.861,8.019-37.659
			c0.204-0.527,0.417-0.983,0.624-1.367c-0.885-0.658-1.822-1.266-2.798-1.855c0,0,0,0-0.016-0.012
			c-14.713-8.779-39.015-10.002-47.572-10.399C1183.87,597.817,1183.498,601.138,1182.847,604.625z"/>
		<g>
			<path style="fill:#4B83DB;" d="M1098.406,703.693c13.022-15.128,29.404-26.701,48.048-33.846
				c0.779-0.298,0.485-1.582-0.304-1.279c-18.868,7.231-35.466,18.856-48.652,34.174
				C1096.951,703.377,1097.853,704.336,1098.406,703.693L1098.406,703.693z"/>
		</g>
		<g>
			<path style="fill:#4B83DB;" d="M1308.159,733.7c3.823,19.87,12.467,38.461,17.287,58.081c2.364,9.623,4.252,20.033,2.103,29.874
				c-2.409,11.03-9.936,21.265-21.67,22.898c-0.838,0.117-0.529,1.395,0.304,1.28c21.385-2.976,25.384-27.779,22.448-45.267
				c-3.873-23.068-14.783-44.248-19.193-67.168C1309.279,732.564,1308,732.87,1308.159,733.7L1308.159,733.7z"/>
		</g>
		<path style="fill:#EEA490;" d="M1413.479,822.303c0,0,1.513-25.5,7.462-32.32c5.95-6.82,26.958-13.972,31.641-21.572
			c4.683-7.6,9.187-0.019,5.636,8.934c-3.551,8.953-28.129,37.498-28.129,37.498L1413.479,822.303z"/>
		<g>
			<path style="fill:#DC826F;" d="M1454.987,769.539c0.406,6.151,1.189,12.185-1.248,18.043c-2.232,5.363-6.085,9.797-9.878,14.118
				c-0.554,0.631,0.348,1.589,0.908,0.951c3.89-4.431,7.909-9.013,10.203-14.518c2.505-6.011,1.749-12.21,1.33-18.548
				C1456.246,768.749,1454.931,768.695,1454.987,769.539L1454.987,769.539z"/>
		</g>
		<g>
			<path style="fill:#DC826F;" d="M1430.304,788.461c0.27,3.187,1.157,6.156,2.721,8.947c0.413,0.737,1.568,0.108,1.153-0.633
				c-1.442-2.574-2.31-5.324-2.559-8.267C1431.548,787.674,1430.233,787.62,1430.304,788.461L1430.304,788.461z"/>
		</g>
		<g>
			<path style="fill:#DC826F;" d="M1455.349,822.123c2.737,2.536,6.028,4.236,9.695,4.945c0.824,0.159,1.214-1.098,0.383-1.258
				c-3.444-0.666-6.551-2.208-9.127-4.595C1455.683,820.642,1454.726,821.545,1455.349,822.123L1455.349,822.123z"/>
		</g>
		<path style="fill:#FABBA5;" d="M1301.646,871.177c0,0,29.781-15.198,35.066-25.516c23.957-46.767,22.388-44.76,31.765-48.803
			c22.232-9.586,48.663-2.891,49.454,0.283c0.719,2.882-12.555,3.49-16.561,3.06c-7.697-0.826-18.559,3.945-18.559,3.945
			s14.108-0.116,21.063,0.964c5.453,0.847,24.581,10.834,24.611,12.298c0.107,5.264-13.076,0.366-24.272,0.148
			c-7.93-0.154-20.629,3.477-20.629,3.477s16.01-1.583,22.862-0.658c7.62,1.029,17.898,16.414,17.672,18.607
			c-0.388,3.783-7.145-3.836-17.672-4.114c-8.434-0.223-21.51,0.918-21.51,0.918s9.782,1.413,15.701,2.278
			c7.016,1.025,12.337,17.016,10.555,18.253c-3.295,2.287-6.352-6.184-17.173-7.343c-5.551-0.595-5.984,13.836-12.665,22.531
			c-8.66,11.272-19.412,11.381-37.206,27.359C1329.9,911.659,1301.646,871.177,1301.646,871.177z"/>
		<g>
			<path style="fill:#E7254F;" d="M1148.271,1043.784c-3.36,10.447-6.664,22.231-3.522,33.137
				c3.321,11.527,13.761,17.136,24.539,20.254c10.507,3.04,21.388,4.881,32.013,7.474c11.896,2.903,23.723,6.087,35.466,9.554
				c22.528,6.652,45.321,13.757,66.456,24.131c20.374,10.001,37.175,24.728,55.239,38.183c18.874,14.058,39.962,23.329,60.962,33.64
				c8.672,4.259,19.619,8.538,26.474,15.547c5.07,5.184,3.666,10.334-0.643,15.37c-1.98,2.314-3.559,3.141-2.581,6.43
				c0.861,2.894,2.222,2.891,3.951,4.887c1.897,2.19,2.273,4.926,1.667,7.712c-0.793,3.645-3.047,6.903-5.234,9.834
				c-3.835,5.14-7.528,10.154-10.618,15.793c-10.594,19.329-16.395,41.088-24.51,61.505c-16.47,41.44-38.266,82.076-74.179,109.821
				c-1.471,1.136-2.912-1.374-1.459-2.496c33.473-25.859,54.584-63.56,70.415-102.064c7.813-19.001,13.68-38.814,22.019-57.588
				c4.342-9.776,9.832-18.355,16.171-26.914c1.646-2.222,3.895-5.099,4.38-7.876c0.939-5.381-1.968-6.177-4.683-8.696
				c-1.589-1.474-2.477-3.325-2.057-5.519c0.483-2.522,2.652-4.519,4.238-6.378c1.907-2.235,4.243-4.531,3.569-7.909
				c-0.687-3.444-4.871-6-7.58-7.69c-9.605-5.994-19.873-10.894-30.089-15.737c-20.101-9.529-39.136-19.458-56.816-33.085
				c-18.449-14.22-36.151-28.245-57.598-37.775c-22.132-9.835-45.674-16.901-68.962-23.413c-12.864-3.597-25.823-6.859-38.857-9.78
				c-10.05-2.252-20.644-3.864-29.803-8.846c-20.117-10.944-17.143-33.659-11.156-52.275
				C1146.051,1041.251,1148.843,1042.006,1148.271,1043.784L1148.271,1043.784z"/>
		</g>
		<g>
			<path style="fill:#FF4F67;" d="M1196.807,1025.548c-4.438,6.564-11.272,9.924-18.62,12.344
				c-10.356,3.412-21.176,5.097-32.054,5.471c-1.86,0.064-1.858-2.827,0-2.891c9.206-0.317,18.298-1.617,27.172-4.118
				c7.923-2.233,16.199-5.156,21.005-12.265C1195.348,1022.557,1197.853,1024.001,1196.807,1025.548L1196.807,1025.548z"/>
		</g>
		<g>
			<path style="fill:#E7254F;" d="M1423.868,1238.149c-10.78,6.378-23.068,8.319-35.301,5.642c-1.816-0.397-1.048-3.184,0.768-2.787
				c11.481,2.512,22.961,0.632,33.074-5.351C1424.014,1234.704,1425.47,1237.201,1423.868,1238.149L1423.868,1238.149z"/>
		</g>
		<g>
			<path style="fill:#E7254F;" d="M1403.614,1251.882c-4.798-1.865-9.4-4.107-13.804-6.774c-1.589-0.962-0.138-3.463,1.459-2.496
				c4.19,2.537,8.547,4.708,13.114,6.483C1406.097,1249.762,1405.351,1252.558,1403.614,1251.882L1403.614,1251.882z"/>
		</g>
		<g>
			<path style="fill:#2D2B4E;" d="M1295.131,554.747c0,0,21.794-16.946,11.196-48.772c-10.598-31.826-21.6-43.968-46.727-50.657
				c-25.127-6.689-54.303-20.678-77.64-9.548c-36.159,17.246-56.749,61.46-47.554,106.397c9.194,44.936,41.45,32.362,52.916,45.927
				C1198.788,611.657,1295.131,554.747,1295.131,554.747z"/>
			<path style="fill:#FABBA5;" d="M1184.13,602.393c25.861,34.222,58.334,41.334,66.753,41.103
				c8.425-0.235,10.527-7.187,26.772-22.364c11.195-10.463,16.323-21.78,17.676-30.964c0.614-4.141,0.457-7.847-0.257-10.845
				c-0.222-0.941-0.385-1.788-0.488-2.565c-0.993-7.235,2.746-8.424,6.354-19.531c0.843-2.594,0.872-6.214,0.399-10.314
				c-0.214-1.82-0.521-3.74-0.908-5.701c-2.85-14.533-9.731-31.593-9.731-31.593c-43.554-52.113-95.971-19.548-105.384-0.001
				C1175.904,529.159,1158.275,568.172,1184.13,602.393z"/>
			<path style="fill:#752D4B;" d="M1223.441,527.864c0,0,9.845-12.45,33.951,1.949c14.332,8.561,9.867,15.138,1.33,11.444
				C1250.186,537.563,1249.989,528.318,1223.441,527.864z"/>
			<path style="fill:#752D4B;" d="M1290.13,550.726c3.683,0.282,8.044-2.966,11.209-3.814c-0.214-1.82-0.521-3.74-0.908-5.701
				c-1.117-0.281-2.469-0.348-4.103-0.126C1285.048,542.644,1283.973,550.269,1290.13,550.726z"/>
			<path style="fill:#752D4B;" d="M1277.679,567.367c-1.32,4.014,7.975-6.339,12.193-6.092c3.863,0.227,7.74,3.795,11.46,3.009
				c0.954-0.202,0.945-1.569-0.006-1.786c-1.656-0.378-3.883-1.159-6.084-2.77C1290.922,556.566,1281.291,556.386,1277.679,567.367z
				"/>
			<path style="fill:#752D4B;" d="M1284.153,567.548c1.24,1.178,2.694,2.213,4.401,2.098c1.707-0.115,3.293-0.973,4.593-2.086
				c1.559-1.335,2.472-3.498,1.598-5.355c-0.54-1.148-1.073-2.254-1.073-2.254l-4.69-0.281l-2.268,0.625l-1.439,1.861l-2.471,1.657
				C1282.803,563.813,1282.396,565.877,1284.153,567.548z"/>
			<path style="fill:#EF9F8A;" d="M1256.64,557.119c0,0,0.477-11.098-3.523-15.79c-4-4.692-19.67-8.937-23.448-6.578
				c-3.778,2.359-6.216,7.554-6.216,7.554S1246.039,535.491,1256.64,557.119z"/>
			<path style="fill:#752D4B;" d="M1239.896,550.703c-0.956,3.593,1.18,7.28,4.773,8.237c3.593,0.956,7.28-1.18,8.236-4.773
				c0.314-1.181,0.294-2.368-0.005-3.471c-0.283-1.068-0.829-2.053-1.586-2.858c-2.451-0.673-4.877-1.261-7.168-1.745
				c-1.536,0.546-2.851,1.64-3.654,3.117C1240.239,549.671,1240.039,550.169,1239.896,550.703z"/>
			<path style="fill:#752D4B;" d="M1223.056,543.8c-0.215,2.977,5.264,2.803,8.244,2.929c0.722,0.03,1.45,0.034,2.173,0.022
				c2.262-0.038,4.525-0.197,6.774,0.029c1.943,0.192,3.842,0.692,5.633,1.457c5.346,2.279,9.734,6.875,11.488,12.433
				c-0.069-0.37-1.379-14.369-14.591-19.451C1233.173,537.527,1223.209,541.647,1223.056,543.8z"/>
			<g style="opacity:0.2;">
				<path style="fill:#ED4C62;" d="M1207.93,555.719c5.107-1.83,11.434-1.096,16.437,1.908c2.744,1.647,5.487,3.294,8.231,4.941
					c5.393,3.237,11.087,6.77,13.308,11.839c0.637,1.454,0.848,2.985,0.413,4.378c-1.082,3.467-5.067,3.849-8.718,3.739
					c-9.821-0.294-19.926-3.409-28.079-8.655c-1.301-0.837-2.565-1.753-3.746-2.734
					C1199.668,566.062,1200.765,558.287,1207.93,555.719L1207.93,555.719z"/>
			</g>
			<g style="opacity:0.2;">
				<path style="fill:#ED4C62;" d="M1281.145,583.73c-0.565,2.359,0.612,3.638,1.816,4.536c3.233,2.409,7.303,3.209,11.305,2.217
					c0.353-0.085,0.707-0.19,1.065-0.315c0.614-4.141,0.457-7.847-0.257-10.845c-0.222-0.941-0.385-1.788-0.488-2.565
					c-0.27,0.007-0.541,0.04-0.812,0.094c-1.314,0.264-2.634,0.527-3.948,0.791c-2.583,0.515-5.345,1.128-7.398,3.574
					C1281.841,581.921,1281.37,582.783,1281.145,583.73z"/>
			</g>
			<path style="fill:#E58F78;" d="M1283.481,551.705c-5.604,1.174-9.245,6.096-10.228,11.566
				c-1.203,6.694,1.595,13.371,4.199,19.371c1.222,2.817,2.897,6.713,0.124,9.184c-3.1,2.763-9.589,2.369-13.358,2.151
				c-0.812-0.047-0.827-1.316-0.011-1.269c3.151,0.183,7.129,0.374,10.123-0.744c6.168-2.302,2.306-7.868,0.747-11.647
				c-1.745-4.232-3.221-8.656-3.339-13.273c-0.188-7.294,3.84-14.977,11.406-16.563
				C1283.941,550.315,1284.281,551.537,1283.481,551.705L1283.481,551.705z"/>
			<g style="opacity:0.2;">
				<path style="fill:#FF6576;" d="M1273.822,587.989c-3.823-0.412-7.606-0.191-11.355,0.664c-1.586,0.361-1.115,2.855,0.483,2.49
					c3.538-0.806,7.069-1.013,10.676-0.625C1275.25,590.692,1275.445,588.163,1273.822,587.989L1273.822,587.989z"/>
			</g>
			<path style="fill:#2D2B4E;" d="M1266.843,495.464c0,0-18.403-6.946-33.285,8.884c-14.882,15.83-42.269,34.814-47.89,35.707
				c-5.621,0.892-4.283,26.659-4.283,26.659s-10.753,11.469-1.543,29.314c0,0-20.957-14.04-24.776-31.74
				c-3.819-17.7,25.535-70.284,44.709-84.63c19.175-14.346,53.418-10.69,61.056-4.903
				C1268.468,480.541,1266.843,495.464,1266.843,495.464z"/>
			<g>
				<path style="fill:#FABBA5;" d="M1201.757,545.174c0,0-7.309-22.241-21.16-16.734c-13.851,5.506-6.221,24.534-3.383,31.809
					c3.039,7.788,5.79,8.576,14.761,8.712C1200.947,569.097,1201.757,545.174,1201.757,545.174z"/>
				<g>
					<g>
						<path style="fill:#E58F78;" d="M1192.056,566.555c-5.94,5.283-12.011-1.126-14.215-6.506
							c-1.75-4.273-3.049-9.229-3.649-13.807c-0.848-6.471-0.067-15.423,7.677-17.277c5.668-1.356,10.583,2.221,13.234,6.965
							c0.411,0.735,1.598,0.168,1.183-0.574c-2.83-5.066-7.896-8.841-13.969-7.8c-7.229,1.24-9.79,8.286-9.736,14.89
							c0.058,7.037,2.107,16.542,6.294,22.404c3.261,4.566,9.52,6.719,14.035,2.703
							C1193.544,566.991,1192.69,565.991,1192.056,566.555L1192.056,566.555z"/>
					</g>
					<g>
						<path style="fill:#E58F78;" d="M1186.674,535.405c1.753,1.154,2.929,2.76,3.526,4.82c-0.212,2.131-0.926,4.033-2.139,5.704
							c-0.097,0.546-0.334,1.086-0.353,1.669c-0.112,3.552,6.473,7.848,3.513,11.426c-0.541,0.653,0.545,1.397,1.081,0.75
							c1.282-1.549,1.467-3.111,0.762-4.995c-1.531-4.091-4.954-4.492-2.713-9.898c1.852-4.467,1.04-7.429-2.927-10.556
							C1186.757,533.798,1186.012,534.883,1186.674,535.405L1186.674,535.405z"/>
					</g>
				</g>
			</g>
			<path style="fill:#2D2B4E;" d="M1266.843,495.464c0,0,19.988,6.686,29.397,30.818c0.903,2.316,1.868,4.488,2.259,6.706
				c3.131,17.74,12.41-53.092-37.668-58.234C1210.751,469.613,1266.843,495.464,1266.843,495.464z"/>
			<g>
				<path style="fill:#454370;" d="M1265.559,488.679c-40.32-13.053-69.365,37.31-109.442,26.895
					c-0.814-0.211-1.266,1.024-0.447,1.237c40.271,10.465,69.395-39.86,109.442-26.895
					C1265.917,490.177,1266.365,488.94,1265.559,488.679L1265.559,488.679z"/>
			</g>
			<g>
				<path style="fill:#454370;" d="M1265.59,488.224c-15.168-14.051-36.437-5.756-52.611,1.595
					c-11.42,5.19-22.766,9.405-35.489,9.333c-12.616-0.071-24.88-3.803-35.512-10.544c-0.714-0.453-1.465,0.627-0.75,1.081
					c16.866,10.693,37.87,13.74,56.961,7.594c20.033-6.449,46.7-26.455,66.402-8.204
					C1265.206,489.648,1266.211,488.799,1265.59,488.224L1265.59,488.224z"/>
			</g>
			<g>
				<path style="fill:#2D2B4E;" d="M1274.768,485.136c11.084,2.842,20.634,9.982,26.466,19.857c2.77,4.69,4.613,9.889,5.36,15.286
					c0.847,6.122,0.49,12.279,2.413,18.234c3.502,10.843,9.997,19.956,12.248,31.361c2.541,12.875,1.469,26.091-2.852,38.456
					c-0.279,0.8,0.958,1.246,1.237,0.447c4.103-11.742,5.345-24.266,3.373-36.569c-0.979-6.106-2.738-12.086-5.235-17.742
					c-2.857-6.472-6.808-12.515-8.389-19.491c-1.443-6.368-0.751-13.004-2.352-19.362c-1.248-4.958-3.435-9.651-6.324-13.863
					c-6.065-8.845-15.125-15.19-25.499-17.851C1274.401,483.69,1273.948,484.926,1274.768,485.136L1274.768,485.136z"/>
			</g>
			<g>
				<path style="fill:#2D2B4E;" d="M1274.301,493.183c-11.713-1.968-23.871,1.589-32.271,10.116
					c-4.794,4.867-8.305,10.968-13.978,14.941c-4.944,3.463-10.8,5.276-16.078,8.126c-3.992,2.156-7.75,4.933-9.872,9.051
					c-2.865,5.561-2.044,11.901-1.901,17.912c0.347,14.598-9.429,27.212-8.021,41.779c0.081,0.841,1.372,0.587,1.291-0.251
					c-1.285-13.293,7.569-24.688,8.063-37.789c0.261-6.914-1.524-14.271,1.661-20.755c2.635-5.364,7.879-8.171,13.088-10.603
					c3.871-1.807,7.864-3.399,11.475-5.71c4.398-2.815,7.602-6.793,10.861-10.793c8.977-11.019,21.184-17.133,35.58-14.714
					C1275.034,494.634,1275.13,493.322,1274.301,493.183L1274.301,493.183z"/>
			</g>
			<g>
				<path style="fill:#2D2B4E;" d="M1249.943,456.56c13.771-2.53,29.376,3.238,39.263,13.02c10.987,10.869,9.1,25.463,6.243,39.273
					c-0.171,0.827,1.142,0.92,1.311,0.102c3.086-14.917,4.562-30.103-7.689-41.306c-10.281-9.401-25.538-14.923-39.378-12.38
					C1248.861,455.421,1249.109,456.713,1249.943,456.56L1249.943,456.56z"/>
			</g>
			<g>
				<path style="fill:#FF676D;" d="M1242.049,594.532c-0.439,3.743-1.061,16.515,9.713,22.495
					c10.588,5.887,16.35-7.032,17.987-10.671c0.322-0.732,0.488-1.192,0.488-1.192c-0.01-0.004-0.006-0.015-0.006-0.015
					c-0.089-0.298-1.524-4.807-4.301-6.239c-1.089-0.57-2.396-0.662-3.901,0.175c-0.024,0.004-0.029,0.015-0.029,0.015
					s-2.67-4.675-6.701-3.369c-3.568,1.144-9.042,1.068-12.043-1.218c-0.01-0.004-0.026-0.022-0.037-0.026
					c-0.143-0.115-0.297-0.234-0.432-0.371c-0.096,0.041-0.182,0.086-0.257,0.135C1242.365,594.329,1242.2,594.434,1242.049,594.532
					z"/>
				<path style="fill:#FF8091;" d="M1249.924,608.637l0.355,0.076c1.319,1.25,2.661,2.517,4.277,3.299
					c0.61,0.295,1.272,0.531,1.743,1.035c0.471,0.504,0.676,1.39,0.236,1.981c-0.425,0.57-1.208,0.597-1.853,0.479
					c-2.094-0.385-3.901-1.708-5.366-3.3c-0.545-0.592-1.085-1.341-0.96-2.194C1248.47,609.238,1249.204,608.594,1249.924,608.637z"
					/>
				<path style="fill:#FFFFFF;" d="M1242.808,594.096c0.139,0.126,0.275,0.264,0.414,0.39c0.01,0.004,0.027,0.022,0.037,0.026
					c9.274,8.44,26.973,10.636,26.973,10.636s-4.545,7.404-12.823,6.1c-7.202-1.117-13.39-13.751-14.876-16.998
					c0.075-0.049,0.161-0.094,0.257-0.135L1242.808,594.096z"/>
				<g>
					<path style="fill:#F13A56;" d="M1243.62,594.042c-1.071,0.422-2.069,1.084-2.954,1.872c-0.279,0.248-0.618-0.191-0.338-0.44
						c0.92-0.819,1.961-1.518,3.074-1.956C1243.736,593.387,1243.957,593.91,1243.62,594.042L1243.62,594.042z"/>
				</g>
				<g>
					<path style="fill:#F13A56;" d="M1271.034,603.974c-0.637,0.72-0.721,1.753-0.289,2.55c0.173,0.318-0.331,0.58-0.502,0.265
						c-0.563-1.036-0.348-2.348,0.453-3.255C1270.945,603.252,1271.281,603.694,1271.034,603.974L1271.034,603.974z"/>
				</g>
			</g>
		</g>
		<g>
			<path style="fill:#E7254F;" d="M1571.549,1214.694c-11.412-30.985-35.298-54.518-60.95-74.304
				c-29.936-23.091-62.294-43.286-95.765-60.826c-18.669-9.783-37.789-18.663-57.262-26.724c-1.729-0.716-2.482,2.099-0.774,2.806
				c34.081,14.109,67.025,30.899,98.419,50.269c29.035,17.915,58.545,37.462,82.413,62.056
				c13.328,13.733,24.468,29.455,31.112,47.496C1569.385,1217.21,1572.198,1216.457,1571.549,1214.694L1571.549,1214.694z"/>
		</g>
		<g style="opacity:0.2;">
			<path style="fill:#FF6576;" d="M1257.904,624.055c-4.349-2.571-9.144-3.627-14.17-3.002c-1.62,0.201-1.286,2.716,0.335,2.514
				c4.315-0.536,8.538,0.283,12.294,2.503C1257.753,626.892,1259.309,624.886,1257.904,624.055L1257.904,624.055z"/>
		</g>
		<g>
			<path style="fill:#413F66;" d="M1466.208,879.937l-56.988,10.945c-3.573,0.686-6.469-2.492-6.469-7.099V752.885
				c0-4.607,2.896-8.897,6.469-9.583l56.988-10.945c3.573-0.686,6.469,2.492,6.469,7.099v130.899
				C1472.677,874.96,1469.781,879.251,1466.208,879.937z"/>
			<path style="fill:#413F66;" d="M1477.578,736.081l-7.827-3.038c0,0-63.577,157.446-63.304,157.56
				c0.273,0.114,8.782,3.511,8.782,3.511L1477.578,736.081z"/>
			<path style="fill:#2D2B4E;" d="M1474.65,883.314l-56.988,10.945c-3.573,0.686-6.469-2.492-6.469-7.099V756.261
				c0-4.607,2.896-8.897,6.469-9.583l56.988-10.945c3.573-0.686,6.469,2.492,6.469,7.099V873.73
				C1481.119,878.337,1478.222,882.628,1474.65,883.314z"/>
			<path style="fill:#413F66;" d="M1422.975,758.276c0,2.148-1.368,3.889-3.055,3.889c-1.687,0-3.055-1.741-3.055-3.889
				c0-2.148,1.368-3.889,3.055-3.889C1421.607,754.387,1422.975,756.128,1422.975,758.276z"/>
		</g>
		<g>
			<path style="fill:#F8B3A4;" d="M1471.232,768.913c12.816-3.553,17.979-2.365,19.732,3.959c1.753,6.323-0.863,8.217-13.678,11.77
				c-12.816,3.552-27.045,6.328-28.798,0.005C1446.735,778.323,1458.416,772.466,1471.232,768.913z"/>
			<path style="fill:#F8B3A4;" d="M1466.048,788.06c14.257-7.856,20.47-8.397,23.636-2.65c3.167,5.747,0.466,8.521-13.792,16.377
				c-14.257,7.856-30.296,15.407-33.463,9.66C1439.263,805.7,1451.791,795.916,1466.048,788.06z"/>
			<path style="fill:#F8B3A4;" d="M1475.582,797.601c14.885-4.126,20.775-3.14,22.527,3.184c1.753,6.323-1.334,8.348-16.219,12.474
				c-14.885,4.126-31.365,7.526-33.118,1.203C1447.019,808.138,1460.696,801.728,1475.582,797.601z"/>
			<path style="fill:#F8B3A4;" d="M1479.474,810.299c10.697-2.965,15.019-1.929,16.515,3.465c1.495,5.394-0.682,6.995-11.379,9.96
				c-10.697,2.965-22.58,5.262-24.075-0.132C1459.039,818.198,1468.777,813.265,1479.474,810.299z"/>
		</g>
		<path style="fill:#75ACF2;" d="M1108.277,679.216c0,0-32.817,13.691-39.726,37.725c-6.909,24.034,6.731,82.346,15.729,126.979
			c8.999,44.633,6.896,91.723,68.176,115.97c61.28,24.247,192.998-37.212,191.693-61.027c0,0-26.716-12.279-28.284-35.747
			c0,0-10.322-1.266-20.422-0.914c-8.402,0.293-16.302,5.174-27.349,4.933c-20.967-0.457-42.4-5.441-52.306-11.502
			C1171.73,828.678,1108.277,679.216,1108.277,679.216z"/>
		<g>
			<path style="fill:#4B83DB;" d="M1097.328,685.664c24.3,0.598,33.909,24.466,41.757,43.761
				c9.115,22.412,15.399,45.693,20.782,69.248c2.717,11.89,5.247,23.822,7.917,35.722c2.014,8.973,3.415,19.17,9.026,26.767
				c5.434,7.358,14.236,9.47,22.901,10.257c12.204,1.109,24.585,1.061,36.807,0.307c13.094-0.809,26.035-2.682,38.886-5.29
				c13.126-2.664,26.954-5.668,40.269-2.618c0.911,0.209,1.301-1.194,0.387-1.403c-21.635-4.956-44.901,4.305-66.358,6.711
				c-12.788,1.434-25.676,1.933-38.537,1.497c-12.067-0.409-26.909-0.315-34.183-11.774c-6.026-9.494-7.284-22.459-9.659-33.241
				c-2.701-12.26-5.333-24.537-8.255-36.747c-5.541-23.153-12.532-45.674-21.782-67.621c-7.548-17.91-18.324-36.497-39.957-37.03
				C1096.391,684.187,1096.392,685.641,1097.328,685.664L1097.328,685.664z"/>
		</g>
		<g>
			<path style="fill:#4B83DB;" d="M1116.676,939.021c61.492,33.765,135.722,23.575,194.934-9.982
				c7.92-4.488,16.087-9.198,23.324-14.754c5.147-3.951,9.018-8.647,9.917-15.229c0.125-0.916-1.276-1.312-1.403-0.387
				c-1.341,9.81-9.609,14.858-17.285,19.791c-8.456,5.434-17.084,10.55-26.05,15.102c-18.966,9.63-39.146,16.952-60.018,21.141
				c-41.417,8.314-85.415,3.525-122.684-16.94C1116.589,937.314,1115.854,938.57,1116.676,939.021L1116.676,939.021z"/>
		</g>
		<g>
			<path style="fill:#4B83DB;" d="M1315.162,862.996c1.843,6.992,3.44,15.322,8.515,20.794c5.652,6.095,13.282,11.046,20.115,15.701
				c0.776,0.529,1.505-0.732,0.734-1.256c-6.364-4.336-12.837-8.845-18.458-14.128c-5.79-5.443-7.54-14.047-9.503-21.497
				C1316.327,861.705,1314.923,862.089,1315.162,862.996L1315.162,862.996z"/>
		</g>
		<g>
			<path style="fill:#4B83DB;" d="M1131.626,892.594c15.443-13.187,33.523-25.662,54.749-24.123c0.934,0.068,0.93-1.388,0-1.455
				c-21.602-1.566-40.048,11.117-55.777,24.549C1129.884,892.174,1130.917,893.199,1131.626,892.594L1131.626,892.594z"/>
		</g>
		<g>
			<path style="fill:#4B83DB;" d="M1143.041,870.697c13.773-4.971,28.439-4.786,42.707-2.291c0.916,0.16,1.309-1.242,0.387-1.403
				c-14.521-2.54-29.463-2.769-43.48,2.29C1141.78,869.61,1142.157,871.016,1143.041,870.697L1143.041,870.697z"/>
		</g>
		<g>
			<path style="fill:#4B83DB;" d="M1196.456,843.597c16.778,7.316,35.402,7.192,52.078-0.359c0.852-0.386,0.113-1.64-0.734-1.256
				c-16.134,7.305-34.373,7.438-50.609,0.359C1196.34,841.97,1195.599,843.223,1196.456,843.597L1196.456,843.597z"/>
		</g>
		<path style="opacity:0.5;fill:#4B83DB;" d="M1190.957,993.956c0,0,38.891,8.924,59.601,3.104
			c20.71-5.82,23.038-14.743,21.486-19.011c-1.552-4.268-18.88,10.894-41.448,10.491
			C1208.028,988.137,1180.994,992.01,1190.957,993.956z"/>
		<path style="opacity:0.5;fill:#4B83DB;" d="M1188.83,975.721c0,0,27.934,11.251,41.801,7.372
			c13.867-3.88-11.132-1.845-24.035-9.834C1193.694,965.269,1183.211,970.29,1188.83,975.721z"/>
		<g>
			<path style="fill:#FB8671;" d="M1465.187,788.131c5.958-2.594,12.108-4.51,18.476-5.795c0.914-0.184,0.527-1.581-0.385-1.397
				c-6.501,1.312-12.743,3.295-18.822,5.941C1463.602,787.251,1464.339,788.5,1465.187,788.131L1465.187,788.131z"/>
		</g>
		<g>
			<path style="fill:#FB8671;" d="M1449.569,813.225c2.091-6.478,15.362-10.073,20.897-11.986c5.475-1.892,11.209-2.991,16.51-5.355
				c0.85-0.379,0.114-1.629-0.731-1.251c-7.724,3.446-16.229,4.912-24.047,8.258c-4.979,2.131-12.188,4.259-14.026,9.949
				C1447.884,813.729,1449.283,814.11,1449.569,813.225L1449.569,813.225z"/>
		</g>
		<g>
			<path style="fill:#FB8671;" d="M1462.839,818.253c9.936-3.362,19.874-6.634,30.147-8.819c0.912-0.194,0.526-1.591-0.385-1.398
				c-10.273,2.185-20.211,5.457-30.147,8.819C1461.575,817.153,1461.952,818.554,1462.839,818.253L1462.839,818.253z"/>
		</g>
		<g>
			<path style="fill:#FB8671;" d="M1376.067,820.417c3.333,0.713,6.665,0.862,10.047,0.412c0.911-0.121,0.923-1.572,0-1.449
				c-3.251,0.433-6.452,0.326-9.662-0.361C1375.543,818.825,1375.154,820.222,1376.067,820.417L1376.067,820.417z"/>
		</g>
		<g>
			<path style="fill:#FB8671;" d="M1374.097,802.965c3.519,1.224,7.116,1.829,10.84,1.838c0.933,0.002,0.934-1.447,0-1.449
				c-3.595-0.009-7.062-0.606-10.455-1.786C1373.599,801.26,1373.22,802.66,1374.097,802.965L1374.097,802.965z"/>
		</g>
		<g>
			<path style="fill:#FB8671;" d="M1380.011,834.602c2.924,1.205,6.495,2.458,9.675,2.595c0.932,0.04,0.931-1.409,0-1.449
				c-3.033-0.13-6.498-1.393-9.289-2.543C1379.535,832.849,1379.159,834.251,1380.011,834.602L1380.011,834.602z"/>
		</g>
	</g>
	<g>
		<path style="fill:#94A7E6;" d="M1728.698,524.258v92.811c0,0.012,0,0.012,0,0.023c0,2.852-12.035,5.24-28.313,5.901
			c-2.933,0.116-6.006,0.186-9.171,0.186c-20.707,0-37.484-2.725-37.484-6.087c0-0.012,0-0.012,0-0.023v-80.243
			c0-8.185,0.359-16.359,1.101-24.498c1.426-16.046,4.267-31.93,8.51-47.501l0.626-2.319h54.492l3.931,14.446
			c3.223,11.861,5.217,24,5.971,36.243C1728.582,516.872,1728.698,520.571,1728.698,524.258z"/>
		<path style="fill:#ABC7F2;" d="M1728.698,524.258v92.811c0,0.012,0,0.012,0,0.023c0,2.852-12.035,5.24-28.313,5.901
			c-16.278-0.661-28.324-3.049-28.324-5.901c0-0.012,0-0.012,0-0.023v-80.243c0-8.185,0.359-16.359,1.101-24.498
			c1.426-16.046,4.267-31.93,8.51-47.501l0.626-2.319h36.162l3.931,14.446c3.223,11.861,5.217,24,5.971,36.243
			C1728.582,516.872,1728.698,520.571,1728.698,524.258z"/>
		<path style="fill:#FF4F67;" d="M1728.698,524.258v57.31c-18.678,2.133-44.962,3.42-74.967,0v-44.742
			c0-8.185,0.359-16.359,1.101-24.498c16.51,1.438,44.034,2.968,73.53,0.87C1728.582,516.872,1728.698,520.571,1728.698,524.258z"/>
		<g>
			<ellipse style="fill:#E93A5B;" cx="1691.215" cy="462.504" rx="27.826" ry="4.518"/>
			<rect x="1663.389" y="455.74" style="fill:#E93A5B;" width="55.652" height="6.763"/>
			<ellipse style="fill:#FF4F67;" cx="1691.215" cy="455.74" rx="27.826" ry="4.518"/>
		</g>
	</g>
	<g>
		<g>
			<path style="fill:#FFB369;" d="M1774.874,838.763c-41.073,3.144-101.823-5.083-130.35-46.922
				c-13.398-19.654-9.624-36.581-4.044-44.806c1.912-2.809,4.048-4.609,5.774-5.143c2.121-0.665,4.417-0.837,6.888-0.451
				c0.122,0.016,0.228,0.021,0.349,0.037c0.071,0.026,0.111,0.031,0.152,0.036c0.015,0.01,0.015,0.01,0.025-0.005
				c0.015,0.01,0.015,0.01,0.03,0.02c8.896,1.605,20.143,10.121,34.258,27.924c10.915,13.755,52.667,34.896,85.537,37.396
				c36.76,2.806,43.025,15.193,42.906,19.165C1816.225,831.181,1798.931,836.917,1774.874,838.763z"/>
		</g>
		<g>
			<path style="fill:#FFD695;" d="M1769.448,846.267c-41.179,1.083-101.441-10.175-127.837-53.389
				c-12.397-20.3-7.78-37.018-1.796-44.953c2.051-2.71,4.274-4.4,6.024-4.848c2.152-0.558,4.454-0.615,6.902-0.106
				c0.12,0.022,0.226,0.033,0.347,0.055c0.07,0.029,0.11,0.036,0.15,0.044c0.015,0.011,0.015,0.011,0.026-0.004
				c0.015,0.011,0.015,0.011,0.029,0.022c8.804,2.048,19.611,11.118,32.817,29.604c10.213,14.284,50.854,37.489,83.557,41.632
				c36.574,4.643,42.21,17.328,41.892,21.289C1811.126,840.766,1793.567,845.629,1769.448,846.267z"/>
			<path style="fill:#FFD695;" d="M1653.292,743.088c0,0-0.058,0.048-0.164,0.128c-1.781,1.496-18.028,14.941-13.343,4.778
				c0.011-0.015,0.018-0.055,0.029-0.069c3.113-6.844,1.939-15.276,0.68-20.485c-0.715-2.977-1.463-4.906-1.463-4.906
				c-0.223-0.646,0.548-0.548,1.619-0.18c1.718,0.601,4.229,1.91,4.716,2.023c0.376,0.076,0.717,0.536,1.01,1.76l-0.011,0.015
				c0.315,1.377,0.567,3.756,0.713,7.767c0.139,3.504,1.464,5.728,2.876,7.104c0.867,0.854,1.752,1.379,2.41,1.689
				c0.015,0.011,0.015,0.011,0.029,0.022c0.296,0.153,0.545,0.248,0.694,0.292c0.07,0.029,0.11,0.036,0.15,0.044
				C1653.278,743.077,1653.292,743.088,1653.292,743.088z"/>
			<g>
				<path style="fill:#FFC779;" d="M1652.001,743.346c4.335,2.916,8.399,6.487,10.41,11.411c0.899,2.201,1.634,4.35,2.761,6.46
					c2.876,5.386,6.416,10.499,10.093,15.365c8.128,10.756,19.507,19.49,31.037,26.333c22.543,13.38,47.981,18.491,73.631,21.963
					c9.405,1.273,19.971,1.842,28.612,6.13c0.833,0.413,1.568-0.836,0.731-1.251c-6.962-3.455-15.072-4.351-22.671-5.419
					c-11.494-1.615-23.01-3.033-34.36-5.517c-28.319-6.197-58.282-19.662-76.104-43.473c-3.925-5.245-8.016-10.853-10.728-16.847
					c-1.416-3.13-2.159-6.171-4.314-8.968c-2.305-2.991-5.256-5.345-8.366-7.438C1651.957,741.573,1651.23,742.828,1652.001,743.346
					L1652.001,743.346z"/>
			</g>
		</g>
		<path style="fill:#FFB369;" d="M1767.912,845.23c-41.179,1.083-101.441-10.175-127.837-53.389
			c-12.397-20.3-7.78-37.018-1.796-44.953c3.113-6.843,12.887-1.997,14.096-1.409c4.531,2.204,6.452,3.438,8.538,6.414
			c3.608,5.028,7.254,11.59,10.938,19.87c0.608,1.322,1.212,2.71,1.824,4.149c6.82,16.195,41.378,47.741,72.376,58.982
			C1755.54,838.344,1762.636,841.851,1767.912,845.23z"/>
		<g>
			<path style="fill:#FFD695;" d="M1781.985,868.275c-2.122,6.724-35.176,5.925-70.793-6.214h-0.012
				c-17.09-5.832-34.771-14.261-49.901-25.739c-15.988-12.127-29.124-27.64-35.71-47.049c-7.617-22.458,0.487-37.727,8.058-44.185
				l0.012-0.012c2.62-2.238,5.182-3.409,7.003-3.467c2.214-0.07,4.464,0.383,6.736,1.391c0.151,0.07,0.29,0.128,0.429,0.197
				c0.07,0.035,0.104,0.058,0.104,0.058c8.151,3.93,16.684,15.154,25.519,36.081c6.829,16.197,41.368,47.744,72.37,58.968
				C1780.466,850.872,1783.191,864.483,1781.985,868.275z"/>
			<path style="fill:#FFD695;" d="M1638.509,720.08c0,0,2.315,15.61-4.866,25c-7.181,9.39,14.273-1.818,14.273-1.818
				s-5.456-2.851-4.055-10.312c1.401-7.461,1.155-9.335,0.427-9.685C1643.561,722.914,1638.32,718.305,1638.509,720.08z"/>
			<g>
				<path style="fill:#FFC779;" d="M1646.574,743.211c4.151,4.392,7.019,8.933,7.913,14.993c0.296,2.01,0.621,3.933,1.184,5.898
					c1.696,5.931,4.05,11.747,6.633,17.345c5.849,12.676,15.673,24.111,25.935,33.441c18.655,16.959,41.472,27.126,64.835,35.817
					c9.025,3.357,19.382,6.219,26.976,12.399c0.717,0.584,1.749-0.436,1.025-1.025c-5.681-4.623-12.878-7.212-19.644-9.792
					c-10.807-4.121-21.715-7.954-32.24-12.779c-25.928-11.887-51.657-30.667-64.688-56.79c-3.251-6.517-6.131-13.609-7.894-20.69
					c-0.763-3.063-0.704-6.167-1.811-9.159c-1.506-4.071-4.25-7.564-7.198-10.684
					C1646.956,741.507,1645.933,742.534,1646.574,743.211L1646.574,743.211z"/>
			</g>
		</g>
		<path style="fill:#FFB369;" d="M1711.18,862.06c-17.09-5.832-34.771-14.261-49.901-25.739
			c-2.933-17.229-11.014-66.388-6.099-58.144c5.936,9.959,23.049,41.344,33.484,54.388
			C1698.937,845.4,1710.809,861.55,1711.18,862.06z"/>
		<g>
			<path style="fill:#FFD695;" d="M1635.446,748.662c-6.938-1.497-28.777,10.817-26.096,42.642
				c6.738,79.991,125.515,126.262,132.816,114.309c2.071-3.39,2.71-17.262-27.921-37.793c-27.383-18.354-53.328-57.287-56.06-74.648
				C1653.585,763.94,1645.486,750.828,1635.446,748.662z"/>
			<path style="fill:#FFD695;" d="M1638.553,727.252c0,0-1.509,15.708-10.738,23.095c-9.229,7.387,14.291,1.669,14.291,1.669
				s-4.61-4.08-1.455-10.985c3.155-6.905,3.367-8.783,2.745-9.298C1642.774,731.219,1638.796,725.484,1638.553,727.252z"/>
			<g>
				<path style="fill:#FFC779;" d="M1640.81,751.637c2.952,5.224,4.669,10.409,4.083,16.447c-0.217,2.231-0.349,4.384-0.244,6.638
					c0.286,6.149,1.146,12.357,2.342,18.393c2.741,13.837,9.739,27.426,17.618,39.006c14.129,20.766,33.857,35.929,54.365,49.927
					c7.747,5.288,16.822,10.451,22.548,18.073c0.553,0.737,1.812,0.015,1.251-0.731c-4.31-5.737-10.519-9.923-16.341-13.979
					c-9.432-6.571-19.046-12.864-28.069-20.003c-22.453-17.763-42.903-42.075-49.539-70.591c-1.65-7.092-2.699-14.63-2.792-21.915
					c-0.042-3.337,0.825-6.549,0.443-9.887c-0.494-4.32-2.297-8.363-4.413-12.109C1641.603,750.093,1640.35,750.823,1640.81,751.637
					L1640.81,751.637z"/>
			</g>
		</g>
	</g>
	<g>
		<polygon style="fill:#FFD695;" points="2072.056,502.325 2072.056,617.091 2040.885,615.466 2017.209,614.233 2013.902,614.065 
			1903.942,608.335 1903.942,495.32 		"/>
		<path style="fill:#FF4F67;" d="M2072.056,502.33l-119.548-29.887c0,0-46.232-2.335-48.566,22.882L2072.056,502.33z"/>
		<g>
			<path style="opacity:0.3;fill:#F9A87F;" d="M1957.781,530.97c0,2.973-0.948,5.76-2.527,8.027
				c-2.545,3.623-6.744,6.001-11.501,6.001c-7.748,0-14.028-6.28-14.028-14.028c0-4.794,2.378-9.011,6.039-11.539
				c2.267-1.598,5.017-2.508,7.99-2.508C1951.5,516.923,1957.781,523.203,1957.781,530.97z"/>
			<path style="opacity:0.3;fill:#F9A87F;" d="M1957.781,530.97c0,2.973-0.948,5.76-2.527,8.027
				c-2.267,1.598-5.035,2.527-8.026,2.527c-7.748,0-14.047-6.28-14.047-14.028c0-3.01,0.948-5.779,2.582-8.064
				c2.267-1.598,5.017-2.508,7.99-2.508C1951.5,516.923,1957.781,523.203,1957.781,530.97z"/>
		</g>
		<g>
			<path style="opacity:0.3;fill:#F9A87F;" d="M2018.372,571.948c0,2.973-0.948,5.76-2.527,8.027
				c-2.545,3.623-6.745,6.002-11.501,6.002c-7.748,0-14.028-6.28-14.028-14.028c0-4.794,2.378-9.011,6.039-11.539
				c2.267-1.598,5.017-2.508,7.99-2.508C2012.092,557.901,2018.372,564.181,2018.372,571.948z"/>
			<path style="opacity:0.3;fill:#F9A87F;" d="M2018.372,571.948c0,2.973-0.948,5.76-2.527,8.027
				c-2.267,1.598-5.035,2.527-8.026,2.527c-7.748,0-14.047-6.28-14.047-14.028c0-3.01,0.948-5.779,2.583-8.064
				c2.267-1.598,5.017-2.508,7.99-2.508C2012.092,557.901,2018.372,564.181,2018.372,571.948z"/>
		</g>
		<g>
			<path style="opacity:0.3;fill:#F9A87F;" d="M1972.099,578.808c0,3.758-1.198,7.28-3.194,10.146
				c-3.217,4.58-8.525,7.586-14.537,7.586c-9.793,0-17.731-7.938-17.731-17.731c0-6.059,3.006-11.39,7.633-14.584
				c2.865-2.02,6.341-3.17,10.099-3.17C1964.161,561.053,1972.099,568.991,1972.099,578.808z"/>
			<path style="opacity:0.3;fill:#F9A87F;" d="M1972.099,578.808c0,3.758-1.198,7.28-3.194,10.146
				c-2.865,2.02-6.364,3.194-10.145,3.194c-9.794,0-17.755-7.938-17.755-17.731c0-3.805,1.198-7.304,3.264-10.193
				c2.865-2.02,6.341-3.17,10.099-3.17C1964.161,561.053,1972.099,568.991,1972.099,578.808z"/>
		</g>
		<g>
			<path style="opacity:0.3;fill:#F9A87F;" d="M2040.892,528.972c0,3.513-1.12,6.807-2.987,9.487
				c-3.008,4.282-7.971,7.093-13.593,7.093c-9.157,0-16.58-7.422-16.58-16.58c0-5.666,2.811-10.651,7.137-13.637
				c2.679-1.889,5.929-2.965,9.443-2.965C2033.47,512.37,2040.892,519.793,2040.892,528.972z"/>
			<path style="opacity:0.3;fill:#F9A87F;" d="M2040.892,528.972c0,3.513-1.12,6.807-2.987,9.487
				c-2.679,1.888-5.951,2.987-9.486,2.987c-9.158,0-16.602-7.423-16.602-16.58c0-3.557,1.12-6.83,3.052-9.531
				c2.679-1.889,5.929-2.965,9.443-2.965C2033.47,512.37,2040.892,519.793,2040.892,528.972z"/>
		</g>
		<g>
			<path style="opacity:0.3;fill:#F9A87F;" d="M2072.056,597.534v-25.105c-2.704-1.919-5.996-3.04-9.569-3.04
				c-3.516,0-6.767,1.079-9.442,2.956c-4.329,2.998-7.131,7.971-7.131,13.645c0,9.148,7.411,16.573,16.573,16.573
				c3.558,0,6.865-1.121,9.569-3.04V597.534z"/>
			<path style="opacity:0.3;fill:#F9A87F;" d="M2072.056,572.429v25.105c-1.709,0.602-3.545,0.925-5.464,0.925
				c-9.148,0-16.602-7.425-16.602-16.573c0-3.558,1.121-6.837,3.054-9.54c2.676-1.877,5.926-2.956,9.442-2.956
				C2066.06,569.389,2069.352,570.51,2072.056,572.429z"/>
		</g>
		<g>
			<path style="opacity:0.3;fill:#F9A87F;" d="M2059.144,556.214c0,1.939-0.618,3.757-1.648,5.236
				c-1.66,2.364-4.4,3.915-7.502,3.915c-5.054,0-9.151-4.097-9.151-9.151c0-3.127,1.551-5.878,3.939-7.527
				c1.479-1.042,3.272-1.636,5.212-1.636C2055.048,547.051,2059.144,551.148,2059.144,556.214z"/>
			<path style="opacity:0.3;fill:#F9A87F;" d="M2059.144,556.214c0,1.939-0.618,3.757-1.648,5.236
				c-1.479,1.042-3.285,1.648-5.236,1.648c-5.054,0-9.163-4.097-9.163-9.151c0-1.963,0.618-3.769,1.685-5.26
				c1.479-1.042,3.272-1.636,5.212-1.636C2055.048,547.051,2059.144,551.148,2059.144,556.214z"/>
		</g>
		<g>
			<path style="opacity:0.3;fill:#F9A87F;" d="M1997.447,521.533c0,1.939-0.618,3.757-1.649,5.236
				c-1.66,2.363-4.4,3.915-7.502,3.915c-5.054,0-9.151-4.097-9.151-9.151c0-3.127,1.552-5.878,3.939-7.527
				c1.479-1.042,3.272-1.636,5.212-1.636C1993.35,512.37,1997.447,516.467,1997.447,521.533z"/>
			<path style="opacity:0.3;fill:#F9A87F;" d="M1997.447,521.533c0,1.939-0.618,3.757-1.649,5.236
				c-1.479,1.042-3.285,1.648-5.236,1.648c-5.054,0-9.163-4.097-9.163-9.151c0-1.964,0.618-3.769,1.685-5.26
				c1.479-1.042,3.272-1.636,5.212-1.636C1993.35,512.37,1997.447,516.467,1997.447,521.533z"/>
		</g>
		<g>
			<path style="opacity:0.3;fill:#F9A87F;" d="M2040.885,615.466l-23.676-1.233l-3.306-0.168c0.518-3.853,2.648-7.173,5.702-9.274
				c2.186-1.555,4.847-2.424,7.719-2.424C2034.665,602.367,2040.647,608.181,2040.885,615.466z"/>
			<path style="opacity:0.3;fill:#F9A87F;" d="M2040.885,615.466l-23.676-1.233c-0.07-0.546-0.098-1.093-0.098-1.653
				c0-2.9,0.91-5.59,2.494-7.789c2.186-1.555,4.847-2.424,7.719-2.424C2034.665,602.367,2040.647,608.181,2040.885,615.466z"/>
		</g>
	</g>
	<g>
		<g>
			<path style="fill:#E9375A;" d="M2071.787,836.787c-3.25,9.288-8.499,16.72-15.119,22.367
				c-17.25,14.758-43.727,17.354-67.935,8.882c-33.496-11.722-49.958-40.198-38.236-73.694
				c4.117-11.764,11.294-21.561,20.348-28.836c16.729-13.43,39.786-18.192,61.519-10.587
				C2065.86,766.641,2083.509,803.291,2071.787,836.787z"/>
			<path style="fill:#FF4F67;" d="M2071.787,836.787c-3.25,9.288-8.499,16.72-15.119,22.367c-23.766,3.7-11.94-56.726-54.38-78.17
				c-35.24-17.806-34.091-11.481-31.443-15.477c16.729-13.43,39.786-18.192,61.519-10.587
				C2065.86,766.641,2083.509,803.291,2071.787,836.787z"/>
			<path style="fill:#84B884;" d="M2032.855,753.48c0,0-10.289-16.746-20.729-15.892c-10.439,0.854,0.887,15.709,16.396,20.76
				c0,0-19.691-2.759-16.712,8.048c2.978,10.807,24.007-0.988,24.007-0.988s7.462,18.385,16.161,13.918
				c8.699-4.467-9.486-17.967-9.486-17.967s14.237,7.611,15.123,0.786C2058.501,755.319,2054.101,749.648,2032.855,753.48z"/>
			<path style="fill:#FF718B;" d="M2063.645,822.748c0,0,4.554-25.449-10.926-32.731c-15.48-7.282-21.46,20.465-10.466,29.907
				C2053.247,829.367,2063.074,828.602,2063.645,822.748z"/>
		</g>
		<g>
			<path style="fill:#E9375A;" d="M2023.253,832.451c0,9.84-2.5,18.589-6.883,26.105c-11.407,19.628-35.541,30.823-61.188,30.823
				c-35.488,0-60.431-21.441-60.431-56.928c0-12.463,3.538-24.081,9.682-33.939c11.354-18.202,31.545-30.313,54.569-30.313
				C1994.489,768.2,2023.253,796.963,2023.253,832.451z"/>
			<path style="fill:#FF4F67;" d="M2023.253,832.451c0,9.84-2.5,18.589-6.883,26.105c-13.15,7.358-29.538,11.337-46.525,11.337
				c-39.484,0-67.226-21.441-67.226-56.929c0-4.964,0.634-9.805,1.813-14.452c11.354-18.202,31.545-30.313,54.569-30.313
				C1994.489,768.2,2023.253,796.963,2023.253,832.451z"/>
			<path style="fill:#84B884;" d="M1958.989,766.679c0,0-15.243-12.407-24.814-8.153c-9.571,4.254,6.026,14.534,22.333,14.18
				c0,0-19.497,3.899-13.116,13.116c6.381,9.217,22.333-8.862,22.333-8.862s13.116,14.888,19.851,7.799
				c6.735-7.09-14.888-13.825-14.888-13.825s15.952,2.481,14.534-4.254S1977.777,756.045,1958.989,766.679z"/>
			<path style="fill:#FF718B;" d="M2010.931,821.889c0,0-4.107-25.525-21.124-27.285c-17.016-1.76-13.496,26.405,0,31.686
				C2003.303,831.571,2012.325,827.604,2010.931,821.889z"/>
		</g>
	</g>
	<g>
		<g>
			<rect x="1941.25" y="1011.182" style="fill:#75ACF2;" width="81.932" height="135.354"/>
			<polygon style="fill:#5D82E6;" points="1950.477,1000.799 1941.25,1011.182 2023.182,1011.182 2015.645,1000.799 			"/>
			<rect x="1950.477" y="988.574" style="fill:#75ACF2;" width="65.168" height="12.225"/>
		</g>
		<rect x="1941.25" y="1039.414" style="fill:#5D82E6;" width="81.932" height="68.772"/>
	</g>
	<g>
		<g>
			<path style="fill:#84B884;" d="M1662.673,998.16c2.144-10.031-2.073-18.22-9.223-25.039c-3.201-3.052-8.069,1.8-4.86,4.86
				c5.256,5.012,9.071,10.792,7.456,18.352C1655.124,1000.647,1661.748,1002.49,1662.673,998.16L1662.673,998.16z"/>
		</g>
		<path style="fill:#FF4F67;" d="M1689.255,994.893c4.765-0.399,12.165-0.632,18.402,0.818c4.683,1.07,8.706,3.091,10.472,6.703
			c5.566,11.394-4.948,84.366-8.928,102.322c-1.841,8.273-7.3,11.663-12.633,12.911c-2.688,0.629-5.358,0.722-7.515,0.623
			c-0.44-0.023-0.865-0.045-1.249-0.077c-2.164-0.182-3.584-0.522-3.584-0.522c-3.418,2.747-10.367,3.859-16.728,3.545
			c-5.275-0.265-10.151-1.503-12.263-3.612c0,0-1.206,0.561-3.203,1.013c-2.126,0.511-5.152,0.904-8.589,0.436
			c-1.881-0.269-3.892-0.797-5.952-1.729c-1.676-0.734-3.398-1.748-5.092-3.091c-11.094-8.81-34.608-93.791-21.618-111.114
			c5.547-7.396,13.173-9.831,20.114-10.185c2.661-0.149,5.212,0.025,7.518,0.329c2.483,0.333,4.661,0.834,6.333,1.292
			c2.17,0.61,3.477,1.134,3.477,1.134c2.558-3.344,9.808-5.41,17.42-5.542c7.114-0.119,14.526,1.471,18.715,5.299l0.029-0.011
			C1684.618,995.413,1686.49,995.129,1689.255,994.893z"/>
		<path style="fill:#E7254F;" d="M1638.407,993.263c5.729,0.772,9.811,2.426,9.811,2.426s-6.452,83.88,7.011,121.914
			c0,0-5.124,2.369-11.792,1.449c1.137-5.808,2.343-14.729,2.811-27.505C1647.176,1066.27,1645.765,1003.69,1638.407,993.263z"/>
		<path style="fill:#E7254F;" d="M1689.255,994.893c0.264,4.244,1.069,12.381,3.441,20.085c3.438,11.104,7.425,45.692,1.427,75.991
			c-2.977,15.047-4.395,23.053-5.07,27.3c-2.858-0.13-4.833-0.6-4.833-0.6s21.94-65.651,0.133-122.223l0.029-0.011
			C1684.618,995.413,1686.49,995.129,1689.255,994.893z"/>
		<path style="opacity:0.5;fill:#E7254F;" d="M1684.353,995.446l0.029-0.011l-0.036,0.425c0,0,6.666,10.783,7.434,22.642
			c0.78,11.874,4.861,40.91,1.983,65.774c-2.866,24.879-5.461,32.109-5.461,32.109l-0.497,1.807
			c-2.164-0.182-3.584-0.522-3.584-0.522c-3.418,2.747-10.367,3.859-16.728,3.545c4.674-4.076,14.145-16.784,16.057-53.607
			c2.553-49.349-10.58-73.933-17.608-77.297c-0.106-0.05-0.212-0.101-0.304-0.164
			C1672.752,990.028,1680.164,991.617,1684.353,995.446z"/>
		<path style="opacity:0.5;fill:#E7254F;" d="M1638.407,993.263c2.483,0.333,4.661,0.834,6.333,1.292
			c1.856,4.502-0.146,9.941,0.518,16.149c1.462,13.449,1.593,44.331,3.438,74.181c1.105,17.887,4.105,28.79,3.33,33.732
			c-2.126,0.511-5.152,0.904-8.589,0.436c-1.881-0.269-3.892-0.797-5.952-1.729c3.38-9.51,6.375-24.942,6.256-49.755
			c-0.171-36.984-6.495-61.339-12.853-74.634C1633.551,992.785,1636.102,992.958,1638.407,993.263z"/>
		<path style="fill:#FF7A92;" d="M1619.849,1001.424c0,0-13.059,12.142-6.644,18.557c6.415,6.415,17.87-14.433,14.662-18.557
			S1622.091,999.089,1619.849,1001.424z"/>
		<path style="fill:#FF7A92;" d="M1698.622,1002.873c0,0,1.741,11.809,6.964,8.853c5.223-2.956-1.311-15.658-4.372-14.391
			C1698.152,998.602,1698.2,1000.788,1698.622,1002.873z"/>
	</g>
	<g>
		<g>
			<path style="fill:#84B884;" d="M1791.203,1080.577c9.694,1.286,17.485-3.85,23.349-11.136c2.748-3.414-2.085-8.307-4.86-4.86
				c-4.876,6.058-10.361,10.201-18.489,9.123C1786.832,1073.124,1786.875,1080.002,1791.203,1080.577L1791.203,1080.577z"/>
		</g>
		<path style="fill:#FFB369;" d="M1796.055,1106.733c0.797,4.715,1.649,12.069,0.729,18.406c-0.673,4.756-2.35,8.935-5.801,10.997
			c-10.887,6.502-84.483,2.144-102.711-0.316c-8.399-1.141-12.234-6.296-13.925-11.506c-0.852-2.625-1.168-5.278-1.251-7.437
			c-0.014-0.44-0.027-0.866-0.027-1.251c0-2.172,0.22-3.615,0.22-3.615c-3.024-3.175-4.715-10.007-4.935-16.371
			c-0.179-5.279,0.646-10.241,2.571-12.523c0,0-0.66-1.155-1.278-3.107c-0.687-2.076-1.333-5.058-1.155-8.522
			c0.11-1.897,0.468-3.945,1.223-6.076c0.591-1.732,1.457-3.533,2.653-5.334c7.849-11.794,90.559-42.351,108.91-30.86
			c7.835,4.907,10.901,12.303,11.835,19.19c0.371,2.639,0.412,5.196,0.302,7.519c-0.124,2.502-0.44,4.715-0.756,6.42
			c-0.426,2.213-0.839,3.56-0.839,3.56c3.547,2.268,6.213,9.32,6.983,16.894c0.715,7.079-0.247,14.599-3.711,19.093l0.014,0.027
			C1795.148,1102.156,1795.588,1103.997,1796.055,1106.733z"/>
		<path style="fill:#FF9E51;" d="M1793.416,1055.927c-0.289,5.774-1.595,9.98-1.595,9.98s-84.126,0.605-120.896,17.21
			c0,0-2.791-4.907-2.433-11.629c5.883,0.646,14.873,1.1,27.643,0.495C1721.4,1070.787,1783.642,1064.134,1793.416,1055.927z"/>
		<path style="fill:#FFC694;" d="M1779.991,1038.539c0,0-2.062-6.186-11.684-6.186c-9.622,0-33.519,4.582-34.629,8.477
			C1732.567,1044.724,1782.969,1044.954,1779.991,1038.539z"/>
		<path style="fill:#FF9E51;" d="M1796.055,1106.733c-4.206,0.619-12.248,2.103-19.726,5.114
			c-10.777,4.358-44.908,11.23-75.603,7.794c-15.244-1.704-23.341-2.447-27.629-2.763c-0.11-2.859,0.192-4.866,0.192-4.866
			s67.259,16.358,121.804-10.117l0.014,0.027C1795.148,1102.156,1795.588,1103.997,1796.055,1106.733z"/>
		<path style="opacity:0.6;fill:#FF9E51;" d="M1795.093,1101.894l0.014,0.027h-0.426c0,0-10.186,7.547-21.939,9.306
			c-11.767,1.773-40.359,8.275-65.376,7.491c-25.031-0.77-32.454-2.749-32.454-2.749l-1.842-0.344c0-2.172,0.22-3.615,0.22-3.615
			c-3.024-3.175-4.715-10.007-4.935-16.371c4.454,4.316,17.911,12.688,54.764,11.505c49.39-1.594,72.785-16.743,75.548-24.028
			c0.041-0.11,0.083-0.22,0.138-0.316C1799.519,1089.88,1798.557,1097.4,1795.093,1101.894z"/>
		<path style="opacity:0.6;fill:#FF9E51;" d="M1793.416,1055.927c-0.124,2.502-0.44,4.715-0.756,6.42
			c-4.33,2.227-9.918,0.688-16.048,1.87c-13.279,2.584-44.041,5.305-73.631,9.646c-17.731,2.601-28.344,6.505-33.334,6.147
			c-0.687-2.076-1.333-5.058-1.155-8.522c0.11-1.897,0.468-3.945,1.223-6.076c9.76,2.57,25.389,4.261,50.104,2.062
			c36.839-3.272,60.579-11.615,73.294-19.066C1793.485,1051.048,1793.526,1053.604,1793.416,1055.927z"/>
		<path style="opacity:0.6;fill:#FF9E51;" d="M1796.784,1125.139c-0.673,4.756-2.35,8.935-5.801,10.997
			c-10.887,6.502-84.483,2.144-102.711-0.316c-8.399-1.141-12.234-6.296-13.925-11.506c7.327,4.619,22.873,10.433,54.97,10.791
			C1761.223,1135.462,1783.368,1130.624,1796.784,1125.139z"/>
	</g>
	<g>
		<g>
			<g>
				
					<rect x="830.341" y="1120.713" transform="matrix(0.9383 0.3457 -0.3457 0.9383 470.588 -230.264)" style="fill:#75ACF2;" width="100.88" height="166.656"/>
				<polygon style="fill:#5D82E6;" points="877.34,1100.345 862.26,1108.413 956.919,1143.29 952.632,1128.086 				"/>
				
					<rect x="877.468" y="1099.627" transform="matrix(0.9383 0.3457 -0.3457 0.9383 439.3622 -248.9649)" style="fill:#75ACF2;" width="80.24" height="15.053"/>
			</g>
			
				<rect x="832.494" y="1155.858" transform="matrix(0.9383 0.3457 -0.3457 0.9383 468.7 -231.3691)" style="fill:#5D82E6;" width="100.879" height="84.677"/>
		</g>
		
			<rect x="532.326" y="1159.325" transform="matrix(0.975 -0.2224 0.2224 0.975 -254.945 170.6177)" style="fill:#75ACF2;" width="195.842" height="116.409"/>
		<g>
			<path style="fill:#94A7E6;" d="M802.477,1174.96l-21.662,91.531c-0.003,0.011-0.003,0.011-0.005,0.023
				c-0.666,2.813-13.092,2.359-29.3-0.788c-2.92-0.57-5.966-1.219-9.088-1.958c-20.422-4.833-36.331-11.436-35.547-14.752
				c0.003-0.011,0.003-0.011,0.005-0.023l18.729-79.137c1.911-8.073,4.173-16.05,6.804-23.904
				c5.151-15.492,11.66-30.494,19.479-44.86l1.159-2.141l53.741,12.718l0.505,15.165c0.41,12.449-0.456,24.887-2.57,37.137
				C804.086,1167.649,803.338,1171.324,802.477,1174.96z"/>
			<path style="fill:#ABC7F2;" d="M802.477,1174.96l-21.662,91.531c-0.003,0.011-0.003,0.011-0.005,0.023
				c-0.666,2.813-13.092,2.359-29.3-0.788c-15.899-4.451-27.222-9.618-26.557-12.431c0.003-0.011,0.003-0.011,0.005-0.023
				l18.729-79.137c1.91-8.073,4.173-16.05,6.804-23.904c5.152-15.492,11.66-30.494,19.48-44.86l1.159-2.141l35.663,8.44
				l0.505,15.165c0.41,12.449-0.456,24.887-2.57,37.137C804.086,1167.649,803.338,1171.324,802.477,1174.96z"/>
			<path style="fill:#5D82E6;" d="M802.477,1174.96l-13.376,56.52c-18.919-2.255-45.141-7.121-73.934-17.497l10.443-44.125
				c1.911-8.073,4.173-16.05,6.804-23.904c15.947,5.271,42.735,13.205,72.313,18.019
				C804.086,1167.649,803.338,1171.324,802.477,1174.96z"/>
			<g>
				<path style="fill:#E93A5B;" d="M807.365,1111.803c-0.582,2.461-13.341,1.548-28.497-2.039
					c-15.156-3.587-26.97-8.49-26.388-10.95c0.582-2.461,13.341-1.548,28.497,2.039S807.948,1109.342,807.365,1111.803z"/>
				
					<rect x="777.285" y="1073.773" transform="matrix(0.2303 -0.9731 0.9731 0.2303 -471.4338 1607.9254)" style="fill:#E93A5B;" width="6.854" height="56.401"/>
				<path style="fill:#FF4F67;" d="M808.944,1105.133c-0.582,2.461-13.341,1.548-28.497-2.039
					c-15.156-3.587-26.97-8.49-26.388-10.95c0.582-2.461,13.341-1.548,28.497,2.039
					C797.712,1097.77,809.526,1102.672,808.944,1105.133z"/>
			</g>
		</g>
		<g>
			<g>
				<path style="fill:#FFB369;" d="M629.85,1082.522c-18.234,39.276-57.01,90.748-110.038,95.395
					c-24.908,2.18-38.49-9.983-43.163-19.328c-1.592-3.198-2.144-6.082-1.747-7.938c0.481-2.286,1.503-4.48,3.128-6.548
					c0.077-0.103,0.137-0.198,0.214-0.302c0.06-0.052,0.086-0.086,0.111-0.12c0.017-0.009,0.017-0.009,0.009-0.026
					c0.017-0.009,0.017-0.009,0.034-0.017c6.045-7.332,19.637-13.266,43.216-17.056c18.223-2.937,59.073-30.35,78.265-59.203
					c21.472-32.263,36.05-31.638,39.631-29.488C644.157,1040.709,640.526,1059.515,629.85,1082.522z"/>
			</g>
			<g>
				<path style="fill:#FFD695;" d="M633.941,1091.356c-20.178,38.314-61.482,87.78-114.676,89.766
					c-24.986,0.93-37.942-11.898-42.141-21.464c-1.43-3.273-1.837-6.181-1.348-8.016c0.595-2.26,1.726-4.4,3.452-6.383
					c0.082-0.099,0.146-0.191,0.228-0.291c0.063-0.049,0.09-0.082,0.117-0.115c0.018-0.008,0.018-0.008,0.01-0.025
					c0.018-0.008,0.018-0.008,0.035-0.016c6.405-7.02,20.276-12.266,44.016-14.87c18.348-2.021,60.519-27.354,81.131-55.21
					c23.061-31.147,37.589-29.794,41.058-27.466C650.324,1050.312,645.755,1068.913,633.941,1091.356z"/>
				<path style="fill:#FFD695;" d="M479.618,1144.813c0,0,0.014,0.078,0.033,0.216c0.456,2.403,4.431,24.212-2.479,14.691
					c-0.008-0.017-0.041-0.045-0.048-0.063c-4.674-6.373-13.009-9.631-18.433-11.156c-3.098-0.875-5.25-1.181-5.25-1.181
					c-0.708-0.127-0.221-0.784,0.667-1.577c1.434-1.266,3.926-2.896,4.279-3.284c0.263-0.306,0.86-0.381,2.133-0.021l0.008,0.018
					c1.425,0.419,3.735,1.411,7.488,3.34c3.284,1.674,6.005,1.603,7.992,1.016c1.229-0.356,2.165-0.897,2.788-1.341
					c0.018-0.008,0.018-0.008,0.035-0.016c0.293-0.193,0.507-0.372,0.625-0.487c0.063-0.049,0.09-0.082,0.117-0.115
					C479.6,1144.82,479.618,1144.813,479.618,1144.813z"/>
				<g>
					<path style="fill:#FFC779;" d="M479.189,1146.13c4.957-2.517,10.349-4.38,15.966-3.676c2.763,0.346,5.328,0.784,8.138,0.797
						c6.661,0.031,13.404-0.596,19.986-1.6c14.464-2.208,28.896-8.795,41.299-16.381c22.57-13.805,39.523-33.786,55.262-54.68
						c5.957-7.909,11.877-17.263,20.209-22.925c0.806-0.548,0.045-1.869-0.769-1.315c-6.396,4.347-11.172,10.876-15.818,16.943
						c-7.23,9.441-14.22,19.057-22.038,28.03c-19.75,22.668-46.209,42.924-76.449,48.518c-7.601,1.406-15.766,2.181-23.498,1.86
						c-3.829-0.158-7.362-1.288-11.23-0.831c-4.173,0.494-8.106,2.057-11.825,3.945
						C477.546,1145.258,478.316,1146.573,479.189,1146.13L479.189,1146.13z"/>
				</g>
			</g>
			<path style="fill:#FFB369;" d="M632.2,1092.23c-20.178,38.314-61.482,87.78-114.676,89.766
				c-24.986,0.93-37.942-11.898-42.141-21.464c-4.674-6.373,4.795-12.843,5.955-13.649c4.35-3.021,6.47-4.149,10.27-4.531
				c6.465-0.723,14.357-0.692,23.842,0.186c1.525,0.122,3.108,0.282,4.742,0.461c18.355,2.073,65.047-13.396,91.29-36.038
				C619.525,1100.034,626.39,1095.331,632.2,1092.23z"/>
			<g>
				<path style="fill:#FFD695;" d="M660.565,1091.175c5.075,5.403-12.653,35.299-42.094,61.716l-0.006,0.01
					c-14.133,12.671-30.952,24.55-49.255,32.521c-19.34,8.425-40.317,12.494-61.498,8.554
					c-24.508-4.562-34.342-19.843-36.371-30.105l-0.005-0.017c-0.704-3.553-0.461-6.504,0.422-8.203
					c1.075-2.066,2.646-3.896,4.739-5.461c0.141-0.102,0.266-0.2,0.401-0.292c0.068-0.046,0.107-0.066,0.107-0.066
					c7.794-5.453,22.472-7.507,46.202-4.848c18.362,2.066,65.045-13.384,91.274-36.04
					C643.828,1083.62,657.709,1088.12,660.565,1091.175z"/>
				<path style="fill:#FFD695;" d="M450.921,1146.538c0,0,15.503,5.903,20.421,17.314c4.918,11.412,5.671-14.022,5.671-14.022
					s-5.419,3.537-11.54-1.583c-6.121-5.12-7.966-5.859-8.661-5.371C456.117,1143.364,449.197,1145.799,450.921,1146.538z"/>
				<g>
					<path style="fill:#FFC779;" d="M476.273,1151.038c4.774-1.211,10.107-2.003,14.955-0.647c2.943,0.823,5.571,2.249,8.573,2.974
						c6.288,1.519,12.837,2.354,19.279,2.882c14.657,1.201,30.182-1.882,44.052-6.467c25.398-8.397,46.611-24.281,66.766-41.388
						c7.619-6.466,15.478-14.369,24.927-18.099c0.901-0.356,0.509-1.83-0.405-1.469c-7.179,2.834-13.273,8.13-19.129,13.019
						c-9.308,7.771-18.407,15.778-28.214,22.929c-24.251,17.684-54.997,31.853-85.71,30.119c-7.738-0.437-15.951-1.305-23.39-3.573
						c-2.798-0.853-5.278-2.284-8.193-2.784c-4.647-0.797-9.393-0.111-13.915,1.036
						C474.918,1149.81,475.321,1151.279,476.273,1151.038L476.273,1151.038z"/>
				</g>
			</g>
			<path style="fill:#FFB369;" d="M618.465,1152.901c-14.133,12.671-30.952,24.55-49.255,32.521
				c-17.305-6.168-66.534-24.032-56.448-24.301c12.184-0.323,49.759,0.122,67.083-2.74
				C596.894,1155.561,617.806,1152.979,618.465,1152.901z"/>
			<g>
				<path style="fill:#FFD695;" d="M475.554,1164.042c-4.939,5.592-4.876,31.947,25.682,45.851
					c76.808,34.946,180.299-50.171,173.094-63.012c-2.044-3.642-14.434-11.36-49.007,6.171
					c-30.906,15.672-79.943,19.444-97.266,13.024C498.887,1155.265,482.701,1155.949,475.554,1164.042z"/>
				<path style="fill:#FFD695;" d="M457.52,1150.186c0,0,13.627,9.459,15.655,21.719c2.028,12.26,8.878-12.246,8.878-12.246
					s-6.111,2.129-10.82-4.313c-4.709-6.442-6.322-7.603-7.114-7.297C463.327,1148.355,456.024,1149.054,457.52,1150.186z"/>
				<g>
					<path style="fill:#FFC779;" d="M481.025,1160.653c4.941-0.027,10.29,0.483,14.681,2.963c2.294,1.296,4.228,3.115,6.554,4.394
						c5.455,3,11.403,5.295,17.262,7.367c13.89,4.912,29.393,5.993,44.016,5.096c27.335-1.676,52.354-12.077,76.582-24.104
						c9.124-4.529,18.773-10.363,29.032-11.747c0.967-0.13,0.555-1.599-0.405-1.469c-7.975,1.076-15.516,5.066-22.652,8.561
						c-11.171,5.47-22.232,11.15-33.809,15.737c-27.902,11.055-61.398,16.9-90.557,7.084c-6.946-2.338-14.352-4.935-20.558-8.91
						c-6.639-4.252-11.995-6.54-20.145-6.495C480.045,1159.135,480.043,1160.658,481.025,1160.653L481.025,1160.653z"/>
				</g>
			</g>
		</g>
		<g>
			<polygon style="fill:#FFD695;" points="738.183,1191.581 742.152,1308.296 773.796,1305.565 797.832,1303.493 801.188,1303.207 
				912.819,1293.577 908.91,1178.643 			"/>
			<path style="fill:#FF4F67;" d="M738.183,1191.585l120.545-34.529c0,0,46.936-3.974,50.183,21.591L738.183,1191.585z"/>
			<g>
				<path style="opacity:0.3;fill:#F9A87F;" d="M855.389,1216.76c0.103,3.023,1.163,5.825,2.848,8.076
					c2.714,3.597,7.067,5.87,11.904,5.706c7.88-0.268,14.049-6.872,13.782-14.752c-0.166-4.875-2.731-9.082-6.54-11.526
					c-2.361-1.547-5.189-2.378-8.212-2.275C861.291,1202.257,855.121,1208.861,855.389,1216.76z"/>
				<path style="opacity:0.3;fill:#F9A87F;" d="M855.389,1216.76c0.103,3.023,1.163,5.825,2.848,8.076
					c2.361,1.547,5.208,2.396,8.25,2.292c7.88-0.268,14.068-6.873,13.8-14.752c-0.104-3.061-1.164-5.844-2.905-8.112
					c-2.361-1.547-5.189-2.378-8.212-2.275C861.291,1202.257,855.121,1208.861,855.389,1216.76z"/>
			</g>
			<g>
				<path style="opacity:0.3;fill:#F9A87F;" d="M795.186,1260.529c0.103,3.023,1.163,5.825,2.848,8.076
					c2.714,3.597,7.067,5.87,11.904,5.706c7.88-0.268,14.049-6.872,13.781-14.752c-0.166-4.875-2.73-9.082-6.54-11.526
					c-2.36-1.547-5.189-2.378-8.212-2.275C801.088,1246.027,794.918,1252.631,795.186,1260.529z"/>
				<path style="opacity:0.3;fill:#F9A87F;" d="M795.186,1260.529c0.103,3.023,1.163,5.825,2.848,8.076
					c2.361,1.547,5.208,2.396,8.25,2.292c7.88-0.268,14.068-6.873,13.8-14.752c-0.104-3.061-1.163-5.844-2.905-8.111
					c-2.36-1.547-5.189-2.378-8.212-2.275C801.088,1246.027,794.918,1252.631,795.186,1260.529z"/>
			</g>
			<g>
				<path style="opacity:0.3;fill:#F9A87F;" d="M842.482,1265.905c0.13,3.821,1.47,7.363,3.599,10.207
					c3.43,4.546,8.932,7.42,15.046,7.212c9.959-0.339,17.758-8.686,17.419-18.646c-0.21-6.162-3.451-11.48-8.267-14.568
					c-2.984-1.955-6.558-3.005-10.38-2.875C849.941,1247.575,842.143,1255.922,842.482,1265.905z"/>
				<path style="opacity:0.3;fill:#F9A87F;" d="M842.482,1265.905c0.13,3.821,1.47,7.363,3.599,10.207
					c2.984,1.955,6.583,3.028,10.428,2.897c9.96-0.339,17.782-8.687,17.443-18.646c-0.132-3.869-1.471-7.386-3.672-10.253
					c-2.984-1.955-6.558-3.005-10.38-2.875C849.941,1247.575,842.143,1255.922,842.482,1265.905z"/>
			</g>
			<g>
				<path style="opacity:0.3;fill:#F9A87F;" d="M770.797,1217.602c0.122,3.573,1.374,6.884,3.366,9.545
					c3.207,4.251,8.352,6.938,14.069,6.743c9.313-0.317,16.605-8.122,16.288-17.435c-0.196-5.762-3.227-10.734-7.73-13.622
					c-2.79-1.828-6.132-2.81-9.706-2.688C777.772,1200.462,770.48,1208.267,770.797,1217.602z"/>
				<path style="opacity:0.3;fill:#F9A87F;" d="M770.797,1217.602c0.122,3.573,1.374,6.884,3.366,9.545
					c2.79,1.828,6.155,2.831,9.751,2.709c9.313-0.317,16.627-8.123,16.31-17.435c-0.123-3.618-1.375-6.907-3.434-9.587
					c-2.79-1.828-6.132-2.81-9.706-2.688C777.772,1200.462,770.48,1208.267,770.797,1217.602z"/>
			</g>
			<g>
				<path style="opacity:0.3;fill:#F9A87F;" d="M741.544,1290.43c2.816,1.858,6.217,2.884,9.836,2.761
					c9.318-0.317,16.598-8.124,16.282-17.428c-0.196-5.77-3.218-10.731-7.724-13.63c-2.786-1.817-6.129-2.801-9.705-2.68
					c-3.633,0.124-6.943,1.377-9.626,3.423l0.868,25.531L741.544,1290.43z"/>
				<path style="opacity:0.3;fill:#F9A87F;" d="M740.607,1262.875l0.868,25.531c1.759,0.553,3.637,0.818,5.588,0.751
					c9.304-0.316,16.627-8.125,16.31-17.429c-0.123-3.619-1.376-6.914-3.436-9.597c-2.786-1.817-6.129-2.801-9.705-2.68
					C746.6,1259.576,743.29,1260.83,740.607,1262.875z"/>
			</g>
			<g>
				<path style="opacity:0.3;fill:#F9A87F;" d="M753.177,1245.938c0.067,1.972,0.759,3.8,1.858,5.268
					c1.77,2.346,4.61,3.829,7.765,3.722c5.14-0.175,9.165-4.483,8.99-9.623c-0.108-3.18-1.781-5.925-4.266-7.519
					c-1.54-1.009-3.385-1.551-5.357-1.484C757.027,1236.478,753.002,1240.786,753.177,1245.938z"/>
				<path style="opacity:0.3;fill:#F9A87F;" d="M753.177,1245.938c0.067,1.972,0.759,3.8,1.858,5.268
					c1.54,1.009,3.397,1.563,5.382,1.495c5.14-0.175,9.177-4.483,9.002-9.623c-0.068-1.997-0.759-3.812-1.895-5.291
					c-1.54-1.009-3.385-1.551-5.357-1.484C757.027,1236.478,753.002,1240.786,753.177,1245.938z"/>
			</g>
			<g>
				<path style="opacity:0.3;fill:#F9A87F;" d="M814.723,1208.535c0.067,1.972,0.759,3.8,1.858,5.268
					c1.77,2.346,4.61,3.829,7.765,3.722c5.14-0.175,9.165-4.483,8.99-9.623c-0.108-3.18-1.781-5.925-4.266-7.518
					c-1.54-1.009-3.385-1.551-5.357-1.484C818.573,1199.074,814.548,1203.382,814.723,1208.535z"/>
				<path style="opacity:0.3;fill:#F9A87F;" d="M814.723,1208.535c0.067,1.972,0.759,3.8,1.858,5.268
					c1.54,1.009,3.397,1.563,5.382,1.495c5.14-0.175,9.177-4.483,9.002-9.623c-0.068-1.997-0.759-3.812-1.895-5.291
					c-1.54-1.009-3.385-1.551-5.357-1.484C818.573,1199.074,814.548,1203.382,814.723,1208.535z"/>
			</g>
			<g>
				<path style="opacity:0.3;fill:#F9A87F;" d="M773.796,1305.565l24.035-2.073l3.357-0.285c-0.66-3.9-2.941-7.203-6.12-9.234
					c-2.276-1.506-5.013-2.297-7.934-2.198C779.669,1292.029,773.786,1298.148,773.796,1305.565z"/>
				<path style="opacity:0.3;fill:#F9A87F;" d="M773.796,1305.565l24.035-2.073c0.052-0.558,0.062-1.115,0.043-1.685
					c-0.1-2.949-1.119-5.653-2.806-7.835c-2.276-1.506-5.013-2.297-7.934-2.198C779.669,1292.029,773.786,1298.148,773.796,1305.565
					z"/>
			</g>
		</g>
		<g>
			<g>
				<path style="fill:#E9375A;" d="M813.045,1284.245c-3.642,6.554-8.546,11.456-14.247,14.84
					c-14.863,8.85-35.081,7.374-52.164-2.12c-23.637-13.136-32.314-36.65-19.178-60.286c4.613-8.301,11.27-14.729,19.011-19.021
					c14.3-7.92,32.231-8.513,47.566,0.01C817.67,1230.803,826.181,1260.608,813.045,1284.245z"/>
				<path style="fill:#FF4F67;" d="M813.045,1284.245c-3.642,6.554-8.546,11.456-14.247,14.84
					c-18.325-0.297-1.626-44.142-30.721-65.737c-24.159-17.931-24.114-13.032-21.609-15.691c14.3-7.92,32.231-8.513,47.566,0.01
					C817.67,1230.803,826.181,1260.608,813.045,1284.245z"/>
				<path style="fill:#84B884;" d="M794.588,1216.65c0,0-5.56-13.906-13.51-14.616c-7.949-0.71-1.366,11.911,9.626,17.711
					c0,0-14.429-4.62-13.591,3.881c0.838,8.501,18.155,2.364,18.155,2.364s3.225,14.772,10.335,12.543
					c7.11-2.229-4.799-14.719-4.799-14.719s9.706,7.558,11.255,2.547C813.609,1221.349,811.038,1216.521,794.588,1216.65z"/>
				<path style="fill:#FF718B;" d="M808.747,1272.649c0,0,6.712-18.521-3.97-25.992c-10.682-7.471-18.763,12.591-11.729,21.104
					C800.083,1276.274,807.561,1276.971,808.747,1272.649z"/>
			</g>
			<g>
				<path style="fill:#E9375A;" d="M777.16,1274.709c-1.273,7.389-4.282,13.636-8.546,18.713
					c-11.106,13.263-30.677,18.547-49.936,15.229c-26.649-4.592-42.606-23.92-38.014-50.568c1.613-9.359,5.773-17.625,11.661-24.233
					c10.881-12.199,27.61-18.681,44.9-15.702C763.874,1222.739,781.751,1248.06,777.16,1274.709z"/>
				<path style="fill:#FF4F67;" d="M777.16,1274.709c-1.273,7.389-4.282,13.636-8.546,18.713
					c-10.826,3.824-23.648,4.691-36.404,2.493c-29.649-5.109-47.708-24.799-43.116-51.448c0.642-3.728,1.745-7.281,3.232-10.618
					c10.881-12.199,27.61-18.681,44.9-15.702C763.874,1222.739,781.751,1248.06,777.16,1274.709z"/>
				<path style="fill:#84B884;" d="M737.412,1217.004c0,0-9.841-11.289-17.579-9.333c-7.738,1.956,2.645,11.694,14.936,13.538
					c0,0-15.145,0.406-11.546,8.152c3.599,7.747,17.917-3.765,17.917-3.765s7.923,12.877,13.898,8.425
					c5.975-4.453-9.391-12.308-9.391-12.308s11.658,3.927,11.464-1.314C756.917,1215.157,752.896,1211.449,737.412,1217.004z"/>
				<path style="fill:#FF718B;" d="M769.273,1265.183c0,0,0.218-19.698-12.332-23.222c-12.55-3.524-13.551,18.082-4.1,23.794
					C762.292,1271.467,769.581,1269.655,769.273,1265.183z"/>
			</g>
		</g>
		<g>
			<g>
				<path style="fill:#84B884;" d="M508.559,1194.272c0.775-10.727-5.403-18.53-13.731-24.435c-3.8-2.694-7.413,3.568-3.647,6.239
					c6.354,4.505,10.742,10.044,10.153,18.196C500.999,1198.911,508.225,1198.89,508.559,1194.272L508.559,1194.272z"/>
			</g>
			<path style="fill:#FF4F67;" d="M535.695,1187.323c4.898-1.132,12.561-2.488,19.268-1.92c5.033,0.408,9.523,1.906,11.903,5.397
				c7.506,11.016,7.553,88.516,6.115,107.797c-0.67,8.885-5.838,13.233-11.199,15.334c-2.701,1.059-5.465,1.557-7.725,1.779
				c-0.461,0.042-0.907,0.083-1.311,0.107c-2.279,0.136-3.807-0.004-3.807-0.004c-3.142,3.373-10.205,5.576-16.869,6.206
				c-5.528,0.519-10.787-0.035-13.302-1.911c0,0-1.17,0.765-3.18,1.536c-2.135,0.851-5.224,1.716-8.87,1.747
				c-1.997,0.004-4.169-0.243-6.452-0.902c-1.854-0.512-3.799-1.307-5.763-2.449c-12.868-7.496-50.125-92.368-39.218-112.345
				c4.658-8.53,12.225-12.21,19.393-13.624c2.746-0.555,5.426-0.759,7.871-0.789c2.633-0.027,4.975,0.166,6.784,0.39
				c2.349,0.308,3.788,0.656,3.788,0.656c2.158-3.864,9.389-7.105,17.289-8.388c7.384-1.195,15.334-0.657,20.268,2.696l0.028-0.016
				C530.948,1188.562,532.854,1187.985,535.695,1187.323z"/>
			<path style="fill:#E7254F;" d="M482.549,1193.281c6.076-0.059,10.572,1.047,10.572,1.047s5.915,88.237,25.647,125.78
				c0,0-4.974,3.236-12.05,3.283c0.309-6.214,0.221-15.676-1.216-29.038C502.662,1267.917,491.774,1203.022,482.549,1193.281z"/>
			<path style="fill:#E7254F;" d="M535.695,1187.323c0.913,4.375,2.976,12.72,6.604,20.378
				c5.249,11.035,14.603,46.419,12.924,78.844c-0.832,16.103-1.103,24.646-1.165,29.166c-2.993,0.295-5.118,0.104-5.118,0.104
				s12.943-71.604-18.261-127.177l0.028-0.016C530.948,1188.562,532.854,1187.985,535.695,1187.323z"/>
			<path style="opacity:0.5;fill:#E7254F;" d="M530.678,1188.636l0.028-0.016l0.027,0.447c0,0,8.558,10.215,11.142,22.437
				c2.599,12.236,11.216,41.83,11.965,68.131c0.764,26.315-0.848,34.228-0.848,34.228l-0.245,1.954
				c-2.279,0.136-3.807-0.004-3.807-0.004c-3.142,3.373-10.205,5.576-16.869,6.206c4.249-4.944,12.189-19.591,8.635-58.188
				c-4.773-51.726-22.137-75.325-29.955-77.767c-0.118-0.036-0.236-0.073-0.34-0.124
				C517.793,1184.746,525.744,1185.284,530.678,1188.636z"/>
			<path style="opacity:0.5;fill:#E7254F;" d="M482.549,1193.281c2.633-0.027,4.975,0.166,6.784,0.39
				c2.608,4.404,1.344,10.364,2.97,16.723c3.545,13.772,8.331,45.881,14.743,76.658c3.842,18.443,8.605,29.334,8.543,34.592
				c-2.135,0.851-5.224,1.716-8.87,1.747c-1.997,0.004-4.169-0.243-6.452-0.902c2.085-10.402,2.878-26.909-0.981-52.705
				c-5.746-38.451-15.991-62.838-24.607-75.713C477.424,1193.516,480.104,1193.312,482.549,1193.281z"/>
			<path style="fill:#FF7A92;" d="M464.47,1204.567c0,0-11.758,14.598-4.119,20.306c7.639,5.708,16.418-17.706,12.461-21.514
				C468.855,1199.552,466.451,1201.8,464.47,1204.567z"/>
			<path style="fill:#FF7A92;" d="M546.641,1194.215c0,0,3.589,12.024,8.578,8.162c4.989-3.862-3.721-16.093-6.715-14.314
				C545.509,1189.843,545.888,1192.109,546.641,1194.215z"/>
		</g>
		<g>
			<g>
				<path style="fill:#84B884;" d="M695.398,1256.381c10.19,1.352,18.38-4.047,24.545-11.706c2.889-3.589-2.192-8.733-5.109-5.109
					c-5.126,6.369-10.891,10.724-19.436,9.59C690.804,1248.547,690.849,1255.778,695.398,1256.381L695.398,1256.381z"/>
			</g>
			<path style="fill:#FFB369;" d="M700.499,1283.877c0.838,4.956,1.734,12.687,0.766,19.349c-0.708,5-2.471,9.392-6.098,11.56
				c-11.445,6.835-88.809,2.254-107.97-0.332c-8.829-1.199-12.86-6.618-14.638-12.095c-0.896-2.76-1.228-5.549-1.315-7.817
				c-0.014-0.463-0.029-0.91-0.029-1.315c0-2.283,0.231-3.8,0.231-3.8c-3.179-3.338-4.956-10.52-5.187-17.21
				c-0.188-5.549,0.679-10.765,2.702-13.164c0,0-0.693-1.214-1.344-3.266c-0.722-2.182-1.402-5.317-1.214-8.959
				c0.116-1.994,0.491-4.147,1.286-6.387c0.622-1.821,1.532-3.714,2.789-5.607c8.251-12.398,95.196-44.52,114.486-32.44
				c8.236,5.159,11.459,12.933,12.441,20.172c0.39,2.775,0.433,5.462,0.318,7.904c-0.13,2.63-0.462,4.956-0.795,6.748
				c-0.448,2.326-0.882,3.742-0.882,3.742c3.728,2.384,6.531,9.797,7.341,17.759c0.751,7.442-0.26,15.346-3.901,20.071l0.015,0.029
				C699.545,1279.065,700.008,1281.001,700.499,1283.877z"/>
			<path style="fill:#FF9E51;" d="M697.725,1230.47c-0.303,6.069-1.676,10.491-1.676,10.491s-88.433,0.636-127.087,18.091
				c0,0-2.933-5.158-2.558-12.225c6.185,0.679,15.635,1.156,29.059,0.52C622.022,1246.09,687.451,1239.097,697.725,1230.47z"/>
			<path style="fill:#FFC694;" d="M683.612,1212.191c0,0-2.168-6.502-12.282-6.502c-10.115,0-35.235,4.817-36.402,8.911
				S686.743,1218.934,683.612,1212.191z"/>
			<path style="fill:#FF9E51;" d="M700.499,1283.877c-4.422,0.65-12.875,2.211-20.736,5.375
				c-11.328,4.581-47.208,11.806-79.474,8.193c-16.025-1.792-24.536-2.572-29.044-2.905c-0.116-3.006,0.202-5.115,0.202-5.115
				s70.703,17.195,128.041-10.635l0.015,0.029C699.545,1279.065,700.008,1281.001,700.499,1283.877z"/>
			<path style="opacity:0.6;fill:#FF9E51;" d="M699.488,1278.79l0.015,0.029h-0.448c0,0-10.708,7.933-23.062,9.783
				c-12.369,1.864-42.425,8.699-68.724,7.875c-26.313-0.809-34.116-2.89-34.116-2.89l-1.936-0.361c0-2.283,0.231-3.8,0.231-3.8
				c-3.179-3.338-4.956-10.52-5.187-17.21c4.682,4.537,18.828,13.337,57.568,12.094c51.919-1.676,76.512-17.6,79.417-25.258
				c0.043-0.115,0.087-0.231,0.145-0.332C704.141,1266.161,703.129,1274.066,699.488,1278.79z"/>
			<path style="opacity:0.6;fill:#FF9E51;" d="M697.725,1230.47c-0.13,2.63-0.462,4.956-0.795,6.748
				c-4.552,2.341-10.426,0.723-16.87,1.966c-13.959,2.716-46.296,5.577-77.401,10.14c-18.639,2.734-29.795,6.838-35.041,6.462
				c-0.722-2.182-1.402-5.317-1.214-8.959c0.116-1.994,0.491-4.147,1.286-6.387c10.259,2.702,26.689,4.479,52.67,2.167
				c38.726-3.439,63.681-12.21,77.047-20.042C697.797,1225.34,697.84,1228.028,697.725,1230.47z"/>
			<path style="opacity:0.6;fill:#FF9E51;" d="M701.265,1303.225c-0.708,5-2.471,9.392-6.098,11.56
				c-11.445,6.835-88.809,2.254-107.97-0.332c-8.829-1.199-12.86-6.618-14.638-12.095c7.702,4.855,24.045,10.968,57.785,11.343
				C663.883,1314.077,687.162,1308.991,701.265,1303.225z"/>
		</g>
		<g id="_x38_7ZndU_1_">
			<g>
				<path style="fill:#2D2B4E;" d="M477.188,1329.715c-1.061,0-2.009-0.686-2.328-1.71L372.486,996.339
					c-0.237-0.774-0.081-1.61,0.412-2.234c0.499-0.624,1.317-0.799,2.072-0.924l605.09,39.19c0.693,0.05,1.336,0.387,1.766,0.936
					c0.431,0.549,0.599,1.248,0.474,1.934l-47.527,259.664c-0.2,1.098-1.111,1.91-2.222,1.997l-455.189,32.812
					C477.307,1329.715,477.244,1329.715,477.188,1329.715z M378.184,998.274l100.764,326.437l451.37-32.538l46.697-255.109
					L378.184,998.274z"/>
			</g>
			<g>
				<path style="fill:#2D2B4E;" d="M965.508,1115.918c-0.019,0-0.044,0-0.062,0l-558.755-14.39
					c-1.348-0.038-2.409-1.148-2.371-2.496c0.031-1.323,1.117-2.371,2.434-2.371c0.019,0,0.044,0,0.063,0l558.755,14.391
					c1.348,0.037,2.409,1.148,2.371,2.496C967.911,1114.87,966.825,1115.918,965.508,1115.918z"/>
			</g>
			<g>
				<path style="fill:#2D2B4E;" d="M447.041,1232.04c-1.292,0-2.371-1.011-2.434-2.309c-0.069-1.348,0.973-2.496,2.315-2.559
					l501.687-24.475c1.292,0.137,2.49,0.973,2.552,2.309c0.069,1.348-0.967,2.496-2.315,2.559l-501.687,24.475
					C447.122,1232.04,447.078,1232.04,447.041,1232.04z"/>
			</g>
			<g>
				<path style="fill:#2D2B4E;" d="M557.178,1323.949c-1.142,0-2.159-0.799-2.39-1.959l-63.203-318.187
					c-0.262-1.323,0.593-2.609,1.916-2.871c1.317-0.237,2.596,0.599,2.864,1.922l63.203,318.187
					c0.262,1.323-0.593,2.609-1.916,2.871C557.49,1323.937,557.334,1323.949,557.178,1323.949z"/>
			</g>
			<g>
				<path style="fill:#2D2B4E;" d="M714.3,1312.255c-0.012,0-0.025,0-0.044,0c-1.342-0.025-2.415-1.136-2.396-2.471l5.061-291.89
					c0.025-1.335,1.111-2.396,2.44-2.396c0.013,0,0.025,0,0.044,0c1.342,0.025,2.415,1.136,2.396,2.471l-5.061,291.89
					C716.715,1311.194,715.629,1312.255,714.3,1312.255z"/>
			</g>
			<g>
				<path style="fill:#2D2B4E;" d="M632.257,1316.51c-1.279,0-2.353-0.986-2.434-2.284l-18.902-303.01
					c-0.081-1.335,0.936-2.496,2.284-2.583c1.286-0.087,2.496,0.936,2.584,2.284l18.902,303.01c0.081,1.335-0.936,2.496-2.284,2.583
					C632.357,1316.51,632.307,1316.51,632.257,1316.51z"/>
			</g>
			<g>
				<path style="fill:#2D2B4E;" d="M790.982,1307.088c-0.075,0-0.15,0-0.225-0.013c-1.342-0.125-2.328-1.31-2.203-2.646
					l26.135-280.382c0.119-1.335,1.248-2.396,2.652-2.197c1.342,0.125,2.328,1.31,2.203,2.646l-26.135,280.382
					C793.291,1306.139,792.23,1307.088,790.982,1307.088z"/>
			</g>
			<g>
				<path style="fill:#2D2B4E;" d="M861.174,1300.298c-0.131,0-0.268-0.012-0.406-0.025c-1.329-0.225-2.222-1.485-1.997-2.821
					l45.405-267.802c0.231-1.311,1.46-2.097,2.808-1.997c1.329,0.225,2.221,1.485,1.997,2.821l-45.405,267.802
					C863.377,1299.462,862.347,1300.298,861.174,1300.298z"/>
			</g>
			<g>
				<path style="fill:#2D2B4E;" d="M477.188,1329.715c-1.036,0-2.003-0.661-2.328-1.71l-127.18-406.963
					c-4.537-14.503-17.798-24.263-33.006-24.263H213.156c-1.348,0-2.44-1.086-2.44-2.434c0-1.348,1.092-2.434,2.44-2.434h101.519
					c17.349,0,32.482,11.12,37.661,27.683l127.18,406.963c0.399,1.285-0.318,2.646-1.598,3.045
					C477.675,1329.678,477.425,1329.715,477.188,1329.715z"/>
			</g>
			<path style="fill:#FF6576;" d="M302.128,904.405h-97.502c-7.374,0-13.406-6.033-13.406-13.406l0,0
				c0-7.374,6.033-13.407,13.406-13.407h97.502c7.374,0,13.407,6.033,13.407,13.407l0,0
				C315.534,898.372,309.501,904.405,302.128,904.405z"/>
			<g>
				<path style="fill:#2D2B4E;" d="M804.049,1576.611H457.075c-1.404,0-2.715-0.686-3.513-1.847
					c-0.793-1.148-0.973-2.621-0.474-3.932l90.187-237.685c0.587-1.56,2.022-2.621,3.682-2.746l247.314-17.835
					c2.315-0.175,4.393,1.598,4.562,3.944c0.169,2.359-1.597,4.393-3.95,4.568l-244.6,17.635l-87.029,229.361h340.796
					c2.359,0,4.268,1.91,4.268,4.268S806.408,1576.611,804.049,1576.611z"/>
			</g>
			<g>
				<circle style="fill:#2D2B4E;" cx="529.882" cy="1601.544" r="29.202"/>
				<path style="fill:#FF6576;" d="M527.033,1594.946l11.265-34.437c0.607-1.857,2.34-3.114,4.295-3.114h45.916
					c4.579,0,6.254,6.027,2.331,8.39l-57.181,34.437C530.073,1602.381,525.732,1598.924,527.033,1594.946z"/>
			</g>
			<g>
				<circle style="fill:#2D2B4E;" cx="774.004" cy="1601.544" r="29.202"/>
				<path style="fill:#FF6576;" d="M771.155,1594.946l11.265-34.437c0.608-1.857,2.341-3.114,4.295-3.114h45.916
					c4.579,0,6.254,6.027,2.331,8.39l-57.181,34.437C774.195,1602.381,769.853,1598.924,771.155,1594.946z"/>
			</g>
			<g>
				<path style="fill:#2D2B4E;" d="M547.256,1339.413c-4.112,0-7.588-3.182-7.894-7.339c-0.325-4.368,2.958-8.162,7.32-8.487
					l294.298-21.667c4.462-0.337,8.163,2.958,8.481,7.314c0.325,4.368-2.958,8.162-7.32,8.487l-294.299,21.667
					C547.643,1339.4,547.449,1339.413,547.256,1339.413z"/>
			</g>
			<g>
				<path style="fill:#2D2B4E;" d="M979.911,1042.731c-0.169,0-0.343-0.012-0.518-0.025l-605.09-39.19
					c-4.368-0.275-7.676-4.044-7.395-8.412c0.281-4.356,3.888-7.763,8.418-7.389l605.09,39.19c4.368,0.275,7.676,4.044,7.395,8.412
					C987.537,1039.511,984.054,1042.731,979.911,1042.731z"/>
			</g>
			<g>
				<path style="fill:#454370;" d="M976.128,1029.675c-18.561-0.72-37.122-1.44-55.684-2.161c-3.922-0.152-3.915,5.942,0,6.094
					c18.561,0.72,37.122,1.44,55.684,2.16C980.05,1035.921,980.043,1029.827,976.128,1029.675L976.128,1029.675z"/>
			</g>
		</g>
	</g>
</g>
</svg>
