<?xml version="1.0" encoding="utf-8"?>
<!-- Generator: Adobe Illustrator 27.5.0, SVG Export Plug-In . SVG Version: 6.00 Build 0)  -->
<svg version="1.1" id="Layer_1" xmlns="http://www.w3.org/2000/svg" xmlns:xlink="http://www.w3.org/1999/xlink" x="0px" y="0px"
	 viewBox="0 0 900 900" style="enable-background:new 0 0 900 900;" xml:space="preserve">
<g>
	<g>
		
			<rect x="107.689" y="309.908" transform="matrix(0.9645 -0.264 0.264 0.9645 -125.1474 126.0598)" style="fill:#A2B2D6;" width="597.452" height="437.433"/>
	</g>
	<g>
		
			<rect x="111.462" y="294.347" transform="matrix(0.9645 -0.264 0.264 0.9645 -120.9051 126.5036)" style="fill:#F5F5F5;" width="597.452" height="437.433"/>
	</g>
	<g>
		
			<rect x="385.149" y="304.896" transform="matrix(0.9645 -0.264 0.264 0.9645 -64.6909 140.2488)" style="fill:#949AAA;" width="208.567" height="11.805"/>
		
			<rect x="422.466" y="327.195" transform="matrix(0.9645 -0.264 0.264 0.9645 -69.0293 146.6391)" style="fill:#949AAA;" width="177.12" height="5.867"/>
		
			<rect x="396.038" y="347.647" transform="matrix(0.9645 -0.264 0.264 0.9645 -74.8083 144.5367)" style="fill:#949AAA;" width="208.568" height="5.868"/>
		
			<rect x="400.501" y="363.947" transform="matrix(0.9645 -0.264 0.264 0.9645 -78.9535 146.293)" style="fill:#949AAA;" width="208.568" height="5.868"/>
		
			<rect x="404.963" y="380.247" transform="matrix(0.9645 -0.264 0.264 0.9645 -83.0989 148.0499)" style="fill:#949AAA;" width="208.567" height="5.868"/>
		
			<rect x="409.425" y="396.549" transform="matrix(0.9645 -0.264 0.264 0.9645 -87.2435 149.8044)" style="fill:#949AAA;" width="208.568" height="5.867"/>
		
			<rect x="414.116" y="413.684" transform="matrix(0.9645 -0.264 0.264 0.9645 -91.6019 151.6521)" style="fill:#949AAA;" width="208.567" height="5.869"/>
		
			<rect x="418.578" y="429.986" transform="matrix(0.9645 -0.264 0.264 0.9645 -95.7482 153.4104)" style="fill:#949AAA;" width="208.567" height="5.866"/>
		
			<rect x="423.99" y="453.36" transform="matrix(0.9645 -0.264 0.264 0.9645 -102.6769 148.5921)" style="fill:#949AAA;" width="154.982" height="5.867"/>
	</g>
	<g>
		<g>
			
				<rect x="243.546" y="700.937" transform="matrix(0.9645 -0.264 0.264 0.9645 -178.1886 91.4802)" style="fill:#54BAE2;" width="15.337" height="15.339"/>
			
				<rect x="271.144" y="695.463" transform="matrix(0.9645 -0.264 0.264 0.9645 -174.1529 100.9535)" style="fill:#949AAA;" width="34.735" height="5.867"/>
			
				<rect x="250.106" y="724.901" transform="matrix(0.9645 -0.264 0.264 0.9645 -184.2318 94.027)" style="fill:#F44D3B;" width="15.336" height="15.339"/>
			
				<rect x="276.914" y="713.559" transform="matrix(0.9645 -0.264 0.264 0.9645 -177.9371 108.9878)" style="fill:#949AAA;" width="79.193" height="5.867"/>
		</g>
		
			<rect x="306.604" y="663.78" transform="matrix(0.9645 -0.264 0.264 0.9645 -164.569 108.9659)" style="fill:#5A5A7A;" width="32.972" height="5.867"/>
		<g>
			
				<rect x="200.93" y="580.195" transform="matrix(0.9645 -0.2641 0.2641 0.9645 -159.1916 76.1208)" style="fill:#54BAE2;" width="5.204" height="99.942"/>
			
				<rect x="211.309" y="618.701" transform="matrix(0.9645 -0.2641 0.2641 0.9645 -163.6479 79.5197)" style="fill:#F44D3B;" width="5.207" height="59.34"/>
			
				<rect x="221.063" y="590.586" transform="matrix(0.9645 -0.264 0.264 0.9645 -159.1203 81.5032)" style="fill:#54BAE2;" width="5.208" height="84.325"/>
			
				<rect x="227.737" y="601.483" transform="matrix(0.9646 -0.2638 0.2638 0.9646 -159.9709 83.3305)" style="fill:#F44D3B;" width="5.203" height="71.832"/>
			
				<rect x="244.085" y="622.451" transform="matrix(0.9646 -0.2637 0.2637 0.9646 -161.5843 87.9114)" style="fill:#54BAE2;" width="5.206" height="46.848"/>
			
				<rect x="247.77" y="611.139" transform="matrix(0.9644 -0.2643 0.2643 0.9644 -160.1416 88.9128)" style="fill:#F44D3B;" width="5.207" height="56.965"/>
			
				<rect x="259.552" y="598.107" transform="matrix(0.9645 -0.264 0.264 0.9645 -157.3911 91.61)" style="fill:#54BAE2;" width="5.205" height="66.595"/>
			
				<rect x="270.98" y="644.411" transform="matrix(0.9645 -0.264 0.264 0.9645 -162.7993 95.4058)" style="fill:#F44D3B;" width="5.204" height="18.056"/>
			
				<rect x="274.736" y="571.654" transform="matrix(0.9645 -0.264 0.264 0.9645 -152.7827 95.0882)" style="fill:#54BAE2;" width="5.204" height="88.489"/>
			
				<rect x="278.383" y="560.054" transform="matrix(0.9645 -0.2641 0.2641 0.9645 -150.9982 95.8523)" style="fill:#F44D3B;" width="5.205" height="98.899"/>
			
				<rect x="297.622" y="602.496" transform="matrix(0.9645 -0.2639 0.2639 0.9645 -155.2501 101.5329)" style="fill:#54BAE2;" width="5.205" height="52.052"/>
			
				<rect x="297.283" y="561.241" transform="matrix(0.9646 -0.2638 0.2638 0.9646 -149.6369 100.6162)" style="fill:#F44D3B;" width="5.203" height="92.654"/>
			
				<rect x="313.909" y="584.255" transform="matrix(0.9645 -0.2642 0.2642 0.9645 -151.7527 105.5244)" style="fill:#54BAE2;" width="5.206" height="65.587"/>
			
				<rect x="319.518" y="587.259" transform="matrix(0.9645 -0.2642 0.2642 0.9645 -151.7961 107.0688)" style="fill:#F44D3B;" width="5.205" height="61.128"/>
			
				<rect x="335.42" y="604.904" transform="matrix(0.9645 -0.264 0.264 0.9645 -152.931 111.4102)" style="fill:#54BAE2;" width="5.208" height="39.527"/>
			
				<rect x="341.766" y="613.372" transform="matrix(0.9646 -0.2639 0.2639 0.9646 -153.5349 113.127)" style="fill:#F44D3B;" width="5.206" height="29.507"/>
			
				<rect x="355.829" y="617.309" transform="matrix(0.9645 -0.2641 0.2641 0.9645 -153.2101 116.9849)" style="fill:#75CF33;" width="5.204" height="21.862"/>
			
				<rect x="354.251" y="566.851" transform="matrix(0.9645 -0.2642 0.2642 0.9645 -146.5499 115.6761)" style="fill:#F2274D;" width="5.205" height="71.832"/>
			
				<rect x="366.344" y="556.118" transform="matrix(0.9645 -0.2641 0.2641 0.9645 -144.2278 118.5973)" style="fill:#75CF33;" width="5.204" height="79.12"/>
			
				<rect x="368.067" y="530.204" transform="matrix(0.9646 -0.2638 0.2638 0.9646 -140.4731 118.4119)" style="fill:#F2274D;" width="5.204" height="104.104"/>
			
				<rect x="388.403" y="580.827" transform="matrix(0.9645 -0.2642 0.2642 0.9645 -146.012 124.7963)" style="fill:#75CF33;" width="5.204" height="48.929"/>
			
				<rect x="394.423" y="586.898" transform="matrix(0.9645 -0.264 0.264 0.9645 -146.299 126.3534)" style="fill:#F2274D;" width="5.206" height="41.349"/>
			
				<rect x="409.088" y="595.309" transform="matrix(0.9645 -0.264 0.264 0.9645 -146.4237 130.3466)" style="fill:#75CF33;" width="5.204" height="29.148"/>
			
				<rect x="415.769" y="606.305" transform="matrix(0.9646 -0.2639 0.2639 0.9646 -147.3482 132.1853)" style="fill:#F2274D;" width="5.207" height="16.555"/>
		</g>
	</g>
	<g>
		<g>
			
				<rect x="181.646" y="494.51" transform="matrix(0.9645 -0.264 0.264 0.9645 -125.865 67.7992)" style="fill:#317AB0;" width="15.336" height="15.338"/>
			
				<rect x="208.103" y="480.574" transform="matrix(0.9645 -0.264 0.264 0.9645 -118.519 85.1484)" style="fill:#949AAA;" width="98.842" height="5.867"/>
			
				<rect x="188.204" y="518.475" transform="matrix(0.9645 -0.264 0.264 0.9645 -131.9442 70.3705)" style="fill:#F2274D;" width="15.337" height="15.337"/>
			
				<rect x="215.8" y="513" transform="matrix(0.9645 -0.264 0.264 0.9645 -127.9445 79.8692)" style="fill:#949AAA;" width="34.739" height="5.867"/>
			
				<rect x="194.765" y="542.439" transform="matrix(0.9645 -0.264 0.264 0.9645 -138.0604 72.9687)" style="fill:#FFD121;" width="15.336" height="15.337"/>
			
				<rect x="221.57" y="531.096" transform="matrix(0.9645 -0.264 0.264 0.9645 -131.7294 87.9037)" style="fill:#949AAA;" width="79.193" height="5.867"/>
		</g>
		
			<rect x="249.01" y="453.368" transform="matrix(0.9645 -0.264 0.264 0.9645 -111.051 86.2856)" style="fill:#949AAA;" width="32.971" height="5.867"/>
		<g>
			<polygon style="fill:#F2274D;" points="209.033,441.641 231.501,413.751 263.486,426.736 304.16,355.395 349.334,398.219 
				211.437,444.328 			"/>
			<polygon style="fill:#FFD121;" points="360.779,385.051 340.389,365.547 291.046,399.122 254.149,391.212 231.184,437.435 
				184.546,431.62 172.268,460.069 363.202,406.129 			"/>
			<polygon style="fill:#317AB0;" points="150.415,473.575 168.71,440.973 187.677,449.16 205.476,422.546 233.498,433.272 
				275.513,386.443 313.596,395.446 361.187,368.215 373.326,412.555 			"/>
		</g>
	</g>
	<g>
		<g>
			
				<rect x="491.226" y="633.138" transform="matrix(0.9645 -0.264 0.264 0.9645 -151.4805 154.4516)" style="fill:#6B2D6E;" width="15.337" height="15.338"/>
			
				<rect x="517.687" y="619.201" transform="matrix(0.9645 -0.264 0.264 0.9645 -144.134 171.8037)" style="fill:#949AAA;" width="98.84" height="5.867"/>
			
				<rect x="497.786" y="657.102" transform="matrix(0.9645 -0.264 0.264 0.9645 -157.5713 157.0297)" style="fill:#F2274D;" width="15.338" height="15.338"/>
			
				<rect x="525.385" y="651.628" transform="matrix(0.9645 -0.264 0.264 0.9645 -153.567 166.5352)" style="fill:#949AAA;" width="34.739" height="5.867"/>
		</g>
		
			<rect x="547.893" y="594.924" transform="matrix(0.9645 -0.264 0.264 0.9645 -137.8259 170.2291)" style="fill:#949AAA;" width="32.97" height="5.867"/>
		<g>
			<path style="fill:#F2274D;" d="M644.298,528.131c0.549,2.006-0.632,4.076-2.634,4.624c-2.006,0.549-4.077-0.631-4.628-2.637
				c-0.547-2.006,0.634-4.077,2.64-4.625C641.679,524.945,643.75,526.125,644.298,528.131z"/>
			<path style="fill:#F2274D;" d="M605.912,514.063c0.549,2.005-0.634,4.076-2.636,4.623c-2.003,0.549-4.078-0.63-4.628-2.635
				c-0.549-2.004,0.637-4.078,2.642-4.626C603.291,510.878,605.363,512.059,605.912,514.063z"/>
			<path style="fill:#F2274D;" d="M569.552,547.762c0.549,2.005-0.632,4.076-2.636,4.624c-2.004,0.549-4.077-0.632-4.626-2.636
				c-0.547-2.006,0.632-4.078,2.638-4.626C566.933,544.576,569.004,545.757,569.552,547.762z"/>
			<path style="fill:#F2274D;" d="M538.647,544.349c0.549,2.005-0.632,4.074-2.64,4.623c-2.002,0.549-4.075-0.631-4.624-2.636
				c-0.549-2.004,0.634-4.076,2.638-4.625C536.026,541.164,538.097,542.345,538.647,544.349z"/>
			<path style="fill:#F2274D;" d="M529.485,571.575c0.547,2.006-0.632,4.077-2.638,4.626c-2.003,0.548-4.076-0.633-4.626-2.638
				c-0.549-2.005,0.635-4.073,2.64-4.622C526.865,568.392,528.936,569.571,529.485,571.575z"/>
			<path style="fill:#F2274D;" d="M485.69,573.158c0.547,2.005-0.635,4.074-2.64,4.623c-2.003,0.549-4.074-0.63-4.623-2.636
				c-0.55-2.004,0.632-4.075,2.635-4.623C483.067,569.973,485.141,571.154,485.69,573.158z"/>
			<g>
				<path style="fill:#6B2D6E;" d="M460.75,598.883c0.549,2.005-0.632,4.075-2.638,4.623c-2.004,0.548-4.075-0.63-4.624-2.634
					c-0.549-2.006,0.632-4.077,2.636-4.625C458.13,595.698,460.202,596.878,460.75,598.883z"/>
				<path style="fill:#6B2D6E;" d="M476.084,524.777c0.55,2.006-0.633,4.076-2.639,4.625c-2.004,0.549-4.076-0.631-4.626-2.637
					c-0.547-2.003,0.634-4.076,2.638-4.625C473.464,521.591,475.536,522.773,476.084,524.777z"/>
				<path style="fill:#6B2D6E;" d="M517.327,550.186c0.549,2.005-0.63,4.073-2.632,4.621c-2.008,0.55-4.077-0.63-4.626-2.635
					c-0.549-2.004,0.63-4.076,2.638-4.626C514.711,546.998,516.777,548.18,517.327,550.186z"/>
				<path style="fill:#6B2D6E;" d="M541.286,506.678c0.551,2.006-0.632,4.075-2.634,4.624c-2.009,0.549-4.078-0.63-4.626-2.637
					c-0.549-2.004,0.63-4.074,2.64-4.624C538.669,503.492,540.738,504.674,541.286,506.678z"/>
				<path style="fill:#6B2D6E;" d="M570.041,524.961c0.549,2.007-0.635,4.078-2.642,4.627c-2.001,0.547-4.073-0.634-4.622-2.639
					c-0.548-2.003,0.634-4.076,2.634-4.624C567.418,521.777,569.491,522.958,570.041,524.961z"/>
				<path style="fill:#6B2D6E;" d="M587.475,479.174c0.55,2.005-0.634,4.076-2.635,4.624c-2.005,0.548-4.078-0.631-4.627-2.636
					c-0.55-2.005,0.634-4.077,2.639-4.625C584.853,475.99,586.925,477.169,587.475,479.174z"/>
				<path style="fill:#6B2D6E;" d="M620.53,492.542c0.549,2.005-0.636,4.077-2.637,4.625c-2.005,0.549-4.078-0.631-4.628-2.637
					c-0.547-2.004,0.636-4.076,2.641-4.625C617.907,489.357,619.979,490.539,620.53,492.542z"/>
				<path style="fill:#6B2D6E;" d="M643.536,478.94c0.549,2.004-0.632,4.076-2.638,4.624c-2.002,0.549-4.076-0.632-4.624-2.636
					c-0.551-2.005,0.634-4.078,2.638-4.626C640.916,475.754,642.987,476.935,643.536,478.94z"/>
				<g>
					<polygon style="fill:#6B2D6E;" points="457.999,600.848 455.547,600.321 471.916,523.956 513.063,549.48 537.68,506.302 
						565.865,524.397 581.795,478.653 617.427,492.734 639.107,479.182 640.439,481.31 617.683,495.534 583.304,481.948 
						567.188,528.228 538.552,509.844 513.955,552.987 473.622,527.967 					"/>
				</g>
			</g>
			<g>
				<path style="fill:#F2274D;" d="M464.593,610.152c0.55,2.004-0.629,4.075-2.633,4.624c-2.004,0.549-4.077-0.632-4.626-2.637
					c-0.549-2.004,0.632-4.076,2.638-4.626C461.975,606.966,464.044,608.148,464.593,610.152z"/>
				<g>
					<polygon style="fill:#F2274D;" points="461.174,613.309 458.996,612.065 480.632,572.89 525.251,571.397 534.462,543.865 
						564.8,548.743 601.88,512.482 640.734,528.382 639.782,530.706 602.453,515.429 565.653,551.422 536.123,546.674 
						527.042,573.844 482.12,575.348 					"/>
				</g>
			</g>
		</g>
	</g>
</g>
<g>
	<polygon style="fill:#A2B2D6;" points="840.457,190.591 425.911,125.776 406.058,240.968 405.979,241.416 405.979,241.416 
		330.802,678.555 760.962,753.797 849.486,192.397 	"/>
	<g>
		
			<rect x="317.425" y="226.562" transform="matrix(0.1698 -0.9855 0.9855 0.1698 70.656 946.9913)" style="fill:#F1F2F2;" width="559.973" height="409.993"/>
		
			<rect x="600.569" y="37.24" transform="matrix(0.1698 -0.9855 0.9855 0.1698 284.3148 821.9801)" style="fill:#5A5A7A;" width="58.945" height="409.992"/>
		
			<rect x="647.334" y="60.174" transform="matrix(0.1698 -0.9855 0.9855 0.1698 360.9638 801.8682)" style="fill:#5A5A7A;" width="18.189" height="253.022"/>
		<g>
			
				<rect x="639.26" y="131.178" transform="matrix(0.1698 -0.9855 0.9855 0.1698 282.0872 848.0174)" style="fill:#FFFFFF;" width="10.245" height="250.796"/>
			
				<rect x="642.583" y="81.512" transform="matrix(0.1698 -0.9855 0.9855 0.1698 303.8439 835.2896)" style="fill:#FFFFFF;" width="10.246" height="311.573"/>
		</g>
		
			<rect x="552.786" y="463.22" transform="matrix(0.1698 -0.9855 0.9855 0.1698 -196.4247 1103.2559)" style="fill:#5A5A7A;" width="7.674" height="409.991"/>
		<g>
			<path style="fill:#6B2D6E;" d="M553.26,393.453l1.661,79.71c14.631-0.827,28.568-5.154,40.82-12.271L553.26,393.453z"/>
			<path style="fill:#FFD121;" d="M556.499,386.036l44.906,71.286c18.966-12.939,33.083-32.927,38.122-56.976L556.499,386.036z"/>
			<path style="fill:#75CF33;" d="M640.665,393.746c6.464-47.65-25.054-92.293-72.119-102.154l-15.018,87.136L640.665,393.746z"/>
			<path style="fill:#F2274D;" d="M546.451,388.147l-67.516,51.887c13.488,16.301,32.643,28.049,55.127,31.925
				c4.754,0.819,9.485,1.254,14.163,1.333L546.451,388.147z"/>
			<path style="fill:#317AB0;" d="M459.159,365.861c-3.079,17.87-0.771,35.421,5.751,50.993l2.808,6.078
				c2.083,4.107,4.472,8.05,7.135,11.792l71.522-53.918l0.285-1.65l6.152-35.686l9.135-53.014
				C513.196,283.841,467.582,316.984,459.159,365.861z"/>
		</g>
		<g>
			
				<rect x="400.392" y="536.24" transform="matrix(0.1699 -0.9855 0.9855 0.1699 -158.0364 905.1768)" style="fill:#2E97CC;" width="115.722" height="20.303"/>
			
				<rect x="447.404" y="560.876" transform="matrix(0.1699 -0.9855 0.9855 0.1699 -159.5893 952.5977)" style="fill:#BCD81A;" width="76.472" height="20.301"/>
			
				<rect x="486.915" y="576.783" transform="matrix(0.1699 -0.9855 0.9855 0.1699 -151.4166 994.1195)" style="fill:#FFC022;" width="54.873" height="20.301"/>
			
				<rect x="524.272" y="590.228" transform="matrix(0.1699 -0.9855 0.9855 0.1699 -140.561 1033.8994)" style="fill:#8A379B;" width="38.236" height="20.303"/>
			
				<rect x="543.793" y="582.405" transform="matrix(0.1698 -0.9855 0.9855 0.1698 -105.612 1059.7444)" style="fill:#F44D3B;" width="64.797" height="20.304"/>
		</g>
		<g>
			
				<rect x="672.153" y="353.159" transform="matrix(0.1699 -0.9855 0.9855 0.1699 208.9188 967.6229)" style="fill:#317AB0;" width="13.294" height="13.294"/>
			
				<rect x="736.666" y="327.381" transform="matrix(0.1698 -0.9855 0.9855 0.1698 248.8231 1035.8105)" style="fill:#949AAA;" width="5.086" height="85.674"/>
			
				<rect x="668.495" y="374.382" transform="matrix(0.1698 -0.9855 0.9855 0.1698 185.0031 981.6652)" style="fill:#75CF33;" width="13.294" height="13.295"/>
			
				<rect x="705.63" y="371.668" transform="matrix(0.1698 -0.9855 0.9855 0.1698 206.8028 1018.9344)" style="fill:#949AAA;" width="5.086" height="30.109"/>
			
				<rect x="664.838" y="395.605" transform="matrix(0.1699 -0.9855 0.9855 0.1699 161.0159 995.65)" style="fill:#FFD121;" width="13.294" height="13.294"/>
			
				<rect x="720.959" y="376.896" transform="matrix(0.1698 -0.9855 0.9855 0.1698 195.3735 1054.3621)" style="fill:#949AAA;" width="5.086" height="68.642"/>
			
				<rect x="661.179" y="416.828" transform="matrix(0.1698 -0.9855 0.9855 0.1698 137.0878 1009.6832)" style="fill:#6B2D6E;" width="13.295" height="13.295"/>
			
				<rect x="708.706" y="405.361" transform="matrix(0.1699 -0.9855 0.9855 0.1699 165.7451 1058.6735)" style="fill:#949AAA;" width="5.085" height="51.196"/>
			
				<rect x="657.443" y="438.513" transform="matrix(0.1699 -0.9855 0.9855 0.1699 112.5761 1023.965)" style="fill:#F2274D;" width="13.294" height="13.295"/>
			
				<rect x="718.01" y="416.058" transform="matrix(0.1698 -0.9855 0.9855 0.1698 149.8864 1087.7119)" style="fill:#949AAA;" width="5.086" height="77.666"/>
		</g>
		<g>
			<path style="fill:#231F20;" d="M436.123,318.489c-0.602,3.48-3.91,5.815-7.391,5.216c-3.479-0.6-5.815-3.908-5.215-7.388
				c0.6-3.48,3.91-5.815,7.39-5.215C434.385,311.702,436.721,315.009,436.123,318.489z"/>
			<path style="fill:#231F20;" d="M407.578,484.11c-0.601,3.48-3.911,5.816-7.391,5.216c-3.478-0.6-5.815-3.907-5.214-7.387
				c0.6-3.482,3.908-5.815,7.387-5.216C405.841,477.323,408.177,480.63,407.578,484.11z"/>
		</g>
		<g>
			
				<rect x="686.363" y="470.852" transform="matrix(0.1699 -0.9855 0.9855 0.1699 48.7079 1123.9523)" style="fill:#5A5A7A;" width="10.231" height="124.428"/>
			
				<rect x="694.596" y="502.621" transform="matrix(0.1698 -0.9855 0.9855 0.1698 31.3497 1148.123)" style="fill:#949AAA;" width="5.086" height="105.666"/>
			
				<rect x="682.864" y="506.082" transform="matrix(0.1698 -0.9855 0.9855 0.1698 8.954 1147.2216)" style="fill:#949AAA;" width="5.088" height="124.428"/>
			
				<rect x="680.377" y="520.519" transform="matrix(0.1698 -0.9855 0.9855 0.1698 -7.3353 1156.7581)" style="fill:#949AAA;" width="5.085" height="124.428"/>
			
				<rect x="677.888" y="534.955" transform="matrix(0.1699 -0.9855 0.9855 0.1699 -23.6349 1166.2804)" style="fill:#949AAA;" width="5.086" height="124.428"/>
			
				<rect x="675.4" y="549.391" transform="matrix(0.1698 -0.9855 0.9855 0.1698 -39.9201 1175.8206)" style="fill:#949AAA;" width="5.085" height="124.428"/>
			
				<rect x="657.159" y="577.097" transform="matrix(0.1699 -0.9855 0.9855 0.1699 -66.6171 1167.5709)" style="fill:#949AAA;" width="5.086" height="92.458"/>
		</g>
		
			<rect x="528.313" y="476.078" transform="matrix(0.1698 -0.9855 0.9855 0.1698 -42.537 930.2402)" style="fill:#949AAA;" width="5.086" height="28.579"/>
		
			<rect x="504.529" y="614.08" transform="matrix(0.1698 -0.9855 0.9855 0.1698 -198.278 1021.3713)" style="fill:#5A5A7A;" width="5.086" height="28.579"/>
	</g>
</g>
<g>
	<polygon style="fill:#A2B2D6;" points="127.996,61.913 75.905,515.602 708.541,573.47 736.237,117.485 	"/>
	<g>
		<g>
			
				<rect x="187.605" y="3.928" transform="matrix(0.0875 -0.9962 0.9962 0.0875 67.0061 692.3071)" style="fill:#F7F7F7;" width="447.573" height="611.302"/>
		</g>
		<g>
			
				<rect x="553.279" y="36.982" transform="matrix(0.0875 -0.9962 0.9962 0.0875 367.2497 688.2849)" style="fill:#5A5A7A;" width="12.079" height="213.402"/>
			
				<rect x="570.163" y="79.291" transform="matrix(0.0875 -0.9962 0.9962 0.0875 353.7642 726.0054)" style="fill:#949AAA;" width="6.003" height="181.226"/>
			
				<rect x="552.623" y="79.022" transform="matrix(0.0875 -0.9962 0.9962 0.0875 322.0017 722.9678)" style="fill:#949AAA;" width="6.004" height="213.402"/>
			
				<rect x="551.111" y="96.247" transform="matrix(0.0875 -0.9962 0.9962 0.0875 303.4627 737.1798)" style="fill:#949AAA;" width="6.003" height="213.401"/>
			
				<rect x="549.598" y="113.472" transform="matrix(0.0875 -0.9962 0.9962 0.0875 284.9234 751.3909)" style="fill:#949AAA;" width="6.004" height="213.402"/>
			
				<rect x="548.086" y="130.699" transform="matrix(0.0875 -0.9962 0.9962 0.0875 266.3817 765.6018)" style="fill:#949AAA;" width="6.003" height="213.401"/>
			
				<rect x="546.495" y="148.807" transform="matrix(0.0875 -0.9962 0.9962 0.0875 246.8922 780.5428)" style="fill:#949AAA;" width="6.005" height="213.401"/>
			
				<rect x="544.982" y="166.034" transform="matrix(0.0875 -0.9962 0.9962 0.0875 228.3504 794.7536)" style="fill:#949AAA;" width="6.003" height="213.4"/>
			
				<rect x="516.161" y="208.273" transform="matrix(0.0875 -0.9962 0.9962 0.0875 187.2813 779.5726)" style="fill:#949AAA;" width="6.003" height="158.575"/>
		</g>
		<g>
			<g>
				
					<rect x="181.513" y="432.84" transform="matrix(0.0875 -0.9962 0.9962 0.0875 -266.1994 590.7753)" style="fill:#75CF33;" width="15.692" height="15.691"/>
				
					<rect x="225.77" y="426.376" transform="matrix(0.0875 -0.9962 0.9962 0.0875 -233.6898 633.1771)" style="fill:#949AAA;" width="6.004" height="35.542"/>
				
					<rect x="179.286" y="458.163" transform="matrix(0.0875 -0.9962 0.9962 0.0875 -293.4635 611.6432)" style="fill:#F2274D;" width="15.695" height="15.691"/>
				
					<rect x="246.202" y="430.946" transform="matrix(0.0875 -0.9962 0.9962 0.0875 -242.2529 678.4603)" style="fill:#949AAA;" width="6.003" height="81.03"/>
			</g>
			
				<rect x="270.21" y="409.171" transform="matrix(0.0875 -0.9962 0.9962 0.0875 -175.0964 660.9308)" style="fill:#5A5A7A;" width="6.003" height="33.736"/>
			<g>
				
					<rect x="120.363" y="345.814" transform="matrix(0.0875 -0.9962 0.9962 0.0875 -190.653 488.8194)" style="fill:#BCD81A;" width="102.257" height="5.325"/>
				
					<rect x="144.622" y="366.97" transform="matrix(0.0875 -0.9962 0.9962 0.0875 -208.5446 511.6054)" style="fill:#F95130;" width="60.715" height="5.327"/>
				
					<rect x="146.751" y="355.447" transform="matrix(0.0876 -0.9962 0.9962 0.0876 -183.4847 515.8863)" style="fill:#BCD81A;" width="86.28" height="5.329"/>
				
					<rect x="157.89" y="362.283" transform="matrix(0.0876 -0.9962 0.9962 0.0876 -185.9588 526.8544)" style="fill:#F95130;" width="73.498" height="5.325"/>
				
					<rect x="183.345" y="376.226" transform="matrix(0.0875 -0.9962 0.9962 0.0875 -188.2664 552.2454)" style="fill:#BCD81A;" width="47.933" height="5.325"/>
				
					<rect x="183.929" y="371.534" transform="matrix(0.0874 -0.9962 0.9962 0.0874 -178.3245 553.7349)" style="fill:#F95130;" width="58.285" height="5.329"/>
				
					<rect x="193.227" y="367.84" transform="matrix(0.0873 -0.9962 0.9962 0.0873 -161.6266 564.6029)" style="fill:#BCD81A;" width="68.138" height="5.326"/>
				
					<rect x="221.192" y="393.044" transform="matrix(0.0874 -0.9962 0.9962 0.0874 -183.8986 590.6748)" style="fill:#F95130;" width="18.473" height="5.323"/>
				
					<rect x="202.107" y="358.36" transform="matrix(0.0874 -0.9962 0.9962 0.0874 -133.8768 575.9138)" style="fill:#BCD81A;" width="90.54" height="5.325"/>
				
					<rect x="202.552" y="353.519" transform="matrix(0.0875 -0.9962 0.9962 0.0875 -123.8195 577.1924)" style="fill:#F95130;" width="101.192" height="5.326"/>
				
					<rect x="238.218" y="378.606" transform="matrix(0.0878 -0.9961 0.9961 0.0878 -138.1971 611.6277)" style="fill:#BCD81A;" width="53.258" height="5.325"/>
				
					<rect x="224.569" y="358.382" transform="matrix(0.0875 -0.9962 0.9962 0.0875 -111.4938 600.3672)" style="fill:#F95130;" width="94.802" height="5.324"/>
				
					<rect x="250.998" y="373.386" transform="matrix(0.0874 -0.9962 0.9962 0.0874 -114.9279 626.6467)" style="fill:#BCD81A;" width="67.107" height="5.327"/>
				
					<rect x="258.385" y="376.124" transform="matrix(0.0876 -0.9962 0.9962 0.0876 -113.0405 634.1597)" style="fill:#F95130;" width="62.546" height="5.325"/>
				
					<rect x="282.262" y="388.342" transform="matrix(0.0874 -0.9962 0.9962 0.0874 -113.4529 658.1751)" style="fill:#BCD81A;" width="40.444" height="5.329"/>
				
					<rect x="292.246" y="393.916" transform="matrix(0.0879 -0.9961 0.9961 0.0879 -114.705 667.8923)" style="fill:#F95130;" width="30.192" height="5.327"/>
				
					<rect x="309.609" y="399.026" transform="matrix(0.0875 -0.9962 0.9962 0.0875 -107.4142 686.1153)" style="fill:#BCD81A;" width="22.369" height="5.323"/>
				
					<rect x="291.586" y="374.024" transform="matrix(0.0875 -0.9962 0.9962 0.0875 -75.6425 670.7947)" style="fill:#F95130;" width="73.497" height="5.326"/>
				
					<rect x="301.98" y="371.521" transform="matrix(0.0877 -0.9961 0.9961 0.0877 -60.3344 682.4861)" style="fill:#BCD81A;" width="80.954" height="5.327"/>
				
					<rect x="295.621" y="359.256" transform="matrix(0.0875 -0.9962 0.9962 0.0875 -42.163 677.8098)" style="fill:#F95130;" width="106.517" height="5.325"/>
				
					<rect x="335.173" y="388.585" transform="matrix(0.0873 -0.9962 0.9962 0.0873 -60.9973 715.9203)" style="fill:#BCD81A;" width="50.063" height="5.328"/>
				
					<rect x="344.017" y="392.914" transform="matrix(0.0875 -0.9962 0.9962 0.0875 -60.8409 724.7346)" style="fill:#F95130;" width="42.308" height="5.326"/>
				
					<rect x="363.506" y="400.344" transform="matrix(0.0874 -0.9962 0.9962 0.0874 -56.1129 744.7618)" style="fill:#BCD81A;" width="29.824" height="5.323"/>
				
					<rect x="374.691" y="407.226" transform="matrix(0.0875 -0.9962 0.9962 0.0875 -58.7009 755.6939)" style="fill:#F95130;" width="16.938" height="5.328"/>
			</g>
		</g>
		<g>
			<g>
				
					<rect x="195.495" y="212.779" transform="matrix(0.0875 -0.9962 0.9962 0.0875 -34.2271 403.8852)" style="fill:#22BAD3;" width="15.693" height="15.692"/>
				
					<rect x="272.421" y="176.39" transform="matrix(0.0875 -0.9962 0.9962 0.0875 25.2391 481.4656)" style="fill:#949AAA;" width="6.002" height="101.132"/>
				
					<rect x="193.271" y="238.104" transform="matrix(0.0875 -0.9962 0.9962 0.0875 -61.4829 424.7805)" style="fill:#F95130;" width="15.693" height="15.692"/>
				
					<rect x="237.529" y="231.639" transform="matrix(0.0875 -0.9962 0.9962 0.0875 -28.9675 467.1995)" style="fill:#949AAA;" width="6.004" height="35.544"/>
				
					<rect x="191.047" y="263.427" transform="matrix(0.0875 -0.9962 0.9962 0.0875 -88.7373 445.6766)" style="fill:#FFD121;" width="15.693" height="15.693"/>
				
					<rect x="257.959" y="236.21" transform="matrix(0.0875 -0.9962 0.9962 0.0875 -37.5349 512.4745)" style="fill:#949AAA;" width="6.004" height="81.03"/>
			</g>
			
				<rect x="289.741" y="186.819" transform="matrix(0.0875 -0.9962 0.9962 0.0875 64.2236 477.4863)" style="fill:#5A5A7A;" width="6.003" height="33.737"/>
		</g>
		<g>
			<g>
				
					<rect x="443.249" y="455.827" transform="matrix(0.0875 -0.9962 0.9962 0.0875 -50.2499 872.4918)" style="fill:#6B2D6E;" width="15.693" height="15.692"/>
				
					<rect x="520.178" y="419.44" transform="matrix(0.0875 -0.9962 0.9962 0.0875 9.2025 950.0552)" style="fill:#949AAA;" width="6.003" height="101.128"/>
				
					<rect x="441.025" y="481.151" transform="matrix(0.0875 -0.9962 0.9962 0.0875 -77.5172 893.372)" style="fill:#F2274D;" width="15.694" height="15.692"/>
				
					<rect x="485.285" y="474.688" transform="matrix(0.0875 -0.9962 0.9962 0.0875 -44.9919 935.8047)" style="fill:#949AAA;" width="6.003" height="35.543"/>
			</g>
			
				<rect x="526.188" y="428.874" transform="matrix(0.0875 -0.9962 0.9962 0.0875 38.858 933.9042)" style="fill:#5A5A7A;" width="6.004" height="33.736"/>
			<g>
				<g>
					<g>
						<path style="fill:#FF365C;" d="M624.399,408.586c-0.113,0-0.228-0.004-0.343-0.013c-1.183-0.09-2.259-0.636-3.03-1.535
							c-0.771-0.899-1.146-2.045-1.055-3.228c0.176-2.296,2.117-4.096,4.419-4.096c0.114,0,0.228,0.004,0.343,0.013
							c2.438,0.187,4.27,2.322,4.083,4.76C628.64,406.786,626.7,408.586,624.399,408.586z"/>
						<path style="fill:#FF365C;" d="M624.39,400.389c0.097,0,0.194,0.004,0.292,0.011c2.07,0.159,3.62,1.965,3.461,4.035
							c-0.151,1.975-1.799,3.475-3.744,3.475c-0.096,0-0.193-0.004-0.291-0.011c-2.074-0.159-3.622-1.966-3.463-4.038
							C620.795,401.889,622.441,400.389,624.39,400.389 M624.39,399.039L624.39,399.039c-2.653,0-4.889,2.073-5.092,4.719
							c-0.104,1.362,0.327,2.683,1.216,3.719c0.889,1.036,2.129,1.665,3.491,1.769c0.132,0.01,0.263,0.015,0.394,0.015
							c2.652,0,4.888-2.074,5.091-4.723c0.104-1.361-0.328-2.681-1.216-3.716c-0.888-1.036-2.127-1.664-3.488-1.768
							C624.652,399.044,624.521,399.039,624.39,399.039L624.39,399.039z"/>
					</g>
				</g>
				<g>
					<g>
						<path style="fill:#FF365C;" d="M593.023,382.432c-0.113,0-0.227-0.004-0.342-0.013c-2.441-0.187-4.274-2.322-4.088-4.76
							c0.176-2.299,2.119-4.1,4.424-4.1c0.113,0,0.227,0.004,0.341,0.013c2.437,0.187,4.267,2.324,4.08,4.765
							C597.262,380.633,595.323,382.432,593.023,382.432z"/>
						<path style="fill:#FF365C;" d="M593.017,374.234c0.096,0,0.193,0.004,0.291,0.011c2.069,0.158,3.616,1.969,3.458,4.039
							c-0.151,1.973-1.797,3.472-3.741,3.472c-0.096,0-0.193-0.004-0.291-0.011c-2.07-0.158-3.625-1.964-3.466-4.035
							C589.418,375.738,591.07,374.234,593.017,374.234 M593.017,372.884L593.017,372.884c-2.655,0-4.894,2.075-5.096,4.723
							c-0.104,1.361,0.329,2.682,1.22,3.718c0.89,1.035,2.129,1.662,3.49,1.767c0.132,0.01,0.263,0.015,0.394,0.015
							c2.65,0,4.885-2.073,5.088-4.72c0.104-1.36-0.327-2.681-1.214-3.717c-0.888-1.038-2.127-1.667-3.487-1.771
							C593.278,372.889,593.147,372.884,593.017,372.884L593.017,372.884z"/>
					</g>
				</g>
				<g>
					<g>
						<path style="fill:#FF365C;" d="M547.477,401.893c-0.114,0-0.228-0.004-0.343-0.013c-1.181-0.09-2.256-0.635-3.027-1.534
							c-0.772-0.899-1.147-2.044-1.056-3.226c0.176-2.298,2.117-4.099,4.419-4.099c0.113,0,0.227,0.004,0.342,0.013
							c2.44,0.187,4.272,2.324,4.085,4.764C551.72,400.094,549.779,401.893,547.477,401.893z"/>
						<path style="fill:#FF365C;" d="M547.469,393.697c0.096,0,0.193,0.004,0.291,0.011c2.07,0.159,3.622,1.967,3.463,4.038
							c-0.151,1.972-1.801,3.472-3.747,3.472c-0.096,0-0.193-0.004-0.291-0.011c-2.07-0.159-3.621-1.965-3.462-4.035
							C543.874,395.198,545.523,393.697,547.469,393.697 M547.469,392.346L547.469,392.346c-2.653,0-4.89,2.074-5.093,4.723
							c-0.215,2.809,1.896,5.269,4.706,5.485c0.132,0.01,0.264,0.015,0.394,0.015c2.653,0,4.891-2.073,5.093-4.719
							c0.104-1.361-0.328-2.682-1.217-3.719c-0.889-1.037-2.128-1.665-3.489-1.769C547.731,392.351,547.599,392.346,547.469,392.346
							L547.469,392.346z"/>
					</g>
				</g>
				<g>
					<g>
						<path style="fill:#FF365C;" d="M519.554,388.28c-0.114,0-0.229-0.004-0.344-0.013c-1.182-0.09-2.258-0.635-3.028-1.534
							c-0.77-0.898-1.144-2.044-1.054-3.227c0.176-2.298,2.117-4.098,4.418-4.098c0.113,0,0.228,0.004,0.343,0.013
							c1.181,0.09,2.256,0.636,3.027,1.536c0.771,0.899,1.145,2.045,1.055,3.227C523.794,386.48,521.854,388.28,519.554,388.28z"/>
						<path style="fill:#FF365C;" d="M519.545,380.083c0.096,0,0.193,0.004,0.291,0.011c2.071,0.158,3.619,1.967,3.461,4.037
							c-0.151,1.975-1.797,3.473-3.744,3.473c-0.096,0-0.194-0.004-0.291-0.011c-2.072-0.159-3.62-1.963-3.461-4.035
							C515.952,381.585,517.597,380.083,519.545,380.083 M519.545,378.732L519.545,378.732c-2.652,0-4.888,2.074-5.091,4.722
							c-0.104,1.362,0.327,2.682,1.215,3.717c0.888,1.035,2.127,1.663,3.489,1.768c0.133,0.01,0.264,0.015,0.394,0.015
							c2.652,0,4.888-2.074,5.09-4.721c0.104-1.361-0.327-2.681-1.215-3.717c-0.888-1.037-2.128-1.666-3.489-1.77
							C519.807,378.737,519.675,378.732,519.545,378.732L519.545,378.732z"/>
					</g>
				</g>
				<g>
					<g>
						<path style="fill:#FF365C;" d="M501.768,410.808c-0.113,0-0.227-0.004-0.341-0.013c-2.44-0.187-4.273-2.323-4.087-4.761
							c0.176-2.296,2.118-4.095,4.422-4.095c0.113,0,0.227,0.004,0.342,0.013c2.44,0.187,4.272,2.322,4.086,4.76
							C506.013,409.008,504.071,410.808,501.768,410.808z"/>
						<path style="fill:#FF365C;" d="M501.761,402.614c0.096,0,0.193,0.004,0.291,0.011c2.07,0.158,3.622,1.964,3.464,4.034
							c-0.151,1.971-1.801,3.473-3.746,3.473c-0.096,0-0.193-0.004-0.291-0.011c-2.069-0.158-3.623-1.967-3.465-4.036
							C498.164,404.112,499.816,402.614,501.761,402.614 M501.761,401.263L501.761,401.263c-2.654,0-4.892,2.073-5.095,4.719
							c-0.104,1.36,0.329,2.681,1.219,3.717c0.89,1.036,2.129,1.665,3.489,1.769c0.132,0.01,0.263,0.015,0.394,0.015
							c2.653,0,4.89-2.073,5.093-4.721c0.104-1.361-0.328-2.681-1.218-3.717c-0.889-1.035-2.128-1.663-3.489-1.767
							C502.023,401.268,501.892,401.263,501.761,401.263L501.761,401.263z"/>
					</g>
				</g>
				<g>
					<g>
						<path style="fill:#FF365C;" d="M460.04,397.555c-0.113,0-0.227-0.004-0.342-0.013c-1.182-0.09-2.258-0.635-3.029-1.534
							c-0.771-0.898-1.146-2.044-1.056-3.227c0.176-2.297,2.117-4.097,4.419-4.097c0.114,0,0.228,0.004,0.343,0.013
							c1.18,0.09,2.255,0.635,3.028,1.535c0.773,0.9,1.149,2.046,1.059,3.227C464.287,395.755,462.344,397.555,460.04,397.555z"/>
						<path style="fill:#FF365C;" d="M460.032,389.359c0.097,0,0.194,0.004,0.292,0.011c2.067,0.158,3.625,1.966,3.466,4.036
							c-0.151,1.974-1.805,3.472-3.75,3.472c-0.096,0-0.193-0.004-0.291-0.011c-2.072-0.159-3.622-1.964-3.463-4.036
							C456.436,390.86,458.084,389.36,460.032,389.359 M460.032,388.009L460.032,388.009c-2.653,0-4.89,2.074-5.093,4.721
							c-0.104,1.362,0.328,2.682,1.217,3.718c0.889,1.036,2.128,1.663,3.49,1.768c0.132,0.01,0.263,0.015,0.394,0.015
							c2.655,0,4.894-2.073,5.096-4.72c0.104-1.361-0.329-2.681-1.221-3.718c-0.89-1.036-2.129-1.664-3.489-1.768
							C460.294,388.014,460.163,388.009,460.032,388.009L460.032,388.009z"/>
					</g>
				</g>
				<g>
					<g>
						<g>
							<g>
								<polygon style="fill:#7A3C7D;" points="425.444,397.452 467.414,329.738 497.69,367.799 535.383,335.464 555.72,361.855 
									586.003,324.306 615.053,349.784 640.337,344.262 641.16,348.03 613.977,353.967 586.48,329.856 555.648,368.084 
									534.815,341.04 497.162,373.335 467.806,336.428 428.724,399.484 								"/>
								<path style="fill:#7A3C7D;" d="M586.088,325.278l28.777,25.239l24.957-5.451l0.535,2.449l-26.191,5.72l-27.77-24.35
									l-30.736,38.108l-20.745-26.929l-37.661,32.302l-29.517-37.109l-39.231,63.297l-2.132-1.32l41.108-66.324l30.115,37.858
									l37.685-32.328l20.426,26.506L586.088,325.278 M585.92,323.335l-0.884,1.095l-29.304,36.335l-19.38-25.149l-0.869-1.128
									l-1.08,0.927l-36.621,31.415l-29.242-36.762l-1.194-1.501l-1.011,1.631l-41.109,66.324l-0.712,1.148l1.148,0.711l2.132,1.32
									l1.148,0.711l0.711-1.148l38.22-61.666l28.323,35.608l0.872,1.097l1.064-0.912l36.58-31.376l19.876,25.801l1.046,1.357
									l1.076-1.333l29.853-37.013l26.711,23.422l0.513,0.449l0.666-0.146l26.191-5.72l1.319-0.288l-0.288-1.319l-0.535-2.449
									l-0.288-1.32l-1.32,0.288l-24.291,5.306l-28.264-24.789L585.92,323.335L585.92,323.335z"/>
							</g>
						</g>
					</g>
				</g>
				<g>
					<g>
						<g>
							<path style="fill:#FF365C;" d="M427.747,425.255c-0.114,0-0.228-0.004-0.343-0.013c-1.181-0.09-2.256-0.635-3.026-1.535
								c-0.77-0.899-1.144-2.045-1.053-3.228c0.176-2.297,2.115-4.097,4.415-4.097c0.113,0,0.228,0.004,0.343,0.013
								c1.181,0.091,2.256,0.636,3.027,1.535c0.771,0.899,1.146,2.045,1.055,3.226C431.988,423.455,430.047,425.255,427.747,425.255
								z"/>
							<path style="fill:#FF365C;" d="M427.739,417.058c0.096,0,0.193,0.004,0.291,0.011c2.07,0.159,3.619,1.966,3.461,4.035
								c-0.151,1.975-1.799,3.476-3.744,3.476c-0.096,0-0.193-0.004-0.291-0.011c-2.071-0.159-3.617-1.965-3.458-4.038
								C424.148,418.559,425.792,417.058,427.739,417.058 M427.739,415.708L427.739,415.708c-2.651,0-4.885,2.073-5.088,4.72
								c-0.215,2.811,1.894,5.272,4.701,5.488c0.132,0.01,0.264,0.015,0.394,0.015c2.652,0,4.888-2.074,5.091-4.723
								c0.104-1.361-0.328-2.68-1.216-3.717c-0.889-1.036-2.128-1.664-3.488-1.769C428,415.713,427.869,415.708,427.739,415.708
								L427.739,415.708z"/>
						</g>
					</g>
					<g>
						<g>
							<g>
								<path style="fill:#FF365C;" d="M427.165,423.598c-0.181-0.013-0.348-0.097-0.466-0.234l-1.631-1.903
									c-0.24-0.28-0.211-0.702,0.066-0.946l33.538-29.566c0.125-0.11,0.285-0.169,0.447-0.169c0.069,0,0.139,0.011,0.206,0.032
									l42.029,13.47l17.639-22.429c0.132-0.168,0.33-0.258,0.531-0.258c0.11,0,0.222,0.027,0.325,0.083l26.6,14.635l46.778-21.49
									c0.09-0.042,0.186-0.061,0.282-0.061c0.163,0,0.325,0.06,0.451,0.173l31.192,28.035c0.277,0.25,0.3,0.676,0.052,0.953
									l-1.673,1.867c-0.12,0.133-0.288,0.214-0.466,0.224c-0.012,0-0.024,0.001-0.037,0.001c-0.166,0-0.327-0.061-0.451-0.173
									l-29.641-26.64l-46.331,21.286c-0.089,0.041-0.186,0.061-0.282,0.061c-0.112,0-0.224-0.028-0.326-0.083l-25.683-14.128
									l-17.33,22.051c-0.13,0.166-0.327,0.258-0.531,0.258c-0.069,0-0.138-0.01-0.206-0.032l-42.399-13.59l-32.19,28.407
									c-0.124,0.109-0.283,0.169-0.447,0.169C427.197,423.6,427.181,423.599,427.165,423.598z"/>
								<path style="fill:#FF365C;" d="M593.51,375.437l31.192,28.035l-1.673,1.866l-29.971-26.936l-46.734,21.472l-26.186-14.404
									l-17.684,22.501l-42.765-13.708l-32.478,28.66l-1.631-1.903l33.538-29.566l42.475,13.613l17.928-22.798l26.899,14.8
									L593.51,375.437 M593.51,374.087c-0.191,0-0.383,0.041-0.564,0.123l-46.469,21.348l-26.303-14.471
									c-0.205-0.113-0.429-0.167-0.65-0.167c-0.403,0-0.798,0.18-1.062,0.516l-17.348,22.06l-41.582-13.327
									c-0.135-0.043-0.274-0.065-0.412-0.065c-0.324,0-0.643,0.117-0.893,0.337l-33.538,29.566
									c-0.554,0.489-0.613,1.331-0.133,1.892l1.631,1.903c0.235,0.275,0.571,0.443,0.932,0.469
									c0.031,0.002,0.063,0.003,0.094,0.003c0.328,0,0.646-0.119,0.894-0.338l31.903-28.152l42.034,13.473
									c0.136,0.043,0.275,0.064,0.412,0.064c0.407,0,0.801-0.184,1.062-0.516l16.975-21.6l25.181,13.852
									c0.202,0.111,0.426,0.167,0.651,0.167c0.192,0,0.385-0.041,0.564-0.123L592.815,380l29.311,26.343
									c0.249,0.223,0.57,0.346,0.903,0.346c0.024,0,0.048-0.001,0.073-0.002c0.358-0.019,0.694-0.18,0.933-0.447l1.673-1.866
									c0.497-0.555,0.452-1.408-0.103-1.906l-31.192-28.035C594.159,374.205,593.836,374.087,593.51,374.087L593.51,374.087z"/>
							</g>
						</g>
					</g>
				</g>
			</g>
		</g>
	</g>
</g>
<g>
	<polygon style="fill:#F95130;" points="244.046,167.611 273.841,142.633 301.566,172.846 359.825,110.919 402.489,176.174 
		245.336,171.633 	"/>
	<polygon style="fill:#FFD121;" points="410.34,161.138 380.691,125.782 337.741,157.699 305.871,129.802 266.911,170.097 
		224.826,142.076 202.158,172.675 404.495,188.909 	"/>
	
		<polyline style="fill:none;stroke:#FFFFFF;stroke-width:3.7727;stroke-linecap:round;stroke-linejoin:round;stroke-miterlimit:10;" points="
		410.34,161.138 380.691,125.782 337.741,157.699 305.871,129.802 266.911,170.097 224.826,142.076 202.158,172.675 	"/>
	<polygon style="fill:#22BAD3;" points="176.383,177.786 205.593,153.102 220.837,167.747 247.43,148.624 270.436,168.943 
		321.7,138.186 359.764,172.201 416.109,152.378 411.845,199.216 	"/>
</g>
<polyline style="fill:none;stroke:#FFFFFF;stroke-width:3.7727;stroke-linecap:round;stroke-linejoin:round;stroke-miterlimit:10;" points="
	205.593,153.102 220.837,167.747 247.43,148.624 270.436,168.943 321.7,138.186 359.764,172.201 416.109,152.378 "/>
<path style="fill:#F7F7F7;stroke:#7A3C7D;stroke-width:2.8295;stroke-miterlimit:10;" d="M431.756,397.631
	c-0.159,2.072-1.966,3.621-4.038,3.463c-2.07-0.158-3.627-1.966-3.469-4.037c0.159-2.07,1.973-3.619,4.043-3.461
	C430.364,393.754,431.915,395.561,431.756,397.631z"/>
<path style="fill:#F7F7F7;stroke:#7A3C7D;stroke-width:2.8295;stroke-miterlimit:10;" d="M471.126,333.085
	c-0.159,2.072-1.969,3.622-4.042,3.463c-2.066-0.158-3.622-1.966-3.463-4.038c0.158-2.069,1.972-3.621,4.038-3.463
	C469.731,329.206,471.284,331.016,471.126,333.085z"/>
<path style="fill:#F7F7F7;stroke:#7A3C7D;stroke-width:2.8295;stroke-miterlimit:10;" d="M501.365,370.865
	c-0.159,2.073-1.961,3.62-4.031,3.462c-2.071-0.159-3.621-1.963-3.462-4.036c0.158-2.07,1.965-3.622,4.036-3.463
	C499.978,366.987,501.524,368.796,501.365,370.865z"/>
<path style="fill:#F7F7F7;stroke:#7A3C7D;stroke-width:2.8295;stroke-miterlimit:10;" d="M538.553,338.005
	c-0.159,2.074-1.971,3.623-4.038,3.465c-2.075-0.159-3.626-1.965-3.467-4.039c0.158-2.069,1.966-3.619,4.041-3.46
	C537.156,334.128,538.711,335.936,538.553,338.005z"/>
<path style="fill:#F7F7F7;stroke:#7A3C7D;stroke-width:2.8295;stroke-miterlimit:10;" d="M559.443,364.883
	c-0.159,2.071-1.973,3.62-4.041,3.462c-2.067-0.158-3.617-1.965-3.458-4.036c0.159-2.07,1.965-3.622,4.033-3.464
	C558.045,361.003,559.602,362.813,559.443,364.883z"/>
<path style="fill:#F7F7F7;stroke:#7A3C7D;stroke-width:2.8295;stroke-miterlimit:10;" d="M591.253,327.679
	c-0.159,2.072-1.965,3.621-4.034,3.462c-2.074-0.159-3.622-1.964-3.464-4.036c0.159-2.07,1.964-3.622,4.038-3.463
	C589.862,323.8,591.411,325.609,591.253,327.679z"/>
<path style="fill:#F7F7F7;stroke:#7A3C7D;stroke-width:2.8295;stroke-miterlimit:10;" d="M617.849,351.379
	c-0.159,2.07-1.965,3.621-4.032,3.463c-2.075-0.159-3.631-1.968-3.473-4.038c0.159-2.07,1.972-3.621,4.047-3.463
	C616.458,347.501,618.007,349.309,617.849,351.379z"/>
<path style="fill:#F7F7F7;stroke:#7A3C7D;stroke-width:2.8295;stroke-miterlimit:10;" d="M644.073,346.327
	c-0.159,2.069-1.969,3.622-4.039,3.463c-2.067-0.158-3.62-1.968-3.462-4.038c0.158-2.069,1.969-3.622,4.036-3.463
	C642.678,342.448,644.232,344.258,644.073,346.327z"/>
<g>
	<g>
		<path style="fill:#A2B2D6;" d="M733.617,594.909l-47.79-338.327c-1.458-10.319-11.005-17.502-21.326-16.044l-521.228,73.628
			c-10.319,1.458-17.502,11.005-16.046,21.323l47.791,338.327c1.457,10.317,11.005,17.501,21.325,16.044l521.229-73.628
			C727.891,614.773,735.076,605.227,733.617,594.909z"/>
		<g>
			<g>
				<g>
					<path style="fill:#3F4751;" d="M748.554,583.359c1.373,10.447-5.983,20.03-16.433,21.404l-527.772,69.382
						c-10.45,1.372-20.033-5.983-21.407-16.432l-45.034-342.574c-1.372-10.448,5.984-20.031,16.434-21.405l527.771-69.381
						c10.45-1.373,20.033,5.983,21.407,16.431L748.554,583.359z"/>
					<g style="opacity:0.3;">
						<path style="fill:#231F20;" d="M684.623,230.79c6.227,0,11.536,4.666,12.35,10.854l45.035,342.575
							c0.434,3.304-0.444,6.58-2.474,9.223c-2.03,2.644-4.968,4.339-8.273,4.774l-527.771,69.382
							c-0.547,0.072-1.102,0.108-1.651,0.108c-6.227,0-11.537-4.667-12.351-10.855l-45.035-342.574
							c-0.896-6.822,3.926-13.102,10.749-13.999l527.77-69.38C683.521,230.826,684.077,230.79,684.623,230.79 M684.623,226.074
							c-0.752,0-1.514,0.05-2.266,0.149l-527.771,69.38c-9.4,1.236-16.044,9.889-14.809,19.289l45.035,342.575
							c1.122,8.526,8.441,14.956,17.027,14.956c0.751,0,1.514-0.05,2.265-0.148l527.772-69.382
							c4.554-0.599,8.603-2.935,11.399-6.578c2.797-3.643,4.007-8.157,3.409-12.709l-45.035-342.576
							C700.527,232.503,693.208,226.074,684.623,226.074L684.623,226.074z"/>
					</g>
					<path style="fill:none;stroke:#BFC9D8;stroke-width:5.659;stroke-miterlimit:10;" d="M748.554,583.359
						c1.373,10.447-5.983,20.03-16.433,21.404l-527.772,69.382c-10.45,1.372-20.033-5.983-21.407-16.432l-45.034-342.574
						c-1.372-10.448,5.984-20.031,16.434-21.405l527.771-69.381c10.45-1.373,20.033,5.983,21.407,16.431L748.554,583.359z"/>
				</g>
			</g>
			<g>
				<g style="opacity:0.3;">
					<polygon style="fill:#FFFFFF;" points="402.287,652.841 253.152,671.14 339.238,266.369 488.374,248.07 					"/>
				</g>
			</g>
			<path style="fill:#3F4751;" d="M425.721,280.546c0.333,2.534-1.45,4.859-3.985,5.192c-2.533,0.332-4.859-1.452-5.191-3.986
				c-0.333-2.534,1.451-4.859,3.984-5.191C423.064,276.228,425.387,278.013,425.721,280.546z"/>
			<g>
				<g>
					
						<rect x="206.319" y="300.321" transform="matrix(0.9915 -0.1303 0.1303 0.9915 -54.7203 61.5927)" style="fill:#FFFFFF;" width="473.714" height="297.019"/>
				</g>
			</g>
		</g>
		<g>
			<g>
				<g>
					<path style="fill:#72BDBA;" d="M612.837,423.561c-0.212,0-0.423-0.047-0.617-0.142c-0.345-0.167-0.608-0.468-0.728-0.833
						l-12.805-39.131c-0.198-0.604,0.032-1.266,0.561-1.618c0.239-0.158,0.512-0.236,0.783-0.236c0.332,0,0.662,0.116,0.926,0.345
						l31.128,26.929c0.29,0.251,0.466,0.61,0.487,0.993c0.021,0.384-0.115,0.759-0.377,1.04c-5.21,5.602-11.736,9.947-18.872,12.566
						C613.167,423.533,613.002,423.561,612.837,423.561z"/>
					<path style="fill:#FFFFFF;" d="M600.033,383.016l31.129,26.93c-4.986,5.359-11.221,9.594-18.324,12.201L600.033,383.016
						 M600.032,380.186c-0.544,0-1.089,0.156-1.566,0.474c-1.059,0.704-1.518,2.028-1.122,3.236l12.805,39.131
						c0.239,0.73,0.764,1.331,1.455,1.666c0.389,0.188,0.811,0.283,1.234,0.283c0.329,0,0.659-0.058,0.975-0.173
						c7.343-2.695,14.058-7.167,19.421-12.931c0.523-0.563,0.795-1.313,0.754-2.08c-0.041-0.767-0.393-1.484-0.974-1.987
						l-31.129-26.929C601.356,380.419,600.695,380.186,600.032,380.186L600.032,380.186z"/>
				</g>
			</g>
			<g>
				<g>
					<path style="fill:#FFD121;" d="M633.421,408.745c-0.338,0-0.667-0.121-0.926-0.345l-32.902-28.467
						c-0.422-0.366-0.59-0.945-0.428-1.48c0.162-0.535,0.624-0.924,1.178-0.994l43.169-5.415c0.059-0.007,0.118-0.011,0.176-0.011
						c0.321,0,0.635,0.109,0.888,0.313c0.299,0.241,0.487,0.593,0.521,0.975c1.125,12.607-2.63,24.999-10.574,34.894
						c-0.24,0.299-0.592,0.488-0.975,0.523C633.507,408.743,633.464,408.745,633.421,408.745z"/>
					<path style="fill:#FFFFFF;" d="M643.689,373.448c1.128,12.638-2.846,24.637-10.268,33.882l-32.902-28.467L643.689,373.448
						 M643.689,370.619c-0.117,0-0.235,0.007-0.352,0.022l-43.169,5.416c-1.109,0.139-2.032,0.918-2.356,1.987
						c-0.324,1.069,0.012,2.229,0.857,2.96l32.902,28.467c0.516,0.447,1.174,0.69,1.851,0.69c0.085,0,0.17-0.004,0.256-0.012
						c0.765-0.069,1.469-0.447,1.951-1.046c8.174-10.181,12.037-22.932,10.88-35.905c-0.068-0.765-0.445-1.47-1.042-1.952
						C644.959,370.838,644.332,370.619,643.689,370.619L643.689,370.619z"/>
				</g>
			</g>
			<g>
				<g>
					<path style="fill:#FF6464;" d="M597.95,377.115c-0.313,0-0.619-0.103-0.868-0.297c-0.296-0.23-0.489-0.569-0.536-0.941
						l-5.68-45.309c-0.048-0.381,0.061-0.765,0.302-1.064c0.241-0.299,0.593-0.487,0.976-0.521c1.449-0.129,2.919-0.195,4.368-0.195
						c24.051,0,44.298,17.244,48.143,41.003c0.062,0.379-0.034,0.767-0.264,1.074c-0.23,0.307-0.575,0.508-0.956,0.556
						l-45.309,5.684C598.067,377.111,598.008,377.115,597.95,377.115z"/>
					<path style="fill:#FFFFFF;" d="M596.513,330.202c22.997,0,43.007,16.71,46.746,39.814L597.95,375.7l-5.68-45.309
						C593.693,330.264,595.108,330.202,596.513,330.202 M596.513,327.372c-1.491,0-3.003,0.067-4.494,0.201
						c-0.765,0.068-1.469,0.445-1.951,1.042c-0.482,0.598-0.7,1.366-0.605,2.128l5.68,45.309c0.093,0.745,0.479,1.422,1.071,1.882
						c0.499,0.388,1.111,0.595,1.736,0.595c0.117,0,0.235-0.007,0.352-0.022l45.309-5.684c0.762-0.095,1.452-0.497,1.913-1.111
						c0.46-0.615,0.651-1.39,0.528-2.148c-1.909-11.796-7.987-22.549-17.116-30.278
						C619.863,331.603,608.348,327.372,596.513,327.372L596.513,327.372z"/>
				</g>
			</g>
			<g>
				<g>
					<path style="fill:#A2B2D6;" d="M596.39,426.476c-9.564,0-18.849-2.798-26.853-8.091c-0.32-0.212-0.541-0.545-0.611-0.922
						c-0.07-0.378,0.017-0.768,0.24-1.08l25.552-35.787c0.268-0.375,0.699-0.592,1.151-0.592c0.071,0,0.143,0.005,0.214,0.016
						c0.528,0.081,0.965,0.451,1.131,0.958l13.679,41.8c0.12,0.365,0.085,0.764-0.095,1.103c-0.18,0.34-0.491,0.591-0.86,0.697
						c-2.409,0.689-4.902,1.199-7.41,1.514C600.492,426.347,598.427,426.476,596.39,426.476L596.39,426.476z"/>
					<path style="fill:#FFFFFF;" d="M595.869,381.418l13.679,41.8c-2.325,0.666-4.727,1.16-7.197,1.47
						c-2.004,0.251-3.993,0.374-5.961,0.374c-9.517,0-18.522-2.863-26.073-7.857L595.869,381.418 M595.869,378.588
						c-0.905,0-1.766,0.435-2.302,1.185l-25.553,35.787c-0.446,0.625-0.619,1.405-0.479,2.16c0.14,0.755,0.581,1.421,1.221,1.845
						c8.236,5.447,17.792,8.326,27.634,8.326c2.096,0,4.22-0.133,6.314-0.396c2.578-0.323,5.144-0.848,7.624-1.557
						c0.739-0.212,1.36-0.715,1.721-1.394c0.36-0.679,0.429-1.476,0.19-2.206l-13.679-41.8c-0.332-1.014-1.206-1.755-2.261-1.917
						C596.154,378.599,596.011,378.588,595.869,378.588L595.869,378.588z"/>
				</g>
			</g>
			<g>
				<g>
					<path style="fill:#B74FB0;" d="M567.502,416.611c-0.311,0-0.615-0.102-0.864-0.294c-1.946-1.5-3.782-3.147-5.457-4.895
						l-2.334-2.619c-5.955-7.181-9.698-15.845-10.857-25.093c-3.287-26.217,14.558-50.062,40.624-54.285
						c0.075-0.012,0.151-0.018,0.226-0.018c0.304,0,0.602,0.098,0.848,0.282c0.307,0.23,0.508,0.575,0.556,0.957l5.89,46.981
						c0.044,0.357-0.048,0.718-0.26,1.009l-27.229,37.394c-0.225,0.309-0.565,0.513-0.943,0.567
						C567.636,416.606,567.569,416.611,567.502,416.611z"/>
					<path style="fill:#FFFFFF;" d="M588.841,330.821l3.456,27.567l2.326,18.555l0.108,0.858l-27.229,37.394
						c-1.88-1.45-3.655-3.038-5.299-4.753l-2.299-2.581c-5.565-6.712-9.345-15.037-10.51-24.328
						C546.208,358.119,563.762,334.885,588.841,330.821 M588.841,327.992c-0.151,0-0.302,0.012-0.453,0.037
						c-12.877,2.086-24.289,8.992-32.133,19.444c-7.865,10.479-11.298,23.411-9.668,36.414c1.193,9.516,5.045,18.431,11.139,25.782
						c0.021,0.026,0.043,0.051,0.065,0.076l2.299,2.581c0.023,0.026,0.046,0.051,0.07,0.076c1.723,1.799,3.612,3.493,5.614,5.037
						c0.498,0.384,1.106,0.589,1.728,0.589c0.133,0,0.267-0.01,0.401-0.029c0.756-0.108,1.436-0.518,1.886-1.135l27.229-37.394
						c0.424-0.582,0.61-1.303,0.52-2.017l-0.108-0.858l-2.326-18.556l-3.456-27.567c-0.096-0.762-0.497-1.452-1.112-1.913
						C590.044,328.188,589.448,327.992,588.841,327.992L588.841,327.992z"/>
				</g>
			</g>
		</g>
		<g>
			<g>
				<g>
					<g>
						
							<rect x="564.043" y="459.325" transform="matrix(0.9914 -0.1312 0.1312 0.9914 -56.2579 78.9665)" style="fill:#72BDBA;" width="14.172" height="14.173"/>
						<path style="fill:#FFFFFF;" d="M575.602,460.574l1.364,10.31l-10.309,1.364l-1.364-10.31L575.602,460.574 M578.847,456.339
							l-3.74,0.495l-10.309,1.364l-3.74,0.495l0.495,3.74l1.364,10.31l0.495,3.74l3.74-0.495l10.309-1.364l3.74-0.495l-0.495-3.74
							l-1.364-10.31L578.847,456.339L578.847,456.339z"/>
					</g>
				</g>
				
					<rect x="585.157" y="458.133" transform="matrix(0.9914 -0.1312 0.1312 0.9914 -55.0158 85.1388)" style="fill:#5A5A7A;" width="67.023" height="3.978"/>
				<g>
					<g>
						
							<rect x="566.253" y="476.029" transform="matrix(0.9914 -0.1311 0.1311 0.9914 -58.4021 79.3566)" style="fill:#FF6464;" width="14.171" height="14.173"/>
						<path style="fill:#FFFFFF;" d="M577.811,477.278l1.364,10.31l-10.309,1.364l-1.364-10.31L577.811,477.278 M581.057,473.043
							l-3.74,0.495l-10.309,1.364l-3.74,0.495l0.495,3.74l1.364,10.31l0.495,3.74l3.74-0.495l10.309-1.364l3.74-0.495l-0.495-3.74
							l-1.364-10.31L581.057,473.043L581.057,473.043z"/>
					</g>
				</g>
				
					<rect x="587.555" y="477.685" transform="matrix(0.9914 -0.1312 0.1312 0.9914 -57.748 82.7712)" style="fill:#5A5A7A;" width="23.556" height="3.979"/>
				<g>
					<g>
						
							<rect x="568.463" y="492.73" transform="matrix(0.9914 -0.1312 0.1312 0.9914 -60.6041 79.8375)" style="fill:#FFD121;" width="14.171" height="14.173"/>
						<path style="fill:#FFFFFF;" d="M580.021,493.979l1.364,10.311l-10.309,1.364l-1.364-10.31L580.021,493.979 M583.266,489.744
							l-3.74,0.495l-10.309,1.364l-3.74,0.495l0.495,3.74l1.364,10.31l0.495,3.74l3.74-0.495l10.309-1.364l3.74-0.495l-0.495-3.74
							l-1.364-10.31L583.266,489.744L583.266,489.744z"/>
					</g>
				</g>
				
					<rect x="589.634" y="492.41" transform="matrix(0.9914 -0.1312 0.1312 0.9914 -59.531 85.1477)" style="fill:#5A5A7A;" width="53.701" height="3.979"/>
				<g>
					<g>
						
							<rect x="570.527" y="509.956" transform="matrix(0.9914 -0.1312 0.1312 0.9914 -62.8449 80.2548)" style="fill:#B74FB0;" width="14.171" height="14.173"/>
						<path style="fill:#FFFFFF;" d="M582.085,511.205l1.364,10.31l-10.309,1.364l-1.364-10.31L582.085,511.205 M585.331,506.97
							l-3.74,0.495l-10.309,1.364l-3.74,0.495l0.495,3.74l1.364,10.311l0.495,3.74l3.74-0.495l10.309-1.364l3.74-0.495l-0.495-3.74
							l-1.364-10.31L585.331,506.97L585.331,506.97z"/>
					</g>
				</g>
				
					<rect x="591.698" y="509.636" transform="matrix(0.9914 -0.1312 0.1312 0.9914 -61.7738 85.5686)" style="fill:#5A5A7A;" width="53.701" height="3.979"/>
			</g>
		</g>
		<g>
			<path style="opacity:0.6;fill:#BAB7F7;" d="M251.146,513.508c44.965-5.865,19.35-111.22,84.066-116.457
				c70.464-5.702,56.677,135.519,173.154,120.327c7.363-0.96,14.297-2.108,20.828-3.417l1.851,16.649l-271.847,36.315
				L251.146,513.508z"/>
			<path style="opacity:0.5;fill:#FF7D55;" d="M245.657,473.158c30.124-3.929,50.138,14.618,62.369,26.471
				c18.884,18.301,54.032,22.658,73.506-8.599c31.179-50.043,68.053-50.404,101.653-21.663
				c13.288,11.366,28.048,16.678,42.003,15.029l4.745,44.823l-271.993,35.819L245.657,473.158z"/>
			<path style="opacity:0.4;fill:#CE8FFF;" d="M527.936,512.074c-6.53,1.309-13.465,2.457-20.828,3.417
				c-55.984,7.302-81.873-21.531-101.489-52.816c-8.287,6.612-16.362,15.957-24.087,28.355
				c-19.474,31.257-54.622,26.899-73.506,8.599c-7.178-6.956-17.042-16.214-30.052-21.885c-5.231,17.389-12.17,31.269-27.195,33.727
				l7.161,53.566l271.734-35.56L527.936,512.074z"/>
			<path style="fill:#FFD121;" d="M416.896,543.971l-11.009-80.869c-14.708-23.371-25.852-48.196-43.379-60.406l18.587,146.02
				L416.896,543.971z"/>
			<g>
				<g>
					<g>
						
							<line style="fill:none;stroke:#FFFFFF;stroke-width:2.3368;stroke-linecap:round;stroke-miterlimit:10;" x1="405.908" y1="463.11" x2="406.211" y2="465.427"/>
						
							<line style="fill:none;stroke:#FFFFFF;stroke-width:2.3368;stroke-linecap:round;stroke-miterlimit:10;stroke-dasharray:4.7681,7.1522;" x1="407.136" y1="472.519" x2="415.924" y2="539.894"/>
						
							<line style="fill:none;stroke:#FFFFFF;stroke-width:2.3368;stroke-linecap:round;stroke-miterlimit:10;" x1="416.386" y1="543.44" x2="416.689" y2="545.757"/>
					</g>
				</g>
			</g>
			<g>
				<g>
					<g>
						
							<line style="fill:none;stroke:#FFFFFF;stroke-width:2.3368;stroke-linecap:round;stroke-miterlimit:10;" x1="451.503" y1="449.307" x2="451.805" y2="451.624"/>
						
							<line style="fill:none;stroke:#FFFFFF;stroke-width:2.3368;stroke-linecap:round;stroke-miterlimit:10;stroke-dasharray:4.5507,6.8261;" x1="452.688" y1="458.393" x2="462.547" y2="533.977"/>
						
							<line style="fill:none;stroke:#FFFFFF;stroke-width:2.3368;stroke-linecap:round;stroke-miterlimit:10;" x1="462.988" y1="537.362" x2="463.291" y2="539.679"/>
					</g>
				</g>
			</g>
			<g>
				<g>
					<g>
						
							<line style="fill:none;stroke:#FFFFFF;stroke-width:2.3368;stroke-linecap:round;stroke-miterlimit:10;" x1="362.602" y1="405.125" x2="362.904" y2="407.442"/>
						
							<line style="fill:none;stroke:#FFFFFF;stroke-width:2.3368;stroke-linecap:round;stroke-miterlimit:10;stroke-dasharray:4.8216,7.2324;" x1="363.84" y1="414.613" x2="380.522" y2="542.507"/>
						
							<line style="fill:none;stroke:#FFFFFF;stroke-width:2.3368;stroke-linecap:round;stroke-miterlimit:10;" x1="380.99" y1="546.093" x2="381.292" y2="548.41"/>
					</g>
				</g>
			</g>
			<g>
				<g>
					<g>
						
							<line style="fill:none;stroke:#FFFFFF;stroke-width:2.3368;stroke-linecap:round;stroke-miterlimit:10;" x1="278.461" y1="479.733" x2="278.763" y2="482.05"/>
						
							<line style="fill:none;stroke:#FFFFFF;stroke-width:2.3368;stroke-linecap:round;stroke-miterlimit:10;stroke-dasharray:4.7681,7.1522;" x1="279.688" y1="489.142" x2="288.476" y2="556.517"/>
						
							<line style="fill:none;stroke:#FFFFFF;stroke-width:2.3368;stroke-linecap:round;stroke-miterlimit:10;" x1="288.939" y1="560.063" x2="289.241" y2="562.38"/>
					</g>
				</g>
			</g>
			<path style="fill:none;stroke:#8C83DD;stroke-width:3.1158;stroke-miterlimit:10;" d="M459.672,511.79
				c12.979,4.504,28.483,6.173,47.436,3.701c7.363-0.96,14.297-2.108,20.828-3.417"/>
			<path style="fill:none;stroke:#8C83DD;stroke-width:3.1158;stroke-miterlimit:10;" d="M249.889,511.621
				c44.966-5.865,19.35-111.22,84.066-116.457c58.999-4.775,58.933,93.45,125.718,116.625"/>
			<path style="fill:none;stroke:#FF7261;stroke-width:2.4718;stroke-miterlimit:10;" d="M405.69,462.614
				c25.143-20.01,52.244-14.846,77.495,6.753c13.288,11.366,28.048,16.678,42.003,15.029"/>
			<path style="fill:none;stroke:#FFFFFF;stroke-width:2.4718;stroke-miterlimit:10;" d="M374.71,499.943
				c2.43-2.573,4.717-5.535,6.822-8.913c7.747-12.434,15.845-21.801,24.158-28.416"/>
			<path style="fill:none;stroke:#FF7261;stroke-width:2.4718;stroke-miterlimit:10;" d="M245.657,473.158
				c30.124-3.929,50.138,14.618,62.369,26.471c16.843,16.323,46.625,21.554,66.684,0.314"/>
			<g>
				<g>
					<g>
						<polyline style="fill:none;stroke:#3F4751;stroke-width:3.8947;stroke-miterlimit:10;" points="235.185,390.576 
							257.941,565.037 532.039,529.287 						"/>
						<g>
							<polygon style="fill:#3F4751;" points="233.762,379.669 229.486,395.858 235.291,391.391 242.045,394.22 							"/>
						</g>
						<g>
							<polygon style="fill:#3F4751;" points="542.946,527.864 528.395,536.149 531.223,529.393 526.757,523.59 							"/>
						</g>
					</g>
				</g>
			</g>
			<path style="fill:#FFFFFF;stroke:#FF6464;stroke-width:2.3368;stroke-miterlimit:10;" d="M274.136,478.202
				c-0.292-2.24,1.287-4.293,3.527-4.585c2.24-0.292,4.293,1.287,4.585,3.527c0.292,2.24-1.287,4.293-3.527,4.585
				C276.481,482.021,274.428,480.442,274.136,478.202z"/>
			<path style="fill:#FFFFFF;stroke:#FF6464;stroke-width:2.3368;stroke-miterlimit:10;" d="M242.165,473.993
				c-0.292-2.24,1.287-4.293,3.527-4.585c2.24-0.292,4.293,1.287,4.585,3.527c0.292,2.24-1.287,4.292-3.527,4.585
				C244.51,477.812,242.457,476.233,242.165,473.993z"/>
			<path style="fill:#FFFFFF;stroke:#FF6464;stroke-width:2.3368;stroke-miterlimit:10;" d="M401.853,463.639
				c-0.292-2.24,1.287-4.293,3.527-4.585c2.24-0.292,4.292,1.287,4.585,3.527c0.292,2.24-1.287,4.293-3.527,4.585
				C404.197,467.457,402.145,465.878,401.853,463.639z"/>
			<path style="fill:#8C83DD;" d="M358.404,402.839c-0.292-2.24,1.287-4.293,3.527-4.585c2.24-0.292,4.293,1.287,4.585,3.527
				c0.292,2.24-1.287,4.293-3.527,4.585C360.748,406.658,358.696,405.079,358.404,402.839z"/>
			<path style="fill:#FF6464;" d="M448.136,452.103c-0.292-2.24,1.287-4.293,3.527-4.585c2.24-0.292,4.293,1.287,4.585,3.527
				c0.292,2.24-1.287,4.292-3.527,4.585C450.48,455.922,448.428,454.343,448.136,452.103z"/>
			<path style="fill:#8C83DD;" d="M285.51,436.917c-0.292-2.24,1.287-4.293,3.527-4.585c2.24-0.292,4.292,1.287,4.585,3.527
				c0.292,2.24-1.287,4.292-3.527,4.585C287.854,440.736,285.802,439.157,285.51,436.917z"/>
			<path style="fill:#3F4751;" d="M285.275,561.588c-0.292-2.24,1.287-4.292,3.527-4.585c2.24-0.292,4.292,1.287,4.585,3.527
				c0.292,2.24-1.287,4.292-3.527,4.585C287.62,565.407,285.567,563.828,285.275,561.588z"/>
			<path style="fill:#3F4751;" d="M412.723,544.965c-0.292-2.24,1.287-4.292,3.527-4.585c2.24-0.292,4.292,1.287,4.585,3.527
				c0.292,2.24-1.287,4.293-3.527,4.585C415.067,548.784,413.015,547.205,412.723,544.965z"/>
			<path style="fill:#3F4751;" d="M459.582,538.853c-0.292-2.24,1.287-4.292,3.527-4.585c2.24-0.292,4.293,1.287,4.585,3.527
				c0.292,2.24-1.287,4.292-3.527,4.585C461.927,542.672,459.874,541.093,459.582,538.853z"/>
			<path style="fill:#3F4751;" d="M377.578,549.549c-0.292-2.24,1.287-4.293,3.527-4.585c2.24-0.292,4.293,1.287,4.585,3.527
				c0.292,2.24-1.287,4.293-3.527,4.585C379.923,553.368,377.87,551.789,377.578,549.549z"/>
			<path style="fill:#FFFFFF;stroke:#8C83DD;stroke-width:2.3368;stroke-miterlimit:10;" d="M247.359,511.807
				c-0.292-2.24,1.287-4.293,3.527-4.585c2.24-0.292,4.292,1.287,4.585,3.527c0.292,2.24-1.287,4.292-3.527,4.585
				C249.704,515.626,247.652,514.047,247.359,511.807z"/>
			<g>
				<polygon style="fill:#8C83DD;" points="365.978,377.973 367.387,394.141 383.268,392.736 378.537,383.819 				"/>
				<g>
					<g>
						<path style="fill:#FFFFFF;" d="M381.395,391.447c-7.003,0-12.968-5.244-13.875-12.198c-0.999-7.66,4.42-14.704,12.079-15.703
							c0.605-0.079,1.22-0.119,1.827-0.119c7.003,0,12.969,5.244,13.876,12.198c0.998,7.659-4.42,14.703-12.079,15.703
							C382.616,391.407,382.001,391.447,381.395,391.447z"/>
						<g>
							<path style="fill:#8C83DD;" d="M381.426,364.828c6.237,0,11.657,4.627,12.486,10.978c0.901,6.904-3.966,13.232-10.871,14.132
								c-0.553,0.072-1.103,0.107-1.647,0.107c-6.237,0-11.657-4.627-12.486-10.978c-0.901-6.904,3.966-13.231,10.871-14.132
								C380.333,364.863,380.883,364.828,381.426,364.828 M381.426,362.026L381.426,362.026c-0.668,0-1.344,0.044-2.009,0.131
								c-4.081,0.532-7.711,2.622-10.22,5.884c-2.51,3.262-3.598,7.307-3.066,11.388c0.998,7.649,7.56,13.418,15.264,13.418
								c0.668,0,1.343-0.044,2.009-0.131c8.425-1.099,14.386-8.847,13.287-17.273C395.692,367.794,389.13,362.026,381.426,362.026
								L381.426,362.026z"/>
						</g>
					</g>
				</g>
			</g>
			<g>
				<polygon style="fill:#FF6464;" points="455.578,429.524 456.987,445.691 472.868,444.287 468.136,435.37 				"/>
				<g>
					<g>
						<path style="fill:#FFFFFF;" d="M470.994,442.997c-7.003,0-12.968-5.244-13.875-12.198c-0.484-3.71,0.506-7.387,2.787-10.353
							c2.281-2.966,5.581-4.866,9.292-5.35c0.605-0.079,1.221-0.119,1.828-0.119c7.003,0,12.968,5.244,13.875,12.198
							c0.484,3.71-0.506,7.387-2.787,10.353c-2.282,2.966-5.582,4.866-9.292,5.35C472.216,442.957,471.601,442.997,470.994,442.997z
							"/>
						<g>
							<path style="fill:#FF6464;" d="M471.025,416.378c6.238-0.001,11.658,4.627,12.486,10.978
								c0.901,6.904-3.966,13.232-10.871,14.132c-0.553,0.072-1.103,0.107-1.647,0.107c-6.237,0-11.657-4.627-12.486-10.978
								c-0.901-6.905,3.967-13.232,10.871-14.132C469.932,416.413,470.482,416.378,471.025,416.378 M471.026,413.576h-0.001
								c-0.667,0-1.343,0.044-2.008,0.131c-8.425,1.099-14.386,8.847-13.287,17.273c0.998,7.649,7.56,13.417,15.264,13.417
								c0.667,0,1.343-0.044,2.009-0.131c4.081-0.532,7.711-2.622,10.221-5.884c2.51-3.263,3.598-7.307,3.066-11.388
								C485.292,419.345,478.73,413.576,471.026,413.576L471.026,413.576z"/>
						</g>
					</g>
				</g>
			</g>
			<g>
				<path style="fill:#8C83DD;" d="M376.263,376.923c-0.597-0.399-0.941-0.95-1.033-1.65c-0.045-0.346-0.017-0.678,0.084-0.997
					c0.101-0.319,0.263-0.606,0.485-0.861c0.222-0.256,0.498-0.47,0.827-0.642c0.329-0.173,0.695-0.286,1.1-0.339
					c0.403-0.052,0.786-0.037,1.148,0.046c0.364,0.083,0.686,0.219,0.966,0.408c0.279,0.189,0.51,0.426,0.689,0.708
					c0.181,0.282,0.293,0.597,0.338,0.942c0.092,0.701-0.101,1.32-0.574,1.86c0.85,0.408,1.336,1.091,1.46,2.047
					c0.052,0.396,0.024,0.777-0.082,1.147c-0.106,0.371-0.284,0.703-0.529,0.999c-0.247,0.297-0.556,0.544-0.927,0.744
					c-0.374,0.199-0.799,0.33-1.276,0.392c-0.477,0.063-0.922,0.045-1.333-0.052c-0.41-0.098-0.772-0.258-1.086-0.48
					c-0.315-0.223-0.57-0.5-0.768-0.83c-0.199-0.33-0.324-0.693-0.376-1.089c-0.061-0.47-0.02-0.904,0.125-1.304
					C375.645,377.571,375.9,377.221,376.263,376.923z M377.17,375.208c0.016,0.124,0.057,0.238,0.12,0.343
					c0.065,0.104,0.143,0.195,0.236,0.27c0.094,0.076,0.197,0.132,0.312,0.167c0.112,0.035,0.231,0.046,0.355,0.029
					c0.256-0.033,0.46-0.152,0.612-0.357c0.154-0.204,0.215-0.435,0.182-0.69c-0.034-0.263-0.152-0.475-0.353-0.632
					c-0.201-0.158-0.429-0.222-0.685-0.188c-0.247,0.032-0.446,0.151-0.601,0.355C377.196,374.71,377.136,374.945,377.17,375.208z
					 M377.353,378.829c0.023,0.173,0.076,0.334,0.158,0.482c0.082,0.148,0.186,0.271,0.312,0.367
					c0.126,0.097,0.263,0.17,0.412,0.218c0.147,0.047,0.305,0.059,0.47,0.038c0.157-0.02,0.303-0.072,0.439-0.157
					c0.136-0.085,0.252-0.19,0.349-0.316c0.096-0.125,0.166-0.268,0.207-0.429c0.042-0.16,0.052-0.331,0.027-0.513
					c-0.047-0.362-0.201-0.65-0.464-0.863c-0.262-0.213-0.56-0.298-0.888-0.255c-0.166,0.021-0.314,0.074-0.444,0.159
					c-0.132,0.084-0.245,0.191-0.342,0.32c-0.097,0.13-0.166,0.275-0.207,0.436C377.339,378.478,377.33,378.647,377.353,378.829z"/>
				<path style="fill:#8C83DD;" d="M384.268,380.768c-0.799,0.104-1.239-0.152-1.319-0.773c-0.033-0.247,0.072-0.552,0.314-0.916
					c0.242-0.362,0.574-0.849,0.997-1.458c0.606-0.876,1.07-1.598,1.391-2.164c0.319-0.566,0.457-1.022,0.412-1.369
					c-0.033-0.256-0.133-0.451-0.297-0.585c-0.164-0.134-0.354-0.186-0.568-0.159c-0.19,0.025-0.357,0.122-0.502,0.292
					c-0.146,0.17-0.256,0.415-0.331,0.734c-0.078,0.362-0.173,0.635-0.283,0.816c-0.11,0.183-0.298,0.29-0.562,0.324
					c-0.289,0.038-0.536-0.024-0.747-0.185c-0.208-0.162-0.334-0.398-0.375-0.712c-0.029-0.23-0.012-0.503,0.057-0.817
					c0.068-0.314,0.185-0.607,0.351-0.878c0.25-0.406,0.563-0.732,0.94-0.978c0.38-0.245,0.804-0.398,1.273-0.459
					c0.428-0.057,0.824-0.04,1.188,0.046c0.363,0.087,0.683,0.231,0.961,0.435c0.278,0.202,0.503,0.453,0.677,0.754
					c0.174,0.299,0.284,0.635,0.332,1.006c0.047,0.354,0.024,0.711-0.067,1.07c-0.092,0.36-0.243,0.738-0.455,1.134
					c-0.213,0.397-0.481,0.821-0.809,1.274c-0.326,0.453-0.696,0.95-1.112,1.49l1.842-0.24c0.946-0.123,1.46,0.124,1.541,0.742
					c0.08,0.618-0.352,0.988-1.299,1.111L384.268,380.768z"/>
			</g>
			<g>
				<path style="fill:#FF6464;" d="M468.06,431.436l-3.102,0.405c-0.403,0.053-0.715,0.03-0.932-0.067
					c-0.219-0.097-0.345-0.282-0.381-0.554c-0.029-0.23-0.007-0.44,0.068-0.625c0.077-0.186,0.16-0.381,0.251-0.586l2.081-4.481
					c0.169-0.374,0.355-0.648,0.559-0.821c0.203-0.173,0.471-0.281,0.8-0.324c0.462-0.06,0.86,0.058,1.196,0.353
					c0.336,0.296,0.548,0.785,0.637,1.469l0.421,3.225c0.058-0.016,0.109-0.029,0.159-0.039c0.048-0.011,0.094-0.019,0.135-0.023
					c0.347-0.046,0.624,0.002,0.836,0.142c0.211,0.14,0.333,0.334,0.365,0.581c0.08,0.618-0.279,0.98-1.078,1.083l-0.187,0.024
					l0.121,0.927c0.045,0.346-0.006,0.623-0.154,0.831c-0.15,0.207-0.376,0.332-0.681,0.371c-0.568,0.074-0.903-0.268-1.002-1.025
					L468.06,431.436z M467.83,429.669l-0.438-3.361l-1.625,3.631L467.83,429.669z"/>
				<path style="fill:#FF6464;" d="M473.131,427.809c-0.598-0.399-0.941-0.949-1.033-1.649c-0.045-0.346-0.018-0.679,0.084-0.998
					c0.102-0.318,0.263-0.606,0.484-0.861c0.223-0.255,0.498-0.469,0.828-0.642c0.329-0.174,0.695-0.286,1.099-0.339
					c0.404-0.053,0.788-0.038,1.15,0.045c0.363,0.083,0.683,0.219,0.965,0.408c0.28,0.19,0.51,0.427,0.69,0.709
					c0.18,0.282,0.291,0.597,0.336,0.942c0.092,0.7-0.101,1.32-0.574,1.859c0.85,0.409,1.337,1.092,1.462,2.047
					c0.052,0.395,0.022,0.778-0.083,1.148c-0.107,0.37-0.283,0.703-0.53,0.999c-0.246,0.296-0.555,0.544-0.927,0.743
					c-0.373,0.2-0.798,0.33-1.275,0.393c-0.477,0.063-0.922,0.045-1.332-0.053c-0.412-0.097-0.773-0.257-1.088-0.48
					c-0.314-0.223-0.569-0.499-0.767-0.829c-0.199-0.33-0.324-0.693-0.375-1.089c-0.062-0.47-0.02-0.904,0.125-1.305
					C472.513,428.457,472.767,428.107,473.131,427.809z M474.038,426.094c0.017,0.124,0.057,0.238,0.121,0.343
					c0.064,0.104,0.143,0.196,0.236,0.272c0.093,0.076,0.196,0.131,0.311,0.167c0.113,0.035,0.231,0.045,0.355,0.028
					c0.256-0.033,0.46-0.151,0.614-0.356c0.152-0.204,0.213-0.434,0.18-0.69c-0.034-0.264-0.152-0.475-0.353-0.633
					c-0.201-0.158-0.429-0.221-0.685-0.188c-0.246,0.032-0.447,0.151-0.601,0.355C474.063,425.597,474.003,425.831,474.038,426.094z
					 M474.222,429.715c0.022,0.174,0.074,0.334,0.157,0.482c0.081,0.15,0.186,0.271,0.311,0.368
					c0.126,0.097,0.263,0.169,0.411,0.217c0.148,0.048,0.306,0.061,0.47,0.039c0.157-0.02,0.304-0.073,0.439-0.157
					c0.136-0.085,0.252-0.19,0.349-0.316c0.097-0.125,0.166-0.268,0.209-0.429c0.04-0.16,0.05-0.332,0.026-0.514
					c-0.048-0.362-0.202-0.65-0.464-0.862c-0.263-0.213-0.559-0.299-0.889-0.256c-0.164,0.021-0.314,0.075-0.444,0.159
					c-0.131,0.084-0.244,0.191-0.341,0.321c-0.096,0.13-0.166,0.275-0.207,0.435C474.207,429.363,474.199,429.534,474.222,429.715z"
					/>
			</g>
			<g>
				<g>
					<path style="fill:#FFFFFF;" d="M375.214,505.103c-2.629,0-4.869-1.968-5.209-4.579c-0.182-1.393,0.19-2.772,1.046-3.886
						c0.856-1.113,2.095-1.827,3.488-2.008c0.23-0.03,0.459-0.044,0.686-0.044c2.629,0,4.868,1.968,5.209,4.578
						c0.375,2.875-1.659,5.52-4.534,5.895C375.669,505.088,375.44,505.103,375.214,505.103z"/>
					<g>
						<path style="fill:#FF6464;" d="M375.224,495.753c2.024,0,3.782,1.501,4.051,3.561c0.292,2.24-1.287,4.293-3.527,4.585
							c-0.179,0.023-0.358,0.035-0.534,0.035c-2.024,0-3.782-1.501-4.051-3.562c-0.292-2.24,1.287-4.292,3.527-4.585
							C374.869,495.764,375.048,495.753,375.224,495.753 M375.224,493.416L375.224,493.416c-0.278,0-0.559,0.018-0.836,0.055
							c-3.514,0.458-6,3.69-5.542,7.204c0.416,3.19,3.154,5.596,6.368,5.596c0.278,0,0.559-0.018,0.836-0.055
							c3.514-0.458,6-3.69,5.542-7.204C381.176,495.822,378.438,493.416,375.224,493.416L375.224,493.416z"/>
					</g>
				</g>
			</g>
			<g>
				<g>
					<path style="fill:#FFFFFF;" d="M459.625,516.873c-2.629,0-4.869-1.968-5.21-4.579c-0.375-2.876,1.659-5.52,4.535-5.895
						c0.23-0.03,0.459-0.044,0.685-0.044c2.629,0,4.869,1.968,5.209,4.579c0.182,1.393-0.19,2.773-1.046,3.886
						c-0.856,1.113-2.095,1.827-3.488,2.008C460.08,516.859,459.851,516.873,459.625,516.873z"/>
					<g>
						<path style="fill:#8C83DD;" d="M459.635,507.524c2.023,0,3.782,1.501,4.05,3.562c0.292,2.24-1.287,4.292-3.527,4.585
							c-0.18,0.023-0.358,0.035-0.534,0.035c-2.023,0-3.782-1.501-4.05-3.562c-0.292-2.24,1.287-4.293,3.527-4.585
							C459.28,507.536,459.459,507.524,459.635,507.524 M459.635,505.188L459.635,505.188c-0.278,0-0.56,0.018-0.837,0.054
							c-3.514,0.458-6,3.69-5.542,7.204c0.416,3.19,3.154,5.596,6.368,5.596c0.278,0,0.56-0.018,0.837-0.055
							c3.514-0.458,6-3.69,5.542-7.204C465.587,507.593,462.849,505.188,459.635,505.188L459.635,505.188z"/>
					</g>
				</g>
			</g>
		</g>
	</g>
	<g>
		<polygon style="fill:#A2B2D6;" points="808.732,391.492 435.768,244.812 371.821,228.273 370.924,231.973 422.758,255.98 
			429.427,254.885 723.172,368.639 724.324,378.327 803.777,407.621 		"/>
		<g>
			<g>
				<polygon style="fill:#FABD15;" points="808.732,391.492 435.093,247.596 443.248,226.337 817.076,370.312 817.698,378.091 
					814.547,386.303 				"/>
				<polygon style="fill:#FFE800;" points="817.7,378.091 440.032,233.489 443.248,226.337 817.076,370.312 				"/>
				<polygon style="fill:#ED9430;" points="808.732,391.492 435.093,247.597 438.017,239.974 814.549,386.303 				"/>
				<path style="fill:#FEA261;" d="M443.248,226.337c0,0,1.864,1.11,1.288,2.553c-0.844,2.113-3.071,2.089-3.071,2.089
					s2.438,2.927,0.863,6.754c-1.93,4.687-5.317,4.724-5.317,4.724s2.01,1.635,1.208,3.46c-0.843,1.919-3.126,1.679-3.126,1.679
					l-4.508-13.704L443.248,226.337z"/>
				<g>
					<g>
						<polygon style="fill:#414042;" points="376.616,210.752 375.134,214.618 393.901,224.94 397.47,215.63 						"/>
					</g>
					<polygon style="fill:#FEA261;" points="442.034,228.049 397.47,215.63 393.901,224.94 435.093,247.596 					"/>
					<path style="fill:#FFDB94;" d="M443.249,226.337L443.249,226.337L397.47,215.63l-1.988,5.185l43.85,15.729l2.135-5.566
						c0.013,0,2.228,0.018,3.069-2.088C445.112,227.448,443.25,226.338,443.249,226.337z"/>
				</g>
				<g style="opacity:0.5;">
					<polygon style="fill:#8C8C99;" points="396.342,218.577 376.036,212.268 375.733,213.059 395.145,221.691 					"/>
				</g>
				<path style="fill:#FFBE92;" d="M441.465,230.979l-45.123-12.402l-1.197,3.115l41.866,20.766c0,0,3.398-0.184,5.238-4.541
					C444.064,233.621,441.465,230.979,441.465,230.979z"/>
			</g>
		</g>
	</g>
</g>
</svg>
