<?xml version="1.0" encoding="utf-8"?>
<!-- Generator: Adobe Illustrator 27.5.0, SVG Export Plug-In . SVG Version: 6.00 Build 0)  -->
<svg version="1.1" xmlns="http://www.w3.org/2000/svg" xmlns:xlink="http://www.w3.org/1999/xlink" x="0px" y="0px"
	 viewBox="0 0 1200 1122" style="enable-background:new 0 0 1200 1122;" xml:space="preserve">
<g id="background">
	<rect x="0" style="fill:#FFFFFF;" width="1200" height="1122"/>
	<rect x="0" style="fill:#FFFFFF;" width="1200" height="1122"/>
</g>
<g id="object">
	<g>
		<g>
			<linearGradient id="SVGID_1_" gradientUnits="userSpaceOnUse" x1="549.7306" y1="799.0132" x2="544.5158" y2="766.2344">
				<stop  offset="0" style="stop-color:#9C0C3C"/>
				<stop  offset="0.3521" style="stop-color:#960C3C"/>
				<stop  offset="0.8137" style="stop-color:#860C3C"/>
				<stop  offset="1" style="stop-color:#7D0C3C"/>
			</linearGradient>
			<polygon style="fill:url(#SVGID_1_);" points="181.928,757.671 872.83,832.971 895.516,701.961 			"/>
			<polygon style="fill:#CC9C25;" points="198.176,564.862 267.366,638.77 305.735,529.209 			"/>
			<polygon style="fill:#C60C3C;" points="181.928,758.659 321.202,325.639 1059.355,356.839 993.2,767.598 			"/>
			<polygon style="fill:#4B8993;" points="992.11,874.769 947.806,920.493 992.11,937.718 			"/>
			<polygon style="fill:#C60C3C;" points="923.216,863.018 841.194,863.018 855.164,920.493 			"/>
			
				<ellipse transform="matrix(0.2298 -0.9732 0.9732 0.2298 -70.2975 1573.3894)" style="fill:#ECC442;" cx="958.882" cy="831.107" rx="11.076" ry="11.076"/>
			<polygon style="fill:#4B8993;" points="315.296,292.071 265.439,210.477 315.296,184.282 			"/>
			<polygon style="fill:#ECC442;" points="246.106,305.998 188.615,320.083 217.361,340.581 			"/>
			
				<ellipse transform="matrix(0.1602 -0.9871 0.9871 0.1602 -65.0188 471.6825)" style="fill:#C60C3C;" cx="244.689" cy="274.051" rx="14.831" ry="14.832"/>
			<g>
				<polygon style="fill:#ECC442;" points="197.655,567.459 181.928,364.187 872.628,364.187 930.107,602.155 				"/>
			</g>
			<defs>
				<filter id="Adobe_OpacityMaskFilter" filterUnits="userSpaceOnUse" x="197.655" y="567.459" width="750.151" height="61.398">
					<feFlood  style="flood-color:white;flood-opacity:1" result="back"/>
					<feBlend  in="SourceGraphic" in2="back" mode="normal"/>
				</filter>
			</defs>
			
				<mask maskUnits="userSpaceOnUse" x="197.655" y="567.459" width="750.151" height="61.398" id="SVGID_00000156549621238266402680000006672003137995342230_">
				<g style="filter:url(#Adobe_OpacityMaskFilter);">
					<defs>
						
							<filter id="Adobe_OpacityMaskFilter_00000160172882382578369540000011116307554052805806_" filterUnits="userSpaceOnUse" x="197.655" y="567.459" width="750.151" height="61.398">
							<feFlood  style="flood-color:white;flood-opacity:1" result="back"/>
							<feBlend  in="SourceGraphic" in2="back" mode="normal"/>
						</filter>
					</defs>
					
						<mask maskUnits="userSpaceOnUse" x="197.655" y="567.459" width="750.151" height="61.398" id="SVGID_00000156549621238266402680000006672003137995342230_">
						<g style="filter:url(#Adobe_OpacityMaskFilter_00000160172882382578369540000011116307554052805806_);">
						</g>
					</mask>
					
						<linearGradient id="SVGID_00000116951495562639543070000015569317148786014361_" gradientUnits="userSpaceOnUse" x1="572.7305" y1="556.2764" x2="572.7305" y2="600.9747">
						<stop  offset="0" style="stop-color:#B3B3B3"/>
						<stop  offset="0.2149" style="stop-color:#B0B0B0"/>
						<stop  offset="0.3671" style="stop-color:#A6A6A6"/>
						<stop  offset="0.4999" style="stop-color:#979797"/>
						<stop  offset="0.6218" style="stop-color:#818181"/>
						<stop  offset="0.736" style="stop-color:#646464"/>
						<stop  offset="0.8446" style="stop-color:#414141"/>
						<stop  offset="0.9469" style="stop-color:#181818"/>
						<stop  offset="1" style="stop-color:#000000"/>
					</linearGradient>
					
						<polygon style="mask:url(#SVGID_00000156549621238266402680000006672003137995342230_);fill:url(#SVGID_00000116951495562639543070000015569317148786014361_);" points="
						930.107,602.155 947.806,628.856 234.905,604.095 197.655,567.459 					"/>
				</g>
			</mask>
			
				<linearGradient id="SVGID_00000034073087389116719880000012218953882705515691_" gradientUnits="userSpaceOnUse" x1="572.7305" y1="556.2764" x2="572.7305" y2="600.9747">
				<stop  offset="0" style="stop-color:#000000"/>
				<stop  offset="0.1882" style="stop-color:#030303"/>
				<stop  offset="0.3215" style="stop-color:#0C0C0C"/>
				<stop  offset="0.4378" style="stop-color:#1C1C1C"/>
				<stop  offset="0.5445" style="stop-color:#323232"/>
				<stop  offset="0.6446" style="stop-color:#4E4E4E"/>
				<stop  offset="0.7398" style="stop-color:#717171"/>
				<stop  offset="0.8312" style="stop-color:#9B9B9B"/>
				<stop  offset="0.9172" style="stop-color:#CACACA"/>
				<stop  offset="1" style="stop-color:#FFFFFF"/>
			</linearGradient>
			<polygon style="opacity:0.2;fill:url(#SVGID_00000034073087389116719880000012218953882705515691_);" points="930.107,602.155 
				947.806,628.856 234.905,604.095 197.655,567.459 			"/>
			<g>
				<defs>
					
						<filter id="Adobe_OpacityMaskFilter_00000115515248589668141200000013187445724974362552_" filterUnits="userSpaceOnUse" x="163.954" y="619.812" width="281.905" height="281.905">
						<feFlood  style="flood-color:white;flood-opacity:1" result="back"/>
						<feBlend  in="SourceGraphic" in2="back" mode="normal"/>
					</filter>
				</defs>
				
					<mask maskUnits="userSpaceOnUse" x="163.954" y="619.812" width="281.905" height="281.905" id="SVGID_00000124871457806326331000000005603509652071367865_">
					<g style="filter:url(#Adobe_OpacityMaskFilter_00000115515248589668141200000013187445724974362552_);">
						<defs>
							
								<filter id="Adobe_OpacityMaskFilter_00000171714359953353244090000006041302691965602477_" filterUnits="userSpaceOnUse" x="163.954" y="619.812" width="281.905" height="281.905">
								<feFlood  style="flood-color:white;flood-opacity:1" result="back"/>
								<feBlend  in="SourceGraphic" in2="back" mode="normal"/>
							</filter>
						</defs>
						
							<mask maskUnits="userSpaceOnUse" x="163.954" y="619.812" width="281.905" height="281.905" id="SVGID_00000124871457806326331000000005603509652071367865_">
							<g style="filter:url(#Adobe_OpacityMaskFilter_00000171714359953353244090000006041302691965602477_);">
							</g>
						</mask>
						
							<linearGradient id="SVGID_00000078765904139213405770000000680455514674263983_" gradientUnits="userSpaceOnUse" x1="240.3417" y1="723.8647" x2="359.6972" y2="755.4589" gradientTransform="matrix(0.9918 -0.1277 0.1277 0.9918 20.9306 79.684)">
							<stop  offset="0" style="stop-color:#808080"/>
							<stop  offset="0.1989" style="stop-color:#616161"/>
							<stop  offset="0.5683" style="stop-color:#2D2D2D"/>
							<stop  offset="0.8468" style="stop-color:#0C0C0C"/>
							<stop  offset="1" style="stop-color:#000000"/>
						</linearGradient>
						
							<circle style="mask:url(#SVGID_00000124871457806326331000000005603509652071367865_);fill:url(#SVGID_00000078765904139213405770000000680455514674263983_);" cx="304.906" cy="760.764" r="140.934"/>
					</g>
				</mask>
				
					<linearGradient id="SVGID_00000152953119842607143440000013723150598151293092_" gradientUnits="userSpaceOnUse" x1="240.3417" y1="723.8647" x2="359.6972" y2="755.4589" gradientTransform="matrix(0.9918 -0.1277 0.1277 0.9918 20.9306 79.684)">
					<stop  offset="0" style="stop-color:#000000"/>
					<stop  offset="0.2758" style="stop-color:#555555"/>
					<stop  offset="0.5367" style="stop-color:#9E9E9E"/>
					<stop  offset="0.7513" style="stop-color:#D2D2D2"/>
					<stop  offset="0.9118" style="stop-color:#F3F3F3"/>
					<stop  offset="1" style="stop-color:#FFFFFF"/>
				</linearGradient>
				
					<circle style="opacity:0.2;fill:url(#SVGID_00000152953119842607143440000013723150598151293092_);" cx="304.906" cy="760.764" r="140.934"/>
				
					<ellipse transform="matrix(0.7071 -0.7071 0.7071 0.7071 -443.0928 419.7814)" style="fill:#4B8993;" cx="285.175" cy="744.751" rx="144.514" ry="144.514"/>
			</g>
			<g>
				<g>
					<defs>
						
							<filter id="Adobe_OpacityMaskFilter_00000114039915592103816590000013367354671806672772_" filterUnits="userSpaceOnUse" x="170.212" y="719.856" width="68.701" height="90.33">
							<feFlood  style="flood-color:white;flood-opacity:1" result="back"/>
							<feBlend  in="SourceGraphic" in2="back" mode="normal"/>
						</filter>
					</defs>
					
						<mask maskUnits="userSpaceOnUse" x="170.212" y="719.856" width="68.701" height="90.33" id="SVGID_00000171719506017992016770000000796990301002484636_">
						<g style="filter:url(#Adobe_OpacityMaskFilter_00000114039915592103816590000013367354671806672772_);">
							<defs>
								
									<filter id="Adobe_OpacityMaskFilter_00000062152484132256335140000002497758980166770846_" filterUnits="userSpaceOnUse" x="170.212" y="719.856" width="68.701" height="90.33">
									<feFlood  style="flood-color:white;flood-opacity:1" result="back"/>
									<feBlend  in="SourceGraphic" in2="back" mode="normal"/>
								</filter>
							</defs>
							
								<mask maskUnits="userSpaceOnUse" x="170.212" y="719.856" width="68.701" height="90.33" id="SVGID_00000171719506017992016770000000796990301002484636_">
								<g style="filter:url(#Adobe_OpacityMaskFilter_00000062152484132256335140000002497758980166770846_);">
								</g>
							</mask>
							
								<linearGradient id="SVGID_00000142157825984964870170000013808565335794684585_" gradientUnits="userSpaceOnUse" x1="-49.7997" y1="575.8879" x2="-61.349" y2="824.1984" gradientTransform="matrix(0.9642 -0.2653 0.2653 0.9642 85.8579 137.5813)">
								<stop  offset="0" style="stop-color:#808080"/>
								<stop  offset="1" style="stop-color:#000000"/>
							</linearGradient>
							
								<path style="mask:url(#SVGID_00000171719506017992016770000000796990301002484636_);fill:url(#SVGID_00000142157825984964870170000013808565335794684585_);" d="
								M170.212,727.681l53.811-7.825l2.575,17.701l-35.518,5.168l2.196,15.098c3.085-3.657,7.361-5.886,12.825-6.681
								c5.463-0.795,10.221-0.583,14.25,0.638c4.036,1.222,7.246,3.143,9.636,5.768c4.691,5.18,7.516,11.074,8.477,17.688
								c1.339,9.201-0.311,16.894-4.959,23.07c-4.65,6.18-11.687,9.954-21.123,11.324c-9.442,1.375-17.226,0.198-23.349-3.532
								c-6.133-3.727-10.059-9.117-11.808-16.177l19.938-2.899c0.722,2.224,2.214,3.916,4.471,5.073
								c2.255,1.161,5.118,1.486,8.576,0.982c3.458-0.504,5.951-2.048,7.463-4.641c1.507-2.587,1.978-5.808,1.419-9.662
								c-0.56-3.857-1.953-6.709-4.192-8.553c-2.238-1.841-4.968-2.53-8.194-2.06c-3.226,0.47-5.582,1.516-7.071,3.139
								c-1.492,1.624-2.29,3.484-2.38,5.585l-19.476,2.832L170.212,727.681z"/>
						</g>
					</mask>
					
						<linearGradient id="SVGID_00000111154508862214233070000003700459193867786168_" gradientUnits="userSpaceOnUse" x1="-49.7997" y1="575.8879" x2="-61.349" y2="824.1984" gradientTransform="matrix(0.9642 -0.2653 0.2653 0.9642 85.8579 137.5813)">
						<stop  offset="0" style="stop-color:#000000"/>
						<stop  offset="1" style="stop-color:#FFFFFF"/>
					</linearGradient>
					<path style="fill:url(#SVGID_00000111154508862214233070000003700459193867786168_);" d="M170.212,727.681l53.811-7.825
						l2.575,17.701l-35.518,5.168l2.196,15.098c3.085-3.657,7.361-5.886,12.825-6.681c5.463-0.795,10.221-0.583,14.25,0.638
						c4.036,1.222,7.246,3.143,9.636,5.768c4.691,5.18,7.516,11.074,8.477,17.688c1.339,9.201-0.311,16.894-4.959,23.07
						c-4.65,6.18-11.687,9.954-21.123,11.324c-9.442,1.375-17.226,0.198-23.349-3.532c-6.133-3.727-10.059-9.117-11.808-16.177
						l19.938-2.899c0.722,2.224,2.214,3.916,4.471,5.073c2.255,1.161,5.118,1.486,8.576,0.982c3.458-0.504,5.951-2.048,7.463-4.641
						c1.507-2.587,1.978-5.808,1.419-9.662c-0.56-3.857-1.953-6.709-4.192-8.553c-2.238-1.841-4.968-2.53-8.194-2.06
						c-3.226,0.47-5.582,1.516-7.071,3.139c-1.492,1.624-2.29,3.484-2.38,5.585l-19.476,2.832L170.212,727.681z"/>
					<defs>
						
							<filter id="Adobe_OpacityMaskFilter_00000100342704926640932940000000297134796169539715_" filterUnits="userSpaceOnUse" x="246.749" y="712.743" width="68.153" height="86.153">
							<feFlood  style="flood-color:white;flood-opacity:1" result="back"/>
							<feBlend  in="SourceGraphic" in2="back" mode="normal"/>
						</filter>
					</defs>
					
						<mask maskUnits="userSpaceOnUse" x="246.749" y="712.743" width="68.153" height="86.153" id="SVGID_00000045600959007685728530000001029857142191198135_">
						<g style="filter:url(#Adobe_OpacityMaskFilter_00000100342704926640932940000000297134796169539715_);">
							<defs>
								
									<filter id="Adobe_OpacityMaskFilter_00000051349465010129729870000004700621861248528051_" filterUnits="userSpaceOnUse" x="246.749" y="712.743" width="68.153" height="86.153">
									<feFlood  style="flood-color:white;flood-opacity:1" result="back"/>
									<feBlend  in="SourceGraphic" in2="back" mode="normal"/>
								</filter>
							</defs>
							
								<mask maskUnits="userSpaceOnUse" x="246.749" y="712.743" width="68.153" height="86.153" id="SVGID_00000045600959007685728530000001029857142191198135_">
								<g style="filter:url(#Adobe_OpacityMaskFilter_00000051349465010129729870000004700621861248528051_);">
								</g>
							</mask>
							
								<linearGradient id="SVGID_00000147207725974488354590000005233651787995830147_" gradientUnits="userSpaceOnUse" x1="27.147" y1="579.4647" x2="15.5976" y2="827.7765" gradientTransform="matrix(0.9642 -0.2653 0.2653 0.9642 85.8579 137.5813)">
								<stop  offset="0" style="stop-color:#808080"/>
								<stop  offset="1" style="stop-color:#000000"/>
							</linearGradient>
							
								<path style="mask:url(#SVGID_00000045600959007685728530000001029857142191198135_);fill:url(#SVGID_00000147207725974488354590000005233651787995830147_);" d="
								M259.57,718.665c4.064-2.759,9.083-4.572,15.061-5.441c5.971-0.868,11.307-0.561,15.978,0.928
								c4.681,1.489,8.552,4.017,11.643,7.585c3.094,3.567,5.595,7.762,7.504,12.585c1.902,4.824,3.315,10.382,4.228,16.675
								c0.917,6.295,1.146,12.025,0.696,17.189c-0.456,5.169-1.656,9.905-3.605,14.204c-1.949,4.3-4.94,7.823-9.003,10.586
								c-4.053,2.76-9.08,4.571-15.052,5.439c-5.978,0.869-11.306,0.564-15.987-0.925c-4.665-1.49-8.552-4.017-11.636-7.584
								c-3.091-3.568-5.592-7.763-7.502-12.589c-1.902-4.824-3.308-10.38-4.225-16.679c-0.913-6.293-1.149-12.021-0.698-17.185
								c0.456-5.169,1.657-9.902,3.602-14.204C252.516,724.951,255.523,721.423,259.57,718.665z M283.53,732.594
								c-1.829-0.66-3.874-0.826-6.155-0.492c-2.288,0.332-4.204,1.073-5.762,2.224c-1.558,1.151-2.699,2.461-3.405,3.928
								c-0.706,1.468-1.188,3.348-1.412,5.629c-0.228,2.282-0.278,4.455-0.137,6.522c0.146,2.072,0.422,4.52,0.833,7.351
								c0.411,2.831,0.845,5.259,1.295,7.281c0.453,2.024,1.121,4.097,1.989,6.221c0.865,2.122,1.863,3.782,2.958,4.992
								c1.094,1.206,2.561,2.14,4.382,2.795c1.823,0.661,3.868,0.828,6.155,0.492c2.282-0.331,4.197-1.071,5.762-2.224
								c1.559-1.148,2.696-2.46,3.408-3.929c0.711-1.472,1.178-3.346,1.407-5.625c0.23-2.286,0.276-4.461,0.138-6.532
								c-0.141-2.067-0.414-4.518-0.826-7.35c-0.411-2.831-0.848-5.255-1.302-7.282c-0.456-2.02-1.119-4.091-1.991-6.214
								c-0.868-2.121-1.851-3.789-2.952-4.994C286.815,734.183,285.353,733.252,283.53,732.594z"/>
						</g>
					</mask>
					
						<linearGradient id="SVGID_00000136395790312069340840000000652570789730101160_" gradientUnits="userSpaceOnUse" x1="27.147" y1="579.4647" x2="15.5976" y2="827.7765" gradientTransform="matrix(0.9642 -0.2653 0.2653 0.9642 85.8579 137.5813)">
						<stop  offset="0" style="stop-color:#000000"/>
						<stop  offset="1" style="stop-color:#FFFFFF"/>
					</linearGradient>
					<path style="fill:url(#SVGID_00000136395790312069340840000000652570789730101160_);" d="M259.57,718.665
						c4.064-2.759,9.083-4.572,15.061-5.441c5.971-0.868,11.307-0.561,15.978,0.928c4.681,1.489,8.552,4.017,11.643,7.585
						c3.094,3.567,5.595,7.762,7.504,12.585c1.902,4.824,3.315,10.382,4.228,16.675c0.917,6.295,1.146,12.025,0.696,17.189
						c-0.456,5.169-1.656,9.905-3.605,14.204c-1.949,4.3-4.94,7.823-9.003,10.586c-4.053,2.76-9.08,4.571-15.052,5.439
						c-5.978,0.869-11.306,0.564-15.987-0.925c-4.665-1.49-8.552-4.017-11.636-7.584c-3.091-3.568-5.592-7.763-7.502-12.589
						c-1.902-4.824-3.308-10.38-4.225-16.679c-0.913-6.293-1.149-12.021-0.698-17.185c0.456-5.169,1.657-9.902,3.602-14.204
						C252.516,724.951,255.523,721.423,259.57,718.665z M283.53,732.594c-1.829-0.66-3.874-0.826-6.155-0.492
						c-2.288,0.332-4.204,1.073-5.762,2.224c-1.558,1.151-2.699,2.461-3.405,3.928c-0.706,1.468-1.188,3.348-1.412,5.629
						c-0.228,2.282-0.278,4.455-0.137,6.522c0.146,2.072,0.422,4.52,0.833,7.351c0.411,2.831,0.845,5.259,1.295,7.281
						c0.453,2.024,1.121,4.097,1.989,6.221c0.865,2.122,1.863,3.782,2.958,4.992c1.094,1.206,2.561,2.14,4.382,2.795
						c1.823,0.661,3.868,0.828,6.155,0.492c2.282-0.331,4.197-1.071,5.762-2.224c1.559-1.148,2.696-2.46,3.408-3.929
						c0.711-1.472,1.178-3.346,1.407-5.625c0.23-2.286,0.276-4.461,0.138-6.532c-0.141-2.067-0.414-4.518-0.826-7.35
						c-0.411-2.831-0.848-5.255-1.302-7.282c-0.456-2.02-1.119-4.091-1.991-6.214c-0.868-2.121-1.851-3.789-2.952-4.994
						C286.815,734.183,285.353,733.252,283.53,732.594z"/>
					<defs>
						
							<filter id="Adobe_OpacityMaskFilter_00000179614520956673813510000005451230707828447654_" filterUnits="userSpaceOnUse" x="319.403" y="698.402" width="96.255" height="92.51">
							<feFlood  style="flood-color:white;flood-opacity:1" result="back"/>
							<feBlend  in="SourceGraphic" in2="back" mode="normal"/>
						</filter>
					</defs>
					
						<mask maskUnits="userSpaceOnUse" x="319.403" y="698.402" width="96.255" height="92.51" id="SVGID_00000111912755845950602800000010389234549914752659_">
						<g style="filter:url(#Adobe_OpacityMaskFilter_00000179614520956673813510000005451230707828447654_);">
							<defs>
								
									<filter id="Adobe_OpacityMaskFilter_00000157994711067707758620000014332929077668387980_" filterUnits="userSpaceOnUse" x="319.403" y="698.402" width="96.255" height="92.51">
									<feFlood  style="flood-color:white;flood-opacity:1" result="back"/>
									<feBlend  in="SourceGraphic" in2="back" mode="normal"/>
								</filter>
							</defs>
							
								<mask maskUnits="userSpaceOnUse" x="319.403" y="698.402" width="96.255" height="92.51" id="SVGID_00000111912755845950602800000010389234549914752659_">
								<g style="filter:url(#Adobe_OpacityMaskFilter_00000157994711067707758620000014332929077668387980_);">
								</g>
							</mask>
							
								<linearGradient id="SVGID_00000053520329495987671070000016345602750508270209_" gradientUnits="userSpaceOnUse" x1="114.083" y1="583.5071" x2="102.5337" y2="831.8159" gradientTransform="matrix(0.9642 -0.2653 0.2653 0.9642 85.8579 137.5813)">
								<stop  offset="0" style="stop-color:#808080"/>
								<stop  offset="1" style="stop-color:#000000"/>
							</linearGradient>
							
								<path style="mask:url(#SVGID_00000111912755845950602800000010389234549914752659_);fill:url(#SVGID_00000053520329495987671070000016345602750508270209_);" d="
								M327.322,742.068c-4.155-2.928-6.695-7.543-7.611-13.836c-0.916-6.292,0.206-11.434,3.355-15.429
								c3.16-3.991,7.644-6.415,13.467-7.262c5.817-0.845,10.788,0.203,14.917,3.135c4.121,2.94,6.643,7.551,7.559,13.843
								c0.916,6.292-0.189,11.436-3.304,15.418c-3.122,3.994-7.585,6.409-13.402,7.254C336.48,746.039,331.488,745,327.322,742.068z
								 M341.114,790.912l33.356-89.68l19.469-2.831l-33.35,89.678L341.114,790.912z M340.504,733.284
								c3.825-0.555,5.343-3.466,4.578-8.737c-0.765-5.271-3.052-7.63-6.877-7.075c-3.812,0.554-5.336,3.467-4.571,8.738
								C334.399,731.481,336.692,733.838,340.504,733.284z M383.66,780.628c-4.156-2.931-6.697-7.539-7.611-13.835
								c-0.917-6.296,0.205-11.437,3.355-15.429c3.159-3.994,7.643-6.415,13.467-7.262c5.817-0.845,10.794,0.198,14.917,3.135
								c4.12,2.934,6.643,7.547,7.559,13.84c0.915,6.299-0.189,11.436-3.303,15.425c-3.117,3.99-7.59,6.404-13.407,7.249
								C392.814,784.597,387.826,783.56,383.66,780.628z M396.842,771.844c3.818-0.556,5.342-3.469,4.577-8.74
								c-0.768-5.27-3.061-7.627-6.879-7.071c-3.812,0.554-5.336,3.467-4.568,8.737C390.737,770.041,393.03,772.398,396.842,771.844
								z"/>
						</g>
					</mask>
					
						<linearGradient id="SVGID_00000104707176163101858310000009050034254034715525_" gradientUnits="userSpaceOnUse" x1="114.083" y1="583.5071" x2="102.5337" y2="831.8159" gradientTransform="matrix(0.9642 -0.2653 0.2653 0.9642 85.8579 137.5813)">
						<stop  offset="0" style="stop-color:#000000"/>
						<stop  offset="1" style="stop-color:#FFFFFF"/>
					</linearGradient>
					<path style="fill:url(#SVGID_00000104707176163101858310000009050034254034715525_);" d="M327.322,742.068
						c-4.155-2.928-6.695-7.543-7.611-13.836c-0.916-6.292,0.206-11.434,3.355-15.429c3.16-3.991,7.644-6.415,13.467-7.262
						c5.817-0.845,10.788,0.203,14.917,3.135c4.121,2.94,6.643,7.551,7.559,13.843c0.916,6.292-0.189,11.436-3.304,15.418
						c-3.122,3.994-7.585,6.409-13.402,7.254C336.48,746.039,331.488,745,327.322,742.068z M341.114,790.912l33.356-89.68
						l19.469-2.831l-33.35,89.678L341.114,790.912z M340.504,733.284c3.825-0.555,5.343-3.466,4.578-8.737
						c-0.765-5.271-3.052-7.63-6.877-7.075c-3.812,0.554-5.336,3.467-4.571,8.738C334.399,731.481,336.692,733.838,340.504,733.284z
						 M383.66,780.628c-4.156-2.931-6.697-7.539-7.611-13.835c-0.917-6.296,0.205-11.437,3.355-15.429
						c3.159-3.994,7.643-6.415,13.467-7.262c5.817-0.845,10.794,0.198,14.917,3.135c4.12,2.934,6.643,7.547,7.559,13.84
						c0.915,6.299-0.189,11.436-3.303,15.425c-3.117,3.99-7.59,6.404-13.407,7.249C392.814,784.597,387.826,783.56,383.66,780.628z
						 M396.842,771.844c3.818-0.556,5.342-3.469,4.577-8.74c-0.768-5.27-3.061-7.627-6.879-7.071
						c-3.812,0.554-5.336,3.467-4.568,8.737C390.737,770.041,393.03,772.398,396.842,771.844z"/>
				</g>
				<g>
					<path style="fill:#FFFFFF;" d="M163.497,718.823l53.811-7.825l2.575,17.701l-35.518,5.168l2.196,15.098
						c3.085-3.656,7.361-5.886,12.825-6.681s10.221-0.583,14.25,0.638c4.036,1.222,7.246,3.143,9.636,5.768
						c4.691,5.18,7.516,11.074,8.477,17.688c1.339,9.201-0.311,16.895-4.959,23.07c-4.65,6.18-11.687,9.954-21.123,11.324
						c-9.442,1.375-17.226,0.198-23.349-3.532c-6.133-3.727-10.059-9.117-11.808-16.177l19.938-2.9
						c0.722,2.224,2.214,3.916,4.471,5.073c2.255,1.161,5.118,1.486,8.576,0.982c3.458-0.504,5.951-2.049,7.463-4.641
						c1.507-2.587,1.978-5.808,1.419-9.662c-0.56-3.857-1.953-6.709-4.192-8.553c-2.238-1.841-4.968-2.53-8.194-2.06
						c-3.226,0.47-5.582,1.516-7.071,3.139c-1.492,1.624-2.29,3.484-2.38,5.585l-19.475,2.832L163.497,718.823z"/>
					<path style="fill:#FFFFFF;" d="M252.854,709.807c4.064-2.759,9.083-4.572,15.061-5.441c5.971-0.868,11.307-0.561,15.978,0.928
						c4.681,1.489,8.552,4.017,11.643,7.585c3.094,3.567,5.595,7.762,7.504,12.585c1.902,4.824,3.315,10.382,4.228,16.675
						c0.917,6.295,1.146,12.025,0.696,17.189c-0.456,5.169-1.656,9.905-3.605,14.204c-1.949,4.3-4.94,7.823-9.003,10.586
						c-4.054,2.76-9.08,4.571-15.052,5.439c-5.978,0.87-11.306,0.564-15.987-0.925c-4.665-1.49-8.552-4.017-11.636-7.584
						c-3.091-3.568-5.592-7.763-7.502-12.589c-1.902-4.824-3.308-10.38-4.225-16.679c-0.913-6.293-1.149-12.021-0.698-17.185
						c0.456-5.169,1.657-9.902,3.602-14.204C245.8,716.093,248.807,712.565,252.854,709.807z M276.815,723.735
						c-1.829-0.66-3.874-0.826-6.155-0.492c-2.288,0.332-4.204,1.073-5.762,2.224c-1.558,1.151-2.699,2.461-3.405,3.928
						c-0.706,1.468-1.188,3.348-1.412,5.63c-0.228,2.282-0.278,4.455-0.137,6.522c0.146,2.072,0.422,4.52,0.833,7.351
						c0.411,2.831,0.845,5.259,1.295,7.281c0.453,2.024,1.121,4.097,1.989,6.221c0.865,2.122,1.863,3.782,2.958,4.992
						c1.094,1.206,2.561,2.14,4.382,2.795c1.823,0.661,3.867,0.828,6.155,0.492c2.282-0.331,4.197-1.071,5.762-2.224
						c1.559-1.148,2.696-2.46,3.408-3.929c0.711-1.472,1.178-3.346,1.407-5.625c0.23-2.286,0.276-4.461,0.138-6.532
						c-0.141-2.067-0.414-4.518-0.826-7.35c-0.411-2.831-0.848-5.255-1.302-7.282c-0.456-2.02-1.119-4.091-1.991-6.214
						c-0.868-2.121-1.851-3.789-2.952-4.994C280.1,725.325,278.637,724.394,276.815,723.735z"/>
					<path style="fill:#FFFFFF;" d="M320.607,733.21c-4.155-2.928-6.695-7.543-7.611-13.835c-0.916-6.292,0.206-11.434,3.355-15.429
						c3.16-3.991,7.644-6.415,13.467-7.262c5.817-0.845,10.788,0.203,14.917,3.135c4.121,2.94,6.643,7.551,7.559,13.843
						c0.916,6.292-0.189,11.436-3.304,15.419c-3.122,3.994-7.585,6.409-13.402,7.254
						C329.764,737.181,324.772,736.141,320.607,733.21z M334.398,782.054l33.356-89.68l19.469-2.831l-33.35,89.678L334.398,782.054z
						 M333.788,724.425c3.825-0.555,5.343-3.466,4.578-8.737c-0.765-5.271-3.052-7.63-6.877-7.075
						c-3.811,0.554-5.336,3.467-4.571,8.738C327.684,722.622,329.977,724.98,333.788,724.425z M376.944,771.77
						c-4.156-2.931-6.697-7.539-7.611-13.836c-0.917-6.295,0.205-11.437,3.355-15.429c3.159-3.994,7.644-6.415,13.467-7.262
						c5.817-0.845,10.794,0.198,14.917,3.135c4.12,2.934,6.643,7.547,7.559,13.84c0.915,6.299-0.189,11.436-3.303,15.425
						c-3.117,3.99-7.59,6.404-13.407,7.249C386.098,775.739,381.11,774.702,376.944,771.77z M390.126,762.986
						c3.818-0.556,5.343-3.469,4.577-8.74c-0.768-5.27-3.061-7.627-6.879-7.071c-3.812,0.554-5.336,3.467-4.568,8.737
						C384.021,761.183,386.314,763.54,390.126,762.986z"/>
				</g>
			</g>
			<g>
				<g style="opacity:0.39;">
					<defs>
						
							<filter id="Adobe_OpacityMaskFilter_00000096060744927180622860000009017735303021024434_" filterUnits="userSpaceOnUse" x="385.264" y="387.957" width="141.579" height="187.186">
							<feFlood  style="flood-color:white;flood-opacity:1" result="back"/>
							<feBlend  in="SourceGraphic" in2="back" mode="normal"/>
						</filter>
					</defs>
					
						<mask maskUnits="userSpaceOnUse" x="385.264" y="387.957" width="141.579" height="187.186" id="SVGID_00000069382624150922070730000000196207794287996075_">
						<g style="filter:url(#Adobe_OpacityMaskFilter_00000096060744927180622860000009017735303021024434_);">
							<defs>
								
									<filter id="Adobe_OpacityMaskFilter_00000025435666998954693090000007410604230294719117_" filterUnits="userSpaceOnUse" x="385.264" y="387.957" width="141.579" height="187.186">
									<feFlood  style="flood-color:white;flood-opacity:1" result="back"/>
									<feBlend  in="SourceGraphic" in2="back" mode="normal"/>
								</filter>
							</defs>
							
								<mask maskUnits="userSpaceOnUse" x="385.264" y="387.957" width="141.579" height="187.186" id="SVGID_00000069382624150922070730000000196207794287996075_">
								<g style="filter:url(#Adobe_OpacityMaskFilter_00000025435666998954693090000007410604230294719117_);">
								</g>
							</mask>
							
								<linearGradient id="SVGID_00000043431774439335328180000009211494002326805176_" gradientUnits="userSpaceOnUse" x1="464.1416" y1="494.0551" x2="565.4578" y2="672.8483">
								<stop  offset="0" style="stop-color:#808080"/>
								<stop  offset="1" style="stop-color:#000000"/>
							</linearGradient>
							
								<path style="mask:url(#SVGID_00000069382624150922070730000000196207794287996075_);fill:url(#SVGID_00000043431774439335328180000009211494002326805176_);" d="
								M432.755,432.458c0,4.36,1.271,8.256,3.817,11.69c2.542,3.434,5.915,6.622,10.112,9.559c4.197,2.941,8.956,5.73,14.279,8.374
								c5.319,2.644,10.771,5.367,16.358,8.173c5.585,2.806,11.037,5.814,16.358,9.017c5.321,3.204,10.08,6.82,14.279,10.848
								c4.197,4.028,7.567,8.586,10.112,13.673c2.544,5.085,3.817,10.898,3.817,17.436c0,5.947-0.959,11.415-2.876,16.402
								c-1.917,4.989-4.544,9.466-7.881,13.43c-3.339,3.964-7.287,7.466-11.848,10.505c-4.56,3.037-9.486,5.547-14.773,7.531
								c-5.289,1.982-10.84,3.484-16.656,4.51c-5.817,1.021-11.667,1.533-17.55,1.533c-8.262,0-16.292-1.007-24.092-3.023
								c-7.8-2.018-14.739-5.057-20.819-9.12c-6.084-4.066-10.956-9.154-14.624-15.27c-3.668-6.113-5.504-13.268-5.504-21.464
								c0-4.229,0.677-7.947,2.032-11.154c1.355-3.206,3.041-5.881,5.057-8.03c2.016-2.147,4.215-3.768,6.594-4.858
								s4.592-1.637,6.642-1.637c2.115,0,3.883,0.58,5.305,1.736c1.42,1.156,2.131,2.957,2.131,5.402
								c0,1.126-0.127,2.316-0.381,3.569c-0.254,1.257-0.522,2.628-0.808,4.115c-0.284,1.488-0.554,3.122-0.808,4.908
								c-0.254,1.784-0.381,3.734-0.381,5.849c0,4.628,1.055,8.626,3.164,11.996c2.109,3.37,4.91,6.147,8.405,8.328
								c3.496,2.181,7.516,3.802,12.064,4.858c4.548,1.059,9.262,1.587,14.141,1.587c5.75,0,11.5-0.693,17.252-2.082
								c5.75-1.386,10.906-3.434,15.466-6.141c4.56-2.709,8.26-6.026,11.105-9.957c2.84-3.931,4.262-8.439,4.262-13.526
								c0-4.689-1.273-8.882-3.817-12.582c-2.544-3.698-5.915-7.116-10.112-10.253c-4.199-3.138-8.973-6.094-14.328-8.868
								c-5.353-2.775-10.807-5.581-16.358-8.423c-5.551-2.838-10.999-5.827-16.338-8.964c-5.339-3.138-10.102-6.59-14.286-10.354
								c-4.187-3.764-7.547-7.976-10.086-12.634c-2.536-4.656-3.806-9.955-3.806-15.901c0-5.561,1.335-11.041,4.008-16.437
								c2.673-5.398,6.699-10.231,12.078-14.503c5.379-4.272,12.092-7.73,20.146-10.38c8.05-2.65,17.488-3.974,28.311-3.974
								c6.874,0,13.599,1.027,20.177,3.075c6.576,2.05,12.441,4.957,17.597,8.725c5.156,3.768,9.303,8.263,12.443,13.482
								c3.138,5.224,4.709,11.005,4.709,17.351c0,3.768-0.644,7.635-1.933,11.601c-1.289,3.964-3.357,8.096-6.197,12.392
								c-2.777,4.165-5.8,7.255-9.073,9.271c-3.271,2.016-6.23,3.023-8.872,3.023c-1.984,0-3.605-0.576-4.858-1.732
								c-1.257-1.154-1.885-2.886-1.885-5.196c0-1.714,0.399-3.744,1.202-6.086c0.798-2.344,2.167-5.031,4.103-8.068
								c1.799-2.902,3.134-5.625,4.002-8.165c0.868-2.54,1.301-4.898,1.301-7.077c0-3.365-0.912-6.318-2.733-8.858
								c-1.823-2.54-4.342-4.668-7.555-6.384c-3.216-1.714-7.075-3.001-11.581-3.859c-4.509-0.858-9.446-1.287-14.813-1.287
								c-5.949,0-11.122,0.677-15.516,2.032c-4.397,1.353-8.066,3.104-11.005,5.251c-2.941,2.147-5.124,4.54-6.544,7.182
								C433.465,427.275,432.755,429.882,432.755,432.458z"/>
						</g>
					</mask>
					
						<linearGradient id="SVGID_00000070099771871839969530000016877360824433310856_" gradientUnits="userSpaceOnUse" x1="464.1416" y1="494.0551" x2="565.4578" y2="672.8483">
						<stop  offset="0" style="stop-color:#000000"/>
						<stop  offset="1" style="stop-color:#FFFFFF"/>
					</linearGradient>
					<path style="fill:url(#SVGID_00000070099771871839969530000016877360824433310856_);" d="M432.755,432.458
						c0,4.36,1.271,8.256,3.817,11.69c2.542,3.434,5.915,6.622,10.112,9.559c4.197,2.941,8.956,5.73,14.279,8.374
						c5.319,2.644,10.771,5.367,16.358,8.173c5.585,2.806,11.037,5.814,16.358,9.017c5.321,3.204,10.08,6.82,14.279,10.848
						c4.197,4.028,7.567,8.586,10.112,13.673c2.544,5.085,3.817,10.898,3.817,17.436c0,5.947-0.959,11.415-2.876,16.402
						c-1.917,4.989-4.544,9.466-7.881,13.43c-3.339,3.964-7.287,7.466-11.848,10.505c-4.56,3.037-9.486,5.547-14.773,7.531
						c-5.289,1.982-10.84,3.484-16.656,4.51c-5.817,1.021-11.667,1.533-17.55,1.533c-8.262,0-16.292-1.007-24.092-3.023
						c-7.8-2.018-14.739-5.057-20.819-9.12c-6.084-4.066-10.956-9.154-14.624-15.27c-3.668-6.113-5.504-13.268-5.504-21.464
						c0-4.229,0.677-7.947,2.032-11.154c1.355-3.206,3.041-5.881,5.057-8.03c2.016-2.147,4.215-3.768,6.594-4.858
						s4.592-1.637,6.642-1.637c2.115,0,3.883,0.58,5.305,1.736c1.42,1.156,2.131,2.957,2.131,5.402c0,1.126-0.127,2.316-0.381,3.569
						c-0.254,1.257-0.522,2.628-0.808,4.115c-0.284,1.488-0.554,3.122-0.808,4.908c-0.254,1.784-0.381,3.734-0.381,5.849
						c0,4.628,1.055,8.626,3.164,11.996c2.109,3.37,4.91,6.147,8.405,8.328c3.496,2.181,7.516,3.802,12.064,4.858
						c4.548,1.059,9.262,1.587,14.141,1.587c5.75,0,11.5-0.693,17.252-2.082c5.75-1.386,10.906-3.434,15.466-6.141
						c4.56-2.709,8.26-6.026,11.105-9.957c2.84-3.931,4.262-8.439,4.262-13.526c0-4.689-1.273-8.882-3.817-12.582
						c-2.544-3.698-5.915-7.116-10.112-10.253c-4.199-3.138-8.973-6.094-14.328-8.868c-5.353-2.775-10.807-5.581-16.358-8.423
						c-5.551-2.838-10.999-5.827-16.338-8.964c-5.339-3.138-10.102-6.59-14.286-10.354c-4.187-3.764-7.547-7.976-10.086-12.634
						c-2.536-4.656-3.806-9.955-3.806-15.901c0-5.561,1.335-11.041,4.008-16.437c2.673-5.398,6.699-10.231,12.078-14.503
						c5.379-4.272,12.092-7.73,20.146-10.38c8.05-2.65,17.488-3.974,28.311-3.974c6.874,0,13.599,1.027,20.177,3.075
						c6.576,2.05,12.441,4.957,17.597,8.725c5.156,3.768,9.303,8.263,12.443,13.482c3.138,5.224,4.709,11.005,4.709,17.351
						c0,3.768-0.644,7.635-1.933,11.601c-1.289,3.964-3.357,8.096-6.197,12.392c-2.777,4.165-5.8,7.255-9.073,9.271
						c-3.271,2.016-6.23,3.023-8.872,3.023c-1.984,0-3.605-0.576-4.858-1.732c-1.257-1.154-1.885-2.886-1.885-5.196
						c0-1.714,0.399-3.744,1.202-6.086c0.798-2.344,2.167-5.031,4.103-8.068c1.799-2.902,3.134-5.625,4.002-8.165
						c0.868-2.54,1.301-4.898,1.301-7.077c0-3.365-0.912-6.318-2.733-8.858c-1.823-2.54-4.342-4.668-7.555-6.384
						c-3.216-1.714-7.075-3.001-11.581-3.859c-4.509-0.858-9.446-1.287-14.813-1.287c-5.949,0-11.122,0.677-15.516,2.032
						c-4.397,1.353-8.066,3.104-11.005,5.251c-2.941,2.147-5.124,4.54-6.544,7.182C433.465,427.275,432.755,429.882,432.755,432.458
						z"/>
					<defs>
						
							<filter id="Adobe_OpacityMaskFilter_00000036225529860539172350000014421494930580661688_" filterUnits="userSpaceOnUse" x="537.354" y="464.199" width="110.438" height="98.75">
							<feFlood  style="flood-color:white;flood-opacity:1" result="back"/>
							<feBlend  in="SourceGraphic" in2="back" mode="normal"/>
						</filter>
					</defs>
					
						<mask maskUnits="userSpaceOnUse" x="537.354" y="464.199" width="110.438" height="98.75" id="SVGID_00000062871455862141602780000011057468995583931568_">
						<g style="filter:url(#Adobe_OpacityMaskFilter_00000036225529860539172350000014421494930580661688_);">
							<defs>
								
									<filter id="Adobe_OpacityMaskFilter_00000135672114810170849360000001826544694464285355_" filterUnits="userSpaceOnUse" x="537.354" y="464.199" width="110.438" height="98.75">
									<feFlood  style="flood-color:white;flood-opacity:1" result="back"/>
									<feBlend  in="SourceGraphic" in2="back" mode="normal"/>
								</filter>
							</defs>
							
								<mask maskUnits="userSpaceOnUse" x="537.354" y="464.199" width="110.438" height="98.75" id="SVGID_00000062871455862141602780000011057468995583931568_">
								<g style="filter:url(#Adobe_OpacityMaskFilter_00000135672114810170849360000001826544694464285355_);">
								</g>
							</mask>
							
								<linearGradient id="SVGID_00000016051762759647208730000013454699314587842709_" gradientUnits="userSpaceOnUse" x1="544.3087" y1="448.6271" x2="645.6248" y2="627.42">
								<stop  offset="0" style="stop-color:#808080"/>
								<stop  offset="1" style="stop-color:#000000"/>
							</linearGradient>
							
								<path style="mask:url(#SVGID_00000062871455862141602780000011057468995583931568_);fill:url(#SVGID_00000016051762759647208730000013454699314587842709_);" d="
								M647.793,537.884c-1.521,2.139-3.555,4.646-6.098,7.52c-2.546,2.874-5.404,5.615-8.576,8.221
								c-3.174,2.608-6.578,4.813-10.213,6.618c-3.635,1.805-7.271,2.707-10.906,2.707c-4.389,0-8.052-1.39-10.983-4.171
								c-2.932-2.781-5.464-6.82-7.595-12.121c-1.601,1.831-3.565,3.696-5.897,5.593c-2.334,1.899-4.882,3.617-7.645,5.152
								c-2.767,1.537-5.647,2.797-8.646,3.778c-2.999,0.981-5.998,1.472-8.995,1.472c-3.172,0-6.262-0.65-9.269-1.95
								c-3.009-1.301-5.669-3.166-7.982-5.601c-2.314-2.433-4.163-5.4-5.551-8.902c-1.388-3.502-2.081-7.452-2.081-11.853
								c0-4.938,0.697-10.01,2.093-15.214c1.396-5.202,3.557-10.832,6.483-16.892c2.926-6.062,6.068-11.297,9.426-15.711
								c3.357-4.411,7.029-8.264,11.019-11.557c3.99-3.295,8.195-5.913,12.618-7.855c4.421-1.943,8.926-2.916,13.514-2.916
								c1.529,0,2.727,0.302,3.591,0.902c0.864,0.602,1.579,1.287,2.143,2.054c0.564,0.769,1.112,1.521,1.646,2.254
								c0.53,0.735,1.196,1.269,1.994,1.605c0.797,0.334,1.611,0.55,2.443,0.65c0.83,0.101,1.68,0.151,2.544,0.151
								c0.731,0,1.478-0.016,2.242-0.05c0.767-0.034,1.513-0.052,2.246-0.052c0.997,0,1.929,0.101,2.792,0.3
								c0.864,0.203,1.629,0.636,2.29,1.303c0.663,0.669,1.176,1.605,1.541,2.806c0.362,1.202,0.544,2.84,0.544,4.91
								c0,3.16-0.332,6.664-0.991,10.515c-0.661,3.851-1.418,7.798-2.27,11.84c-0.854,4.04-1.827,8.646-2.918,13.82
								c-1.09,5.174-1.637,9.532-1.637,13.075c0,3.029,0.282,5.398,0.844,7.104c0.56,1.708,1.768,2.562,3.619,2.562
								c1.388,0,2.84-0.346,4.362-1.033c1.519-0.687,3.057-1.587,4.61-2.701c1.553-1.114,3.106-2.375,4.659-3.786
								c1.553-1.408,3.025-2.866,4.413-4.373c3.237-3.539,6.509-7.536,9.816-11.99L647.793,537.884z M562.736,530.118
								c0,1.704,0.113,3.359,0.346,4.959c0.232,1.603,0.648,3.033,1.243,4.294c0.596,1.261,1.39,2.284,2.383,3.069
								c0.993,0.783,2.25,1.176,3.774,1.176c2.449,0,4.667-1.065,6.654-3.196c1.984-2.127,3.708-4.689,5.164-7.684
								c1.456-2.995,2.632-6.088,3.525-9.283c0.894-3.194,1.474-5.855,1.738-7.984l7.394-32.231c-2.711,0-5.353,0.671-7.931,2.014
								c-2.578,1.345-5.007,3.162-7.287,5.456c-2.28,2.292-4.38,4.914-6.296,7.861c-1.919,2.949-3.802,6.586-5.651,10.91
								c-1.851,4.326-3.158,8.125-3.917,11.401C563.115,524.155,562.736,527.234,562.736,530.118z"/>
						</g>
					</mask>
					
						<linearGradient id="SVGID_00000127738625581110090040000012772994042004600761_" gradientUnits="userSpaceOnUse" x1="544.3087" y1="448.6271" x2="645.6248" y2="627.42">
						<stop  offset="0" style="stop-color:#000000"/>
						<stop  offset="1" style="stop-color:#FFFFFF"/>
					</linearGradient>
					<path style="fill:url(#SVGID_00000127738625581110090040000012772994042004600761_);" d="M647.793,537.884
						c-1.521,2.139-3.555,4.646-6.098,7.52c-2.546,2.874-5.404,5.615-8.576,8.221c-3.174,2.608-6.578,4.813-10.213,6.618
						c-3.635,1.805-7.271,2.707-10.906,2.707c-4.389,0-8.052-1.39-10.983-4.171c-2.932-2.781-5.464-6.82-7.595-12.121
						c-1.601,1.831-3.565,3.696-5.897,5.593c-2.334,1.899-4.882,3.617-7.645,5.152c-2.767,1.537-5.647,2.797-8.646,3.778
						c-2.999,0.981-5.998,1.472-8.995,1.472c-3.172,0-6.262-0.65-9.269-1.95c-3.009-1.301-5.669-3.166-7.982-5.601
						c-2.314-2.433-4.163-5.4-5.551-8.902c-1.388-3.502-2.081-7.452-2.081-11.853c0-4.938,0.697-10.01,2.093-15.214
						c1.396-5.202,3.557-10.832,6.483-16.892c2.926-6.062,6.068-11.297,9.426-15.711c3.357-4.411,7.029-8.264,11.019-11.557
						c3.99-3.295,8.195-5.913,12.618-7.855c4.421-1.943,8.926-2.916,13.514-2.916c1.529,0,2.727,0.302,3.591,0.902
						c0.864,0.602,1.579,1.287,2.143,2.054c0.564,0.769,1.112,1.521,1.646,2.254c0.53,0.735,1.196,1.269,1.994,1.605
						c0.797,0.334,1.611,0.55,2.443,0.65c0.83,0.101,1.68,0.151,2.544,0.151c0.731,0,1.478-0.016,2.242-0.05
						c0.767-0.034,1.513-0.052,2.246-0.052c0.997,0,1.929,0.101,2.792,0.3c0.864,0.203,1.629,0.636,2.29,1.303
						c0.663,0.669,1.176,1.605,1.541,2.806c0.362,1.202,0.544,2.84,0.544,4.91c0,3.16-0.332,6.664-0.991,10.515
						c-0.661,3.851-1.418,7.798-2.27,11.84c-0.854,4.04-1.827,8.646-2.918,13.82c-1.09,5.174-1.637,9.532-1.637,13.075
						c0,3.029,0.282,5.398,0.844,7.104c0.56,1.708,1.768,2.562,3.619,2.562c1.388,0,2.84-0.346,4.362-1.033
						c1.519-0.687,3.057-1.587,4.61-2.701c1.553-1.114,3.106-2.375,4.659-3.786c1.553-1.408,3.025-2.866,4.413-4.373
						c3.237-3.539,6.509-7.536,9.816-11.99L647.793,537.884z M562.736,530.118c0,1.704,0.113,3.359,0.346,4.959
						c0.232,1.603,0.648,3.033,1.243,4.294c0.596,1.261,1.39,2.284,2.383,3.069c0.993,0.783,2.25,1.176,3.774,1.176
						c2.449,0,4.667-1.065,6.654-3.196c1.984-2.127,3.708-4.689,5.164-7.684c1.456-2.995,2.632-6.088,3.525-9.283
						c0.894-3.194,1.474-5.855,1.738-7.984l7.394-32.231c-2.711,0-5.353,0.671-7.931,2.014c-2.578,1.345-5.007,3.162-7.287,5.456
						c-2.28,2.292-4.38,4.914-6.296,7.861c-1.919,2.949-3.802,6.586-5.651,10.91c-1.851,4.326-3.158,8.125-3.917,11.401
						C563.115,524.155,562.736,527.234,562.736,530.118z"/>
					<defs>
						
							<filter id="Adobe_OpacityMaskFilter_00000016760884885375611280000007151875441504798082_" filterUnits="userSpaceOnUse" x="636.696" y="374.474" width="78.424" height="187.978">
							<feFlood  style="flood-color:white;flood-opacity:1" result="back"/>
							<feBlend  in="SourceGraphic" in2="back" mode="normal"/>
						</filter>
					</defs>
					
						<mask maskUnits="userSpaceOnUse" x="636.696" y="374.474" width="78.424" height="187.978" id="SVGID_00000113327542884133224760000017158457243366158214_">
						<g style="filter:url(#Adobe_OpacityMaskFilter_00000016760884885375611280000007151875441504798082_);">
							<defs>
								
									<filter id="Adobe_OpacityMaskFilter_00000155110015841315236260000006468166126304095659_" filterUnits="userSpaceOnUse" x="636.696" y="374.474" width="78.424" height="187.978">
									<feFlood  style="flood-color:white;flood-opacity:1" result="back"/>
									<feBlend  in="SourceGraphic" in2="back" mode="normal"/>
								</filter>
							</defs>
							
								<mask maskUnits="userSpaceOnUse" x="636.696" y="374.474" width="78.424" height="187.978" id="SVGID_00000113327542884133224760000017158457243366158214_">
								<g style="filter:url(#Adobe_OpacityMaskFilter_00000155110015841315236260000006468166126304095659_);">
								</g>
							</mask>
							
								<linearGradient id="SVGID_00000135672758168412523190000007572642902932649113_" gradientUnits="userSpaceOnUse" x1="639.1535" y1="394.8817" x2="740.4695" y2="573.6746">
								<stop  offset="0" style="stop-color:#808080"/>
								<stop  offset="1" style="stop-color:#000000"/>
							</linearGradient>
							
								<path style="mask:url(#SVGID_00000113327542884133224760000017158457243366158214_);fill:url(#SVGID_00000135672758168412523190000007572642902932649113_);" d="
								M661.885,562.453c-3.557,0-6.866-1.545-9.927-4.636c-3.063-3.09-5.732-7.238-8.002-12.441
								c-2.27-5.206-4.05-11.24-5.333-18.104c-1.285-6.862-1.927-14.068-1.927-21.615c0-6.487,0.953-15.145,2.86-25.975
								c1.905-10.829,2.858-16.243,2.858-16.243c0,0.002,1.444-5.406,4.332-16.223c2.888-10.819,5.782-19.494,8.688-26.029
								c2.904-6.533,6.058-12.638,9.462-18.312c3.404-5.676,6.975-10.624,10.715-14.842c3.738-4.217,7.643-7.532,11.716-9.943
								c4.072-2.411,8.211-3.615,12.417-3.615c3.061,0,5.587,0.584,7.579,1.752c1.992,1.168,3.559,2.711,4.699,4.626
								c1.138,1.919,1.94,4.09,2.403,6.515c0.461,2.427,0.693,4.898,0.693,7.412c0,6.25-0.739,12.614-2.216,19.093
								c-1.478,6.481-3.47,12.993-5.978,19.54c-2.508,6.546-5.412,13.111-8.711,19.691c-3.299,6.582-6.735,13.111-10.306,19.591
								c-3.575,6.481-7.166,12.862-10.773,19.143c-3.609,6.28-6.938,12.421-9.988,18.42c-0.332,0.665-0.679,1.533-1.045,2.6
								c-0.365,1.067-0.711,2.217-1.043,3.45c-0.332,1.231-0.663,2.548-0.995,3.948c-0.332,1.4-0.598,2.767-0.796,4.097v1.402
								c0,1.732,0.181,3.414,0.546,5.047c0.365,1.635,0.812,3.1,1.345,4.401c0.528,1.301,1.092,2.334,1.69,3.098
								c0.596,0.767,1.16,1.15,1.69,1.15c1.287,0,2.759-0.266,4.415-0.799c1.658-0.534,3.418-1.251,5.279-2.151
								c1.861-0.898,3.774-1.932,5.736-3.098c1.962-1.166,3.859-2.35,5.686-3.551c4.264-2.797,8.729-6.03,13.401-9.696l8.753,20.898
								c-6.058,4.022-12.046,7.603-17.967,10.745c-2.588,1.321-5.259,2.624-8.016,3.913c-2.757,1.289-5.53,2.435-8.322,3.442
								c-2.791,1.007-5.514,1.807-8.167,2.403C666.681,562.155,664.199,562.453,661.885,562.453z M661.978,483.86
								c2.983-5.333,6.149-11.331,9.498-17.997c3.349-6.664,6.517-13.53,9.5-20.596c2.983-7.065,5.571-14.114,7.758-21.147
								c2.187-7.031,3.581-13.579,4.179-19.647c0-1.933-0.05-3.583-0.141-4.949c-0.095-1.366-0.393-2.048-0.894-2.048
								c-1.817,0-3.774,1.255-5.871,3.766c-2.099,2.51-4.197,5.909-6.294,10.195c-2.099,4.284-4.606,11.254-7.518,20.908
								c-2.914,9.655-4.372,14.483-4.372,14.485s-0.89,4.481-2.667,13.438C663.378,469.226,662.32,477.089,661.978,483.86z"/>
						</g>
					</mask>
					
						<linearGradient id="SVGID_00000042719289551253162630000007172945456670646710_" gradientUnits="userSpaceOnUse" x1="639.1535" y1="394.8817" x2="740.4695" y2="573.6746">
						<stop  offset="0" style="stop-color:#000000"/>
						<stop  offset="1" style="stop-color:#FFFFFF"/>
					</linearGradient>
					<path style="fill:url(#SVGID_00000042719289551253162630000007172945456670646710_);" d="M661.885,562.453
						c-3.557,0-6.866-1.545-9.927-4.636c-3.063-3.09-5.732-7.238-8.002-12.441c-2.27-5.206-4.05-11.24-5.333-18.104
						c-1.285-6.862-1.927-14.068-1.927-21.615c0-6.487,0.953-15.145,2.86-25.975c1.905-10.829,2.858-16.243,2.858-16.243
						c0,0.002,1.444-5.406,4.332-16.223c2.888-10.819,5.782-19.494,8.688-26.029c2.904-6.533,6.058-12.638,9.462-18.312
						c3.404-5.676,6.975-10.624,10.715-14.842c3.738-4.217,7.643-7.532,11.716-9.943c4.072-2.411,8.211-3.615,12.417-3.615
						c3.061,0,5.587,0.584,7.579,1.752c1.992,1.168,3.559,2.711,4.699,4.626c1.138,1.919,1.94,4.09,2.403,6.515
						c0.461,2.427,0.693,4.898,0.693,7.412c0,6.25-0.739,12.614-2.216,19.093c-1.478,6.481-3.47,12.993-5.978,19.54
						c-2.508,6.546-5.412,13.111-8.711,19.691c-3.299,6.582-6.735,13.111-10.306,19.591c-3.575,6.481-7.166,12.862-10.773,19.143
						c-3.609,6.28-6.938,12.421-9.988,18.42c-0.332,0.665-0.679,1.533-1.045,2.6c-0.365,1.067-0.711,2.217-1.043,3.45
						c-0.332,1.231-0.663,2.548-0.995,3.948c-0.332,1.4-0.598,2.767-0.796,4.097v1.402c0,1.732,0.181,3.414,0.546,5.047
						c0.365,1.635,0.812,3.1,1.345,4.401c0.528,1.301,1.092,2.334,1.69,3.098c0.596,0.767,1.16,1.15,1.69,1.15
						c1.287,0,2.759-0.266,4.415-0.799c1.658-0.534,3.418-1.251,5.279-2.151c1.861-0.898,3.774-1.932,5.736-3.098
						c1.962-1.166,3.859-2.35,5.686-3.551c4.264-2.797,8.729-6.03,13.401-9.696l8.753,20.898
						c-6.058,4.022-12.046,7.603-17.967,10.745c-2.588,1.321-5.259,2.624-8.016,3.913c-2.757,1.289-5.53,2.435-8.322,3.442
						c-2.791,1.007-5.514,1.807-8.167,2.403C666.681,562.155,664.199,562.453,661.885,562.453z M661.978,483.86
						c2.983-5.333,6.149-11.331,9.498-17.997c3.349-6.664,6.517-13.53,9.5-20.596c2.983-7.065,5.571-14.114,7.758-21.147
						c2.187-7.031,3.581-13.579,4.179-19.647c0-1.933-0.05-3.583-0.141-4.949c-0.095-1.366-0.393-2.048-0.894-2.048
						c-1.817,0-3.774,1.255-5.871,3.766c-2.099,2.51-4.197,5.909-6.294,10.195c-2.099,4.284-4.606,11.254-7.518,20.908
						c-2.914,9.655-4.372,14.483-4.372,14.485s-0.89,4.481-2.667,13.438C663.378,469.226,662.32,477.089,661.978,483.86z"/>
					<defs>
						
							<filter id="Adobe_OpacityMaskFilter_00000008862287374003851260000016296411520885653665_" filterUnits="userSpaceOnUse" x="689.443" y="464.398" width="98.011" height="98.055">
							<feFlood  style="flood-color:white;flood-opacity:1" result="back"/>
							<feBlend  in="SourceGraphic" in2="back" mode="normal"/>
						</filter>
					</defs>
					
						<mask maskUnits="userSpaceOnUse" x="689.443" y="464.398" width="98.011" height="98.055" id="SVGID_00000106143816878853416570000013157942910913756845_">
						<g style="filter:url(#Adobe_OpacityMaskFilter_00000008862287374003851260000016296411520885653665_);">
							<defs>
								
									<filter id="Adobe_OpacityMaskFilter_00000034081833526553763360000006105955341592094858_" filterUnits="userSpaceOnUse" x="689.443" y="464.398" width="98.011" height="98.055">
									<feFlood  style="flood-color:white;flood-opacity:1" result="back"/>
									<feBlend  in="SourceGraphic" in2="back" mode="normal"/>
								</filter>
							</defs>
							
								<mask maskUnits="userSpaceOnUse" x="689.443" y="464.398" width="98.011" height="98.055" id="SVGID_00000106143816878853416570000013157942910913756845_">
								<g style="filter:url(#Adobe_OpacityMaskFilter_00000034081833526553763360000006105955341592094858_);">
								</g>
							</mask>
							
								<linearGradient id="SVGID_00000168082222130279171660000001493924967147214730_" gradientUnits="userSpaceOnUse" x1="655.4821" y1="385.6283" x2="756.798" y2="564.4208">
								<stop  offset="0" style="stop-color:#808080"/>
								<stop  offset="1" style="stop-color:#000000"/>
							</linearGradient>
							
								<path style="mask:url(#SVGID_00000106143816878853416570000013157942910913756845_);fill:url(#SVGID_00000168082222130279171660000001493924967147214730_);" d="
								M726.473,562.453c-6.171,0-11.571-1.144-16.201-3.432c-4.628-2.286-8.487-5.365-11.571-9.232
								c-3.086-3.869-5.4-8.342-6.944-13.422c-1.543-5.079-2.314-10.411-2.314-15.997c0-3.652,0.689-8.006,2.07-13.063
								c1.38-5.055,2.81-9.54,4.29-13.454c1.478-3.915,3.335-7.649,5.571-11.204c2.234-3.555,4.848-6.685,7.839-9.395
								c2.991-2.707,6.344-4.86,10.06-6.457c3.714-1.599,7.839-2.399,12.376-2.399c3.706,0,7.146,0.596,10.322,1.784
								c3.176,1.188,5.939,2.854,8.288,5.001c2.348,2.145,4.185,4.737,5.508,7.772c1.323,3.037,1.986,6.437,1.986,10.199
								c0,4.008-1.341,8.501-4.024,13.476c-2.683,4.975-5.813,9.242-9.391,12.797c-3.577,3.555-7.831,6.721-12.765,9.5
								c-4.936,2.779-10.284,4.945-16.046,6.495c0.993,1.746,1.972,3.202,2.935,4.366c0.959,1.162,1.938,2.068,2.936,2.713
								c0.995,0.646,2.04,1.098,3.134,1.357c1.092,0.26,2.272,0.387,3.533,0.387c3.966,0,8.145-0.775,12.541-2.326
								c4.395-1.551,8.676-3.49,12.841-5.818c4.163-2.326,8.096-4.862,11.798-7.609c3.7-2.747,6.84-5.349,9.418-7.806l12.791,12.991
								c-5.817,6.195-11.996,11.675-18.541,16.437c-2.842,2.044-5.899,4.054-9.17,6.028c-3.273,1.972-6.709,3.726-10.312,5.257
								c-3.603,1.529-7.337,2.755-11.204,3.674C734.362,561.994,730.441,562.453,726.473,562.453z M713.237,515.232
								c2.389,0,4.993-0.596,7.812-1.792c2.82-1.198,5.44-2.731,7.863-4.606c2.421-1.875,4.793-4.395,7.114-7.561
								c2.322-3.168,3.484-5.786,3.484-7.853c0-2.908-0.548-5.299-1.643-7.174c-1.094-1.875-2.437-2.812-4.03-2.812
								c-2.854,0-5.291,0.518-7.315,1.553c-2.024,1.035-3.714,2.375-5.075,4.022c-1.36,1.648-2.455,3.521-3.285,5.623
								s-1.792,4.703-2.886,7.804c-1.094,3.102-1.708,5.655-1.841,7.659C713.302,512.097,713.237,513.81,713.237,515.232z"/>
						</g>
					</mask>
					
						<linearGradient id="SVGID_00000066475794918468650550000006627958787781926297_" gradientUnits="userSpaceOnUse" x1="655.4821" y1="385.6283" x2="756.798" y2="564.4208">
						<stop  offset="0" style="stop-color:#000000"/>
						<stop  offset="1" style="stop-color:#FFFFFF"/>
					</linearGradient>
					<path style="fill:url(#SVGID_00000066475794918468650550000006627958787781926297_);" d="M726.473,562.453
						c-6.171,0-11.571-1.144-16.201-3.432c-4.628-2.286-8.487-5.365-11.571-9.232c-3.086-3.869-5.4-8.342-6.944-13.422
						c-1.543-5.079-2.314-10.411-2.314-15.997c0-3.652,0.689-8.006,2.07-13.063c1.38-5.055,2.81-9.54,4.29-13.454
						c1.478-3.915,3.335-7.649,5.571-11.204c2.234-3.555,4.848-6.685,7.839-9.395c2.991-2.707,6.344-4.86,10.06-6.457
						c3.714-1.599,7.839-2.399,12.376-2.399c3.706,0,7.146,0.596,10.322,1.784c3.176,1.188,5.939,2.854,8.288,5.001
						c2.348,2.145,4.185,4.737,5.508,7.772c1.323,3.037,1.986,6.437,1.986,10.199c0,4.008-1.341,8.501-4.024,13.476
						c-2.683,4.975-5.813,9.242-9.391,12.797c-3.577,3.555-7.831,6.721-12.765,9.5c-4.936,2.779-10.284,4.945-16.046,6.495
						c0.993,1.746,1.972,3.202,2.935,4.366c0.959,1.162,1.938,2.068,2.936,2.713c0.995,0.646,2.04,1.098,3.134,1.357
						c1.092,0.26,2.272,0.387,3.533,0.387c3.966,0,8.145-0.775,12.541-2.326c4.395-1.551,8.676-3.49,12.841-5.818
						c4.163-2.326,8.096-4.862,11.798-7.609c3.7-2.747,6.84-5.349,9.418-7.806l12.791,12.991
						c-5.817,6.195-11.996,11.675-18.541,16.437c-2.842,2.044-5.899,4.054-9.17,6.028c-3.273,1.972-6.709,3.726-10.312,5.257
						c-3.603,1.529-7.337,2.755-11.204,3.674C734.362,561.994,730.441,562.453,726.473,562.453z M713.237,515.232
						c2.389,0,4.993-0.596,7.812-1.792c2.82-1.198,5.44-2.731,7.863-4.606c2.421-1.875,4.793-4.395,7.114-7.561
						c2.322-3.168,3.484-5.786,3.484-7.853c0-2.908-0.548-5.299-1.643-7.174c-1.094-1.875-2.437-2.812-4.03-2.812
						c-2.854,0-5.291,0.518-7.315,1.553c-2.024,1.035-3.714,2.375-5.075,4.022c-1.36,1.648-2.455,3.521-3.285,5.623
						s-1.792,4.703-2.886,7.804c-1.094,3.102-1.708,5.655-1.841,7.659C713.302,512.097,713.237,513.81,713.237,515.232z"/>
				</g>
				<g>
					<path style="fill:#FFFFFF;" d="M431.439,423.933c0,4.226,1.232,8.003,3.7,11.332c2.464,3.329,5.733,6.419,9.802,9.266
						c4.068,2.851,8.681,5.554,13.841,8.117c5.156,2.563,10.441,5.202,15.857,7.923c5.414,2.72,10.699,5.635,15.857,8.741
						c5.158,3.105,9.771,6.611,13.841,10.516c4.068,3.904,7.335,8.323,9.802,13.254c2.466,4.929,3.7,10.564,3.7,16.902
						c0,5.764-0.93,11.065-2.788,15.899c-1.858,4.836-4.405,9.176-7.639,13.019c-3.236,3.843-7.064,7.237-11.484,10.183
						c-4.421,2.944-9.195,5.377-14.32,7.301c-5.127,1.921-10.508,3.377-16.145,4.372c-5.639,0.99-11.309,1.486-17.012,1.486
						c-8.009,0-15.793-0.976-23.354-2.93c-7.561-1.956-14.288-4.902-20.181-8.841c-5.897-3.941-10.62-8.874-14.176-14.802
						c-3.556-5.926-5.335-12.861-5.335-20.806c0-4.099,0.656-7.703,1.97-10.812c1.313-3.107,2.948-5.701,4.902-7.784
						c1.954-2.081,4.086-3.652,6.392-4.709c2.306-1.057,4.451-1.586,6.438-1.586c2.05,0,3.764,0.562,5.142,1.683
						c1.377,1.12,2.066,2.867,2.066,5.237c0,1.092-0.123,2.245-0.37,3.46c-0.246,1.219-0.506,2.547-0.784,3.989
						c-0.275,1.442-0.537,3.026-0.784,4.757c-0.246,1.729-0.37,3.62-0.37,5.67c0,4.486,1.022,8.362,3.067,11.629
						c2.045,3.267,4.759,5.959,8.148,8.073c3.389,2.114,7.285,3.685,11.694,4.709c4.409,1.026,8.978,1.538,13.708,1.538
						c5.574,0,11.147-0.672,16.723-2.018c5.574-1.344,10.572-3.329,14.992-5.953c4.42-2.626,8.007-5.841,10.764-9.651
						c2.753-3.81,4.132-8.181,4.132-13.111c0-4.546-1.234-8.61-3.7-12.197c-2.466-3.585-5.733-6.898-9.802-9.938
						c-4.07-3.042-8.698-5.907-13.889-8.596c-5.189-2.69-10.475-5.41-15.857-8.165c-5.381-2.751-10.662-5.649-15.837-8.689
						c-5.175-3.042-9.792-6.388-13.849-10.037c-4.059-3.648-7.316-7.732-9.777-12.247c-2.459-4.513-3.689-9.649-3.689-15.414
						c0-5.391,1.294-10.703,3.885-15.934c2.591-5.233,6.494-9.917,11.708-14.058c5.214-4.141,11.721-7.493,19.528-10.061
						c7.803-2.568,16.952-3.853,27.443-3.853c6.663,0,13.182,0.995,19.559,2.98c6.375,1.987,12.06,4.806,17.058,8.458
						c4.998,3.652,9.018,8.009,12.062,13.069c3.042,5.064,4.565,10.668,4.565,16.819c0,3.652-0.624,7.401-1.873,11.246
						c-1.25,3.843-3.254,7.847-6.007,12.012c-2.692,4.037-5.622,7.033-8.795,8.987c-3.171,1.954-6.04,2.93-8.6,2.93
						c-1.923,0-3.494-0.558-4.709-1.679c-1.219-1.119-1.827-2.797-1.827-5.036c0-1.662,0.387-3.629,1.165-5.899
						c0.774-2.272,2.1-4.877,3.978-7.82c1.744-2.813,3.038-5.452,3.879-7.915c0.841-2.462,1.261-4.748,1.261-6.86
						c0-3.261-0.884-6.124-2.649-8.587c-1.767-2.462-4.209-4.524-7.324-6.188c-3.117-1.661-6.858-2.909-11.226-3.741
						c-4.37-0.832-9.157-1.248-14.359-1.248c-5.766,0-10.782,0.656-15.04,1.97c-4.263,1.311-7.819,3.009-10.668,5.09
						c-2.851,2.081-4.967,4.401-6.344,6.962C432.126,418.908,431.439,421.436,431.439,423.933z"/>
					<path style="fill:#FFFFFF;" d="M639.886,526.128c-1.475,2.073-3.446,4.503-5.911,7.289c-2.468,2.786-5.239,5.443-8.313,7.969
						c-3.077,2.528-6.377,4.665-9.9,6.415c-3.523,1.75-7.049,2.624-10.572,2.624c-4.255,0-7.805-1.348-10.647-4.043
						c-2.842-2.695-5.297-6.611-7.362-11.75c-1.552,1.775-3.456,3.583-5.716,5.422c-2.262,1.841-4.732,3.506-7.41,4.994
						c-2.682,1.49-5.474,2.711-8.381,3.662c-2.907,0.951-5.814,1.427-8.72,1.427c-3.075,0-6.07-0.63-8.985-1.891
						c-2.917-1.261-5.495-3.069-7.738-5.429c-2.243-2.359-4.035-5.235-5.381-8.629c-1.346-3.394-2.018-7.224-2.018-11.49
						c0-4.786,0.676-9.703,2.029-14.748c1.354-5.042,3.448-10.501,6.284-16.375c2.836-5.876,5.882-10.951,9.137-15.229
						c3.254-4.276,6.814-8.011,10.681-11.203c3.868-3.194,7.944-5.732,12.231-7.615c4.286-1.883,8.652-2.826,13.1-2.826
						c1.483,0,2.643,0.293,3.481,0.874c0.837,0.583,1.531,1.248,2.077,1.991c0.547,0.745,1.078,1.475,1.596,2.185
						c0.514,0.712,1.159,1.23,1.933,1.556c0.772,0.323,1.561,0.533,2.368,0.63c0.805,0.098,1.629,0.146,2.466,0.146
						c0.708,0,1.432-0.015,2.174-0.048c0.743-0.033,1.467-0.05,2.177-0.05c0.966,0,1.869,0.098,2.707,0.291
						c0.837,0.196,1.579,0.616,2.22,1.263c0.643,0.649,1.14,1.556,1.494,2.721c0.35,1.165,0.528,2.753,0.528,4.759
						c0,3.063-0.322,6.459-0.961,10.192c-0.641,3.733-1.375,7.559-2.201,11.477c-0.828,3.916-1.771,8.381-2.828,13.396
						c-1.057,5.015-1.587,9.239-1.587,12.674c0,2.936,0.273,5.233,0.818,6.887c0.543,1.656,1.714,2.484,3.508,2.484
						c1.346,0,2.753-0.335,4.228-1.001c1.473-0.666,2.963-1.538,4.469-2.618c1.506-1.08,3.011-2.303,4.517-3.67
						c1.505-1.365,2.932-2.778,4.278-4.239c3.138-3.431,6.309-7.305,9.515-11.623L639.886,526.128z M557.435,518.6
						c0,1.652,0.11,3.256,0.335,4.807c0.225,1.554,0.628,2.94,1.205,4.162c0.578,1.223,1.348,2.214,2.31,2.975
						c0.963,0.759,2.181,1.14,3.658,1.14c2.374,0,4.524-1.032,6.45-3.098c1.923-2.062,3.594-4.546,5.006-7.449
						c1.411-2.903,2.551-5.901,3.417-8.999c0.866-3.096,1.429-5.676,1.685-7.74l7.168-31.243c-2.628,0-5.189,0.651-7.688,1.952
						c-2.499,1.303-4.854,3.065-7.064,5.289c-2.21,2.222-4.245,4.763-6.103,7.62c-1.86,2.859-3.685,6.384-5.477,10.576
						c-1.794,4.193-3.061,7.876-3.797,11.051C557.803,512.82,557.435,515.804,557.435,518.6z"/>
					<path style="fill:#FFFFFF;" d="M653.546,549.943c-3.448,0-6.656-1.498-9.623-4.494c-2.969-2.996-5.556-7.016-7.757-12.06
						c-2.201-5.046-3.926-10.895-5.169-17.549c-1.246-6.652-1.867-13.637-1.867-20.953c0-6.288,0.924-14.68,2.772-25.179
						c1.846-10.497,2.771-15.745,2.771-15.745c0,0.002,1.4-5.241,4.199-15.726c2.799-10.487,5.604-18.897,8.421-25.231
						c2.815-6.332,5.872-12.251,9.172-17.751c3.3-5.502,6.762-10.298,10.387-14.388c3.623-4.087,7.409-7.301,11.357-9.638
						c3.947-2.337,7.959-3.504,12.037-3.504c2.967,0,5.416,0.566,7.347,1.698c1.931,1.132,3.45,2.628,4.555,4.484
						c1.103,1.86,1.881,3.964,2.33,6.315c0.447,2.353,0.672,4.748,0.672,7.185c0,6.059-0.716,12.227-2.149,18.508
						c-1.432,6.282-3.363,12.595-5.795,18.941c-2.432,6.346-5.246,12.709-8.444,19.087c-3.198,6.38-6.529,12.709-9.99,18.991
						c-3.466,6.282-6.947,12.468-10.443,18.556c-3.498,6.088-6.725,12.041-9.682,17.855c-0.322,0.645-0.659,1.486-1.013,2.52
						c-0.354,1.034-0.689,2.149-1.011,3.344c-0.322,1.194-0.643,2.47-0.965,3.827c-0.322,1.357-0.58,2.682-0.772,3.972v1.359
						c0,1.679,0.175,3.31,0.529,4.892c0.354,1.585,0.787,3.005,1.304,4.266c0.512,1.261,1.059,2.262,1.638,3.003
						c0.578,0.743,1.124,1.115,1.638,1.115c1.248,0,2.674-0.258,4.28-0.774c1.608-0.518,3.313-1.213,5.117-2.085
						c1.804-0.87,3.658-1.873,5.56-3.003c1.902-1.13,3.741-2.278,5.512-3.442c4.134-2.711,8.462-5.845,12.99-9.399l8.485,20.258
						c-5.872,3.899-11.677,7.37-17.416,10.416c-2.509,1.28-5.098,2.543-7.77,3.793c-2.672,1.25-5.36,2.36-8.067,3.337
						c-2.705,0.976-5.345,1.752-7.917,2.33C658.195,549.654,655.789,549.943,653.546,549.943z M653.636,473.76
						c2.892-5.169,5.961-10.984,9.207-17.445c3.246-6.459,6.317-13.115,9.209-19.965c2.892-6.848,5.4-13.681,7.52-20.499
						c2.12-6.816,3.471-13.163,4.051-19.045c0-1.873-0.048-3.473-0.137-4.798c-0.092-1.325-0.381-1.985-0.866-1.985
						c-1.762,0-3.658,1.217-5.691,3.65c-2.035,2.434-4.068,5.728-6.101,9.883c-2.035,4.153-4.465,10.909-7.287,20.267
						c-2.824,9.359-4.237,14.039-4.237,14.041c0,0.002-0.862,4.343-2.586,13.026C654.994,459.574,653.967,467.197,653.636,473.76z"
						/>
					<path style="fill:#FFFFFF;" d="M716.154,549.943c-5.982,0-11.217-1.109-15.704-3.327c-4.486-2.216-8.227-5.2-11.217-8.949
						c-2.992-3.751-5.235-8.086-6.731-13.011c-1.496-4.923-2.243-10.092-2.243-15.506c0-3.541,0.668-7.761,2.006-12.663
						c1.338-4.9,2.724-9.247,4.159-13.042c1.432-3.795,3.232-7.414,5.4-10.861c2.166-3.446,4.7-6.48,7.599-9.107
						c2.9-2.624,6.149-4.711,9.752-6.259c3.6-1.55,7.599-2.326,11.996-2.326c3.593,0,6.927,0.578,10.006,1.729
						s5.757,2.767,8.034,4.848c2.276,2.079,4.057,4.592,5.339,7.534c1.282,2.944,1.925,6.24,1.925,9.886
						c0,3.885-1.299,8.24-3.901,13.063c-2.601,4.823-5.635,8.958-9.103,12.405c-3.467,3.446-7.591,6.515-12.374,9.209
						c-4.784,2.693-9.969,4.794-15.554,6.296c0.963,1.692,1.912,3.104,2.845,4.232c0.93,1.126,1.879,2.004,2.846,2.63
						c0.965,0.626,1.977,1.065,3.038,1.315c1.059,0.252,2.203,0.375,3.425,0.375c3.845,0,7.896-0.751,12.156-2.254
						c4.261-1.504,8.41-3.383,12.447-5.639c4.035-2.255,7.848-4.713,11.436-7.376c3.587-2.663,6.631-5.185,9.13-7.566l12.399,12.593
						c-5.639,6.005-11.629,11.317-17.972,15.934c-2.755,1.981-5.718,3.93-8.889,5.843c-3.173,1.912-6.504,3.612-9.996,5.096
						c-3.492,1.482-7.112,2.67-10.86,3.562C723.801,549.498,720.001,549.943,716.154,549.943z M703.324,504.17
						c2.316,0,4.84-0.578,7.572-1.737c2.734-1.161,5.273-2.647,7.622-4.465c2.347-1.818,4.646-4.261,6.896-7.33
						c2.251-3.071,3.377-5.608,3.377-7.612c0-2.819-0.531-5.137-1.592-6.954c-1.061-1.817-2.362-2.726-3.906-2.726
						c-2.767,0-5.129,0.503-7.091,1.506c-1.962,1.003-3.6,2.303-4.919,3.899c-1.319,1.598-2.38,3.414-3.184,5.451
						c-0.805,2.037-1.737,4.559-2.797,7.564c-1.061,3.007-1.656,5.481-1.785,7.424C703.388,501.132,703.324,502.791,703.324,504.17z
						"/>
				</g>
			</g>
		</g>
		<g>
			<path style="fill:#FFFFFF;" d="M533.338,626.224h21.437c5.015,0,9.008,1.219,11.982,3.655c2.975,2.437,4.463,5.529,4.463,9.276
				c0,5.576-3.256,9.348-9.769,11.316c3.326,0.468,5.973,1.851,7.941,4.146c1.972,2.297,2.953,4.991,2.953,8.082
				c0,3.935-1.44,7.063-4.324,9.383c-2.88,2.32-6.898,3.479-12.052,3.479h-22.632V626.224z M545.357,635.361v10.682h7.871
				c1.734,0,3.13-0.444,4.181-1.336c1.055-0.888,1.583-2.213,1.583-3.971c0-1.757-0.528-3.093-1.583-4.005
				c-1.051-0.915-2.447-1.371-4.181-1.371H545.357z M545.357,666.424h9.066c1.641,0,2.999-0.491,4.079-1.475
				c1.076-0.984,1.616-2.342,1.616-4.077c0-1.732-0.516-3.115-1.547-4.146c-1.031-1.031-2.369-1.547-4.005-1.547h-9.209V666.424z"/>
			<path style="fill:#FFFFFF;" d="M610.581,626.083v9.137h-17.854v10.612h15.742v9.137h-15.742v11.455h17.854v9.137h-29.873v-49.479
				H610.581z"/>
			<path style="fill:#FFFFFF;" d="M637.635,635.009c-1.501,0-2.729,0.399-3.69,1.195c-0.961,0.798-1.44,1.945-1.44,3.445
				c0,1.499,0.446,2.704,1.334,3.618c0.892,0.914,2.05,1.616,3.481,2.109c1.428,0.491,3.023,0.961,4.778,1.405
				c1.759,0.446,3.502,0.984,5.237,1.616c1.73,0.634,3.314,1.418,4.746,2.355c1.428,0.939,2.585,2.262,3.477,3.972
				c0.888,1.71,1.334,3.76,1.334,6.149c0,4.171-1.698,7.742-5.093,10.718c-3.4,2.976-7.871,4.463-13.423,4.463
				c-5.556,0-10.027-1.336-13.427-4.007c-3.396-2.672-5.093-6.466-5.093-11.385h12.789c0.327,3.935,2.344,5.904,6.046,5.904
				c1.731,0,3.093-0.456,4.075-1.37c0.986-0.915,1.477-2.074,1.477-3.48c0-1.405-0.446-2.553-1.334-3.442
				c-0.892-0.89-2.054-1.594-3.481-2.109c-1.428-0.515-3.019-0.994-4.778-1.44c-1.755-0.446-3.502-0.996-5.236-1.652
				c-1.735-0.655-3.314-1.44-4.742-2.355c-1.432-0.914-2.59-2.225-3.481-3.935c-0.892-1.71-1.334-3.735-1.334-6.079
				c0-4.592,1.71-8.268,5.13-11.033c3.42-2.766,7.79-4.146,13.108-4.146c5.318,0,9.614,1.207,12.895,3.619
				c3.281,2.414,4.991,6.22,5.13,11.42h-13.071c-0.188-1.78-0.761-3.15-1.722-4.111C640.364,635.49,639.137,635.009,637.635,635.009
				z"/>
			<path style="fill:#FFFFFF;" d="M663.008,635.361v-9.137h38.934v9.137H688.45v40.201H676.43v-40.201H663.008z"/>
			<path style="fill:#FFFFFF;" d="M734.658,668.885c-4.897-4.778-7.343-10.823-7.343-18.133c0-7.309,2.446-13.341,7.343-18.097
				c4.897-4.756,10.895-7.133,17.993-7.133s13.075,2.377,17.923,7.133c4.848,4.756,7.274,10.788,7.274,18.097
				c0,7.31-2.438,13.355-7.31,18.133c-4.873,4.778-10.846,7.17-17.919,7.17C745.54,676.055,739.555,673.663,734.658,668.885z
				 M762.068,661.083c2.369-2.575,3.551-6.02,3.551-10.332c0-4.31-1.182-7.752-3.551-10.33c-2.365-2.577-5.527-3.866-9.487-3.866
				c-3.96,0-7.122,1.288-9.487,3.866c-2.369,2.578-3.551,6.02-3.551,10.33c0,4.312,1.182,7.756,3.551,10.332
				c2.364,2.577,5.527,3.866,9.487,3.866C756.541,664.95,759.703,663.661,762.068,661.083z"/>
			<path style="fill:#FFFFFF;" d="M785.575,675.562v-49.338h32.119v9.137h-20.099v10.612h15.043v9.137h-15.043v20.451H785.575z"/>
			<path style="fill:#FFFFFF;" d="M825.986,675.562v-49.338h32.119v9.137h-20.099v10.612h15.042v9.137h-15.042v20.451H825.986z"/>
			<path style="fill:#FFFFFF;" d="M896.27,626.083v9.137h-17.853v10.612h15.742v9.137h-15.742v11.455h17.853v9.137h-29.873v-49.479
				H896.27z"/>
			<path style="fill:#FFFFFF;" d="M918.62,656.375v19.187H906.6v-49.338h19.469c5.715,0,10.166,1.477,13.353,4.429
				c3.187,2.951,4.778,6.513,4.778,10.682c0,2.859-0.867,5.647-2.598,8.364c-1.735,2.719-4.57,4.64-8.505,5.762l12.089,20.101
				H931.13l-11.103-19.187H918.62z M918.62,635.361v11.876h7.449c1.829,0,3.269-0.538,4.324-1.616
				c1.051-1.078,1.579-2.495,1.579-4.252c0-1.757-0.54-3.197-1.616-4.322c-1.08-1.123-2.508-1.686-4.288-1.686H918.62z"/>
		</g>
	</g>
</g>
</svg>
