<?xml version="1.0" encoding="utf-8"?>
<!-- Generator: Adobe Illustrator 27.5.0, SVG Export Plug-In . SVG Version: 6.00 Build 0)  -->
<svg version="1.1" xmlns="http://www.w3.org/2000/svg" xmlns:xlink="http://www.w3.org/1999/xlink" x="0px" y="0px"
	 viewBox="0 0 500 500" style="enable-background:new 0 0 500 500;" xml:space="preserve">
<g id="Background_Simple">
	<g>
		<path style="fill:#C6FF00;" d="M432.186,216.506c-2.617-14.879-7.42-29.117-14.383-42.202
			c-12.222-22.972-34.364-57.926-61.68-71.518c-42.207-21-82.121-22-120.939,11s-68.846,127-83.212,143
			c-14.366,16-53.623,19-70.758,44s-17.482,84-17.482,84H438.04C438.04,384.785,449.331,313.982,432.186,216.506z"/>
		<path style="opacity:0.8;fill:#FFFFFF;" d="M432.186,216.506c-2.617-14.879-7.42-29.117-14.383-42.202
			c-12.222-22.972-34.364-57.926-61.68-71.518c-42.207-21-82.121-22-120.939,11s-68.846,127-83.212,143
			c-14.366,16-53.623,19-70.758,44s-17.482,84-17.482,84H438.04C438.04,384.785,449.331,313.982,432.186,216.506z"/>
	</g>
	<g>
		<path style="fill:#FFFFFF;" d="M387.224,180.597c-4.46-2.432-6.487-0.405-8.108-2.432c-1.622-2.027,4.46-7.298-7.703-12.568
			c0,0-0.811-11.352-17.433-11.757c-16.622-0.405-12.162,11.352-16.622,14.19c-4.46,2.838-5.676-1.622-10.135,1.216
			c-4.46,2.838-2.433,8.514-6.081,9.325c-3.649,0.811-8.514-3.649-12.973-0.811c-4.46,2.838-4.46,5.27-6.487,5.27
			c-2.027,0-6.081-1.622-8.514,0c-2.432,1.622-5.27,3.649-5.27,3.649h102.57C390.467,186.678,391.683,183.029,387.224,180.597z"/>
		<path style="opacity:0.5;fill:#FFFFFF;" d="M387.224,180.597c-4.46-2.432-6.487-0.405-8.108-2.432
			c-1.622-2.027,4.46-7.298-7.703-12.568c0,0-0.811-11.352-17.433-11.757c-16.622-0.405-12.162,11.352-16.622,14.19
			c-4.46,2.838-5.676-1.622-10.135,1.216c-4.46,2.838-2.433,8.514-6.081,9.325c-3.649,0.811-8.514-3.649-12.973-0.811
			c-4.46,2.838-4.46,5.27-6.487,5.27c-2.027,0-6.081-1.622-8.514,0c-2.432,1.622-5.27,3.649-5.27,3.649h102.57
			C390.467,186.678,391.683,183.029,387.224,180.597z"/>
	</g>
	<g>
		<path style="fill:#FFFFFF;" d="M298.804,125.689c-2.643-1.442-3.844-0.24-4.806-1.442c-0.961-1.201,2.643-4.325-4.565-7.449
			c0,0-0.48-6.728-10.332-6.968c-9.851-0.24-7.208,6.728-9.851,8.41c-2.643,1.682-3.364-0.961-6.007,0.721
			c-2.643,1.682-1.442,5.046-3.604,5.526c-2.163,0.481-5.046-2.162-7.689-0.481c-2.643,1.682-2.643,3.124-3.845,3.124
			c-1.201,0-3.604-0.961-5.046,0c-1.442,0.961-3.124,2.162-3.124,2.162h60.791C300.726,129.293,301.447,127.13,298.804,125.689z"/>
		<path style="opacity:0.5;fill:#FFFFFF;" d="M298.804,125.689c-2.643-1.442-3.844-0.24-4.806-1.442
			c-0.961-1.201,2.643-4.325-4.565-7.449c0,0-0.48-6.728-10.332-6.968c-9.851-0.24-7.208,6.728-9.851,8.41
			c-2.643,1.682-3.364-0.961-6.007,0.721c-2.643,1.682-1.442,5.046-3.604,5.526c-2.163,0.481-5.046-2.162-7.689-0.481
			c-2.643,1.682-2.643,3.124-3.845,3.124c-1.201,0-3.604-0.961-5.046,0c-1.442,0.961-3.124,2.162-3.124,2.162h60.791
			C300.726,129.293,301.447,127.13,298.804,125.689z"/>
	</g>
	<g>
		<path style="fill:#FFFFFF;" d="M268.791,222.191c-2.643-1.441-3.844-0.24-4.806-1.441c-0.961-1.202,2.643-4.325-4.565-7.449
			c0,0-0.48-6.728-10.332-6.968c-9.851-0.24-7.208,6.728-9.851,8.41c-2.643,1.682-3.364-0.961-6.007,0.721
			c-2.643,1.682-1.442,5.046-3.604,5.527c-2.163,0.48-5.046-2.163-7.689-0.481c-2.643,1.682-2.643,3.124-3.844,3.124
			c-1.201,0-3.604-0.961-5.046,0c-1.442,0.961-3.124,2.163-3.124,2.163h60.791C270.714,225.796,271.434,223.633,268.791,222.191z"/>
		<path style="opacity:0.5;fill:#FFFFFF;" d="M268.791,222.191c-2.643-1.441-3.844-0.24-4.806-1.441
			c-0.961-1.202,2.643-4.325-4.565-7.449c0,0-0.48-6.728-10.332-6.968c-9.851-0.24-7.208,6.728-9.851,8.41
			c-2.643,1.682-3.364-0.961-6.007,0.721c-2.643,1.682-1.442,5.046-3.604,5.527c-2.163,0.48-5.046-2.163-7.689-0.481
			c-2.643,1.682-2.643,3.124-3.844,3.124c-1.201,0-3.604-0.961-5.046,0c-1.442,0.961-3.124,2.163-3.124,2.163h60.791
			C270.714,225.796,271.434,223.633,268.791,222.191z"/>
	</g>
</g>
<g id="Clouds">
</g>
<g id="Trees">
	<g>
		<path style="fill:#C6FF00;" d="M357.195,384.053h51.535c-0.99-6.305-5.038-5.195-5.575-14.962
			c-0.27-4.919,4.282-11.006,3.888-17.469c-0.324-5.323-5.573-10.78-5.98-16.869c-0.368-5.495,4.112-11.593,3.677-17.516
			c-0.411-5.599-5.731-10.971-6.202-16.79c-0.46-5.677,3.927-11.838,3.411-17.575c-0.517-5.744-5.933-11.015-6.506-16.672
			c-0.59-5.816,3.654-12.078,3.005-17.646c-0.689-5.909-6.265-11.013-7.021-16.456c-0.842-6.061,3.107-12.537,2.183-17.77
			c-1.132-6.412-7.1-11.051-8.355-15.78c-2.34-8.814-2.048-17.308-4.81-17.861c-2.95-0.59-3.622,7.736-5.857,17.044
			c-1.123,4.675-6.959,9.413-7.918,15.828c-0.777,5.195,3.349,11.512,2.673,17.549c-0.605,5.405-6.039,10.603-6.568,16.479
			c-0.498,5.527,3.913,11.623,3.48,17.402c-0.422,5.617-5.695,10.975-6.06,16.68c-0.364,5.692,4.184,11.683,3.873,17.317
			c-0.318,5.773-5.495,11.226-5.76,16.782c-0.281,5.875,4.355,11.802,4.13,17.254c-0.25,6.039-5.356,11.574-5.544,16.853
			c-0.228,6.409,4.478,12.325,4.333,17.204c-0.315,10.592-5.164,8.398-5.338,16.922L357.195,384.053z"/>
		<line style="fill:none;stroke:#263238;stroke-miterlimit:10;" x1="379.318" y1="197.626" x2="379.318" y2="381.674"/>
		<polyline style="fill:none;stroke:#263238;stroke-miterlimit:10;" points="387.365,216.92 378.975,224.166 372.111,215.013 		"/>
		<polyline style="fill:none;stroke:#263238;stroke-miterlimit:10;" points="387.365,248.955 378.975,256.201 372.111,247.048 		"/>
		<polyline style="fill:none;stroke:#263238;stroke-miterlimit:10;" points="387.365,279.084 378.975,286.33 372.111,277.177 		"/>
		<polyline style="fill:none;stroke:#263238;stroke-miterlimit:10;" points="387.365,314.932 378.975,322.179 372.111,313.026 		"/>
		<polyline style="fill:none;stroke:#263238;stroke-miterlimit:10;" points="387.365,351.163 378.975,358.409 372.111,349.256 		"/>
	</g>
	<g>
		<path style="fill:#C6FF00;" d="M302.98,384.053h44.689c-0.858-5.467-4.369-4.505-4.834-12.975
			c-0.235-4.265,3.713-9.544,3.372-15.148c-0.281-4.616-4.833-9.348-5.186-14.628c-0.319-4.765,3.565-10.053,3.188-15.189
			c-0.357-4.855-4.969-9.513-5.378-14.559c-0.399-4.923,3.405-10.265,2.958-15.24c-0.448-4.981-5.145-9.551-5.642-14.457
			c-0.511-5.044,3.169-10.474,2.606-15.302c-0.598-5.124-5.432-9.55-6.088-14.27c-0.73-5.256,2.694-10.871,1.893-15.41
			c-0.982-5.561-6.157-9.583-7.245-13.684c-2.029-7.643-1.776-15.009-4.171-15.488c-2.558-0.512-3.141,6.709-5.079,14.78
			c-0.974,4.054-6.035,8.162-6.866,13.726c-0.674,4.505,2.904,9.983,2.318,15.218c-0.525,4.687-5.237,9.194-5.696,14.29
			c-0.431,4.793,3.394,10.079,3.017,15.09c-0.366,4.87-4.938,9.517-5.255,14.464c-0.316,4.936,3.628,10.131,3.359,15.016
			c-0.276,5.006-4.765,9.734-4.995,14.553c-0.243,5.094,3.777,10.234,3.581,14.962c-0.217,5.237-4.645,10.036-4.807,14.615
			c-0.197,5.558,3.883,10.688,3.758,14.918c-0.273,9.185-4.478,7.283-4.629,14.674L302.98,384.053z"/>
		<line style="fill:none;stroke:#263238;stroke-miterlimit:10;" x1="322.164" y1="222.393" x2="322.164" y2="381.99"/>
		<polyline style="fill:none;stroke:#263238;stroke-miterlimit:10;" points="329.142,239.124 321.866,245.407 315.914,237.47 		"/>
		<polyline style="fill:none;stroke:#263238;stroke-miterlimit:10;" points="329.142,266.903 321.866,273.186 315.914,265.249 		"/>
		<polyline style="fill:none;stroke:#263238;stroke-miterlimit:10;" points="329.142,293.029 321.866,299.312 315.914,291.375 		"/>
		<polyline style="fill:none;stroke:#263238;stroke-miterlimit:10;" points="329.142,324.115 321.866,330.399 315.914,322.462 		"/>
		<polyline style="fill:none;stroke:#263238;stroke-miterlimit:10;" points="329.142,355.532 321.866,361.816 315.914,353.879 		"/>
	</g>
	<g>
		<path style="fill:#C6FF00;" d="M145.68,384.053h62.159c-1.194-7.605-6.077-6.267-6.724-18.047
			c-0.326-5.933,5.164-13.275,4.69-21.07c-0.391-6.42-6.722-13.002-7.213-20.346c-0.443-6.628,4.959-13.983,4.435-21.126
			c-0.496-6.753-6.912-13.232-7.48-20.251c-0.554-6.847,4.736-14.278,4.114-21.198c-0.624-6.928-7.156-13.285-7.848-20.109
			c-0.711-7.015,4.408-14.568,3.624-21.283c-0.831-7.127-7.556-13.283-8.468-19.848c-1.015-7.311,3.748-15.121,2.633-21.434
			c-1.366-7.734-8.564-13.329-10.078-19.033c-2.822-10.63-2.47-20.876-5.801-21.543c-3.558-0.712-4.368,9.331-7.065,20.558
			c-1.354,5.638-8.394,11.353-9.551,19.091c-0.937,6.266,4.039,13.885,3.224,21.167c-0.73,6.52-7.284,12.788-7.922,19.876
			c-0.6,6.667,4.72,14.019,4.197,20.989c-0.509,6.774-6.869,13.237-7.309,20.118c-0.439,6.866,5.046,14.091,4.672,20.887
			c-0.384,6.963-6.628,13.54-6.948,20.242c-0.338,7.086,5.253,14.235,4.981,20.811c-0.301,7.284-6.46,13.96-6.687,20.328
			c-0.275,7.73,5.402,14.866,5.227,20.75c-0.38,12.776-6.229,10.129-6.439,20.41L145.68,384.053z"/>
		<line style="fill:none;stroke:#263238;stroke-miterlimit:10;" x1="172.364" y1="159.195" x2="172.364" y2="381.184"/>
		<polyline style="fill:none;stroke:#263238;stroke-miterlimit:10;" points="182.07,182.466 171.95,191.206 163.67,180.166 		"/>
		<polyline style="fill:none;stroke:#263238;stroke-miterlimit:10;" points="182.07,221.105 171.95,229.845 163.67,218.805 		"/>
		<polyline style="fill:none;stroke:#263238;stroke-miterlimit:10;" points="182.07,257.444 171.95,266.184 163.67,255.144 		"/>
		<polyline style="fill:none;stroke:#263238;stroke-miterlimit:10;" points="182.07,300.683 171.95,309.423 163.67,298.383 		"/>
		<polyline style="fill:none;stroke:#263238;stroke-miterlimit:10;" points="182.07,344.383 171.95,353.122 163.67,342.083 		"/>
	</g>
</g>
<g id="Charging_Station">
	<g>
		<path style="fill:none;stroke:#263238;stroke-width:2;stroke-linecap:round;stroke-linejoin:round;stroke-miterlimit:10;" d="
			M132.01,315.364v54.167c0,5.431,4.403,9.833,9.833,9.833h112.333c5.431,0,9.833-4.403,9.833-9.833v-6.167"/>
		
			<rect x="127.18" y="304.784" style="fill:#263238;stroke:#263238;stroke-linecap:round;stroke-linejoin:round;stroke-miterlimit:10;" width="8.367" height="6.165"/>
		<g>
			<defs>
				<rect id="XMLID_5_" x="87.047" y="275.203" width="41.184" height="111.837"/>
			</defs>
			<use xlink:href="#XMLID_5_"  style="overflow:visible;fill:#FFFFFF;"/>
			<clipPath id="XMLID_00000071545077525040833960000012142114402413879713_">
				<use xlink:href="#XMLID_5_"  style="overflow:visible;"/>
			</clipPath>
			<polygon style="clip-path:url(#XMLID_00000071545077525040833960000012142114402413879713_);fill:#C6FF00;" points="
				87.047,387.039 105.42,387.039 105.42,290.005 105.307,275.202 87.047,275.202 			"/>
			<polygon style="opacity:0.5;clip-path:url(#XMLID_00000071545077525040833960000012142114402413879713_);fill:#FFFFFF;" points="
				87.047,387.039 105.42,387.039 105.42,290.005 105.307,275.202 87.047,275.202 			"/>
			<polygon style="clip-path:url(#XMLID_00000071545077525040833960000012142114402413879713_);fill:#263238;" points="
				113.445,328.25 110.55,328.25 112.683,322.46 105.735,322.46 102.748,330.566 104.837,330.566 101.21,340.41 			"/>
			<use xlink:href="#XMLID_5_"  style="overflow:visible;fill:none;stroke:#263238;stroke-miterlimit:10;"/>
		</g>
		
			<ellipse style="fill:#FFFFFF;stroke:#263238;stroke-linecap:round;stroke-linejoin:round;stroke-miterlimit:10;" cx="107.639" cy="276.794" rx="20.592" ry="31.471"/>
		<path style="fill:#C6FF00;stroke:#263238;stroke-linecap:round;stroke-linejoin:round;stroke-miterlimit:10;" d="M112.455,277.041
			h-9.633c-0.867,0-1.569-0.703-1.569-1.569v-6.99c0-0.867,0.702-1.569,1.569-1.569h9.633c0.867,0,1.569,0.702,1.569,1.569v6.99
			C114.024,276.338,113.321,277.041,112.455,277.041z"/>
		<g>
			<path style="fill:#263238;stroke:#263238;stroke-linecap:round;stroke-linejoin:round;stroke-miterlimit:10;" d="
				M114.684,295.536c0-3.891-3.155-7.046-7.046-7.046c-3.891,0-7.046,3.155-7.046,7.046s3.155,7.046,7.046,7.046
				C111.53,302.582,114.684,299.428,114.684,295.536z"/>
			<path style="opacity:0.2;fill:#FFFFFF;" d="M111.161,295.536c0-1.946-1.577-3.523-3.523-3.523c-1.946,0-3.523,1.577-3.523,3.523
				s1.577,3.523,3.523,3.523C109.584,299.06,111.161,297.482,111.161,295.536z"/>
		</g>
		<g>
			<path style="fill:#263238;stroke:#263238;stroke-linecap:round;stroke-linejoin:round;stroke-miterlimit:10;" d="M109.84,255.462
				c0-1.216-0.986-2.202-2.202-2.202c-1.216,0-2.202,0.986-2.202,2.202c0,1.216,0.986,2.202,2.202,2.202
				C108.855,257.664,109.84,256.678,109.84,255.462z"/>
		</g>
	</g>
	
		<rect x="130.238" y="310.379" style="fill:#263238;stroke:#263238;stroke-linecap:round;stroke-linejoin:round;stroke-miterlimit:10;" width="3.649" height="6.165"/>
	
		<rect x="87.047" y="366.437" style="fill:#C6FF00;stroke:#263238;stroke-linecap:round;stroke-linejoin:round;stroke-miterlimit:10;" width="41.184" height="20.603"/>
	
		<rect x="60.719" y="380.088" style="fill:#FFFFFF;stroke:#263238;stroke-linecap:round;stroke-linejoin:round;stroke-miterlimit:10;" width="385.732" height="7.486"/>
	
		<rect x="60.719" y="385.813" style="fill:#263238;stroke:#263238;stroke-linecap:round;stroke-linejoin:round;stroke-miterlimit:10;" width="385.732" height="3.523"/>
</g>
<g id="Car">
	<g>
		<path style="fill:#263238;stroke:#263238;stroke-linecap:round;stroke-linejoin:round;stroke-miterlimit:10;" d="M203.385,301.932
			h-0.539c-2.315,0-3.938-2.26-3.227-4.464c0.677-2.099,1.832-4.214,3.766-4.536c4-0.667,15,2.667,15,5c0,2.333,0,3.333-1.333,3.333
			c-1.333,0-8.333,0-8.333,0l-6.667,7.333l-0.142-0.116c-1.487-1.217-1.447-3.438-0.009-4.712
			C202.448,303.286,202.969,302.682,203.385,301.932z"/>
		<path style="fill:#263238;stroke:#263238;stroke-linecap:round;stroke-linejoin:round;stroke-miterlimit:10;" d="M278.719,363.932
			h110.667c0,0,16-10.667,12.667-38.667c-3.333-28-21.333-9.333-28,9.333h-49.333c0,0-10.667-21.333-28-18.667
			C279.385,318.598,278.719,363.932,278.719,363.932z"/>
		<path style="fill:#263238;stroke:#263238;stroke-linecap:round;stroke-linejoin:round;stroke-miterlimit:10;" d="M305.913,358.385
			c0-8.222-2.356-15.629-6.124-20.855v-7.799h-13.343c-10.751,0-19.467,12.829-19.467,28.654c0,15.825,8.716,28.654,19.467,28.654
			h13.343v-7.799C303.556,374.014,305.913,366.607,305.913,358.385z"/>
		<g>
			<defs>
				<ellipse id="XMLID_2_" cx="299.788" cy="358.385" rx="19.467" ry="28.654"/>
			</defs>
			<use xlink:href="#XMLID_2_"  style="overflow:visible;fill:#263238;"/>
			<clipPath id="XMLID_00000072241521087608160380000007608858365567361171_">
				<use xlink:href="#XMLID_2_"  style="overflow:visible;"/>
			</clipPath>
			
				<ellipse style="opacity:0.2;clip-path:url(#XMLID_00000072241521087608160380000007608858365567361171_);fill:#FFFFFF;" cx="299.788" cy="358.385" rx="19.467" ry="28.654"/>
			
				<use xlink:href="#XMLID_2_"  style="overflow:visible;fill:none;stroke:#263238;stroke-linecap:round;stroke-linejoin:round;stroke-miterlimit:10;"/>
		</g>
		<path style="fill:#263238;stroke:#263238;stroke-linecap:round;stroke-linejoin:round;stroke-miterlimit:10;" d="M185.653,329.731
			h-12.61c-10.161,0-18.398,12.829-18.398,28.654c0,15.825,8.237,28.654,18.398,28.654h12.61c10.161,0,18.398-12.829,18.398-28.654
			C204.052,342.56,195.815,329.731,185.653,329.731z"/>
		
			<ellipse style="fill:#FFFFFF;stroke:#263238;stroke-linecap:round;stroke-linejoin:round;stroke-miterlimit:10;" cx="299.788" cy="358.385" rx="15.53" ry="22.859"/>
		<path style="fill:#263238;stroke:#263238;stroke-linecap:round;stroke-linejoin:round;stroke-miterlimit:10;" d="M397.075,358.385
			c0-8.222-1.5-15.629-3.898-20.855v-7.799h-11.78c-6.842,0-12.389,12.829-12.389,28.654c0,15.825,5.547,28.654,12.389,28.654h11.78
			v-7.799C395.576,374.014,397.075,366.607,397.075,358.385z"/>
		<g>
			<defs>
				<ellipse id="XMLID_1_" cx="393.177" cy="358.385" rx="12.389" ry="28.654"/>
			</defs>
			<use xlink:href="#XMLID_1_"  style="overflow:visible;fill:#263238;"/>
			<clipPath id="XMLID_00000049924510311733607900000010192846609104774054_">
				<use xlink:href="#XMLID_1_"  style="overflow:visible;"/>
			</clipPath>
			
				<ellipse style="opacity:0.2;clip-path:url(#XMLID_00000049924510311733607900000010192846609104774054_);fill:#FFFFFF;" cx="393.177" cy="358.385" rx="12.389" ry="28.654"/>
			
				<use xlink:href="#XMLID_1_"  style="overflow:visible;fill:none;stroke:#263238;stroke-linecap:round;stroke-linejoin:round;stroke-miterlimit:10;"/>
		</g>
		
			<ellipse style="fill:#FFFFFF;stroke:#263238;stroke-linecap:round;stroke-linejoin:round;stroke-miterlimit:10;" cx="393.177" cy="358.385" rx="9.884" ry="22.859"/>
		<g>
			<defs>
				<path id="XMLID_4_" d="M283.383,365.385c0-22.832,7.932-41.34,17.717-41.34c9.785,0,17.717,18.509,17.717,41.34
					c0,1.254-0.028,2.493-0.075,3.718h63.124c-0.034-1.226-0.055-2.464-0.055-3.718c0-22.832,5.778-41.34,12.905-41.34
					c4.762,0,8.919,8.269,11.155,20.564v-33.717c0-3.174-2.258-5.887-5.378-6.472c-0.101-0.019-0.204-0.039-0.309-0.06
					c-4.375-0.875-12.249-9.187-24.498-19.686c-12.249-10.499-23.186-11.374-23.186-11.374H325.38h-83.397
					c-2.088,0-4.117,0.692-5.77,1.968l-37.697,29.092c0,0-33.685,6.562-41.122,13.999c-7.437,7.437-6.562,50.746-6.562,50.746
					h132.627C283.411,367.877,283.383,366.639,283.383,365.385z"/>
			</defs>
			<use xlink:href="#XMLID_4_"  style="overflow:visible;fill:#C6FF00;"/>
			<clipPath id="XMLID_00000042727358887896737590000014971756586873064595_">
				<use xlink:href="#XMLID_4_"  style="overflow:visible;"/>
			</clipPath>
			<path style="opacity:0.3;clip-path:url(#XMLID_00000042727358887896737590000014971756586873064595_);" d="M305.256,304.358
				l5.852-31.06h-69.126c-2.088,0-4.117,0.692-5.77,1.968l-37.697,29.092c0,0-33.685,6.562-41.122,13.999
				c-7.437,7.437-6.562,50.746-6.562,50.746h118.342c0.853-23.383,6.212-34.505,6.212-34.505h-32.667
				C268.052,307.265,305.256,304.358,305.256,304.358z"/>
			
				<use xlink:href="#XMLID_4_"  style="overflow:visible;fill:none;stroke:#263238;stroke-linecap:round;stroke-linejoin:round;stroke-miterlimit:10;"/>
		</g>
		<path style="fill:#C6FF00;stroke:#263238;stroke-linecap:round;stroke-linejoin:round;stroke-miterlimit:10;" d="M325.38,273.298
			h-83.397c-2.088,0-4.117,0.692-5.77,1.968l-37.697,29.092h106.741L325.38,273.298z"/>
		<g>
			<path style="fill:#263238;stroke:#263238;stroke-linecap:round;stroke-linejoin:round;stroke-miterlimit:10;" d="
				M281.698,316.061c-6.004,0.074-16.509,0.474-21.063,2.296c-6.562,2.625-10.937,5.25-10.937,5.25h21.436L281.698,316.061z"/>
			<path style="fill:#263238;stroke:#263238;stroke-linecap:round;stroke-linejoin:round;stroke-miterlimit:10;" d="
				M272.447,330.169v-3.937h-22.748l4.12,3.803c-0.07,0.042-0.134,0.086-0.183,0.134H272.447z"/>
			<path style="fill:#263238;stroke:#263238;stroke-linecap:round;stroke-linejoin:round;stroke-miterlimit:10;" d="
				M274.634,324.482v5.722c1.417-0.173,3.206-0.789,4.375-2.659c2.187-3.5,7.112-11.486,7.112-11.486L274.634,324.482z"/>
		</g>
		<g>
			<path style="fill:#263238;stroke:#263238;stroke-linecap:round;stroke-linejoin:round;stroke-miterlimit:10;" d="M159.51,330.035
				l4.12-3.803h-9.71c-0.303,1.23-0.578,2.549-0.825,3.937h6.598C159.645,330.121,159.581,330.077,159.51,330.035z"/>
			<path style="fill:#263238;stroke:#263238;stroke-linecap:round;stroke-linejoin:round;stroke-miterlimit:10;" d="M156.26,319.871
				c-0.596,1.006-1.127,2.269-1.601,3.736h8.972C163.63,323.607,160.791,321.905,156.26,319.871z"/>
		</g>
		<g>
			<defs>
				<path id="XMLID_3_" d="M305.256,304.358h64.745c0,0,9.187-3.062,6.562-14.436c-0.891-3.86-19.248-12.686-21.873-12.686
					c-2.625,0-31.497,0-31.497,0L305.256,304.358z"/>
			</defs>
			<use xlink:href="#XMLID_3_"  style="overflow:visible;fill:#263238;"/>
			<clipPath id="XMLID_00000043422499179082023090000011657690898692872594_">
				<use xlink:href="#XMLID_3_"  style="overflow:visible;"/>
			</clipPath>
			
				<path style="opacity:0.2;clip-path:url(#XMLID_00000043422499179082023090000011657690898692872594_);fill:#FFFFFF;stroke:#263238;stroke-linecap:round;stroke-linejoin:round;stroke-miterlimit:10;" d="
				M305.256,304.358h64.745c0,0,9.187-3.062,6.562-14.436c-0.891-3.86-19.248-12.686-21.873-12.686c-2.625,0-31.497,0-31.497,0
				L305.256,304.358z"/>
			
				<use xlink:href="#XMLID_3_"  style="overflow:visible;fill:none;stroke:#263238;stroke-linecap:round;stroke-linejoin:round;stroke-miterlimit:10;"/>
		</g>
		<polygon style="fill:#263238;stroke:#263238;stroke-linecap:round;stroke-linejoin:round;stroke-miterlimit:10;" points="
			233.66,277.236 198.515,304.358 305.256,304.358 322.829,277.236 		"/>
		<polygon style="fill:#263238;stroke:#263238;stroke-linecap:round;stroke-linejoin:round;stroke-miterlimit:10;" points="
			165.268,324.482 165.268,333.669 171.83,338.481 224.763,338.481 237.012,333.231 237.012,324.482 		"/>
		<g>
			<rect x="165.268" y="324.482" style="opacity:0.3;fill:#FFFFFF;" width="2.446" height="2.446"/>
			<rect x="167.972" y="327.186" style="opacity:0.3;fill:#FFFFFF;" width="2.446" height="2.446"/>
			<rect x="170.677" y="329.891" style="opacity:0.3;fill:#FFFFFF;" width="2.446" height="2.446"/>
			<rect x="173.382" y="332.596" style="opacity:0.3;fill:#FFFFFF;" width="2.446" height="2.446"/>
			<rect x="234.079" y="324.482" style="opacity:0.3;fill:#FFFFFF;" width="2.446" height="2.446"/>
			<rect x="231.375" y="327.186" style="opacity:0.3;fill:#FFFFFF;" width="2.446" height="2.446"/>
			<rect x="228.67" y="329.891" style="opacity:0.3;fill:#FFFFFF;" width="2.446" height="2.446"/>
			<rect x="225.965" y="332.596" style="opacity:0.3;fill:#FFFFFF;" width="2.446" height="2.446"/>
			<rect x="177.138" y="332.596" style="opacity:0.3;fill:#FFFFFF;" width="2.446" height="2.446"/>
			<rect x="180.894" y="332.596" style="opacity:0.3;fill:#FFFFFF;" width="2.446" height="2.446"/>
			<rect x="184.649" y="332.596" style="opacity:0.3;fill:#FFFFFF;" width="2.446" height="2.446"/>
			<rect x="188.406" y="332.596" style="opacity:0.3;fill:#FFFFFF;" width="2.446" height="2.446"/>
			<rect x="192.162" y="332.596" style="opacity:0.3;fill:#FFFFFF;" width="2.446" height="2.446"/>
			<rect x="195.917" y="332.596" style="opacity:0.3;fill:#FFFFFF;" width="2.446" height="2.446"/>
			<rect x="199.673" y="332.596" style="opacity:0.3;fill:#FFFFFF;" width="2.446" height="2.446"/>
			<rect x="203.429" y="332.596" style="opacity:0.3;fill:#FFFFFF;" width="2.446" height="2.446"/>
			<rect x="207.186" y="332.596" style="opacity:0.3;fill:#FFFFFF;" width="2.446" height="2.446"/>
			<rect x="210.941" y="332.596" style="opacity:0.3;fill:#FFFFFF;" width="2.446" height="2.446"/>
			<rect x="214.697" y="332.596" style="opacity:0.3;fill:#FFFFFF;" width="2.446" height="2.446"/>
			<rect x="218.453" y="332.596" style="opacity:0.3;fill:#FFFFFF;" width="2.446" height="2.446"/>
			<rect x="222.209" y="332.596" style="opacity:0.3;fill:#FFFFFF;" width="2.446" height="2.446"/>
		</g>
		<path style="fill:#263238;stroke:#263238;stroke-linecap:round;stroke-linejoin:round;stroke-miterlimit:10;" d="M262.385,349.855
			H153.456l-1.459-11.673c-0.668,6.414-0.973,13.252-1.105,18.864l0.376,1.559l2.187-4.375h9.343l-5.843,4.812h86.618l-3.093-4.812
			h21.904l6.125,3.5h4.375v-22.311L262.385,349.855z"/>
		<path style="fill:#AAFF00;" d="M328.052,301.932h-0.539c-2.315,0-3.938-2.26-3.228-4.464c0.677-2.099,1.832-4.214,3.766-4.536
			c4-0.667,15,2.667,15,5c0,2.333,0,3.333-1.333,3.333c-1.333,0-8.333,0-8.333,0l-6.667,7.333l-0.142-0.116
			c-1.487-1.217-1.448-3.438-0.009-4.712C327.114,303.286,327.635,302.682,328.052,301.932z"/>
		<path style="fill:#263238;stroke:#263238;stroke-linecap:round;stroke-linejoin:round;stroke-miterlimit:10;" d="M347.935,304.358
			h3.651c-0.387-5.364-1.917-17.188-7.927-27.123c-1.193,0-2.424,0-3.663,0C342.111,281.808,347.113,293.597,347.935,304.358z"/>
		<path style="fill:#FFFFFF;stroke:#263238;stroke-linecap:round;stroke-linejoin:round;stroke-miterlimit:10;" d="M269.052,284.598
			l1.333,3.667c0,0-2.667,2.333-2.667,6c0,2.658,0,7.579,0,10.094h-8.207l6.873-19.76H269.052z M230.719,289.598
			c-5.631,3.427-14.132,10.985-18.254,14.76h27.41l14.177-21.76l-9.333,0.667C244.719,283.265,238.385,284.931,230.719,289.598z
			 M287.385,286.931l-3.333-0.667h-4.667l-1.333,1.333c0,0,3.333,0.333,3.667,2.333c0.333,2,0.333,6,0.333,6h2.333
			c0,0,0-3.667,1.667-5.333c1.667-1.667,3-2.667,3-2.667L287.385,286.931z"/>
		<path style="fill:#263238;stroke:#263238;stroke-linecap:round;stroke-linejoin:round;stroke-miterlimit:10;" d="M326.577,308.482
			l0.142,0.116l6.667-7.333c0,0,7,0,8.333,0c1.102,0,1.29-0.697,1.324-2.251h-18.881c0.232,1.602,1.587,2.918,3.353,2.918h0.539
			c-0.417,0.75-0.938,1.354-1.484,1.839C325.129,305.044,325.089,307.265,326.577,308.482z"/>
		<rect x="339.65" y="312.413" style="fill:#263238;" width="7.503" height="1.608"/>
		<rect x="373.415" y="312.413" style="fill:#263238;" width="7.503" height="1.608"/>
		<path style="fill:none;stroke:#263238;stroke-linecap:round;stroke-linejoin:round;stroke-miterlimit:10;" d="M381.455,305.981
			c0,0,5.428,3.684,8.575,16.615c0,0-13.399,1.608-13.399,38.589"/>
		<g>
			<path style="fill:#263238;stroke:#263238;stroke-linecap:round;stroke-linejoin:round;stroke-miterlimit:10;" d="
				M375.023,362.793h-54.132h-2.112c0.023,0.858,0.038,1.72,0.038,2.592c0,1.254-0.028,2.493-0.075,3.718h63.124
				c-0.034-1.226-0.055-2.464-0.055-3.718c0-0.086,0.002-0.171,0.002-0.257L375.023,362.793z"/>
			<path style="fill:#263238;stroke:#263238;stroke-linecap:round;stroke-linejoin:round;stroke-miterlimit:10;" d="
				M283.383,365.385c0-0.871,0.016-1.734,0.038-2.592H150.807c-0.025,3.847,0.025,6.31,0.025,6.31h132.627
				C283.411,367.877,283.383,366.639,283.383,365.385z"/>
		</g>
		<path style="fill:#263238;stroke:#263238;stroke-linecap:round;stroke-linejoin:round;stroke-miterlimit:10;" d="M403.521,309.197
			c-2.123,0-3.844,1.721-3.844,3.844c0,0.643,0.161,1.276,0.469,1.84l5.726,10.498v-14.488c0-0.586-0.1-1.147-0.245-1.691
			l-0.055-0.003H403.521z"/>
		<path style="fill:none;stroke:#263238;stroke-linecap:round;stroke-linejoin:round;stroke-miterlimit:10;" d="M352.052,309.932
			c0,0,12,17.333,0,46.667"/>
	</g>
</g>
</svg>
